<?xml version="1.0" encoding="UTF-8"?>
<svg id="Layer_1" xmlns="http://www.w3.org/2000/svg" viewBox="0 0 1080 1080">
  <defs>
    <style>
      .cls-1 {
        fill: #213b91;
      }

      .cls-2 {
        fill: #213b92;
      }

      .cls-3 {
        fill: #01268b;
      }

      .cls-4 {
        fill: #00258b;
      }

      .cls-5 {
        fill: #00268b;
      }

      .cls-6 {
        fill: #0f3290;
      }

      .cls-7 {
        fill: #042b8d;
      }

      .cls-8 {
        fill: #0c2f8d;
      }

      .cls-9 {
        fill: #022a8c;
      }

      .cls-10 {
        fill: #01258c;
      }

      .cls-11 {
        fill: #13328f;
      }

      .cls-12 {
        fill: #01298d;
      }

      .cls-13 {
        fill: #05298b;
      }

      .cls-14 {
        fill: #03288c;
      }

      .cls-15 {
        fill: #00248b;
      }

      .cls-16 {
        fill: #01288c;
      }

      .cls-17 {
        fill: #02278c;
      }

      .cls-18 {
        fill: #02288c;
      }

      .cls-19 {
        fill: #02278b;
      }

      .cls-20 {
        fill: #01278b;
      }

      .cls-21 {
        fill: #002c8d;
      }

      .cls-22 {
        fill: #072d8d;
      }

      .cls-23 {
        fill: #17348f;
      }

      .cls-24 {
        fill: #fefefe;
      }

      .cls-25 {
        fill: #16348f;
      }

      .cls-26 {
        fill: #0a2f8d;
      }

      .cls-27 {
        fill: #032b8e;
      }

      .cls-28 {
        fill: #01268c;
      }

      .cls-29 {
        fill: #00278b;
      }

      .cls-30 {
        fill: #fdfefe;
      }

      .cls-31 {
        fill: #03298c;
      }

      .cls-32 {
        fill: #01278c;
      }
    </style>
  </defs>
  <path class="cls-1" d="M1015.34,637.68c-32.84,213.88-214.14,386.03-427.8,407.96-34.47-3.49-68.93-4.21-103.38.3-11.67,1.15-23.26,1.76-33.67-5.22-2.2,3.73.6-6.53,2.01-2.44s6.52.45,2.53-.54c-7.5-1.87-15.32-1.85-22.73,1.32-194.72-35.95-360.85-202.64-388.81-407.93,2.38-10.89,5.03-21.79-1.81-32.16-1.96-1.79-2.14-3.74-.54-5.85,1.52-21.99,2-43.98-.34-65.95-1.49-2.11-1.24-3.98.74-5.63,6.93-10.47,4.58-21.41,1.68-32.39,15.25-104.05,58.34-193.32,133.42-268.78,54.08-54.36,113.29-98.48,186.16-122.59,29.03-9.6,59.33-15.38,89.04-22.9,10.37,2.13,20.84,5.66,30.46-2.27,8.7-5.7,18.35-4.93,28-4.12,12.76,3.32,25.52,3.32,38.28,0,9.57-.55,19.3-2.07,27.86,4.14,9.73,7.81,20.21,4.66,30.65,2.07,52.5,11.89,103.61,24.1,151.94,52.24,52.72,30.69,95.89,68.33,137.9,111.95,44.65,46.37,75.3,98.27,97.45,156.68,10.6,27.96,19.02,56.9,21.33,87.11-2.03,8.34-6.36,16.83,1.67,24.49,6.5,10.64,5.52,22.3,4.62,33.95-3.42,10.61-3.62,21.21.13,31.79.64,11.71,2.25,23.54-4.39,34.32-8.02,9.58-4.23,20.1-2.41,30.46Z"/>
  <path class="cls-23" d="M40.8,527.16c12.5,21.92,12.05,43.91.34,65.95-6.54-21.95-6.96-43.93-.34-65.95Z"/>
  <path class="cls-9" d="M484.15,1045.94c34.43-9.25,68.9-8.84,103.38-.3-34.45,3.53-68.91,4.72-103.38.3Z"/>
  <path class="cls-22" d="M548.59,68.47c-12.76,8.06-25.52,8.01-38.28,0,12.76,0,25.52,0,38.28,0Z"/>
  <path class="cls-3" d="M482.3,72.59c-9.01,16.09-19.92,6.72-30.46,2.27,10.15-.76,20.31-1.51,30.46-2.27Z"/>
  <path class="cls-10" d="M607.1,74.68c-10.59,4.9-21.46,13.71-30.65-2.07,10.22.69,20.43,1.38,30.65,2.07Z"/>
  <path class="cls-12" d="M1015.34,637.68c-4.23-10.55-13.67-21.51,2.41-30.46-.8,10.15-1.61,20.31-2.41,30.46Z"/>
  <path class="cls-29" d="M43.22,489.13c8.03,11.24,8.96,22.12-1.68,32.39.56-10.8,1.12-21.59,1.68-32.39Z"/>
  <path class="cls-32" d="M41.67,598.96c10.53,10.17,9.42,20.98,1.81,32.16-.6-10.72-1.21-21.44-1.81-32.16Z"/>
  <path class="cls-5" d="M1017.39,507.15c-11.7-7.41-8.83-15.8-1.67-24.49.56,8.16,1.11,16.32,1.67,24.49Z"/>
  <path class="cls-4" d="M432.29,1039.06c6.87-7.56,15.62-5.27,24.04-4.39.24.02.76,3.54.18,3.91-1.75,1.12-3.98,1.49-6.03,2.15-6.06-.55-12.13-1.11-18.19-1.67Z"/>
  <path class="cls-15" d="M1022.15,572.9c-8.23-10.56-8.14-21.16-.13-31.79.04,10.6.09,21.19.13,31.79Z"/>
  <path class="cls-24" d="M490.86,772.48c-42.7-15.91-85.93-28.26-118.41-65.63-28.3-32.58-42.45-70.16-56.82-108.75-5.55-27.71-7.37-55.37,1.18-82.89,24.28-82.28,72.01-142.5,158.92-163.29,84.24-20.15,158.8-.27,215.82,65.6,61.6,71.17,70.2,152.27,31.24,237.79-30.36,66.64-87.69,98.69-154.75,117.58-25.77,7.13-51.5,8.01-77.18-.41Z"/>
  <path class="cls-30" d="M354.33,885.75c-9.75-.62-19.39-.57-28.35,4.17-5.51,6.56-11.43,5.14-17.5.9-96.56-58.7-146.27-149.54-175.22-254.64-1.66-6.01-3.67-11.93-5.52-17.89-5.81-19.43-9.41-38.78,1.98-57.62,72.72,129.89,182.7,211.91,325.16,252.04,5,1.41,10.71.29,16.09.35,3.97-3.03,7.74-4.52,10.52,1.39,9.28,2.14,18.56,4.29,27.69,6.4-13.94,26.46-62.06,50.77-124.45,62.52-9.58,7.94-20.08,4.09-30.41,2.37Z"/>
  <path class="cls-24" d="M933.22,533.98c-.67,10.7-1.34,21.39-2.25,35.78-41.78-71.55-96.58-126.7-157.78-177.44-63.4-52.56-135.2-80.8-217.36-93.01,31.68-37.24,76.59-42.7,117.46-56.39,9.99-6.74,20.61-3.67,31.14-1.99,11.57-1.35,23.14-2.7,34.7-4.05,10.42-5.48,20.66-8.14,30.06,1.97,81.72,68.13,136.68,153.04,161.45,256.85,8.62,12.24,4.77,25.32,2.57,38.29Z"/>
  <path class="cls-24" d="M792.62,560.63c40.51,36.47,52.19,86.92,66.26,136.21,9.45,9.8,4.55,20.91,2.89,31.72,12.39,49.82-20.35,77.02-51.3,106.94-57.78,55.87-126.3,91.21-202.11,115.3-14.39,4.57-29.05-8.5-41.6,4.02-7.59,6.54-15.25,6.12-22.97.22,17.47-24.13,46.57-33.44,67.7-52.87,88.51-81.37,157.24-174.5,176.7-296.86-.97-15.14-7.75-30.85,4.42-44.69Z"/>
  <path class="cls-24" d="M503.13,156.92c10.65.71,21.3,1.42,39.35,2.63-78.34,37.51-136.81,89.67-184.58,153.33-48.05,64.04-86.88,132.67-90.9,218.87-39.36-25.48-39.71-68.12-55.16-102.52-6.82-7.51-3.7-15.98-2.32-24.27.64-5.05.83-9.99-3.59-13.72-6.81-25.75-8.61-51.45.83-77.03,63.63-66.35,134.5-121.49,225.47-145.66,11.25-2.99,22.38-6.42,33.57-9.64,12.09-7.2,24.73-4.08,37.32-1.97Z"/>
  <path class="cls-7" d="M316.81,515.21c-.39,27.63-.78,55.26-1.18,82.89-11.12-27.79-12.64-55.45,1.18-82.89Z"/>
  <path class="cls-5" d="M206.77,314.19c-.28,25.68-.56,51.35-.83,77.03-12.15-25.81-13.66-51.51.83-77.03Z"/>
  <path class="cls-16" d="M490.86,772.48c25.73.14,51.46.27,77.19.41-25.8,12.44-51.53,13.12-77.19-.41Z"/>
  <path class="cls-20" d="M129.73,560.67c-6.26,19.02-.49,38.44-1.98,57.62-11.27-19.62-14.43-38.96,1.98-57.62Z"/>
  <path class="cls-31" d="M503.13,156.92c-12.44.66-24.88,1.32-37.32,1.97,11.75-13.58,24.54-7.75,37.32-1.97Z"/>
  <path class="cls-8" d="M769.2,238.85c-10.02-.66-20.04-1.31-30.06-1.97-2.84-1.75-8.87-5.83-7.05-5.88,12.71-.35,27.94-8.65,37.12,7.84Z"/>
  <path class="cls-18" d="M792.62,560.63c-1.47,14.9-2.94,29.79-4.42,44.69-6.94-15.72-12.51-31.31,4.42-44.69Z"/>
  <path class="cls-25" d="M481.5,814.45c-3.51-.46-7.02-.93-10.52-1.39,11.5-11.21,24.86-5.15,38.12-1.89-9.2,1.09-18.4,2.19-27.59,3.28Z"/>
  <path class="cls-17" d="M704.43,240.93c-10.38.66-20.76,1.33-31.14,1.99,9.52-14.05,20.4-7,31.14-1.99Z"/>
  <path class="cls-19" d="M933.22,533.98c-.86-12.76-1.71-25.52-2.57-38.29,12.86,11.96,10.32,24.95,2.57,38.29Z"/>
  <path class="cls-28" d="M354.33,885.75c10.14-.79,20.28-1.58,30.41-2.37-8.92,16.38-19.88,6.57-30.41,2.37Z"/>
  <path class="cls-11" d="M308.48,890.82c5.83-.3,11.67-.6,17.5-.9,4.92.94,9.83,1.88,22.16,4.25-18.78,3.75-29.84,6.81-39.66-3.34Z"/>
  <path class="cls-26" d="M543.81,955.05c7.66-.07,15.31-.15,22.97-.22,4.7,12.67-7.03,7.87-9.51,7.01-4.52-1.56-15.9,8.07-13.46-6.79Z"/>
  <path class="cls-14" d="M209.52,404.94c.77,8.09,1.55,16.18,2.32,24.27-12.62-6.96-8.09-15.56-2.32-24.27Z"/>
  <path class="cls-29" d="M861.78,728.56c-.96-10.57-1.93-21.14-2.89-31.72,12.88,9.49,10.25,20.39,2.89,31.72Z"/>
  <path class="cls-2" d="M392.2,661.96c29.24-39.93,24.19-89.82,38.92-133.98,5-15,8.05-30.66,11.98-46.01,9.22-12.46,6.51-25.42,1.63-38.47-4.21-6.53-8.42-13.06-12.64-19.58,40.29-6.79,80.85-1.65,121.27-2.74,6.39-.17,9.7,3.32,8.83,10.01-19.96,17.05-19.66,42.53-24.03,64.73-9.37,47.61-28.46,93.4-27.95,142.9,25.85,2.3,51.81,7.7,77.22-2.65,40.96-9.94,58.89-43.66,78.45-75.71,20.64,2.36,14.34,20.05,18.24,31.94-5.4,24.04-10.81,48.08-16.21,72.12-5.75,4.95-11.57,9.12-19.9,9.12-80.64,0-161.28.06-241.92-.15-7.33-.02-16.28.74-13.9-11.51Z"/>
  <path class="cls-27" d="M392.2,661.96c4.29,7.76,11.66,8.47,19.38,8.47,77.17-.02,154.34.15,231.51-.3,8.29-.05,16.56-3.67,24.83-5.63.6,14.59-9.5,13.99-19.54,13.98-83.82-.07-167.64.06-251.45-.25-6.32-.02-16.87,4.23-16.99-7.95-.06-6.12,7.32-6.66,12.27-8.32Z"/>
  <path class="cls-21" d="M562.21,431.18c-28.34-14.87-58.78-4.12-88.12-6.98-13.87-1.35-27.99-.27-41.99-.29,5.6-14.97,18.32-7.21,27.48-7.5,32.2-1.02,64.45-.34,96.68-.38,7.95-.01,15.76,1.24,16.07,10.83.19,5.85-6.48,3.24-10.12,4.33Z"/>
  <path class="cls-17" d="M587.45,636.16c-25.27,14.64-51.18,10.6-77.22,2.65,25.74-.88,51.48-1.77,77.22-2.65Z"/>
  <path class="cls-6" d="M684.14,592.38c-7.96-9.57-4.8-25.48-18.24-31.94,38.79-7.97,19.26,17.25,18.24,31.94Z"/>
  <path class="cls-13" d="M444.74,443.5c9.72,13.26,11.52,26.18-1.63,38.47.54-12.82,1.09-25.65,1.63-38.47Z"/>
</svg>