<?xml version="1.0" encoding="UTF-8"?>
<svg id="Layer_1" xmlns="http://www.w3.org/2000/svg" viewBox="0 0 1080 1080">
  <defs>
    <style>
      .cls-1 {
        fill: #276ca9;
      }

      .cls-2 {
        fill: #eb1c2e;
      }

      .cls-3 {
        fill: #00529a;
      }

      .cls-4 {
        fill: #f37680;
      }

      .cls-5 {
        fill: #bad0e3;
      }
    </style>
  </defs>
  <path class="cls-2" d="M30,611.87c1.99-.09,3.98-.25,5.97-.25,336.08-.01,672.16-.01,1008.25-.01q6.58,0,6.58,6.63c-.04,19.46-.1,38.92-.15,58.38-1.49,1.14-3.22.59-4.83.59-336.97.03-673.95.03-1010.92,0-1.63,0-3.34.42-4.9-.46,0-21.63,0-43.25,0-64.88Z"/>
  <path class="cls-3" d="M631.94,398.25c3.1,6.99,7.47,13.27,11.36,19.8,29.5,49.54,59.08,99.02,88.6,148.54.81,1.35,2.69,2.76,1.79,4.32-.88,1.53-3.04.66-4.62.67-72.48.04-144.95.04-217.43-.01-1.54,0-3.69.98-4.53-.79-.64-1.34,1.03-2.65,1.78-3.9,7.36-12.25,14.84-24.43,22.09-36.74,1.64-2.79,3.46-3.81,6.73-3.78,18.16.17,36.32.08,54.48.08h6.57c-17.12-28.54-33.79-56.31-50.84-84.72-5.62,9.33-10.82,17.96-16.02,26.59-19.88,33.03-39.8,66.03-59.56,99.12-1.84,3.08-3.76,4.29-7.41,4.28-32.49-.15-64.98-.08-97.47-.12-1.75,0-4.15.95-5.14-.59-1.08-1.69,1.05-3.24,1.93-4.73,33.21-56.02,66.47-112.01,99.72-168.01,55.99,0,111.99,0,167.98,0Z"/>
  <path class="cls-3" d="M1053.89,448.16c-1.98.13-3.96.36-5.94.36-57.82.02-115.64.02-173.46.02q-6.31,0-6.31,6.5c0,6.65.2,13.32-.08,19.96-.15,3.6,1.13,4.41,4.52,4.38,22.33-.14,44.66-.07,66.99-.07,35.33,0,70.65.07,105.98-.09,4.02-.02,5.43.79,5.33,5.11-.31,12.8-.29,25.62,0,38.42.1,4.25-.79,5.55-5.37,5.54-56.99-.18-113.98-.13-170.96-.11-7.16,0-6.36-.93-6.39,6.37-.04,10.81-.14,21.63.07,32.44.06,3.32-.98,4.12-4.19,4.11-34.83-.11-69.65-.09-104.48-.02-2.79,0-4.1-.33-4.1-3.7.11-55.73.08-111.45.1-167.18,0-.65.22-1.3.33-1.95,97.99,0,195.98.02,293.97-.1,3.42,0,4.16.66,4.1,4.09-.24,15.3-.1,30.61-.1,45.91Z"/>
  <path class="cls-4" d="M30,676.75c338.05,0,676.11,0,1014.16,0,2.16,0,4.33-.08,6.49-.13.08.38.16.75.24,1.13-338.8,0-677.6,0-1016.39-.06-1.46,0-3.39,1.15-4.5-.94Z"/>
  <path class="cls-5" d="M249.98,398.25c-.01.29,0,.57.05.85-1.79,2.01-4.24,1.74-6.52,1.74-68.95.05-137.91.04-206.86.02-1.66,0-3.34.02-4.94-.55-.62-.27-1.19-.63-1.7-1.06,1.11-2.09,3.04-.93,4.5-.94,71.83-.07,143.65-.06,215.48-.06Z"/>
  <path class="cls-1" d="M30,399.25c.35.06.7.11,1.04.17,1.81,1.89,1.56,4.3,1.56,6.59.04,52.77.04,105.55,0,158.32,0,2.31.1,4.69-1.61,6.6-.33,0-.67,0-1,0v-171.69Z"/>
  <path class="cls-3" d="M316.12,414.33c-20.67-10.66-43.08-14.39-66.09-15.22-1.33.06-2.65.17-3.98.17-67.85,0-135.69-.02-203.54-.02-3.82,0-7.64.1-11.47.16v.56c-.01,56.98-.03,113.98-.04,170.96.49.07.98.22,1.48.22,73.98-.08,147.97.1,221.96-.43,20.91-.15,41.37-4.41,60.38-13.74,29.91-14.67,46.04-38.42,46.38-72.03.34-33.21-16.45-55.86-45.08-70.63ZM243.02,489.69c-.96,18.74-18.7,36.59-38.06,37.19-19.31.61-38.64.16-57.96.33-3.01.02-3.06-1.43-3.05-3.65.06-11.81.03-23.61.03-35.42s.12-23.28-.08-34.92c-.06-3.3.93-4.12,4.16-4.1,18.65.17,37.31-.18,55.96.2,23.13.47,40.13,18.33,39,40.37Z"/>
</svg>