<?xml version="1.0" encoding="UTF-8"?>
<svg id="Layer_1" xmlns="http://www.w3.org/2000/svg" viewBox="0 0 1080 1080">
  <defs>
    <style>
      .cls-1 {
        fill: #fe0000;
      }
    </style>
  </defs>
  <path class="cls-1" d="M538.13,238.2c64.16,0,128.33,0,192.49,0,8.56,0,13.38,3.32,15.48,10.56,1.87,6.44-.99,12.78-7.35,16.91-2.64,1.72-5.44,1.51-8.29,1.51-58.62,0-117.25.06-175.87-.03-19.05-.03-37.69,2.34-56.4,6.15-10.48,2.13-20.38,5.14-30.2,8.99-4.28,1.68-8.78,2.11-12.44-1.35-3.84-3.63-3.07-7.77-.83-12.11,2.08-4.03,1.76-8.32-1.24-11.75-3.26-3.72-7.28-2.17-10.93-.39-2.96,1.44-5.87,3.07-8.59,4.91-35.42,24.02-68.79,50.79-102.86,76.62-17.55,13.3-34.76,27.13-53.04,39.34-11.21,7.49-21.76,15.7-32.42,23.85-8.14,6.22-14.88,13.28-14.3,24.51.14,2.67-1.49,4.01-3.15,5.41-23.06,19.49-45.22,40-69.28,58.34-12.73,9.71-24.02,21.31-36.03,31.97-6.91,6.13-14.67,11.33-19.49,19.59-4.98,8.53-7.09,17.31-4.77,27.19,1.86,7.93,2.88,16.05,4.3,24.08.27,1.51.56,3.04,1.03,4.49,5.01,15.24,7.31,15.96,19.91,6.74,11.36-8.3,23.72-15.16,34.74-23.99,4.87-3.9,11.63-2.49,14.24,2.2,2.28,4.1.09,9.85-5.05,12.47-8.13,4.14-15.36,9.53-22.28,15.37-2.34,1.97-5.34,4.29-3.66,7.71,1.54,3.14,4.25,5.53,8.44,5.29,10.75-.62,21.53-.91,32.27-1.65,5.64-.39,10.69-3.21,12.61-8.43,4.02-10.95,13.65-14.38,22.95-16.73,14.7-3.71,28.14-10.3,42.12-15.63,7.88-3.01,15.88-5.55,24.41-5.17,14.17.63,28.29-.67,42.36-1.57,19.57-1.24,36.15-8.86,45.95-27.4,3.34-6.32,7.46-11.88,16.23-10.98,3.47.36,5.66,1.81,7.89,4.05,11.4,11.43,16.93,26.12,22.83,40.64,14.87,36.57,25.58,74.58,39.05,111.63,12.91,35.52,25.23,71.29,44.84,103.9,13.6,22.61,29.8,43.17,49.24,61.17,7.54,6.99,7.59,14.42,1.16,19.94-2.37,2.03-5.02,2.51-7.98,2.5-69.24-.1-138.51.92-207.71-.71-33.92-.8-66.66-10.46-98.08-23.96-26.72-11.49-51.35-26.32-74.5-43.77-37.47-28.25-64.9-64.78-87.34-105.48-20.12-36.5-31.03-75.92-34.77-117.03-6.23-68.51,8.23-132.88,43.22-192.29,12.22-20.75,27.67-39.16,43.71-57.12,21.83-24.44,46.56-45.48,75.66-60.25,40.04-20.33,81.88-35.9,127.38-39.24,33.15-2.43,66.33-.85,99.49-1.16,34.95-.33,69.91-.07,104.86-.07,0,.07,0,.13,0,.2Z"/>
  <path class="cls-1" d="M708.39,324.15c-54.84,0-109.69,0-164.53,0-9.48,0-15.8-5.85-15.89-14.75-.09-8.46,6.44-14.55,16.07-14.56,74.06-.05,148.11-.03,222.17-.03,35.16,0,70.33.07,105.49-.06,6.73-.02,11.67,2.77,14.49,8.53,2.65,5.43-.05,14.01-4.71,18.01-3.11,2.66-6.75,2.76-10.54,2.75-54.18-.03-108.36-.02-162.54-.02v.12Z"/>
  <path class="cls-1" d="M787.45,381.51c-48.42,0-96.84,0-145.26,0-10,0-14.61-4.55-14.65-14.36-.03-7.91,6.43-13.93,15.19-13.94,46.86-.03,93.73.05,140.59-.03,43.99-.08,87.97-.34,131.96-.47,6.18-.02,12.36.21,18.53.52,7.89.4,13.79,7.07,13.49,15.02-.3,7.97-5.85,13.26-13.93,13.26-48.64,0-97.28,0-145.92,0Z"/>
  <path class="cls-1" d="M841.98,409.74c41.79,0,83.57,0,125.36,0,10.41,0,16.96,5.52,17.14,14.36.19,9.4-6.3,15.54-16.63,15.55-83.84.02-167.68.02-251.52,0-8.69,0-14.63-4.24-16.38-11.5-1.66-6.9,1.44-12.91,8.29-17.09,2.53-1.54,5.06-1.31,7.65-1.31,42.03-.02,84.06-.02,126.09-.02Z"/>
  <path class="cls-1" d="M885.1,468.12c33.85,0,67.7,0,101.56-.02,3.33,0,6.62.09,9.79,1.27,7.02,2.62,8.35,8,8.1,14.86-.22,6.18-3.59,9.15-8.63,11.07-2.46.93-5.04,1.45-7.76,1.46-68.14.03-136.27.12-204.41.19-3.53,0-7.05.13-10.47-1.19-6.57-2.54-10.78-8.07-10.29-13.79.58-6.67,5.64-12.13,12.66-13.36,2.37-.42,4.83-.47,7.25-.48,34.07-.03,68.15-.02,102.22-.02Z"/>
  <path class="cls-1" d="M916.34,524.78c26.98,0,53.96,0,80.94,0,9.37,0,15.29,5.76,15.51,15.01.2,8.78-6.13,15.26-15.38,15.27-54.84.06-109.69.05-164.53,0-9.21,0-16.66-7.06-16.51-15.33.14-8.29,7.13-14.88,16.39-14.92,27.86-.11,55.73-.04,83.59-.04Z"/>
  <path class="cls-1" d="M939.11,611.95c-18.56,0-37.13.12-55.69-.04-12.59-.11-19.97-11.8-13.78-21.78,3.68-5.93,9.86-6.95,16.23-6.95,34.7-.03,69.39-.04,104.09,0,5.15,0,10.42-1.45,14.99,2.96,4.65,4.49,7.6,9.13,5.29,15.74-2.19,6.27-7.74,10.15-14.78,10.17-18.78.04-37.57.01-56.35.01v-.12Z"/>
  <path class="cls-1" d="M955.65,670.32c-8.83,0-17.66.13-26.48-.03-9.93-.19-16.1-6.17-16.18-15.34-.08-8.36,6.46-14.76,15.97-14.87,18.31-.21,36.63-.16,54.95-.02,8.52.06,15.42,6.81,15.52,14.67.11,8.64-5.64,15.11-14.66,15.48-9.69.4-19.42.09-29.13.09v.03Z"/>
</svg>