<?xml version="1.0" encoding="UTF-8"?>
<svg id="Layer_1" xmlns="http://www.w3.org/2000/svg" viewBox="0 0 1080 1080">
  <defs>
    <style>
      .cls-1 {
        fill: #fefff5;
      }

      .cls-2 {
        fill: #2a419d;
      }

      .cls-3 {
        fill: #fff;
      }

      .cls-4 {
        fill: #2a3b8c;
      }

      .cls-5 {
        fill: #2e3b87;
      }

      .cls-6 {
        fill: #273997;
      }
    </style>
  </defs>
  <path class="cls-6" d="M41.99,543.04c-.48-5.4.32-10.74.97-16.06,2.71-22.17,9.08-43.29,18.51-63.49,9.65-20.67,22.18-39.51,36.77-57,6.11-7.32,12.54-14.35,19.31-21.04,16.01-15.82,33.32-30.11,51.84-42.92,16.2-11.21,33.03-21.36,50.46-30.54,29.95-15.77,61.16-28.52,93.33-38.94,22.76-7.37,45.89-13.36,69.29-18.34,18.93-4.03,38-7.22,57.17-9.78,12.59-1.68,25.23-3.02,37.91-3.96,11.66-.87,23.32-1.53,34.99-2.09,16.06-.76,32.11-.53,48.17-.46,10.65.05,21.29.68,31.93,1.32,14.86.89,29.68,2.16,44.47,3.89,17.15,2.01,34.21,4.62,51.19,7.79,23.21,4.33,46.16,9.77,68.81,16.4,29.25,8.56,57.78,19.06,85.46,31.86,25.15,11.63,49.3,25.02,72.19,40.64,14.81,10.11,28.95,21.08,42.25,33.12,17.49,15.82,33.39,33.04,46.94,52.38,17.23,24.6,30,51.23,36.81,80.58,2.27,9.79,3.8,19.69,4.51,29.71.43,5.97,1.1,11.94.83,17.94-.58,12.81-1.76,25.56-4.43,38.13-5.81,27.36-16.78,52.56-31.94,76-8.9,13.77-18.98,26.62-30.11,38.67-25.84,28-55.71,50.92-88.33,70.43-30.94,18.5-63.56,33.39-97.47,45.58-18.63,6.7-37.52,12.51-56.66,17.5-20.93,5.46-42.08,9.92-63.43,13.46-14.39,2.38-28.83,4.36-43.32,5.97-8.01.89-16.06,1.41-24.09,2.11-10.61.92-21.24,1.34-31.87,1.87-16.16.81-32.31.46-48.47.48-7.65.01-15.31-.34-22.95-.8-14.02-.85-28.03-1.85-42-3.3-12.45-1.29-24.86-2.81-37.23-4.71-14.93-2.29-29.78-5.01-44.54-8.2-25.82-5.59-51.28-12.49-76.28-21.03-21.86-7.47-43.25-16.11-64.13-26.04-19.2-9.13-37.78-19.34-55.67-30.79-16.94-10.83-33.12-22.74-48.24-35.99-18.98-16.63-36.22-34.89-50.84-55.53-14.28-20.16-25.64-41.81-33.1-65.41-4.79-15.14-8-30.61-8.96-46.51-.14-2.37-.32-4.74-.48-7.11.55-5.25-.19-10.53.39-15.78Z"/>
  <path class="cls-5" d="M41.99,543.04c.03,4.69.06,9.38.09,14.07,0,.62,0,1.23-.49,1.71-.51-4.91-.18-9.82-.16-14.73,0-.35.36-.7.55-1.05Z"/>
  <path class="cls-3" d="M965.62,465.01c.32-.12.43-.36.39-.69-.04-.91.43-1.5,1.21-1.89.5-.25.66-.69.7-1.2-.04-1.73,1.43-2.65,2.22-3.89,3.4-5.31,5.9-11.2,10.2-15.94.63-.54,1.19-.66,1.73.17.96,1.47,1.99,2.9,2.95,4.37,10.15,15.49,18.49,31.87,24.26,49.5,4.53,13.82,7.43,27.95,8.52,42.49.6,7.97.77,15.94.27,23.88-1.14,17.97-4.85,35.44-11.22,52.3-7.86,20.79-18.86,39.81-32.47,57.36-8.2,10.57-17.05,20.56-26.67,29.84-15.31,14.76-31.88,27.97-49.52,39.87-18.32,12.37-37.5,23.23-57.38,32.84-24.64,11.9-50.07,21.83-76.18,30.05-15.7,4.95-31.54,9.37-47.57,13.13-15.11,3.54-30.32,6.58-45.63,9.17-14.17,2.4-28.41,4.34-42.68,5.93-10.57,1.18-21.18,2.11-31.8,2.74-10.94.64-21.89,1.11-32.85,1.5-12.13.44-24.25.38-36.37.18-8.99-.15-17.98-.5-26.97-1.05-9.59-.59-19.17-1.21-28.74-2.08-17.4-1.58-34.72-3.77-51.97-6.56-17.07-2.76-34.02-6.1-50.84-10.09-19.75-4.69-39.25-10.25-58.47-16.78-18.63-6.33-36.92-13.52-54.81-21.74-24.14-11.1-47.32-23.89-69.24-38.93-13.93-9.56-27.17-19.99-39.7-31.34-13.01-11.78-24.87-24.61-35.46-38.58-18.49-24.4-32.07-51.18-38.55-81.28-2.05-9.51-3.38-19.13-3.69-28.89-.08-2.68-.37-5.36-.34-8.04.19-20.13,3.45-39.74,10.1-58.75,6.05-17.3,14.39-33.45,24.65-48.61.84-1.24,1.38-2.8,3.04-3.3.42.3.66.7.71,1.21-.04.33.05.59.39.71.56.19.78.62.79,1.18,0,.33.1.58.43.7,1.85,1.7,2.69,4.04,3.88,6.16.04.51.27.91.7,1.2h0c-.05.37.09.6.44.7,1.45,1.96,3.54,3.51,3.89,6.17-.05.33.06.57.38.69,4.87,5.87,8.88,12.28,12.04,19.22.05.49.26.88.7,1.13.77.43.94,1.23,1.23,1.95-.03.34.11.58.45.68,2.61,3.54,5.71,6.77,6.96,11.16-.02.33.1.57.44.68,3.58,4.36,6.77,8.98,8.9,14.25.03.5.23.9.68,1.15,2.18,1.85,3.54,4.2,4.33,6.92-.04.34.08.58.43.69.5.24.64.72.8,1.19-.02.34.11.58.45.68.5.25.63.72.72,1.22.05.5.3.88.74,1.13,1.74,2.44,4.04,4.52,4.71,7.62.32.72.9,1.21,1.51,1.69,1.06,1.05,2.5,1.72,3.11,3.2.23.58.6,1.02,1.24,1.18,3.03,1.88,6,3.84,8.54,6.38.55.6,1.17,1.08,2.02,1.17,1.26.43,2.56.76,3.77,1.33,1.52.72,1.8,1.63.29,2.69-1.02.71-1.98,1.47-2.81,2.39-1.91,2.14-2.73,4.57-1.8,7.39.76,2.31,1.32,4.65,3.12,6.55,1.14,1.2,2.38,2.61,2.36,4.53.12.84.54,1.49,1.23,1.97,1.46,1.36,2.66,2.88,3.13,4.88,0,.53.23.92.69,1.18,1.01.58,1.26,1.64,1.66,2.62.1.51.31.94.8,1.18h0c.19.78.57,1.42,1.25,1.88,3.21,3.48,5.66,7.43,7.46,11.8-.02.35.12.58.46.67,2.15,3.07,4.87,5.76,6.34,9.3.03.31.14.57.48.67,2.09.6,2.67,2.69,3.96,4.07,2.13,2.27,4.7,4.09,6.6,6.58l.04.02c1.32.29,1.96,1.39,2.79,2.28.2.47.57.71,1.07.77.3.08.52.26.66.53.47.65,1.07,1.09,1.87,1.25,1.26.31,2.2,1.09,3.05,2,.51.59,1.09,1.06,1.92,1.12.48.15.97.29,1.18.82l-1.2,1c-1.03,1.29-2.29,2.3-3.73,3.1-.47.3-.67.73-.61,1.28.19.15.24.26.14.32-.06.04-.15.07-.25.07-.62.61-.43,1.38-.44,2.11.28.42.29.83-.03,1.23,0,.91-.13,1.85.53,2.64.21.06.3.16.26.27-.05.13-.1.2-.16.2-.07.55-.01,1.06.5,1.41,1.93,1.39,2.66,3.64,3.88,5.52,4.43,6.82,8.75,13.72,13.23,20.51.75,1.14,1.17,2.41,1.67,3.66-.02.32.08.58.42.69,4.37,4.84,7.48,10.53,10.71,16.13.04.33.19.58.53.67,1.89.27,2.12,2.12,3.1,3.26l-.05-.03c.34-.04.45.1.32.42.1.46.42.66.86.72.41.08.7.28.78.71l-.06-.02c1.76.72,2.82,2.24,4.07,3.55.36.69.88,1.17,1.68,1.29,1.25.34,2.25,1.05,3.04,2.07.11.34.35.46.69.43,1.63.55,3.23,1.15,4.29,2.63.12.34.38.44.71.38.67-.22.98.2,1.27.68.25.5.67.68,1.21.61.8-.29,1.32.04,1.67.75.33.53.86.59,1.41.56.45.12.93.18,1.25.59.51.54,1.15.68,1.85.62h.01c.5.57,1.16.68,1.87.63.8.13,1.69-.02,2.29.72.6.52,1.32.58,2.07.51,1.73-.37,3.46-.71,4.9.78,1.13.78,2.41.39,3.61.39,48.86.02,97.71.02,146.57.03,1.12,0,2.27-.18,3.65.27v3.52c.12,1.8-.11,3.59-.22,5.38-.7,1.02-.47,2.2-.47,3.31-.02,13.65-.01,27.3-.01,40.95,0,1.34-.01,2.69.58,3.94.51.24.62.67.56,1.18,0,.35.18.57.52.66.74.16,1.18.63,1.38,1.34.3.49.76.55,1.27.48h.01c1.4.98,3,.6,4.52.6,29.72.02,59.44.02,89.16.02,28.06,0,56.13.01,84.19-.02,1.93,0,3.93.37,5.77-.59.4-.75,1.01-1.15,1.88-1.1.63-.28,1.08-.7,1.2-1.42.27-.62.1-1.38.66-1.9.06-.71.19-1.43.19-2.14.01-15.15.01-30.3,0-45.46,0-.71-.11-1.43-.18-2.14-.6-.6-.51-1.22-.08-1.87,0-.31.01-.62,0-.93-.02-1.23-.55-2.86.04-3.6.91-1.16,2.72-.47,4.12-.47,48.56-.03,97.12-.02,145.68-.04,1.31,0,2.7.41,3.92-.48,3.05-1.76,6.56-1.3,9.82-2.05.53.08.96-.08,1.29-.49.44-.66,1.06-.87,1.82-.71.98-.08,1.86-.42,2.55-1.14.96-1.18,2.17-1.84,3.71-1.84.53,0,.96-.21,1.26-.65.83-.96,1.74-1.77,3.09-1.85.52,0,.92-.22,1.18-.68l.04-.02c.36.02.59-.13.69-.48.41-.72,1.13-1,1.85-1.27.32-.03.57-.15.67-.49.07-.26.24-.39.51-.36.55-.23,1.11-.43,1.35-1.05,1.15-1.12,2.28-2.27,3.68-3.1.76-.53,1.6-.96,2.09-1.79.41-1.56,1.63-2.38,2.88-3.19.78-.36,1.12-1.08,1.49-1.78,2.19-3.94,4.06-8.1,7.45-11.24.33-.11.45-.35.42-.68.02-.48.23-.84.68-1.04.59-.58,1.08-1.21,1.27-2.04.06-.31.22-.55.49-.71.67-.44,1.01-1.1,1.21-1.85l.02-.03c.63-.45.91-1.13,1.15-1.82,1.1-2.54,2.41-4.95,4.45-6.88.43-.28.64-.68.68-1.19.15-.4.11-.93.71-1.02.53-.37.87-.88,1.01-1.51-.19-.67.22-.96.75-1.17.51-.26.64-.74.72-1.25.07-.3.23-.53.5-.69.51-.23.68-.67.76-1.18.5-2.02,1.56-3.67,3.22-4.94.33-.11.46-.34.41-.69h0c.44-.28.66-.7.73-1.21.05-.31.22-.54.48-.71.48-.24.71-.64.77-1.16.2-.73.39-1.48,1.11-1.92.46-.3.6-.74.53-1.26-.12-.24-.07-.43.15-.59.4-.34.54-.77.47-1.28-.25-.45-.28-.86.19-1.2.75-1.3.64-2.59-.06-3.87-1.29-1.64-2-3.69-3.71-5.02-.12-.34-.37-.44-.71-.39-.69.23-.95-.2-1.14-.73.01-.18.02-.36.02-.54.17-.55.44-.96,1.12-.76.34.06.58-.05.7-.39,2.36-1.86,4.72-3.71,7.45-5.02.49-.07.87-.28,1.05-.77,2-3.17,4.83-5.64,7.61-7.99,3.2-2.7,5.6-5.92,7.94-9.26.65-.92,1.33-1.81,2.2-2.54.35-.1.47-.34.45-.68.02-.56.24-.98.78-1.18.55-.28.79-.77.93-1.33.49-2.56,2.03-4.47,3.88-6.17.68-.46.93-1.19,1.19-1.91.04-1.1.71-1.8,1.54-2.4.31-.12.4-.37.39-.68h0c.68-.44,1.05-1.1,1.24-1.87h0c.63-.48.91-1.19,1.18-1.9,1.74-3,3.14-6.22,5.63-8.74.49-.24.65-.67.68-1.18.16-2.34,1.84-3.87,3.09-5.6,1.17-1.62,2.09-3.37,2.57-5.25.98-3.91.33-7.41-3.29-9.86-.68-.46-1.39-.92-1.66-1.78.18-.38.35-.75.53-1.13h.02c1.13-.14,2.18-.48,3.03-1.29.97-1.96,3.18-2.15,4.72-3.29,6.32-4.67,12.15-9.8,15.97-16.84.25-.46.62-.82,1.07-1.09.44-.25.68-.64.73-1.14.09-.43.09-.92.63-1.1.56-.33.84-.86,1.01-1.46.2-2.41,2-3.83,3.38-5.52.33-.11.45-.36.44-.69l.03-.05c.94-.82,1.46-1.9,1.91-3.03,1.18-3.48,3.04-6.54,5.69-9.1.66-.54,1.1-1.21,1.25-2.05-.02-.37.16-.6.49-.71.46-.26.69-.65.69-1.18-.01-.57.1-1.05.77-1.18.35-.11.49-.35.44-.7,1.52-4.55,4.44-8.23,7.43-11.87.45-.27.65-.68.69-1.18.13-.41.09-.93.69-1.03.55-.36.74-.94.95-1.52.35-1.38.93-2.62,2.16-3.45.68-.53,1.11-1.22,1.26-2.07,1-3.13,3.15-5.52,5.09-8.05Z"/>
  <path class="cls-3" d="M606.93,439.44c.04-.82.11-1.65.12-2.47,0-23.24,0-46.48,0-69.72,0-.82-.09-1.64-.14-2.47-.2-.61-.84-1.07-.62-1.83.03-.36-.15-.57-.48-.68-.25-.2-.5-.38-.57-.72v.02c-.37,0-.55-.26-.68-.58-.1-.34-.32-.51-.68-.47-.28.22-.41.14-.41-.2-.75-.74-1.71-.61-2.63-.61-20.45,0-40.9,0-61.35.02-.31,0-.61.09-.92.13-4.27,1.32-8.59,2.06-13.06,1.25-.87.06-1.8-.25-2.57.42-.3.55-.71.49-1.16.2-.91-.05-1.82-.09-2.61.49-.3.47-.7.4-1.11.18-.54-.09-1.04-.01-1.43.41-.99,1.16-2.26,1.05-3.57.8-.5-.05-.96.03-1.32.41-.12.3-.31.34-.55.15-1.35.08-2.58.51-3.72,1.22-1.5,1.68-3.49,2.26-5.63,2.53-.52-.02-.93.2-1.27.58-.15.17-.33.23-.56.16-.33-.06-.58.05-.7.38-.13.24-.31.3-.55.19-.86.02-1.56.39-2.13,1.01.01.36-.11.42-.37.17-.52-.04-.91.19-1.22.59l-.05.02c-.51-.03-.99.04-1.28.53-1.37,1.3-2.8,2.44-4.88,2.1-.35-.07-.59.06-.71.4-.13.2-.32.27-.55.21-.76.15-1.45.45-1.99,1.03-.1.32-.27.37-.52.14-.78.06-1.41.43-1.97.95-.07.3-.24.39-.52.27-.52-.03-1.01.02-1.31.53-.51.46-1.02.92-1.79.78-.85.03-1.53.41-2.11,1.01-2.27,1.73-4.53,3.47-7.27,4.44-.32.02-.58.12-.68.46-.1.37-.29.64-.7.7v-.02c-.12.69-.51,1.1-1.22,1.2h.01c-1.48,1.1-2.22,2.92-3.87,3.83-.34.06-.53.27-.6.6.05.39-.12.61-.5.68-.5.32-.97.67-1.09,1.31-.06.51-.23.92-.8,1.02v.04c0,.42-.29.59-.61.74-.52.3-.92.7-1.01,1.33-1.67,4.49-4.59,8.27-6.98,12.36-.48.32-.56.79-.53,1.31.2.77-.03,1.37-.71,1.8-.43.34-.58.79-.5,1.32.09,1.8.08,3.57-1.33,4.97-.69,1.34-.64,2.8-.64,4.24,0,5.49.02,10.99,0,16.48-.01,2.22-.05,2.24-2.19,2.29-1.35.03-2.7,0-4.04,0-110.53,0-221.06,0-331.59,0h-3.4c-.13-1.21.62-1.85,1.14-2.56,6.94-9.56,14.53-18.58,22.61-27.2,12.57-13.41,26.39-25.41,41.01-36.5,16.86-12.79,34.69-24.11,53.28-34.22,22.14-12.03,45.06-22.35,68.68-31.12,24.68-9.16,49.83-16.72,75.45-22.79,20.95-4.97,42.07-8.95,63.35-12.09,11.65-1.72,23.36-3.08,35.1-4.15,10.8-.99,21.62-1.75,32.44-2.45,20.07-1.3,40.16-1.2,60.24-1.1,8.07.04,16.14.31,24.19.82,15.98,1.01,31.94,2.24,47.85,4.04,21.18,2.4,42.2,5.73,63.09,9.95,28.34,5.72,56.2,13.18,83.54,22.58,18.02,6.2,35.71,13.23,53.01,21.25,10.34,4.79,20.55,9.82,30.53,15.29,16.09,8.81,31.64,18.46,46.48,29.27,11.56,8.42,22.67,17.37,33.17,27.07,12.64,11.69,24.22,24.35,34.51,38.18,1.11,1.49,2.22,2.99,3.31,4.5.17.23.24.54.55,1.22h-3.44c-121.62,0-243.25,0-364.87,0-1.34,0-2.69.08-4.03.13-.75.28-1.32.22-1.37-.77Z"/>
  <path class="cls-3" d="M266.13,641.54c-.06-.49-.25-.9-.72-1.13-.89-.35-1.23-1.04-1.23-1.95.03-.34-.09-.58-.43-.68-1.48-1.06-2.39-2.48-2.68-4.29-.2-.77-.6-1.4-1.2-1.92-1.53-.5-1.41-1.94-1.76-3.1l.08-.17-.14-.13c1.87-1.32,4.03-1.21,6.16-1.21,51.93,0,103.87,0,155.8,0,.31,0,.62.02.93,0,1.84-.11,4.12.69,5.43-.57,1.77-1.7-.94-3.25-1.03-5.02-.02-.31-.03-.62-.03-.93.03-.52-.19-.91-.61-1.21v-.03c-.15-.96-.6-1.77-1.23-2.49-2.27-2.22-2.75-5.28-3.76-8.09.06-.33-.04-.59-.37-.73-2.12-1.54-2.54-4.13-3.84-6.18-.25-.62-.65-1.08-1.35-1.22-.67-.31-1.28-.71-1.77-1.28-.28-.51-.76-.65-1.29-.7-8.39-2.3-16.98-1.97-25.54-1.97-43.51,0-87.02,0-130.53-.02-1.93,0-3.96.43-5.71-.87-.14-.46,0-.87.46-.96.81-.16,1.65-.08,2.48-.08,47.57,0,95.15,0,142.72,0,.87,0,1.77-.2,2.13-.04-.57.04-1.65,0-2.73,0-47.16,0-94.32,0-141.48,0-2.28,0-4.55.1-6.82.36-.64-.05-1.18-.32-1.67-.71-.28-.47-.73-.62-1.25-.63l-.03-.03c-.45-.71-1.13-1.02-1.92-1.18-6.57-3.46-10.73-9.21-14.48-15.33-.38-.61-.67-1.27-.59-2.03-.36-1.01-.95-1.87-1.68-2.63-.87-.85-1.83-1.65-1.9-3.01.02-.34-.11-.58-.45-.68-.78-.62-1.46-1.31-1.49-2.4,0-.32-.08-.58-.42-.7-.48-.26-.61-.73-.75-1.2.03-.34-.1-.58-.44-.69-.54-.23-.66-.7-.74-1.21-.06-.5-.27-.9-.74-1.14l-.02-.04c.02-.33-.07-.59-.41-.71-.49-.24-.62-.72-.78-1.18.01-.31-.08-.57-.4-.7-.3-.06-.41-.23-.3-.53.03-.36-.12-.58-.47-.68-2.03-1.59-3.08-3.8-3.85-6.17.03-.68.21-1.17,1.06-1.14,1.34.04,2.69,0,4.04,0,69.27,0,138.55,0,207.82,0,1.03,0,2.11.1,3.08-.16.69-.18.3-.8-.08-1.18-1.54-1.32-2.09-3.11-2.38-5.02-.03-.54-.17-1.03-.66-1.34-1.08-1.2-1.75-2.59-1.96-4.2.03-.53-.17-.94-.61-1.23v-.02c0-.52-.17-.94-.62-1.22v-.02c0-.52-.17-.94-.62-1.24h0c.01-.53-.17-.95-.62-1.24-2.37-2.51-3.16-5.88-4.81-8.79-.24-.76-.62-1.39-1.46-1.61-.25.04-.4-.06-.47-.3l.02.04c-.36-.11-.56-.37-.67-.72-.08-.36-.32-.51-.67-.5-1.99-.98-4.38-.98-6.13-2.51-.98-.74-2.11-.56-3.22-.57-.8.44-1.58.57-2.33-.09-1.59-.61-3.27-.49-4.91-.49-63.75-.01-127.49-.01-191.24-.01-.21,0-.41.03-.62.05-3.32-.71-6.61-1.49-9.26-3.83-1.14-.83-2.45-1.3-3.79-1.67-.68.17-1.29-.1-1.64-.57-2.36-3.14-4.77-6.28-5.92-10.13-.23-.71-.56-1.36-1.16-1.83l-.02-.04c-.18-.76-.62-1.36-1.21-1.87-1.61-.64-2.04-2.26-2.79-3.54-2.82-4.83-6.2-9.33-8.45-14.49-.38-.96-.76-1.92-1.61-2.58-.91-.54-1.07-1.56-1.52-2.39-.24-.74-.5-1.46-1.15-1.96-.13-.45.02-.79.43-1.01,1.39-.6,2.86-.41,4.3-.41,102.23-.01,204.46-.01,306.69,0,1.44,0,2.91-.19,4.29.46.65.42.65,1,.38,1.64v.65c.41,1,.22,2.05.22,3.07.01,61.38.01,122.77,0,184.15,0,1.02.2,2.07-.22,3.07-.05.2-.1.4-.14.61-2.43,3.45-5.79,5.81-9.33,7.97-1.25,1.03-2.74.73-4.16.73-47.23,0-94.46,0-141.69,0-7.56,0-15.12,0-22.68,0-3.3,0-6.62.19-9.87-.66l-.02-.02c-.29-.52-.78-.55-1.29-.52l-.04-.02c-.29-.41-.68-.63-1.2-.6l-.05-.02c-.29-.4-.68-.63-1.19-.61l-.04-.02c-.69-.78-1.55-1.3-2.51-1.67-.25.02-.42-.08-.53-.31-.07-.34-.3-.5-.63-.53l-.02-.02c-.2-.64-.78-.84-1.31-1.08-1.61-.93-2.9-2.17-3.79-3.82-.19-.54-.42-1.06-.95-1.35-.27-.07-.38-.25-.33-.52-.21-.71-.49-1.38-1.14-1.81l-.03-.06c.03-.36-.13-.59-.48-.68-.4-.31-.56-.76-.7-1.22-.17-.79-.59-1.43-1.21-1.94-.47-.02-.5-.35-.49-.7l.02.04c-3.42-4.44-6.37-9.18-8.84-14.21Z"/>
  <path class="cls-3" d="M666.01,612.3c-.5.29-.57.76-.54,1.28-.02.51-.12.99-.6,1.29-.4.3-.63.7-.6,1.21-.05.51-.16.98-.64,1.27-.42.3-.63.7-.61,1.22-.1.68-.13,1.39-.81,1.8-.32.14-.39.39-.33.7,0,2.62-2.67,4.21-2.62,6.84.41.2.83.2,1.24.02,2.06-.73,4.18-.98,6.35-.98,52.38,0,104.77,0,157.15,0,1.77,0,3.51,0,5.05,1.06.02.37.05.74.07,1.1,0,0-.02.03-.02.03-.65.45-1.05,1.07-1.18,1.86.17.33.06.5-.3.52-.49.33-.83.75-.92,1.36-1.7,3.78-3.47,7.52-6.47,10.49-.35.09-.49.33-.47.68-.15.46-.3.92-.74,1.2-.34.11-.44.36-.43.69-.08,1.05-.74,1.75-1.47,2.4-.35.1-.48.34-.47.69-.84,3.21-2.8,5.72-5.04,8.06-.32.11-.45.35-.43.68.06.27-.03.45-.3.53-.34.1-.46.34-.45.67l-.02.02c-.78.7-1.24,1.6-1.64,2.54-.07.74-.38,1.34-1.02,1.74-.33.08-.47.3-.48.62l-.02.02c-.89.36-1.27,1.15-1.67,1.94-.11.37-.36.61-.73.72-1.16.44-1.91,1.39-2.74,2.24-.39.65-.89,1.16-1.68,1.3-1.46.82-2.92,1.64-4.38,2.46-1.02,1.06-2.18,1.72-3.71,1.25-2.38.02-4.76.06-7.14.06-54.45,0-108.9,0-163.34,0-1.24,0-2.48.08-3.72.12-2.74.21-3.52-2.72-5.75-3.57-1.7-.65-3.14-2.25-4.51-3.63-.94-.94-1.93-1.96-.99-3.48.04-1.03.13-2.06.13-3.09,0-61.17,0-122.35,0-183.52,0-1.03-.08-2.06-.12-3.09-.24-.63-.33-1.21.48-1.5,1.04-.07,2.07-.03,3.11-.03,102.98,0,205.95,0,308.93.03,1.17,0,2.48-.52,3.54.47l-.11-.09c.61.67-.06.87-.43,1.18-.39.29-.69.65-.73,1.16,0,.36-.19.59-.5.74-.43.26-.64.66-.67,1.15-.15.47-.28.95-.8,1.18-.34.12-.44.37-.39.7l-.02.03c-.42.27-.69.65-.74,1.16-.16,1.66-1.17,2.8-2.37,3.82-.48.23-.67.65-.75,1.15.13,1.52-.75,2.4-1.95,3.08-.33.12-.42.38-.4.71-.85,2.68-2.27,4.99-4.37,6.88-.48.25-.64.68-.68,1.18.06.93-.4,1.52-1.21,1.9-.42.28-.69.66-.75,1.17-.12,1.37-.7,2.44-1.97,3.08-.33.13-.42.38-.39.71-.14,1.91-1.42,3.1-2.71,4.28-.33.12-.41.38-.39.7-.64,1.6-.97,3.46-3.13,3.81-1.86.48-3.63,1.13-5.2,2.27-2.33,1.79-4.93,2.92-7.86,3.24-37.21,0-74.41.02-111.62.02-26.43,0-52.86,0-79.29,0-1.96,0-3.94-.13-5.84.5-.94.91-1.96.07-2.94.15-1.81-.11-3.51.28-5.12,1.12-.06.34-.23.38-.48.17-.88.25-1.83.36-2.45,1.16l-.06.04c-.76.18-1.39.53-1.81,1.22-4,4.68-6.33,10.3-8.77,15.84-.84,1.9-2.05,3.54-3.11,5.29-.41.31-.63.72-.62,1.25,0,.52-.15.97-.62,1.26-.45.28-.63.7-.62,1.22v.02c-.47.28-.64.71-.63,1.23-.1.6-.63,1.21,0,1.81,7.46.05,14.92.15,22.37.15,63.33.01,126.66,0,190,.03,1.18,0,2.48-.46,3.55.5.33.7-.2.97-.64,1.28-.41.28-.68.65-.73,1.16-.5,1.97-1.34,3.72-3.07,4.92-.52.26-.69.73-.77,1.25,0,.9-.65,1.37-1.23,1.88-.33.12-.43.37-.39.69-1.51,4.23-3.87,7.92-6.98,11.15-.49.25-.63.72-.72,1.21-1.13,3.36-3.18,6.14-5.52,8.73-.36.09-.5.34-.47.69-2.64,2.98-5.19,6.07-8.77,8.04-.33-.01-.58.1-.69.43-2.76,3.25-6.37,4.35-10.51,4.34-20.19-.02-40.37-.01-60.56,0-26.6,0-53.21,0-79.81,0-3.52,0-7.04-.06-10.53.53-1.33.22-2.68.18-4-.24-.72-.09-1.37.03-1.9.57-.88.8-1.91,1.2-3.09,1.25-.53-.02-.94.16-1.19.65-.89,1.22-1.85,2.35-3.25,3h0c-1.45,3.57-3.61,6.74-5.59,10Z"/>
  <path class="cls-3" d="M603.29,735.59c-1.24-.04-2.48-.11-3.72-.11-37.48,0-74.96,0-112.45,0-1.56,0-3.08-.06-4.55-.64-1.3-.3-1.98-1.1-1.99-2.45.06-.53-.12-.97-.45-1.37-.58-6.75-.62-13.5.02-20.25.55-.56.55-1.29.61-2.01.47-3.33,3.1-4.64,5.63-6.05.33-.06.55-.24.61-.58.98-.92,1.45-2.45,3.1-2.54.48-.13.91-.32,1.11-.83l.04-.03c.59-.22,1.09-.57,1.4-1.13,3.06-3.41,6.39-6.51,10.49-8.66.63-.37,1.3-.71,1.7-1.37.99-1.16,1.97-2.32,3.2-3.23.65-.41,1.05-1.01,1.3-1.72.26-1.4,1.05-2.53,1.91-3.61.45-.36.62-.82.53-1.38,1.09-7.62.63-15.29.63-22.94.03-58.12.17-116.24-.11-174.35-.05-11.15.44-22.36-.84-33.51-.49-4.28-1.8-5.67-6.1-5.75-6.73-.12-13.47,0-20.21-.06-1.52-.01-3.15.24-4.41-1-.03-6.84-.07-13.68-.1-20.52-.26-.4-.35-.77.15-1.07.48-.37.49-.89.43-1.42-.23-.8.1-1.38.73-1.83.45-.29.62-.74.64-1.25.37-1.39,1.08-2.49,2.52-2.98.98-.5,1.88-1.09,2.66-1.87,2.14-1.7,4.37-3.18,7.25-3.19.54,0,.98-.18,1.29-.64,1.46-1.71,3.41-2.3,5.55-2.48.55,0,1.07-.03,1.41-.56,1.1-1.81,3.17-1.41,4.77-2.08.33.09.58,0,.71-.33,1.13-1.34,2.54-2.05,4.32-1.99.56.03,1.06-.09,1.39-.59.76-.94,1.8-1.24,2.94-1.33.52.02.94-.18,1.28-.56.33-.4.76-.55,1.26-.55.69-.05,1.34-.18,1.81-.75h.02c.72.05,1.41,0,1.94-.58,3.44-2.52,7.33-1.4,11.08-1.39,12.66,0,25.31.02,37.97.03,1.77.16,2.13,1.39,2.17,2.86,0,52.77,0,105.54-.01,158.31,0,1.23.21,2.48-.2,3.7-.04,6.11-.11,12.21-.1,18.32.02,31.89.06,63.77.12,95.66,0,1.21-.37,2.5.47,3.61.4.37.39.78.11,1.22-.06.55-.06,1.08.44,1.47.21.04.29.11.26.22-.04.13-.09.19-.14.19-.07.51-.01.97.43,1.31,2.21,3.21,4.27,6.54,7.15,9.22.17.51.59.7,1.08.79,2.35.74,3.86,2.63,5.67,4.11,2.9,2.38,5.68,4.92,8.8,7.04.9.61,1.81,1.37,2.17,2.52.3.61.74,1.05,1.44,1.17,2.08,1.37,4.54,2.44,4.43,5.56-.07.73-.08,1.44.48,2.02.63,6.53.64,13.06-.01,19.58-.46.38-.49.89-.43,1.43-.47,2.01-1.92,2.86-3.81,3.19Z"/>
  <path class="cls-6" d="M480.74,440.04c8.19.01,16.37.02,24.56.04.83,0,1.67-.06,2.48.05,2.74.37,4.63,2.49,4.76,5.26.1,2.07.24,4.13.24,6.2.07,73.03.12,146.07.18,219.1,0,2.39-.26,4.73-1.18,6.96-.58-.43-.73-1.09-.51-1.67.82-2.11.52-4.3.52-6.46.01-63.12.01-126.24,0-189.36,0-1.11.26-2.26-.56-3.34v197.39c-.65-.46-.97-.68-1.29-.91-.83-1.32-.62-2.8-.62-4.23,0-43.81,0-87.62,0-131.43,0-17.61,0-35.21,0-52.82,0-1.03.16-2.14-.16-3.08-.44-1.34-.46-2.38.66-3.35.79-.68.75-1.65.75-2.59,0-8.08.02-16.16-.02-24.23-.01-2.06-.68-4.04-.71-6.13-.02-1.54-1.27-2.26-2.82-2.26-2.18,0-4.35,0-6.53,0-4.56,0-9.12,0-13.67,0-1.23,0-2.48.14-3.53-.56-.5.66.29,1.05-.12,1.73-1.09-.73-2.44-.46-3.71-.64.03-.55.44-.47.67-.63.44-.3,1.43-.81.16-1.08-2.44-.52-.54-1.26-.22-1.94l.02-.02c.22,0,.43,0,.65,0Z"/>
  <path class="cls-6" d="M425.31,620.44c1.66,2.16,2.23,4.83,3.72,7.26-1.42.67-2.66.4-3.83.4-54.37.02-108.74.01-163.11.02-1.35,0-2.69.04-4.04.06.1-.69.72-.9,1.43-1.12-1.56-.99-2.96.22-4.31-.27.08-.2.11-.3.17-.39.05-.08.13-.15.21-.2.09-.05.19-.1.29-.11.2-.03.41-.04.62-.05.21,0,.41,0,.62,0,55.26,0,110.52-.02,165.78-.02.1,0,.21-.02.29-.06.09-.04.17-.12.6-.44h-162.44v-.61h164.56c0-.22,0-.45,0-.67h-165.47c.05-1.18.7-1.24,1.32-1.27.93-.04,1.87-.03,2.8-.03,51.63,0,103.26,0,154.9,0,.73,0,1.45-.04,2.18,0,1.34.09,2.46-.08,2.83-1.69.07-.32.59-.54.9-.8Z"/>
  <path class="cls-6" d="M108.63,443.8c-.5-.24-.69-.68-.79-1.18q2.83-1.94,6.92-1.94c106.78,0,213.56,0,320.34.02,4.46,0,9.13-.98,12.91,2.11-1.75.38-1.88.54-2.42.11-1.64-1.33-3.53-.99-5.36-.99-108.75,0-217.5,0-326.25,0h-3.36c0,.19,0,.39,0,.58h332.7c-1.17.83-2.4.66-3.6.66-108.85,0-217.71,0-326.56.01-1.54,0-3.13-.26-4.55.63Z"/>
  <path class="cls-6" d="M164.69,472.54c.06.14.06.28,0,.41-.6,1.05-1.26.27-1.9.07.46-.87.21-1.36-.78-1.44-.53-.04-.97,1.1-1.53.2-.39-.64-.17-1.39.04-2.21,1.05.19,1.96.57,2.99.39,1-.18,2.07-.05,3.1-.05,103.5,0,207.01,0,310.51,0,1.14,0,2.28,0,3.41-.07.6-.04,1.26-.44,1.69.24.49.76.49,1.6-.08,2.32-.38.47-.91.83-1.37,1.23-.04-.35-.08-.71-.12-1.06-.84-.93-1.95-.47-2.92-.47-103.36-.02-206.72-.02-310.08,0-.98,0-2.08-.43-2.96.44Z"/>
  <path class="cls-6" d="M637.57,766.16c-.41.73-1.05,1.09-1.88,1.1-5.7-.01-11.4.13-17.09-.09-7.32-.28-14.64-.04-21.96-.08-7.96-.04-15.93.13-23.9.07-7.53-.06-15.06.16-22.61-.11-5.23-.19-10.51.23-15.76.08-1.03-.03-2.85,1.44-3.33-.98-.04-.22-.64-.13-.82.11-1.02,1.27-2.42.97-3.73.94-4.54-.08-9.09-.03-13.64-.16-3.28-.1-6.6.16-9.9.17-9.82.01-19.64,0-29.46,0-5.89,0-11.77,0-17.66,0-.84,0-1.83.17-1.26-1.25,1.02-.53.25-1.48.5-2.19.22-.02.42-.08.59-.03,1.01.31,1.72.96,2.1,1.95.77-.47,1.43-1.02,2.47-1,3.63.08,7.25.03,10.88.03,1.13,0,2.11-.01,3.07-1.01,1.27-1.33,3.03-1.3,4.37.04.87.87,1.73.93,2.77.99,2.57.14,5.17-.37,7.72.36.97.28,1.77-.45,2.58-.88,1.35-.71,2.65-.84,4.17-.41,2.79.78,5.66.97,8.58.95,4.86-.03,9.73-.26,14.59.14.1,0,.23.12.29.08,3.72-1.93,7.5.28,11.3-.16,3.89-.45,7.86-.1,11.8-.1.63,0,1.24.03,1.79.39.25.17.71.46.8.39,2.77-2.42,5.86-.11,8.76-.59.48-.08.98.05,1.44-.27.24-.17.55-.25.83-.37.97-.42.69,2.55,2.33.79.77-.82,2.19-.3,3.31-.31,3.11-.04,6.22-.02,9.33-.01,1.05,0,1.9-.15,2.76-1.01,1.32-1.32,3.05-1.31,4.37.01.86.86,1.72.94,2.77,1,2.57.14,5.18-.41,7.72.37.53.16,1.05-.03,1.47-.33,2.15-1.53,4.43-1.47,6.8-.67,2.31.78,4.7.57,7.07.62,4.86.09,9.75.15,14.59-.01,2-.07,3.96-.27,5.99-.04,2.05.23,4.16-.11,6.21.1,1.54.16,2.4-1.03,3.68-1.3.05.88.57,1.22,1.4,1.26.92.05,1.47.6,1.8,1.41Z"/>
  <path class="cls-6" d="M606.93,439.44c.27.59.88.57,1.37.77,1.22.89,2.61.46,3.92.46,120.24.02,240.49.02,360.73.04,1.27,0,2.62-.34,3.84.36-.2,1.04-.92.83-1.47.86-1.03.04-2.07.02-3.11.02-120.04,0-240.07,0-360.11.02-1.29,0-2.71-.52-3.85.6h0c-.71.05-1.6-.26-2.06.33-.46.58.01,2.11-1.6,1.22-1.58-.87-.65-1.83-.16-2.81.09-.17.06-.4.09-.61.81-.02,1.22-.44,1.24-1.24.39,0,.78,0,1.17,0Z"/>
  <path class="cls-6" d="M681.04,596.83c2.79-.88,5.67-1,8.57-1,47.26,0,94.51-.06,141.77.07,5.45.01,10.49-.64,15.07-3.69.14.43-.72,1.34.53,1.21.48-.05.92-.45,1.69-.04-.83,1.57-3.06,2.69-1.62,5.34-2.74-.78-5.04-.93-7.34-.12-.54.19-1.29.14-1.84-.07-1.71-.67-3.47-.48-5.22-.48-47.66,0-95.31,0-142.97,0-1.65,0-3.27-.06-4.91.46-1.59.51-3.12.29-3.73-1.67Z"/>
  <path class="cls-6" d="M249.28,595.51c1.29.58,2.66.3,3.99.31,48.21.02,96.43.01,144.64.01,3.01,0,5.99.3,8.93.94,1.51.33,3.02.7,4.24,1.75-.36.63-.89.82-1.57.59-.68-.23-1.4-.8-2.01-.69-3.21.59-6.33-.39-9.49-.39-48.77,0-97.55,0-146.32.02-1.63,0-3.26.19-4.89.29-2.23.13-3.86-1.53-6.18-1.86.7-1.14,1.5-1.01,2.23-.68,2.01.91,1.21-.87,1.54-1.56.37.03.73.05,1.1.08,1.21.55,2.81-.11,3.79,1.18Z"/>
  <path class="cls-6" d="M792.37,673.83c1.24-.42,2.48-.83,3.71-1.25-1.18,3.11-3.1,4.44-6.53,4.45-11.61.01-23.22,0-34.83,0-44.16,0-88.31,0-132.47-.01-1.75,0-3.51.24-5.22-.47-.97-.41-1.79.11-2.58.66-.26.18-.62.05-.79-.23-.18-.3-.05-.65.23-.8.63-.35,1.37-.98,1.93-.86,2.18.46,4.29-.19,6.43-.19,54.11.05,108.21.02,162.32.09,2.46,0,4.83-1.04,7.32-.38.35.09.43-.61.47-1.02Z"/>
  <path class="cls-6" d="M659.25,627.92c-.8-.13-.65-.64-.41-1.12.99-1.92,2.02-3.82,3.03-5.73.99,1.38,2.32,1.98,4.01,1.85.72-.06,1.45,0,2.18,0,51.63,0,103.26,0,154.89.02,1.25,0,2.66-.47,3.87.68-2.64.78-149.52,1.19-165.23.51.37.18-.16-.16-.04.23.03.09.11.25.16.25,54.92.01,109.84.01,164.77.29-.97.7-2.04.5-3.06.5-53.18.01-106.37.02-159.55-.02-2.12,0-3.97.07-4.62,2.55Z"/>
  <path class="cls-6" d="M829.05,628.02c-1.04.03-2.07.08-3.11.09-54.02,0-108.03,0-162.05,0-1.13,0-2.27-.11-3.4-.16,1.18-1.71,3.22-1.26,4.84-1.88.54-.21,1.23-.04,1.85-.04,53.81,0,107.61,0,161.42.01,1.08,0,2.23-.24,3.51.4-1.02,1.1-1.88.14-2.65.16-2.04.04-.42.92-.41,1.42Z"/>
  <path class="cls-6" d="M802.95,703.66c-3.17,1.16-6.37,2.23-9.82,2.05-1.4-.93-2.99-.69-4.53-.69-47.14,0-94.28-.01-141.42.02-2.98,0-5.81-.79-8.73-1,6.94-1.15,13.91-.88,20.86-.88,45.38,0,90.76,0,136.13,0,2.51,0,5.01.18,7.5.51Z"/>
  <path class="cls-6" d="M294.6,705.81c-1.69.1-3.34-.08-4.9-.78.1-2.11,1.59-1.89,3.05-1.89,24.56.02,49.12.01,73.68.01s49.33,0,73.99,0c.83,0,1.66-.04,2.48.05,1.03.12,1.76.58,1.51,1.82-48.91,0-97.79,0-146.68.02-1.08,0-2.32-.41-3.14.77Z"/>
  <path class="cls-6" d="M980.34,441.4c-3.9,6.76-7.96,13.42-12.42,19.83-.62-.28-1.02-1.51-1.96-.34-.76.95-1.9,1.61-1.88,3.05,0,.66-.42,1.14-.89,1.57-.31.28-.67.56-1.09.35-.4-.2-.46-.64-.43-1.06.01-.2-.01-.47.11-.6,1.18-1.23.87-2.5-.15-3.86,2.47.24,4.24-1.22,6.4-1.25,1.02-.02,1.29-1.34,1.63-2.4-1.43.07-1.51,1.56-2.85,1.92.24-1.59,1.11-2.54,1.91-3.51.12-.15.37-.35.5-.31.6.17.92,1,1.74-.21.72-1.07,1.64-2.05,2.06-3.31.17-.49-.4-.58-.81-.62.01-.1,0-.24.05-.3,1.54-1.78,2.82-3.57.19-5.81,2.18.68,3.92.28,5.52-.85-.14-.43-.41-.5-.73-.5-.93,0-1.87,0-2.8,0-120.78,0-241.56,0-362.35-.02-1.29,0-2.71.52-3.85-.6h0c122.07,0,244.14,0,366.21,0q3.63,0,5.89-1.14Z"/>
  <path class="cls-6" d="M471.3,673.15c2.83-2.99,6.12-5.43,9.33-7.97,1.4.65,2.18.03,1.76-1.31-.68-2.16-.42-4.32-.42-6.47-.02-59.88-.02-119.75,0-179.63,0-1.33-.52-2.89,1.22-4.14v4.11c0,60.5,0,121,0,181.5,0,1.03.03,2.07.19,3.09.16.99,1.11,2.06.49,2.92-.82,1.13-1.55,2.47-2.94,3.08-1.49.65-2.47,1.82-3.34,3.11q-.77.32-.74,1.35c0,.15.02.29.03.44-1.6-.14-2.61,1.64-4.26,1.33.71-1.27.72-1.87-.92-1-.05.03-.26-.25-.4-.39Z"/>
  <path class="cls-6" d="M924.55,470.61c-2.29-.22-4.54-.07-6.79-.07-102.54,0-205.08,0-307.61.01-1.78,0-3.76-.59-5.07,1.39-.3.46-.94.28-1.34-.17-.46-.51-.52-1.13-.34-1.74.21-.68.85-1.09,1.43-.96,8.18,1.89,16.46.77,24.68.78,95.9.1,191.8.07,287.71.05,1.54,0,3.1.22,4.63-.29,1.06-.36,1.93.21,2.71,1Z"/>
  <path class="cls-2" d="M922.99,472.6c-1.24-.06-2.48-.18-3.72-.18-102.93,0-205.86,0-308.79,0-1.14,0-2.28.07-3.42.11-.32-.22-.34-.47-.07-.74,104.31,0,208.62,0,312.93.01,1.05,0,2.33-.54,3.07.8Z"/>
  <path class="cls-6" d="M606.92,663.34c.26.75,0,1.67.77,2.26,3.57,2.72,6.61,6.08,10.49,8.42-.71.79-1.4.5-2.08-.06-.54-.43-1.08-.86-1.62-1.29-.41-.82-.95-1.41-1.95-.87-.63.34-1.2.81-1.85,1.13-1.28.63-2.65-.09-2.25-1.34.69-2.17-.48-3-1.98-3.85-.35-.2-.64-.51-.94-.79-.67-.62-1.75-.88-2.05-1.81-.37-1.15.86-1.48,1.37-2.2.27-.38.28-.98.31-1.48.05-.83.02-1.66.02-2.49,0-60.2,0-120.4,0-180.6v-3.37c.81.98.61,2.05.61,3.08.01,60.41.01,120.81.01,181.22,0,.93,0,1.86.03,2.8.01.74.44,1.12,1.13,1.24Z"/>
  <path class="cls-6" d="M480.77,664.57c-.05-1.03-.13-2.07-.13-3.1,0-61.37,0-122.73,0-184.1,0-1.03.09-2.06.13-3.1.86.86.53,1.95.54,2.95.01,61.46.01,122.93,0,184.39,0,1,.33,2.1-.54,2.95Z"/>
  <path class="cls-6" d="M468.88,677.03c.9-.11,1.86.27,2.68-.38.07-1.06-.74-.81-1.27-.85-.93-.06-1.86-.02-2.8-.02-55.87,0-111.73,0-167.6,0h-3.38c-.09-1.12.63-1.33,1.18-1.12,2.12.8,4.31.48,6.46.48,53.07.02,106.14.02,159.21.01,3.09,0,6.2.19,9.24-.62.02.1.05.21.05.31-.1,1.12,2.02.71,1.47,1.95-.51,1.16-1.77.81-2.77.85-.82.03-1.65,0-2.48,0v-.62Z"/>
  <path class="cls-6" d="M468.79,676.94h-173.63c.73-.2.11.12.25-.28.03-.08.16-.18.24-.18,57.09-.03,114.17-.05,171.26-.07.41,0,.83.03,1.23.1.19.03.36.19.53.3.08.06.15.14.13.13Z"/>
  <path class="cls-6" d="M787.29,678c-3.06.33-167.77.33-170.75.1,1.98-.57,166.43-.75,170.75-.1Z"/>
  <path class="cls-6" d="M468.66,678.07h-168.29c0-.08,0-.16,0-.24h168.51c-.07.08-.15.16-.22.24Z"/>
  <path class="cls-4" d="M574.74,556.97c-.39-1.32-.2-2.68-.2-4.02-.01-52.96-.01-105.92-.02-158.88.24-.19.49-.2.75-.04,0,53.22,0,106.45-.01,159.67,0,1.1.38,2.3-.51,3.27Z"/>
  <path class="cls-6" d="M243.7,666.44c-1.94-2.28-3.35-4.92-4.96-7.42-4.03-6.23-8.04-12.46-12.06-18.7-.72-1.12-1.52-2.21-1.76-3.57.3-.49.74-.85,1.24-.39,1.07.98,1.44,2.9,3.49,2.55.1,1.29,1.44,2.24,1.04,3.67-.11.39-.33.77-.37,1.17-.02.28.1.68.31.85.67.52.44-.37.69-.49.99-.45,2.01-1.1,3.02-.03.63.66,1.25,1.09.58,2.32-1.04,1.9-.21,2.95,1.43,4.57,1.74,1.71,2.99,3.93,4.03,6.2-1.26,1.5-.2,2.61.65,3.74.34.45.87.53,1.39.57h0q2.56,1.11,2.88,4.45-1.29-1.05-1.6.52Z"/>
  <path class="cls-6" d="M183.27,567.58c-2.15-2.75-4.11-5.63-5.59-8.79-2.15-4.57-1.11-8.61,2.88-11.72.73-.57,1.5-1.07,2.36-1.67-1.19-1.5-3.46-1.17-4.59-2.7,0-.21,0-.42,0-.63,0,0,0,0,0,0,.81.51,1.74.57,2.65.76.68.14.88-.01.89-.71.01-.7.78-.46.77-.23-.03,1.96,1.67,2.23,2.78,2.89.28,1.22-1.2.84-1.21,1.56,0,.57.29,1.14.45,1.7-.58.39-1.22.17-1.82.26-2.48.39-3.01,1.77-2.62,4.23.27,1.7.4,3.37.96,5.05.39,1.17-1.22,2.03-1.46,3.57,2.13-.52,2.85.5,3.84,2.26.78,1.39,1.6,2.55,1.61,4.16l-1.91.02Z"/>
  <path class="cls-6" d="M478.78,735.41c.62-.24.76-.33.8-.3,2.82,1.99,6.05,1.63,9.22,1.63,36.77,0,73.53,0,110.3,0h3.37c.01.21.03.41.04.62h-3c-37.39,0-74.77,0-112.16,0-1.04,0-2.2-.29-3.08.09-2.5,1.08-3.74-.51-5.49-2.04Z"/>
  <path class="cls-6" d="M885.91,596.23c-1.02,2.51-2.67,4.6-4.38,6.65-4.03,4.82-8.29,9.4-13.38,13.14-1.56-1.31-.71-2.91-.31-4.29.37-1.3,1.39-2.32,2.89-2.49,1.23-.14,1.85-.75,1.94-1.98.1-1.28,1-2.41,1.96-2.58,2.61-.46,2.53-2.22,2.56-4.14.56,1.64,2.37,3.22-.24,4.87,1.37-.46,3.28-1.81,3.3-2.36.05-1.34-1.2-2.34-1.03-3.9.69-.84,1.4,1.31,2.23.24.52-.67.94-1.37,1.12-2.18.28-1.31.81-1.47,1.88-.67.26.2.96-.19,1.46-.31Z"/>
  <path class="cls-6" d="M449.04,717.03c.97,1.21,1.18,2.57,1.18,4.01,0,11.26,0,22.52,0,33.78,0,.61-.02,1.24-.15,1.84-.11.51-.44.94-1.07.88-.55-.06-.58-.54-.6-.93-.05-.72-.04-1.44-.04-2.17,0-11.05,0-22.11,0-33.16,0-1.41-.14-2.85.69-4.25Z"/>
  <path class="cls-6" d="M929.87,522.09c-4.76,9.63-12.41,16.3-21.77,21.22-.63-.7-.51-2.16-.08-3.19.41-.99.9-1.32,1.87-.88,1.01.46,2.17,1.51,2.47-.67.01-.09.36-.18.56-.19,2.65-.05,3.49-1.82,4.43-3.98.79-1.82,1-3.23-.59-5.12,2.01.29,3.59.21,5.05.98-.88.95-1.91,1.8-2.35,3.18,2.7-1.52,3.49-2.39,4.34-5.15.32-1.05,1.36-.65,2.29-1.36-1.58-.5-2.88-1.01-3.19-2.6,1.05-.64,1.91.34,2.89.4,1.79.09,1.91.17,1.27-1.59-.39-1.07.2-1.79.44-2.63.24-.85.98-1.2,1.97-1.22-.22,1.14-1.27,1.88-1.3,2.97.71.47,1.06-.94,1.72-.16Z"/>
  <path class="cls-6" d="M904.52,545.72c7.14,3.17,7.61,9.81,4.4,14.79-1.67,2.59-3.09,5.34-5.11,7.69-2.27-.82-2.46-1.39-1.05-3.05.8-.95,2.36-1.36,2.09-3.09-.05-.34.61-.35,1.04-.31,1.06.11,1.53-.4,1.36-1.46-.02-.1-.05-.2-.1-.29-.46-1.03,1.24-1.34.82-2.09-.24-.43-1.31-.29-1.17-1.34.08-.57-.51-1.24.11-1.73,1.92-1.52.84-3.18.19-4.74-.72-1.74-2.32-1.83-3.93-1.84-.29,0-.57-.16-1.07-.31.49-1.18,1.52-1.63,2.41-2.22Z"/>
  <path class="cls-6" d="M130.39,478.64c-4.26-6.25-8.25-12.68-12.04-19.22.7.04,1.3.4,2.09.28,2.64-.41,4.29.9,4.36,3.56.07,2.61,1.96,4.43,2.7,6.75.18.55,1.16,1.31,1.65,1.23,2.59-.42,2.03.99,1.51,2.39-.17.46-.6.81-.13,1.35,1.08,1.25.15,2.45-.14,3.67Z"/>
  <path class="cls-6" d="M576.51,578.76h.62v94.54c-1.07-1.02-.6-2.35-.6-3.53-.03-30.34-.02-60.67-.02-91.01Z"/>
  <path class="cls-6" d="M575.8,578.84v93.97c-.2-.73.12-.11-.28-.25-.08-.03-.18-.16-.18-.24-.03-30.53-.05-61.06-.07-91.6,0-.41.03-.83.1-1.23.03-.19.18-.36.3-.53.06-.08.14-.15.13-.13Z"/>
  <path class="cls-6" d="M662.99,543.3c1.53-4.46,3.99-8.5,5.89-12.79,1.25-2.83,2.63-5.56,5.01-7.64.3-.26.66-.47.99-.7-.42.57,1.81,1.65-.43,1.93-1.31.16-1.83,1.23-1.71,2.5.23,2.37-1.17,4.3-1.68,6.46-.1.44-.44.63-.79.87-3.64,2.49-3.69,2.52-2,6.29.56,1.25-.24,1.88-.72,2.75-.6,1.09-1.3.7-2.06.33-.27-.5-.4-1.09-.95-1.39-.64.34-.03,2.04-1.54,1.39Z"/>
  <path class="cls-6" d="M534.81,392.08c-3.73.17-7.39.93-11.08,1.39-.45-.24-.9-.49-1.49-.8.16-.8.97-.93,1.44-1.36.35-.32,1.39-.96,1.41-1.07.08-.51.08-.51,1.65-.64.2-.02.47-.21.59-.13,2.96,1.84,5.98-.16,8.99.14,3.04.3,6.14.13,9.21.04,1.28-.04,2.41.47,3.62.65v.62c-.47.18-.95.53-1.42.53-1.69,0-3.41.02-5.08-.24-1.67-.26-3.17.58-4.85.4-1.97-.21-3.84-1.41-5.9-.68-.27.1-.56.17-.92.28,1.24.82,2.79-.24,3.84.88Z"/>
  <path class="cls-6" d="M601.19,702.64c-4.59-3.14-8.61-6.99-12.96-10.43-1.27-1.01-2.76-1.82-3.68-3.24.2-.51.62-.41,1.04-.41,2.14.04,3.96,1.43,6.13,1.41.34,0,.75.36.64.91-.9,1.09-1.89-.61-3.04.22,1.34,1.62,3.15,2.19,5.05,2.43.54.07,1.16-.43,1.77-.08.37.21.67.49.61.97-.04.36-.32.47-.63.57-.75.24-1.63-.24-2.3.4,1,2.38,3.91,1.19,5.12,2.7,1.31,1.64,3.66,1.98,4.6,4.03-.81.28-1.69-.07-2.35.51Z"/>
  <path class="cls-6" d="M525.51,361.11c4.31-.85,8.67-1.23,13.06-1.25.06.99-1.92,1.91.03,3.02.69.4-.1,1.13-.58,1.43-1.23.77-2.64.81-3.8.03-1.14-.77-2.32-.91-3.53-.76-2.41.31-4.66-.86-7.05-.65h0c.3-.49.77-.61,1.3-.62,1-.01.83-.59.58-1.2Z"/>
  <path class="cls-6" d="M605.76,439.43c-1.07-1.02-.6-2.35-.6-3.53-.03-23.7-.02-47.4-.02-71.11h0c1.07,1.02.6,2.35.6,3.53.03,23.7.02,47.4.02,71.11Z"/>
  <path class="cls-6" d="M226.12,575.05c.91,1.37,1.93,2.69,2.72,4.13,2.69,4.91,6.52,8.74,10.99,12,.49.36.91.81,1.36,1.22-.21.22-.43.43-.64.65-1.42-1.57-3.05-2.85-4.98-3.73-.34-.78-.84-.86-1.72-.8-2.61.2-4.14-1.38-3.63-3.89.43-2.12-.96-3-1.96-4.41-1,1.31.69,2.08.1,3.09-3.69-2.73-4.25-4.76-2.25-8.28Z"/>
  <path class="cls-6" d="M149.06,508.49c-3.17-4.62-6.24-9.31-8.9-14.25,1.01.5,2.02-.13,3.02-.01.46.05.75.32.82.77.09.59-.28.66-.75.62-.46-.04-.85.13-.76.66.07.44.47.76.9.64,1.3-.37,1.94.55,2.54,1.33.7.9,1.53,1.64,2.4,2.36.55.46,1.26.97,1.26,1.69,0,1.62.56,3.08,1.2,4.55-1.2.3-1.12-1.02-1.94-1.03-.79.95,1.24,1.73.21,2.69Z"/>
  <path class="cls-6" d="M943.69,500c-1.65,3.19-3.52,6.23-5.69,9.1-.82-.41-1.34-.94-.92-1.96.4-.99.5-2.03-.1-2.97-.5-.79-1.24-1.58-.46-2.49.97-1.13,1.62-2.79,3.45-2.78,1.01,0,1.9.02,2.93-.38,1.1-.42.49.97.8,1.48Z"/>
  <path class="cls-6" d="M254.82,683.27c-3.25-3.36-5.28-7.57-7.86-11.39-1.02-1.52-2.28-2.93-2.85-4.74,1.14.65,2.51,1.09,3.37,2,.98,1.05,1.75.24,2.58.15.51.82-.26,1.14-.51,1.63-.19.38-.41,1.01-.13,1.11,1.42.53,1.77,2.56,3.57,2.51-.42,1.34,1.04,2.75-.16,4.07-.04.05.18.48.25.47.89-.12,1.78-.72,1.94,1.02.1,1.01.2,1.98.03,2.97-.01.08-.15.13-.23.2Z"/>
  <path class="cls-6" d="M199.47,593.07c-2.76-3.76-5.26-7.68-7.46-11.8.08-1.88,1.47-1.9,3-1.89.44.89-.85,1.76-.31,2.73.47.85,1.22,1.33,2.04,1.8.73.42,1.38.06,2.07.02.72-.04,1.12.48,1.22,1.14.1.73-.41.72-.97.74-.66.02-.81.55-.66,1.1.1.39.23.92.52,1.09,2.49,1.46,1.53,3.25.56,5.07Z"/>
  <path class="cls-6" d="M168.96,479.88c4,5.86,7.76,11.85,11.24,18.03-1.07.99-2.1.79-2.88-.3-.71-.99-1.41-2-1.75-3.24-.2-.74-.37-1.54-1.12-2.13-1.77-1.43-1.72-1.49-.89-3.57-2.76-.6-2.68-.61-3.05-3.74-.18-1.49-.75-2.92-2.14-3.81,0-.5.1-.95.58-1.23Z"/>
  <path class="cls-6" d="M182.59,501.65c1.72,2.66,3.47,5.3,5.13,7.99.66,1.07,1.39,2.01,2.43,2.71-1.36,2.24-2.52,2.36-3.89.39-.4-.57-.91-1.01-1.1-1.78-.6-2.48-.66-2.46-3.14-1.97-.18.04-.38-.07-.75-.15.73-1.77,1.32-3.49.02-5.34-.88-1.25.73-1.32,1.3-1.86Z"/>
  <path class="cls-6" d="M176.31,541.52c-3.23-1.62-6.04-3.78-8.54-6.38q.6-3.01-2.9-5.27c1.77-.5,3.42.02,5.14-.63-.8,2.03-.23,3.9-.03,5.79.05.43-.01.88.44.99.67.16.82-.44,1.02-.9.12-.27.25-.55.46-1.02,1.09.77,1.89,1.78,3.19,2.18-1.05,1.55-2.25-.39-3.28.6,1.31,1.83,3.61,1.65,5.26,2.69-.55.54.05,1.53-.78,1.95Z"/>
  <path class="cls-6" d="M862.61,573.12c2.08-3.87,4.4-7.59,6.98-11.15,1.39-.14,1.96.51,1.83,1.86-.29.1-.77.12-.83.3-.67,1.8-1.28,3.49-3.24,4.49-.98.5-.89,1.99-.48,3.05.2.51,1.04.9.6,1.52-.58.83-1.17-.48-1.45-.28-1.14.81-2.26.49-3.41.2Z"/>
  <path class="cls-6" d="M820.24,643.38c1.83-3.7,4.15-7.1,6.47-10.49.94,1.15-.22,1.83-.63,2.65-.21.44-.62.77-.35,1.35,1.46,3.16,1.25,4.13-.88,5.86-.72.59-1.43.78-2.23.64-.81-.13-1.59-.32-2.38-.01Z"/>
  <path class="cls-6" d="M503.15,688.95c-3.32,3.1-6.85,5.95-10.49,8.66-.5-.27-.49-.69-.1-.97,1.27-.91,1.85-2.1,1.67-3.65-.09-.73.46-1.03.91-.85.96.4,1.51-.47,2.3-.53.78-.06.74-.61.54-1.1-.2-.5-.59-.86-1.2-.55-.18.09-.33.25-.5.36-.56.35-1.3.61-1.56-.12-.3-.81.67-1.69,1.1-1.51,1.75.74,3.66-.96,5.29.5.72.65,1.23-1.33,2.06-.24Z"/>
  <path class="cls-6" d="M470.1,383.42c2.06-2.07,4.39-3.7,7.27-4.44,2.45,1.09,2.64,1.87.82,3.56-1.07.99-2.28,1.84-3.82,1.4-1.03-.29-1.76.2-2.59.53-1.01.4-1.55,0-1.67-1.04Z"/>
  <path class="cls-6" d="M840.56,671.51c-2.33,3.85-4.45,7.83-7.45,11.24-1.57-1.18-.83-2.52-.26-3.85.74.18,2.06,1.33,1.46-.8-.36-1.27-.22-2.42.41-3.55,2.14-.32,2.68-1.98,3.11-3.73.98-.03,1.59,1.39,2.74.7Z"/>
  <path class="cls-6" d="M452.05,407.66c1.66-4.5,4.03-8.59,6.98-12.36.91,2.42.12,4.52-1.3,6.44-.52.71-.7,1.42-.67,2.25-2.8.49-2.78.5-3.13,3.09-.1.76-.32,1.51-.49,2.29-.97-.32-1.02-1.13-1.39-1.71Z"/>
  <path class="cls-6" d="M217.32,614.36c-3.99-3.08-7.5-6.64-10.56-10.64,1.31.16,2.61.37,3.92.46,1.88.12,3.13,1.08,3.65,2.8.26.85.44,1.54,1.38,1.81.35.1.4.5.15.73-.19.17-.58.27-.82.2-.86-.22-1.35-.89-1.78-1.61-.63-1.07-1.36-2.03-2.68-2.48.36,1.91,1.45,3.2,5.11,6.1.66.86,1.65,1.14,2.75,1.39-.45.51-.77.88-1.1,1.25Z"/>
  <path class="cls-6" d="M266.13,641.54c3.17,4.6,6.21,9.28,8.84,14.21-1.44-.52-2.23-2.03-3.81-2.39-.69-.16-.73-.87-.56-1.55.48-1.82-.21-2.92-2.01-3.48-1.37-.43-2.65-1.01-1.13-2.75.24-.27-.04-.86-.43-1.03-.47-.2-.69.26-.92.58-.18.25-.34.51-1.02.48.81-1.3-1.26-3.06,1.03-4.07Z"/>
  <path class="cls-6" d="M954.77,482.31c-2.27,4.08-4.7,8.07-7.43,11.87-1.16-1.56-.89-3.18.21-4.52,1.04-1.27,1.59-2.6,1.63-4.2,1.34-.68,3.52-.11,3.73-2.49h0c.69-.01.93-1.31,1.85-.66Z"/>
  <path class="cls-6" d="M139.73,493.56c-2.58-3.55-4.93-7.26-6.96-11.16.67.4,1.34.79,2.02,1.19.07.86.25,1.56,1.37,1.57.79,0,1.57.19,2.36.3-.04,1.53-.02,2.88,1.45,4.06,1.55,1.24,1.29,2.37-.24,4.04Z"/>
  <path class="cls-6" d="M414.93,524.56c2.54,2.42,3.61,5.64,4.81,8.79-2.45.92-2.68.95-3.59-1.03-.75-1.63-2.42-3.18-.92-5.28.33-.46-.23-.9-.59-1.28-.5-.52-.2-.9.29-1.2Z"/>
  <path class="cls-6" d="M856.37,583.05c1.64-3.04,3.39-6,5.52-8.73.65.33.43.73.09,1.13-.42.51-.56,1,.1,1.44-.94,1.18.11,2.37,0,3.55-.09.98.31,2.11-.88,2.75-.54.29-1.1.69-1.71.3-.6-.38-.16-.91-.08-1.38.08-.46-.11-.79-.64-1.08-.7.42-.83,1.21-1.12,1.93-.29.72-.85.18-1.29.09Z"/>
  <path class="cls-6" d="M495.03,405.9c-2.31,1.3-4.71,2.42-7.25,3.19q-.08-2.66,2.31-3.74c-1.72-.24-3.31-.32-4.71.88-.29.25-.84.3-1.1-.1-.42-.66.22-.86.63-1.09,1.24-.7,2.61-.3,3.92-.43,1.81-.18,3.58.66,5.43.18.55-.14.69.62.77,1.13Z"/>
  <path class="cls-6" d="M206.28,603.04c-2.82-2.61-4.49-6.02-6.34-9.3.86.09,1.28.92,2.04,1.18h0c.3,1.02.3,2.26,2.03,1.78,1.11-.31,1.04.76,1.07,1.4.08,1.54,1.45,1.49,2.31,2.12,1.1.82,1.79.52,2.6-1.03.12,2.09-.16,3.35-1.88,3.01-1.02-.2-1.22.6-1.83.83Z"/>
  <path class="cls-6" d="M193.95,514.03c3.22.96,6.25,2.37,9.26,3.83-1.93,1.09-4.21.25-6.19,1.08-.39.16-.71-.03-.95-.48-.62-1.19-1.53-2.1-2.66-2.89-1.01-.71-.06-1.17.55-1.54Z"/>
  <path class="cls-6" d="M811.62,657.09c1.42-2.85,3.1-5.53,5.04-8.06,1.73,2.26,1.74,2.27.06,4.09-.65.7-1.01,1.52-1.27,2.41-.65,2.18-.65,2.16-2.95,1.4-.25-.08-.59.1-.89.16Z"/>
  <path class="cls-6" d="M448.97,417.06c.11-1.75.53-3.41,1.33-4.97,2.03,2.35,2.05,2.61-.19,5.16-.65.74-.51,1.53-.51,2.31-.02,4.95-.01,9.9-.01,14.85,0,1.01,0,2.02,0,3.03-.21,0-.41,0-.62,0v-20.39Z"/>
  <path class="cls-6" d="M154.08,516.56c-1.71-2.14-3.09-4.49-4.33-6.92,1.25-.73,2.47-.16,3.71.08.02,1.5.94,1.83,2.52,1.49-1.81,1.64,0,4.07-1.9,5.35Z"/>
  <path class="cls-6" d="M884.47,517.79c2.53-1.31,5.07-2.59,7.86-3.24.48.16.95.37,1.45.46.37.07.59.25.55.56-.03.26-.23.68-.41.72-1.93.35-3.31,1.91-5.25,2.27-1.54.28-3.01.59-4.21-.78Z"/>
  <path class="cls-6" d="M486.39,702.72c-1.86,2.03-4.36,3.47-5.63,6.05-1.05-.5.21-2.68-1.8-2.48.05-.84-.86-2.02,1.06-2.12,1.1-.06,2.01-1.27,3.4-.52.47.25,1.61-.07.92-1.16-.44-.7-.33-1.18.32-1.48.81-.37,1.01.41,1.32.89.17.25.27.55.41.82Z"/>
  <path class="cls-6" d="M419.7,608.62c1.33,2.66,2.96,5.18,3.76,8.09-.48.78-.04,2.85-2.15,1.12-1.25-1.02-1.6-.67-1.57-1.88.03-1.26-.45-2.53.44-3.76.42-.59-.3-1.32-.59-1.96-.26-.58-.57-1.11.1-1.6Z"/>
  <path class="cls-6" d="M415.5,601.71c1.93,1.66,3.04,3.82,3.84,6.18-3.01,1.14-3.16.98-4.68-1.15-.88-1.23.19-2.08.1-3.11.44-.07,1.08,0,.72-.77-.19-.42-.66-.79.03-1.16Z"/>
  <path class="cls-6" d="M480.07,440.06c-.82-.41-1.23-1.07-1.23-1.98,0-4.92,0-9.85,0-15.08,1.25,1.47,1.25,2.89,1.24,4.33-.01,4.24,0,8.48,0,12.71,0,0-.02.02-.02.02Z"/>
  <path class="cls-6" d="M812.33,699.47c-.99,1.12-2.37,1.44-3.71,1.84-.58.08-.01-1.79-1.38-.69-1.17.94-4-.14-4.58-1.48-.07-.16-.06-.49.04-.56.23-.16.68-.38.8-.28,1.92,1.61,3.73.9,5.7.03,1.13-.5,2.48-.32,3.12,1.14Z"/>
  <path class="cls-6" d="M161.92,529.08c-1.83-2.38-3.39-4.93-4.71-7.62,1.11-.55,1.03.56,1.37,1.02.82,1.1,1.28.5,1.71-.32,1.48.88-.32,1.71-.12,2.57,2.87.05,3.16.37,3.53,3,.24,1.71-1.05,1.1-1.79,1.35Z"/>
  <path class="cls-6" d="M666.01,612.3c.95-2.81,2.52-5.34,3.8-8,.38-.79.84-1.66,1.79-2,1.04,3.53.65,4.59-2.49,6.4-.68.39-1.03.96-1.36,1.59-.43.8-.69,1.75-1.74,2.01Z"/>
  <path class="cls-6" d="M965.62,465.01c-1.48,2.82-3.1,5.55-5.09,8.05-.78.31-1.57.33-2.38.15-.47-.96,1.37-1.39.57-2.39-.35-.43-.95-.25-1.44-.29.34-.66.72-1.08,1.63-1.08,2.53,0,2.43-.17,4.03-1.7.93-.89,1.09-2.54,2.69-2.74Z"/>
  <path class="cls-6" d="M501.84,367.93c1.73-1.17,3.6-2.02,5.63-2.53,1.64,1.01,1.62.99.45,2.1-.25.24-.31.68-.46,1.03-1.68-.17-3.2.53-4.78.88-2.12.46-1.05-.71-.83-1.47Z"/>
  <path class="cls-6" d="M607.06,709.37c-.94-2.28-2.77-3.85-4.43-5.56,1.35-1.18,2.89-.5,4.51-.59-.8,1.03-1.91.15-2.71.91.97.15,1.25,1.21,2.33,1.31,2.2.21,2.55.95,1.69,2.86-.28.62-.69,1.01-1.39,1.07Z"/>
  <path class="cls-6" d="M576.51,578.76h-.62c-.11-6.89.25-13.78-.25-20.9,1.46.65,1.42,1.82,1.51,3,.18,2.19-.78,4.22-.68,6.43.17,3.82.05,7.64.05,11.47Z"/>
  <path class="cls-6" d="M908.76,495.46c1.2-2.45,2.72-4.71,4.37-6.88.57.34.78.95,1.03,1.5.79,1.72.63,2-1.44,2-1.01,0-1.45.11-.88,1.14.59,1.08-1.42,1.87-.09,3.09-1.05-.74-2.08-.55-2.99-.85Z"/>
  <path class="cls-6" d="M583.47,688.18c-3.09-2.53-5.95-5.24-7.15-9.22,1.52.77,1.25-.9,1.76-1.47.6.57.62,1.07.45,1.75-.61,2.41-.55,2.43,2.35,1.97-1.1,2.91.48,4.57,2.66,5.95.4.26.3.7-.07,1.02Z"/>
  <path class="cls-6" d="M572.77,391.55c-.41,0-.99.16-1.22-.05-1.85-1.74-4.12-1.17-6.25-1.19-4.74-.05-9.48-.01-14.7-.01,1.27-.88,2.19-.6,3.04-.61,5.07-.03,10.15-.04,15.22,0,1.23,0,2.48.08,3.67.34.92.2.45.94.26,1.5h-.01Z"/>
  <path class="cls-6" d="M117.97,458.72c-1.58-1.87-2.84-3.95-3.89-6.17,1.54.84,2.85,2.04,4.6,2.6.71.23,1.08-.36,1.86-.05-.81,1.28-.18,3.41-2.57,3.62Z"/>
  <path class="cls-6" d="M211.28,551.39c1.57,1.88,2.82,3.96,3.85,6.17-.53.05-1.05.12-1.34.66h0c-2.39-1.16-3.4-2.77-2.98-5.07.12-.65-.22-1.18-.14-1.77h.01c.19,0,.39,0,.58,0Z"/>
  <path class="cls-6" d="M480.16,710.78c.17,6.75.2,13.5-.02,20.25-.17.37-.35.73-.75.86,0-7.72.4-15.46-.29-23.23.82.5.92,1.32,1.06,2.12Z"/>
  <path class="cls-6" d="M224.98,627.23c.56-1.86,2.1-2.53,3.73-3.1.86.08,1.24.55,1.25,1.42,0,.96-1.29,1.68-.5,2.77-.92.55-1.78-.2-2.68-.13-.75.06-1.38-.3-1.8-.96Z"/>
  <path class="cls-6" d="M850.25,656.46c-1.3,2.41-2.7,4.76-4.45,6.88-.66-.08-.94-.41-.56-1.01.38-.6.92-1.1,1.25-1.71.5-.91,1.22-1.62.83-3.01-.49-1.74.41-2.77,2.42-3.89.21.56-.13.97-.37,1.39-.26.43-.59.82-.89,1.21.6,1.06,1.25-.84,1.78.14Z"/>
  <path class="cls-6" d="M871.98,558.14c.77-1.8,1.77-3.45,3.07-4.92.45.22.89.44,1.34.66.29,1.67-.48,2.98-1.59,4.03-.76.72-1.77,1.52-2.82.23Z"/>
  <path class="cls-6" d="M903.13,569.38c-1.68,3.04-3.45,6.02-5.63,8.74-.55-1.21.57-1.77,1.01-2.6.69-1.31,1.8-2.56.44-4.13-.22-.25-.14-.78-.14-1.19,0-.51.04-1.11.7-1.13.62-.02.84.47.76,1.06-.04.31-.06.6.2.83,1.57.63,1.06-2.26,2.66-1.58Z"/>
  <path class="cls-6" d="M859.67,624.63c2.37.83,3.5,2.59,3.71,5.02-.13.98.15,2.04-.37,2.98-.85-.18-.65-.87-.68-1.26-.2-2.79-.49-3.19-3.19-4.18-.7-.25-2.04-.41-1.57-1.35.51-1.01,1.38,0,2.04.41.16.1.37.13.75.26.19-.83-.74-1.23-.69-1.9Z"/>
  <path class="cls-6" d="M679.18,519.75c.11-.19.27-.25.48-.17.61.01,1.22.04,1.83.03.49-.01.89-.52,1.45-.28.29.7-.5,1-.59,1.57-.5,3.08-.51,3.08-4.07,3.01.77-.79,2.01-.29,2.26-1.34-.49-.83-1.49-.13-2.11-.61-.16-.34,0-.64.27-.77.68-.34.88-.78.47-1.45Z"/>
  <path class="cls-6" d="M405.53,518.98c2.3.21,4.38.97,6.13,2.51-1.97.01-3.94.03-5.9.03-.63,0-1.28-.08-1.46-.84-.24-1.02.24-1.55,1.23-1.7Z"/>
  <path class="cls-6" d="M575.27,394.03c-.25.01-.5.03-.75.04-.58-.66-1.16-1.31-1.74-1.97,0-.19,0-.37,0-.56,0,0,.01-.01.01-.01.47-.34,2.11,1.29,1.5-.91-.18-.65.32-.93.86-.91,1.02.03,2.34-.5,2.6,1.2-1.56.24-1.28,1.27-1.01,2.32.55,2.19-.77.93-1.48.79Z"/>
  <path class="cls-6" d="M165.36,477.77c1.27.44,1.1,1.24,1.16,1.92.06.65.18,1.29.95,1.35,1.87.15.66,1.48.82,2.23.11.52-.39.93-1,.45-.68-.54-2.36.68-2.25-1.25.09-1.49.21-2.97.33-4.69Z"/>
  <path class="cls-6" d="M891.96,586.87c-1.07,2.2-2.41,4.22-3.88,6.17-1.38-2.27-1.34-3.51.63-4.47,1.1-.53,1.65-2.18,3.25-1.7Z"/>
  <path class="cls-6" d="M664.87,614.87c-.02-.53.2-.95.6-1.29.65.22,1.46,2.35,1.89-.16.13-.77.56-.73,1.03-.31.66.59.96,1.29.57,2.19-.45,1.05-1.13,1.93-1.87,2.81-1.04-.89-1.65-2.05-2.22-3.24Z"/>
  <path class="cls-6" d="M607.53,730.97c-.19-6.53-.21-13.06.01-19.58.23-.26.47-.52.7-.77,0,6.05.01,12.09-.02,18.14,0,.78.27,1.61-.19,2.35-.03.05-.18.07-.26.04-.09-.03-.17-.11-.25-.17Z"/>
  <path class="cls-6" d="M901.06,507.78c.71-1.55,1.54-3.02,2.71-4.28,1.16.5,2.15,1.02,1.34,2.61-.24.47-.08,1.16-.1,1.75-1.33.77-2.63-.34-3.95-.07Z"/>
  <path class="cls-6" d="M508.05,400.14c-1.51.88-3.06,1.66-4.77,2.08-1.09-1.09-2.63-1.38-4.22-2.42,3.23-.51,6.1.18,8.98.33Z"/>
  <path class="cls-6" d="M867.1,616.8c-2.18,2.13-4.7,3.75-7.45,5.02.21-1.12,1.24-1.55,1.93-2.26-.37-.54-.91-.31-1.37-.37,2.04-1.52,4.43-2.05,6.89-2.39Z"/>
  <path class="cls-6" d="M847.13,591.79c2.92-2.68,5.84-5.36,8.77-8.04.51.41.5.84-.02,1.19-.94.62-1.84,1.25-1.88,2.53-1.57.16-2.34,1.32-3.11,2.49h0c-1.29.53-2.06,2.13-3.75,1.84Z"/>
  <path class="cls-6" d="M501.88,402.78c-1.7,1.16-3.55,1.99-5.55,2.48-.69-2.32,1.67-2.45,2.67-3.41.93-.9,2.07.06,2.88.93Z"/>
  <path class="cls-6" d="M424.83,543.88c1.14,1.51,1.73,3.28,2.38,5.02-.9.95-2.11-.07-3.29.91,1.06-2.2-.62-4.27.91-5.93Z"/>
  <path class="cls-6" d="M113.18,444.68c.9.91,1.24,2.06,2.28,2.65.58.32.68,1.02.64,1.66-.05.68.35,1.73-.53,1.89-1.18.22-1.14-.7-1.04-1.63.1-.95-1.03-1.15-1.43-1.87-.49-.86-1.04-1.56.08-2.7Z"/>
  <path class="cls-6" d="M222.54,569.41c.87.86,1.46,1.88,1.9,3.01-.38.78-.85,1.41-1.89,1.25-.59-.7.41-1.01.39-1.55-.01-.28-.09-.64-.28-.82-.41-.4-.67-.1-.93.28-.4.58-.85,1.12-1.35,1.76-.44-2.95-.38-3.06,2.15-3.93Z"/>
  <path class="cls-6" d="M280.27,664c1.44,1.09,2.73,2.34,3.79,3.82-1.24.54-2.53.15-3.83.27,0-1.38-.63-2.73.04-4.08Z"/>
  <path class="cls-6" d="M567.64,391.37h-15.37c0-.1,0-.21,0-.31h15.4c-.01.1-.02.21-.03.31Z"/>
  <path class="cls-6" d="M513.09,397.83c-1.27,1.03-2.8,1.5-4.32,1.99.14-1.11.56-2.03,1.8-3.92,1.64-.39,2.24.56,2.52,1.93Z"/>
  <path class="cls-6" d="M448.87,764.77c-.47-.26-.63-.66-.56-1.18.15-.88-.26-1.91.67-2.6q.57,2.47,2.68,2.1c1.31-.23.74-.14.99,1.43.41,2.51-.25,1.65-1.27.68-.76-.73-1.55-.97-2.5-.43Z"/>
  <path class="cls-6" d="M488.84,373.66c1.58-.82,3.17-1.59,4.88-2.1-.95,1.29,1.07,1.17.99,2.15-1.95,1.34-3.9,1.21-5.87-.06Z"/>
  <path class="cls-6" d="M450.81,410.77c0-.69.21-1.3.71-1.8,1.02,1.15,2.05,2.3,3.06,3.46.45.52.66,1.08.05,1.61-.68.59-1.09.15-1.46-.43-.67-1.05-1.84-1.68-2.36-2.84Z"/>
  <path class="cls-6" d="M187.62,574.42c-1.27-1.48-2.44-3.02-3.13-4.88.63-.95,1.55-.78,2.46-.62.34.06.54.55.35.65-2,1.05-.38,1.38.28,2.12.68.76.49,1.8.04,2.72Z"/>
  <path class="cls-6" d="M490.11,699.6c-.79,1.14-1.84,1.97-3.1,2.54.47-1.38-.02-2.56-1.06-4.01,1.6.56,3.38-.72,4.16,1.48Z"/>
  <path class="cls-6" d="M278.93,701.39c-.67,0-1.19-.34-1.67-.75,1.32-.8.43-1.56-.27-2.53,2.06.44,3.75,1.06,5.67,2.27-1.48.42-2.77.24-3.74,1.01Z"/>
  <path class="cls-6" d="M935.62,512.87c-.85,2.01-2.04,3.81-3.38,5.52-.73-.76-.43-1.72-.47-2.61-.03-.86,0-1.62,1.29-1.46,1.12.14,1.49-1.32,2.56-1.45Z"/>
  <path class="cls-6" d="M258.1,628.47c.59,1.03,1.17,2.07,1.76,3.1q-.65,1.93-2.52.67c.07-.99-.75-1.59-1.19-2.37.63-.33,2.55.49,1.18-1.36h0c.25-.02.5-.03.75-.04Z"/>
  <path class="cls-6" d="M871.33,563.78c1.68.34,2.19,1.23,1.85,2.36-.42,1.42-1.38,2.43-3.58,2.68,1.38-1.7,2.27-3.17,1.73-5.04Z"/>
  <path class="cls-6" d="M220.6,566.33c.81.61,1.25,1.44,1.49,2.4-2.07-.15-4.04-.5-4.98-2.72-.08-.18-.13-.4-.11-.59.02-.18.14-.36.22-.53,1.36-.06,1.43,2.9,3.38,1.44Z"/>
  <path class="cls-6" d="M261.07,633.49c1.15,1.27,2.09,2.67,2.68,4.29-.39-.08-.79-.21-1.18-.24-2.12-.17-2.58-.76-1.9-2.69.16-.45-.19-1.06.41-1.36Z"/>
  <path class="cls-6" d="M189.96,578.21c-.72-.77-1.31-1.61-1.66-2.62.31-.64.59-1.27.65-2.01.04-.54.35-1.05.98-.72.61.31,1.58,1.11.93,1.53-1.69,1.1-.49,2.6-.91,3.82Z"/>
  <path class="cls-6" d="M577.16,578.75c0-1.22-.02-2.45.01-3.67,0-.39.05-.85.57-.95.63-.11.93.34,1.11.82.61,1.66.02,2.93-1.69,3.8Z"/>
  <path class="cls-6" d="M897.54,512.29c1.56-.84,1.82-2.76,3.13-3.81q2.18,1.87.69,3.53c-.77-.46.4-1.39-.58-1.91-1.05.86-1.41,2.7-3.2,2.75l-.05-.03c0-.18.01-.35.01-.53Z"/>
  <path class="cls-6" d="M112.94,450.66c-1.54-1.89-2.84-3.94-3.88-6.16.78-.17,1.85-1.5,1.86.76,0,1.36.72,2.73,2.09,3.5-.21.62.76,1.29-.07,1.89Z"/>
  <path class="cls-6" d="M219.96,613.86c1.9.55,4.55-.15,5.07,3.35-1.87-1.45-4.01-1.52-5.07-3.35Z"/>
  <path class="cls-6" d="M916.23,483.64c.5-1.45,1.36-2.69,2.37-3.82,1.11.46,1.48,1.32,1.27,2.45-.05.27-.27.53-.44.77-.66.88-.73-1.86-1.58-.25-.27.51-.31,1.57-1.41,1.08-.08-.04-.14-.15-.2-.22Z"/>
  <path class="cls-6" d="M817.13,648.35c.21-.97.71-1.77,1.47-2.4.52.2.85,1.54,1.6.32.44-.7.81-1.43,1.64-1.88-.56,2.97-1.08,3.45-3.82,3.69-.3.03-.59.18-.89.27Z"/>
  <path class="cls-6" d="M857.52,587.25c.09.85-1.04,2.06-1.96,1.98-.73-.06-1.94-.2-1.68-1.17.27-1.04,1.67-1.14,2.58-1.6.48-.24.84.37,1.06.79Z"/>
  <path class="cls-6" d="M831.61,684.53c-.91,1.11-1.63,2.39-2.88,3.19-.58-.24-1.15-.55-1.32-1.19-.16-.61-.06-1.53.78-.98,1.41.93,1.59-.24,1.96-.93.56-1.04.49-1.08,1.45-.09Z"/>
  <path class="cls-6" d="M485.07,375.45c.14-.17.31-.22.52-.14.87.61,1.83.63,3.27-.09-1.05,2.67-3,2.49-4.67,3.19-.26-1.34,2.48-1.52.89-2.96Z"/>
  <path class="cls-6" d="M489.59,696.64c-.11-.16-.42-.4-.42-.64,0-.64,2.01-2.68,2.65-2.73.41-.04.83.03,1,.5.12.34-.04.61-.28.82-.7.59-1.59.96-2.03,1.85-.16.32-.49.33-.92.2Z"/>
  <path class="cls-6" d="M258.46,687.19c-1.3-.83-2.36-1.9-3.1-3.26.66-.25,1.29-.84,2.03-.55.88.35,2.24.57.96,2.04-.48.55.17,1.17.11,1.78Z"/>
  <path class="cls-6" d="M827.97,633.34c.36-2.13,2.03-2.74,3.15-3.79.22-.2.58.05.76.31.25.35.3,1.1.17,1.09-1.82-.15-2.05,2.19-4.09,2.38Z"/>
  <path class="cls-6" d="M513.07,363.62c1.11-.59,2.29-.91,3.56-.8.71.2.26,1.6,1.4,1.35-1.78.91-3.49,1.22-4.96-.56Z"/>
  <path class="cls-6" d="M481.96,415.2c-.01.7-.38,1.26-.73,1.83-1.69-1.2-1.63.48-2.06,1.44-.75-1.44.13-2.58.07-3.81,1.08,0,1.94.11,2.72.54Z"/>
  <path class="cls-6" d="M913.53,487.87c.45-1.15,1.07-2.2,1.95-3.08,1.84.74.89,2.22.5,3.11-.53,1.19-1.59-.25-2.44-.03Z"/>
  <path class="cls-6" d="M858.58,643.53c-.93,1.74-1.83,3.5-3.22,4.94-.81-.92-.56-1.75.2-2.57.74-.8,1.44-1.64,2.16-2.46.29.03.57.06.86.09Z"/>
  <path class="cls-6" d="M959.27,475.14c-.47,1.31-1.21,2.44-2.16,3.45-.63-.52-.12-1.14-.15-1.71q-.1-2.16,2.31-1.73Z"/>
  <path class="cls-6" d="M912.03,536.68c.64-1.17,2.03-.55,2.31-1.73.15-.62.61-1.25,1.27-.67.5.44.08,1.24-.24,1.64-.81,1.01-1.88,1.46-3.35.76Z"/>
  <path class="cls-6" d="M508.05,684.35c-.88,1.27-1.94,2.34-3.2,3.23-.39-.17-1.61-.08-.44-.85,1.1-.72,2.51-1.07,1.8-2.86.72-.23,1.61-1.13,1.84.48Z"/>
  <path class="cls-6" d="M448.21,715.39c-.29-1.81-.44-3.61.22-5.38.94,1.81.59,3.7.29,5.57,0,.02-.19.03-.27,0-.09-.04-.16-.13-.24-.19Z"/>
  <path class="cls-6" d="M906.88,498.54c.14-.8.53-1.44,1.21-1.9.66.59,1.58-.03,2.4.56-.79,1.65-2,1.98-3.6,1.34Z"/>
  <path class="cls-6" d="M904.16,502.79c.47-1.15,1.06-2.21,1.97-3.08.85.37,1.44.84.61,1.78-.51.58-.49,1.29-.48,2-.7-.24-1.4-.47-2.1-.71Z"/>
  <path class="cls-6" d="M274.07,698.96c-1.64-.53-3.02-1.49-4.29-2.63.61-1.01,1.25-.21,1.88-.03.45.78,1.35.68,2.03,1,.94.45.65,1.01.38,1.65Z"/>
  <path class="cls-6" d="M134.79,483.6c-.02-1.51-1.74-2.29-1.62-4.06,1.98-.13,1.52,2.06,2.55,2.78.45.31-.41.97-.93,1.27Z"/>
  <path class="cls-6" d="M800.45,670.12c.35-.71.99-1.03,1.68-1.3,1.02,1.65-.19,2.7-1.02,3.86h-1.24c.39-.81,1.41-1.47.59-2.56Z"/>
  <path class="cls-6" d="M932.92,512.47c.55-1.33,1.18-2.63,2.99-3.52-.03,2.39-1.77,2.75-2.99,3.52Z"/>
  <path class="cls-6" d="M604.02,737.94c.96-1.79,2.59-2.04,3.46-3.17.2-.25.57-.21.8.02.38.38.24.78-.15,1-1.22.65-2.19,1.78-4.11,2.15Z"/>
  <path class="cls-6" d="M264.37,692.55c-1.57-.94-3.04-1.99-4.07-3.55.47-.05.93-.1,1.4-.15.69,1.28,1.81,2.06,3,2.83.66.42.33.79-.34.87Z"/>
  <path class="cls-6" d="M166.53,533.97c-1.23-.88-2.38-1.84-3.11-3.2.05-.19.1-.39.15-.58,1.04,1.11,2.54,1.72,3.35,3.07.07.12-.25.47-.39.72Z"/>
  <path class="cls-6" d="M804.87,666.58c.12-.36.37-.6.73-.72.29-.07.6-.12.88-.22.37-.12.79-.44,1.08,0,.29.42-.17.67-.39.98-.23.31-.31.72-.46,1.09-.86.03-2.16.79-1.84-1.12Z"/>
  <path class="cls-6" d="M404.79,523.23c1.55-.71,3.22-.16,4.75-.82.44-.19.75.26.79.69.07.71-.56.29-.85.44-1.64.84-3.05-.78-4.69-.3Z"/>
  <path class="cls-6" d="M254.69,624.78c1.44-.62,2.3-1.5,3.87-.77-1.06,1.2-2.01,1.73-3.87.77Z"/>
  <path class="cls-6" d="M268.56,694.54c1.76-1.59,3.66-1.41,5.6-.93-1.87.31-3.73.62-5.6.93Z"/>
  <path class="cls-6" d="M894.68,582.57c-.26.96-.77,1.76-1.54,2.4-.45-.23-.93-.51-1.02-1.01-.19-1.09-.29-2.19,1.42-1.26.28.15.75-.08,1.14-.13Z"/>
  <path class="cls-6" d="M826.64,689.51c-.93,1.38-2.22,2.35-3.68,3.1-.64-.53-.16-.87.25-1.11.57-.33.91-.75.93-1.41.98.41,1.44-1.38,2.51-.58Z"/>
  <path class="cls-6" d="M274.71,663.05c.54-1.12.48-1.91,1.1-2.4.98.37,1.38,1.19,1.72,2.28-.85.52-1.68-.43-2.82.12Z"/>
  <path class="cls-6" d="M479.48,377.97c.55-.36,1.08-.78,1.79-.78-.27,1.56,1.41,1.33,1.99,2.14q-1.97.23-3.78-1.36Z"/>
  <path class="cls-6" d="M264.18,638.46c.66.49,1.06,1.14,1.23,1.95-1.6.93-2.24-.54-2.68-1.4-.27-.54.9-.44,1.45-.54Z"/>
  <path class="cls-6" d="M952.92,482.97c-.56.17-1.38.53-1.14-.55.25-1.15.78-2.28,2.1-2.86.7,1.52-1.2,2.16-.96,3.4h0Z"/>
  <path class="cls-6" d="M485.12,410.96c-.84.99-1.68,1.99-2.52,2.98-.41-.17-1.6-.12-.7-.85.83-.67,1.31-1.49,1.91-2.28.45-.11.95-.64,1.31.14Z"/>
  <path class="cls-6" d="M812.67,660.26c-.9.9-.87,2.39-2.33,2.69q.25-2.38,2.33-2.69Z"/>
  <path class="cls-6" d="M661.75,545.8c-.01-.53.18-.96.62-1.26,2.09.96.39,2.42.32,3.72-.31-.83-.45-1.73-.94-2.47Z"/>
  <path class="cls-6" d="M603.29,735.59c1.55-.73,2.93-1.65,3.81-3.19.35.29.54.72.25,1.04-1.09,1.18-1.98,2.79-4.05,2.15Z"/>
  <path class="cls-6" d="M422.21,538.33c.82,1.32,1.52,2.7,1.96,4.2-.33.49-.56.31-.81-.09-.35-.56-.5-1.27-1.14-1.63.22-.83-1.12-1.65,0-2.48Z"/>
  <path class="cls-6" d="M841.66,669.79c-.03.47-.25.83-.68,1.04-.18-.09-.38-.15-.54-.26-.46-.33-1.3-.47-1-1.24.14-.36.78-.67,1.24-.74.86-.14.84.65.99,1.2Z"/>
  <path class="cls-6" d="M850.88,589.95c.63.09,1.25.26.96,1.08-.23.67-.36,1.33-.34,2.03-1.28-.02-2.34-.13-1.11-1.76.27-.36.33-.89.48-1.34h0Z"/>
  <path class="cls-6" d="M816.68,696.97c-.87.89-1.89,1.53-3.09,1.85.39-1.88,1.17-2.35,3.09-1.85Z"/>
  <path class="cls-6" d="M676.05,598.65c.87-.81,1.9-1.24,3.09-1.25-.34,1.61-1.36,2.02-3.09,1.25Z"/>
  <path class="cls-6" d="M820.43,694.51c-.4.74-1.08,1.06-1.85,1.27-.52-.73-1.04-1.46-1.69-2.38,1.51-.26,2.29,1.21,3.53,1.1Z"/>
  <path class="cls-6" d="M225.76,618.99c1.71-.34,3.13-.2,3.9,1.74-1.8.23-2.54-1.58-3.9-1.74Z"/>
  <path class="cls-6" d="M480.59,732.4c.66.82,1.33,1.63,1.99,2.45-1.67.81-1.98-1.69-3.66-1.03.54-.95,1.17-1.09,1.67-1.42Z"/>
  <path class="cls-6" d="M460.65,393.19c.1-.47.41-.78.8-1.02.27.15.55.29.82.44.59.32,1.1.73.53,1.42-.52.63-1.05.44-1.5-.19-.18-.25-.44-.44-.66-.65Z"/>
  <path class="cls-6" d="M806.07,702.46c-.52.46-1.12.72-1.82.71-.57-.46-1.14-.91-1.93-1.55,1.61-.49,2.67.2,3.75.83Z"/>
  <path class="cls-6" d="M690.43,549.08h5.49c0,.09,0,.18,0,.27h-5.49c0-.09,0-.18,0-.27Z"/>
  <path class="cls-6" d="M511.25,679.02c-.23,1.42-.85,2.63-1.91,3.61-.65-.44-.55-.93-.11-1.47.68-.85,1.24-1.77,1.33-2.89.23.25.46.5.69.75Z"/>
  <path class="cls-6" d="M463.65,389.58c1.22-1.34,1.93-3.2,3.87-3.82-.97,1.59-1.76,3.38-3.87,3.82Z"/>
  <path class="cls-6" d="M483.81,409.58v1.24c-.84-.59-1.48-.07-2.17.35-.3.18-.59,0-.74-.28-.2-.4-.11-.82.26-1.04.83-.49,1.76-.19,2.64-.27Z"/>
  <path class="cls-6" d="M391.79,549.26c1.83-.5,3.66-.37,5.5-.1-1.83.5-3.66.37-5.5.1Z"/>
  <path class="cls-6" d="M603.46,360.32c.2-.06.34,0,.41.2-.42.91-1.28,1.25-2.13,1.54-.6.2-.95-.25-1.08-.76-.21-.87.34-.72.83-.51.78.34,1.33-.23,1.96-.47Z"/>
  <path class="cls-6" d="M217.19,610.74c1.12-.36,1.96-.42,2.43.62.06.14-.24.6-.45.67-1.14.36-1.45-.49-1.99-1.29Z"/>
  <path class="cls-6" d="M794.86,549.19c-1.64.46-3.28.39-4.92.04,1.64-.46,3.28-.39,4.92-.04Z"/>
  <path class="cls-6" d="M684.78,518.47c.95-.58,1.95-.36,2.94-.15.68.09,1.37.17,2.05.26-1.7.29-3.41,1.02-4.99-.11Z"/>
  <path class="cls-6" d="M671.61,602.3c.86-1.25,1.8-2.4,3.25-3-.26,1.89-1.49,2.74-3.25,3Z"/>
  <path class="cls-6" d="M602.64,762.71c-1.1,1.06-1.91.73-3.03.42.93-1.14,1.78-.99,3.03-.42Z"/>
  <path class="cls-6" d="M296.99,549.4h-4.73c1.6-.68,3.21-.47,4.73,0Z"/>
  <path class="cls-6" d="M176.97,539.37c2-.8,2.18.78,3.07,1.44-.94.75-1.26-.02-1.71-.33-.41-.29-.79-.64-1.36-1.1Z"/>
  <path class="cls-6" d="M564.64,762.81c1.27-.68,2.07-.75,3.1.07-1.08.73-1.87.82-3.1-.07Z"/>
  <path class="cls-6" d="M422.22,540.79c0,1.17-.13,2.25-1.68,3.16.32-1.5-.02-2.81,1.68-3.16Z"/>
  <path class="cls-6" d="M529.86,762.96c1.13-.97,1.93-.72,3.05-.29-.98,1.02-1.8.96-3.05.29Z"/>
  <path class="cls-6" d="M921.46,480.57c-.08-.16-.26-.33-.24-.48.09-.89-.38-1.84.28-2.66.02-.03.22.01.27.08.89,1.04.13,2.08.5,3.12-.27-.02-.54-.04-.81-.05Z"/>
  <path class="cls-6" d="M503.15,762.91c-1.27.68-2.07.75-3.1-.07,1.08-.73,1.87-.82,3.1.07Z"/>
  <path class="cls-6" d="M468.4,762.69c-1.25.97-2.04.91-3.05.35.76-1.1,1.62-.83,3.05-.35Z"/>
  <path class="cls-6" d="M862.09,637.85c-.05.82-.46,1.44-1.11,1.92-.49-.82-1.44-1.62-.14-2.54.52.01.98.12,1.25.63Z"/>
  <path class="cls-6" d="M399.98,518.32c.79-.22,1.57-.3,2.33.09-1.57,1.31-3.32.28-4.97.54.78-.83,1.77-.36,2.63-.62Z"/>
  <path class="cls-6" d="M523.63,362.93c.23.31.47.61.89,1.16-1.11.09-2,.28-2.97-.2.43-1.12,1.32-.89,2.08-.96h0Z"/>
  <path class="cls-6" d="M663.63,617.36c-.02-.54.2-.96.64-1.27.2.22.47.41.59.67.22.5.88,1.14.1,1.53-.66.33-1.02-.41-1.33-.93Z"/>
  <path class="cls-6" d="M829.78,624.49c.95-.19,1.97-.79,2.71.26.04.05,0,.21-.05.26-1.08.87-1.75-.46-2.67-.52Z"/>
  <path class="cls-6" d="M420.65,539.16c-1-.31-1.43-1.01-1.53-2.05q1.71.54,1.53,2.05Z"/>
  <path class="cls-6" d="M887.15,594.37c-.1.5-.31.93-.78,1.18-.7-.49-1.76-.52-2.09-1.57,1.1-.65,1.9.51,2.87.38Z"/>
  <path class="cls-6" d="M852.45,646.92c.8.35.95.93.9,1.54-.04.5.44,1.38-.53,1.38-1.12,0-.2-.86-.36-1.29-.18-.45-.4-.92,0-1.63Z"/>
  <path class="cls-6" d="M897.58,512.84c.99,1.25,2.61.07,3.88,1.05-1.36.27-2.58.28-3.77.05-.73-.14-.57-.68-.16-1.13,0,0,.05.03.05.03Z"/>
  <path class="cls-6" d="M869.98,561.27c.18-.78.62-1.39,1.23-1.88.62.29,1.41.6,1.17,1.41-.23.76-1.03.07-1.55.27-.27.11-.56.14-.85.21Z"/>
  <path class="cls-6" d="M517.42,395.91c-.83.78-1.88,1.06-2.94,1.33-.48-.31-.37-.55.05-.82.56-.35,1.28-.5,1.64-1.14.52.01.98.13,1.25.63Z"/>
  <path class="cls-6" d="M905.05,544.59c-1.09-.27-1.63,1.11-2.71.92q.6-1.78,2.72-.92s-.02,0-.02,0Z"/>
  <path class="cls-6" d="M824.77,688.44c-.63.4-.14,2.01-1.54,1.59-.25-.07-.66-.37-.63-.47.28-1.02,1.11-1.23,2.17-1.12Z"/>
  <path class="cls-6" d="M814.17,694.62c.44.07.87.25.85.72-.02.59-.48.86-1.04.88-.42.01-.88-.09-.82-.65.06-.55.43-.89,1-.95Z"/>
  <path class="cls-6" d="M271.52,696.34c1.04-1.3,1.89-1.53,3.24-.65-1.14.87-2.17.51-3.24.65Z"/>
  <path class="cls-6" d="M285.02,670.85c1.08.36,1.82.43,2.37.93-.18.79-.8.86-1.43.88-1.29.05-.54-.98-.95-1.82Z"/>
  <path class="cls-6" d="M216.42,567.82c-1.9-1.06-1.26-2.27-.99-3.41.3,1.05.61,2.09.99,3.41Z"/>
  <path class="cls-6" d="M922.44,473.68c.14-.39.29-.79.43-1.18.29-.02.59-.07.88-.06.4.02.84.09.86.58,0,.18-.33.51-.55.55-.53.1-1.05.67-1.63.12Z"/>
  <path class="cls-6" d="M159.67,521.54c-1-.55-1.82-1.23-1.87-2.49,1.61.09,1.93,1.15,1.87,2.49Z"/>
  <path class="cls-6" d="M269.09,695.91c-1.27-.32-2.14-1.22-3.04-2.07,1.07-.77,1.65.48,2.5.61.18.49.36.98.54,1.46Z"/>
  <path class="cls-6" d="M237.81,592.42c-.14.53-.51.6-.94.49-.46-.12-.63-.48-.55-.93.06-.31.22-.6.59-.54.55.09.9.4.89.98Z"/>
  <path class="cls-6" d="M860.26,619.2c-.73,1.1-1.57,1.44-2.74,1.77.44-1.59,1.47-1.83,2.74-1.77Z"/>
  <path class="cls-6" d="M276.64,658.36c.53.24.65.71.7,1.22-.29-.08-.58-.19-.88-.25-.59-.12-1.72.56-1.55-.67.16-1.19,1.17-.02,1.74-.3Z"/>
  <path class="cls-6" d="M220.15,616.65c-1.18-.45-1.98-1.37-2.79-2.28,1.56-.01,2.59.63,2.79,2.28Z"/>
  <path class="cls-6" d="M946.9,494.88c-.1.5-.31.91-.77,1.18-.68-.38-1.42-.7-1.46-1.65.9-.5,1.5.28,2.22.47Z"/>
  <path class="cls-6" d="M448.2,444.3h-3.49c1.16-.73,2.36-.43,3.49,0Z"/>
  <path class="cls-6" d="M226.8,621.2c-1.19-.4-2.21-1.07-3.05-2,.62-.74,1.25.19,1.87-.01.39.67.79,1.34,1.18,2.02Z"/>
  <path class="cls-6" d="M967.22,462.43c-.2.76-.58,1.41-1.21,1.89-.35-.06-1.02-.13-.81-.49.42-.71.69-1.91,2.02-1.41Z"/>
  <path class="cls-6" d="M287.63,704.52c-.86.05-1.64-.14-2.29-.72,1.03-1.17,2.08.41,3.12-.03h0c-.28.25-.55.5-.83.75Z"/>
  <path class="cls-6" d="M283.45,703.17c.61-.62-.04-1.56.54-2.22q.65,1.31-.53,2.22s-.01,0-.01,0Z"/>
  <path class="cls-6" d="M530.38,364.47c-1.03.38-2,.46-3.35.03,1.38-.45,2.38-.35,3.35-.03Z"/>
  <path class="cls-6" d="M945.43,497.23c0,.35-.15.6-.49.71-.77-.35-1.38-.81-1.22-2.13.65.54,1.18.98,1.72,1.42Z"/>
  <path class="cls-6" d="M603.12,699.83c-.48-.11-.87-.39-.83-.98.02-.34.33-.5.63-.41.4.11.68.41.75.83.06.36-.15.54-.55.56Z"/>
  <path class="cls-6" d="M262.12,643.35c-.48-.02-.85-.19-.82-.67.03-.41.35-.77.79-.69.23.04.52.34.59.58.14.45-.11.74-.57.79Z"/>
  <path class="cls-6" d="M409.51,600.84c1.04-.48,1.65,0,2.36.68-1.01.34-1.77.37-2.36-.68Z"/>
  <path class="cls-6" d="M498.12,371.02c.35-.03.92-.54,1,0,.1.67-.19,1.54-1.07,1.54-.5,0-.34-.6-.18-.98.08-.19.17-.38.25-.56h0Z"/>
  <path class="cls-6" d="M140.34,486.6c.51.27.69.72.53,1.27-.09.32-.39.55-.69.38-.39-.23-.4-.69-.37-1.11.02-.32.09-.61.54-.54Z"/>
  <path class="cls-6" d="M578.16,555.89c-.44-.24-.4-.65-.35-1.04.06-.44.29-.78.79-.6.33.12.35.49.29.8-.08.41-.23.79-.73.84Z"/>
  <path class="cls-6" d="M845.18,660.15c-.02.24-.08.8-.74.82-.31,0-.36-.41-.36-.71,0-.41.05-.86.54-.95.35-.06.55.18.56.84Z"/>
  <path class="cls-6" d="M864.98,614.63c.01.49-.27.72-.72.74-.31.01-.6-.14-.68-.46-.12-.46.12-.81.55-.91.46-.11.73.2.85.63Z"/>
  <path class="cls-6" d="M522.18,390.61c-1.28.38-2.06.43-3.08.02,1-.51,1.8-.36,3.08-.02Z"/>
  <path class="cls-6" d="M509.12,448.51c-.61-1.19-.4-2.04-.22-3.21.62,1.19.39,2.03.22,3.21Z"/>
  <path class="cls-6" d="M781.45,549.29c1.21-.55,2.04-.38,3.24-.15-1.22.56-2.04.38-3.24.15Z"/>
  <path class="cls-6" d="M504.92,684.67c-.45.08-.51-.24-.49-.55.04-.45.29-.75.76-.79.44-.04.78.18,1.02.54-.43.27-.86.53-1.29.8Z"/>
  <path class="cls-6" d="M242.42,661.48c0-.1,0-.2,0-.3.06-.57-.19-1.21.3-1.68.07-.06.43.04.51.16.69,1.02-.11,1.4-.81,1.82h0Z"/>
  <path class="cls-6" d="M448.25,441.79c-.2-.15-.57-.29-.64-.51-.19-.68.42-.56.76-.56.26,0,.72.18.74.32.06.51-.37.64-.86.74Z"/>
  <path class="cls-6" d="M890.87,585.69c-.23.2-.49.58-.83.67-.65.17-.48-.44-.57-.78-.13-.52.07-.72.6-.6.34.08.87-.08.8.7Z"/>
  <path class="cls-6" d="M326.04,549.17c-1.12.56-1.89.28-2.68.13.76-.57,1.55-.42,2.68-.13Z"/>
  <path class="cls-6" d="M897.43,572.99c.91,1.04.77,1.65-.1,2.37-.41-.8.05-1.39.1-2.37Z"/>
  <path class="cls-6" d="M583.64,684.91c-1.06-.05-1.47-.58-1.82-1.47,1.07.06,1.48.58,1.82,1.47Z"/>
  <path class="cls-6" d="M241.38,594.18c-1.05.13-1.65-.2-2.24-.81,1.03-.67,1.63-.17,2.24.81Z"/>
  <path class="cls-6" d="M412.38,599.22c.82.11,1.33.64,1.77,1.28-1.07.17-1.81-.37-1.77-1.28Z"/>
  <path class="cls-6" d="M676.31,601.7c-.15-.11-.44-.25-.42-.33.11-.63.61-.78,1.15-.75.15,0,.39.18.43.32.11.37-.63.83-1.16.75Z"/>
  <path class="cls-6" d="M284.18,548.99c.39-.03.79-.08,1.18-.08.39,0,.78.06,1.69.14-1.28.65-2.08.5-2.87-.06Z"/>
  <path class="cls-6" d="M157.92,519.46c-.75-1.2-1.01-1.84-.85-2.56.01-.05.38-.12.51-.05,1.08.62.05,1.47.34,2.61Z"/>
  <path class="cls-6" d="M508.85,676.95c.42.06.49.38.53.65.06.4.96.63.26,1.18-.15.12-.36.3-.49.26-.71-.18-.38-.8-.43-1.23-.03-.28.08-.57.13-.86Z"/>
  <path class="cls-6" d="M518.98,392.98c-.07-.48.16-.65.48-.69.44-.06.81.09.92.54.03.15.52.58-.15.57-.48,0-1,.03-1.25-.42Z"/>
  <path class="cls-6" d="M895.08,581.89c-.75-.41-1.39-.88-1.09-1.94,1.47.04.89,1.21,1.09,1.94,0,0,0,0,0,0Z"/>
  <path class="cls-6" d="M132.32,481.72c-.66-.49-1.06-1.15-1.23-1.95,1.15.12,1.45.6,1.23,1.95Z"/>
  <path class="cls-6" d="M823.65,549.25c-.97.38-1.82.43-2.79-.05.98-.39,1.83-.44,2.79.05Z"/>
  <path class="cls-6" d="M165.83,474.91c.78.62,1.21,1.47,1.52,2.39-1.18-.37-1.88-1.04-1.52-2.39Z"/>
  <path class="cls-6" d="M292.81,674.54c0-.21,0-.41,0-.62h0c.47.07,1.1,0,1.38.27.27.26.36,1.02-.08,1.31-.39.26-.6-.31-.85-.58-.13-.14-.3-.25-.46-.37Z"/>
  <path class="cls-6" d="M316.81,549.22c.95-.4,1.58-.46,2.23-.02-.64.47-1.27.39-2.23.02Z"/>
  <path class="cls-6" d="M662.21,620.37c.02-.71.22-1.34.81-1.8,1.06,1.2,0,1.44-.81,1.8Z"/>
  <path class="cls-6" d="M224.41,635.35c-.17-.13-.2-.29-.1-.47.1-.71-.07-1.52.69-2.01.55,1,.27,1.81-.59,2.48Z"/>
  <path class="cls-6" d="M227.13,549.2c-.95.4-1.58.46-2.23.02.64-.47,1.27-.39,2.23-.02Z"/>
  <path class="cls-6" d="M888.03,584.17c.14-.12.26-.32.4-.34.61-.08.86.31,1,.84.09.32.05.36-.27.28-.49-.12-.97-.21-1.13-.79Z"/>
  <path class="cls-6" d="M272.24,657.42c-.11.54-.38.92-.99.85-.14-.02-.38-.23-.36-.33.09-.61.61-.67,1.1-.8.32-.08.4-.03.26.28Z"/>
  <path class="cls-6" d="M467.8,387.88c.43.01.73.12.58.48-.09.22-.39.42-.63.48-.34.08-.57-.19-.46-.5.07-.21.38-.34.51-.46Z"/>
  <path class="cls-6" d="M273.13,656.08c.15.14.48.3.52.52.1.61-.45.5-.78.5-.16,0-.65.36-.54-.26.07-.4.22-.75.81-.76Z"/>
  <path class="cls-6" d="M262.93,688.83c.56.13,1.28-.24,1.57.55.04.11-.13.41-.24.44-.78.17-1.01-.46-1.34-.98Z"/>
  <path class="cls-6" d="M216.93,562.47c-.12.4.06.96-.55.85-.2-.03-.46-.38-.49-.61-.07-.48.34-.63.73-.71.71-.14-.05.49.31.47Z"/>
  <path class="cls-6" d="M816.62,549.14c-.68.49-1.27.43-1.95.13.74-.6,1.37-.25,1.95-.13Z"/>
  <path class="cls-6" d="M724.6,549.19c-.12.1-.25.28-.38.28-.47,0-.95-.03-1.41-.13-.2-.04-.15-.33.12-.36.48-.05.97-.01,1.45,0,.07,0,.13.13.21.21Z"/>
  <path class="cls-6" d="M276.05,700.03c-.52-.05-.92-.32-1.27-.68.28-.39.46-1.1,1.09-.62.32.24.78.79.18,1.31Z"/>
  <path class="cls-6" d="M281.6,702.55c-.52.03-.95-.14-1.25-.59.64-.75,1.5-.2,1.8.11.49.51-.33.32-.55.47Z"/>
  <path class="cls-6" d="M448.15,705.23c-.16-.24-.34-.38-.35-.53-.03-.43.13-.85.53-1.03.42-.19.54.16.43.46-.13.37-.38.7-.61,1.1Z"/>
  <path class="cls-6" d="M638.73,711.24c-.92-.7-.56-1.58-.36-2.44.54.75.28,1.62.37,2.44h0Z"/>
  <path class="cls-6" d="M931.24,519.85c-.01.48-.14.9-.63,1.1-.72-.41-.28-.9-.02-1.28.27-.41.49-.08.65.18Z"/>
  <path class="cls-6" d="M467.51,385.76c.21-.59.61-1,1.21-1.2.13.94.59,2.2-1.21,1.2Z"/>
  <path class="cls-6" d="M253.4,673.57c.22.09.48.12.52.23.11.3-.09.56-.38.61-.13.02-.58.5-.5-.15.03-.24.23-.46.36-.69Z"/>
  <path class="cls-6" d="M578.66,391.94c-.13.14-.25.4-.38.4-.6.02-.5-.49-.49-.84,0-.1-.4-.67.23-.45.36.13.64.43.64.88Z"/>
  <path class="cls-6" d="M244.59,658.76c.17.09.41.13.51.27.23.32.05.59-.24.77-.23.14-.43.05-.49-.21-.08-.31-.08-.62.22-.84Z"/>
  <path class="cls-6" d="M402.34,549.14c-.1.11-.19.31-.3.32-.29.03-.6.03-.87-.06-.29-.1-.27-.32.03-.4.38-.11.77-.15,1.14.14Z"/>
  <path class="cls-6" d="M484.22,408.61c.22.09.48.12.52.23.11.3-.09.56-.38.61-.13.02-.58.5-.5-.15.03-.24.23-.46.36-.69Z"/>
  <path class="cls-6" d="M700.97,549.14c-.1.11-.19.31-.3.32-.29.03-.6.03-.87-.06-.29-.1-.27-.32.03-.4.38-.11.77-.15,1.14.14Z"/>
  <path class="cls-6" d="M155.3,518.43c-.49-.25-.71-.68-.8-1.19.38.15.78.27,1.15.45.16.08.42.28.4.37-.08.38-.45.33-.74.37Z"/>
  <path class="cls-6" d="M263.54,549.54c-.26-.11-.6-.22-.59-.25.11-.54.55-.34.88-.33.15,0,.29.19.43.3-.26.1-.53.21-.73.29Z"/>
  <path class="cls-6" d="M409.65,603.44c.2-.17.31-.35.44-.36.36-.04.77-.17.96.31,0,.01-.32.22-.5.22-.28,0-.55-.09-.91-.16Z"/>
  <path class="cls-6" d="M487.06,379.3c-.21.17-.34.35-.47.36-.34.03-.77.19-.92-.32,0-.02.32-.21.5-.21.28,0,.55.1.9.17Z"/>
  <path class="cls-6" d="M575.89,677.65c-.17-.1-.21-.23-.12-.41.2-.41.5-.63.88-.26.17.17.34.6.25.73-.31.43-.67-.01-1.02-.06Z"/>
  <path class="cls-6" d="M807.77,663.28c.16-.69.53-1.25,1.02-1.74.7,1.19-.17,1.46-1.02,1.74Z"/>
  <path class="cls-6" d="M844.04,664.59h-1.24c.09-.45.08-1.07.76-.94.41.07.44.56.48.94Z"/>
  <path class="cls-6" d="M858.62,639.93c.09-.22.12-.48.23-.52.3-.11.56.09.61.38.02.13.5.58-.15.5-.24-.03-.47-.23-.69-.36Z"/>
  <path class="cls-6" d="M606.99,471.78c.02.25.05.49.07.74-.05.37-.09.74-.14,1.11-1.2-.66-1.12-1.28.07-1.85Z"/>
  <path class="cls-6" d="M484.82,699.25c-.08.17-.11.44-.24.49-.12.05-.33-.12-.51-.2.08-.17.11-.44.24-.49.12-.05.33.12.51.2Z"/>
  <path class="cls-6" d="M221.88,617.95c-.35-.02-.57-.2-.66-.53.49-.73,1.13-.33,1.33.08.27.53-.4.34-.67.46Z"/>
  <path class="cls-6" d="M843.41,667.04c-.01.34-.14.6-.49.71-.83-.58-.28-1.1.18-1.45.16-.12.28.44.31.73Z"/>
  <path class="cls-6" d="M853.4,651.58c-.03.53-.34.89-.75,1.17-.47-.35-.5-.77-.14-1.2.29-.35.61-.42.89.03Z"/>
  <path class="cls-6" d="M603.54,440.27c.09-.22.12-.48.23-.52.3-.11.56.09.61.38.02.13.5.57-.15.5-.24-.03-.47-.23-.69-.36Z"/>
  <path class="cls-6" d="M948.21,485.05c.09-.22.12-.48.23-.52.3-.11.56.09.61.38.02.13.5.57-.15.5-.24-.03-.46-.23-.69-.36Z"/>
  <path class="cls-6" d="M606.28,362.95c.5.51.78,1.1.62,1.83-.62-.47-1.52-.84-.62-1.83Z"/>
  <path class="cls-6" d="M496.85,374.47c.1-.09.21-.27.34-.28.36-.04.77-.17.96.31,0,.01-.32.21-.5.22-.29.03-.61.08-.81-.25Z"/>
  <path class="cls-6" d="M660.5,550.09c-1.23-.6-.55-1.21,0-1.81.74.6-.19,1.21,0,1.81Z"/>
  <path class="cls-6" d="M201.98,594.93c.08-.45.06-.98.75-.94.07,0,.19.12.19.19.04.68-.49.67-.94.75h0Z"/>
  <path class="cls-6" d="M762.04,549.1c-.2.17-.31.35-.44.36-.36.04-.77.17-.96-.31,0-.01.32-.22.5-.22.28,0,.55.09.91.16Z"/>
  <path class="cls-6" d="M851.64,654.26c-.06.46-.25.83-.71,1.02-.69-.46-.23-.94.06-1.29.31-.38.5.02.65.28Z"/>
  <path class="cls-6" d="M614.33,673.19s-.13.32-.34.41c-.33.13-.58-.12-.44-.44.09-.2.41-.32.64-.44.28-.15.37-.05.14.48Z"/>
  <path class="cls-6" d="M107.44,441.91c-.4-.31-.75-.65-.71-1.21.77.09,1.6.15.71,1.21Z"/>
  <path class="cls-6" d="M857.82,623.5c.38.24.76.49,1.14.73-.34.5-.77.53-1.21.16-.36-.3-.39-.63.07-.9Z"/>
  <path class="cls-6" d="M419.71,541.45c-.04.26,0,.62-.35.6-.09,0-.2-.5-.22-.78,0-.17.18-.5.22-.49.35.08.32.39.35.67Z"/>
  <path class="cls-6" d="M956.16,480.1c-.06.46-.22.84-.69,1.03-.7-.45-.24-.94.04-1.29.3-.38.5,0,.65.27Z"/>
  <path class="cls-6" d="M875.78,552.05c-.02-.55.35-.89.64-1.28.19,0,.39,0,.58-.01l.02.02c-.19.64.05,1.7-1.24,1.28Z"/>
  <path class="cls-6" d="M858.95,622.21c-.37.25-.75.51-1.12.76-.46-.25-.47-.58-.1-.89.43-.38.86-.35,1.22.14Z"/>
  <path class="cls-6" d="M786.68,549.33c.2-.17.31-.35.44-.36.36-.04.77-.17.96.31,0,.01-.32.22-.5.22-.28,0-.55-.09-.91-.16Z"/>
  <path class="cls-6" d="M834.71,674.54c-.61-.05-1.56-.2-1.4-.78.21-.73.76-.03,1.09.26.14.13.21.34.31.52Z"/>
  <path class="cls-6" d="M257.21,632.76s-.13.32-.34.41c-.33.13-.58-.12-.44-.44.09-.2.41-.32.64-.44.28-.15.37-.05.14.48Z"/>
  <path class="cls-6" d="M829.72,629.13c.11-.78.35-1.38,1.36-1.05-.2.71-.87.76-1.34,1.07l-.02-.02Z"/>
  <path class="cls-6" d="M855.01,644.47c-.15.11-.36.38-.63.43-.2.04-.34-.28-.2-.48.17-.23.4-.49.66-.56.19-.05.3.24.17.61Z"/>
  <path class="cls-6" d="M289.05,549.24c.1-.09.21-.27.34-.28.36-.04.77-.17.96.31,0,.01-.32.21-.5.22-.29.03-.61.08-.81-.25Z"/>
  <path class="cls-6" d="M905.98,508.26c-.09.22-.12.48-.23.52-.3.11-.56-.09-.61-.38-.02-.13-.5-.57.15-.5.24.03.46.23.69.36Z"/>
  <path class="cls-6" d="M639.43,762.85c.12.75.03,1.43-.66,1.9-.22-.21-.44-.43-.66-.64l1.33-1.26Z"/>
  <path class="cls-6" d="M639.36,711.24c.34.61.3,1.23.08,1.87-1.71-.06-.53-1.22-.72-1.86h0c.21,0,.42,0,.63,0Z"/>
  <path class="cls-6" d="M947.27,487.66c-.09.15-.19.29-.28.44-.08-.16-.22-.32-.22-.48,0-.15.17-.3.27-.44.08.16.16.32.24.48Z"/>
  <path class="cls-6" d="M176.05,498.63c.02.24-.11.35-.35.3-.09-.02-.19-.09-.24-.17-.15-.22-.1-.45.15-.46.14,0,.3.21.44.33Z"/>
  <path class="cls-6" d="M156.47,520.33c-.53-.23-.64-.72-.72-1.22.59.2,1.45.24.72,1.22Z"/>
  <path class="cls-6" d="M165.22,526.82c-.09.15-.17.31-.26.46-.09-.15-.24-.31-.24-.46,0-.15.16-.31.24-.46.09.15.17.31.26.46Z"/>
  <path class="cls-6" d="M922.19,529.21c.18.12.31.2.43.28-.18.21-.35.44-.55.63-.26.24-.36.16-.23-.16.1-.25.23-.49.35-.75Z"/>
  <path class="cls-6" d="M219.55,549.24c-.16.08-.32.22-.48.22-.15,0-.3-.17-.44-.27.16-.08.32-.22.48-.22.15,0,.3.17.44.26Z"/>
  <path class="cls-6" d="M854.61,649.65c-.01.34-.15.59-.5.69-.25-.22-.49-.45-.74-.67.41-.05.82-.69,1.24-.01Z"/>
  <path class="cls-6" d="M237.59,549.24c-.16.08-.32.22-.48.22-.15,0-.3-.17-.44-.27.16-.08.32-.22.48-.22.15,0,.3.17.44.26Z"/>
  <path class="cls-6" d="M356.57,549.47c-.15-.09-.3-.19-.45-.28.16-.08.32-.23.48-.22.15,0,.3.17.45.26-.16.08-.32.16-.48.24Z"/>
  <path class="cls-6" d="M359.07,548.95c.16.08.31.17.47.25-.15.09-.3.25-.45.25-.15,0-.31-.15-.46-.23.15-.09.3-.18.45-.27Z"/>
  <path class="cls-6" d="M367.14,549.48c-.15-.09-.29-.19-.44-.28.16-.08.32-.22.48-.22.15,0,.3.17.44.27-.16.08-.32.16-.48.24Z"/>
  <path class="cls-6" d="M371.36,549.23c-.16.08-.32.23-.48.22-.15,0-.3-.17-.45-.26.16-.08.32-.23.48-.22.15,0,.3.17.45.26Z"/>
  <path class="cls-6" d="M418.18,548.95c.16.08.31.17.47.25-.15.09-.3.25-.45.25-.15,0-.31-.15-.46-.23.15-.09.3-.18.45-.27Z"/>
  <path class="cls-6" d="M665.79,548.95c.15.09.31.17.46.26-.15.09-.31.24-.46.24-.15,0-.31-.16-.46-.24.15-.09.31-.17.46-.26Z"/>
  <path class="cls-6" d="M669.98,549.2c-.15.09-.3.25-.45.25-.15,0-.31-.15-.47-.23.15-.09.3-.25.45-.25.15,0,.31.15.46.23Z"/>
  <path class="cls-6" d="M716.81,548.95c.16.08.31.17.47.25-.15.09-.3.25-.45.25-.15,0-.31-.15-.46-.23.15-.09.3-.18.45-.27Z"/>
  <path class="cls-6" d="M734.85,548.95c.16.08.31.17.47.25-.15.09-.3.25-.45.25-.15,0-.31-.15-.46-.23.15-.09.3-.18.45-.27Z"/>
  <path class="cls-6" d="M777.63,549.23c-.16.08-.32.23-.48.22-.15,0-.3-.17-.45-.26.16-.08.32-.23.48-.22.15,0,.3.17.45.26Z"/>
  <path class="cls-6" d="M854.31,548.95c.15.09.31.17.46.26-.15.09-.31.24-.46.24-.15,0-.31-.16-.46-.24.15-.09.31-.17.46-.26Z"/>
  <path class="cls-6" d="M857.26,549.23c-.16.08-.32.23-.48.22-.15,0-.3-.17-.45-.26.16-.08.32-.23.48-.22.15,0,.3.17.45.26Z"/>
  <path class="cls-6" d="M865.35,549.21c-.16.09-.31.24-.47.24-.15,0-.31-.15-.46-.24.15-.09.31-.24.46-.24.15,0,.31.15.46.24Z"/>
  <path class="cls-6" d="M868.59,549.48c-.15-.09-.29-.19-.44-.28.16-.08.32-.22.48-.22.15,0,.3.17.44.27-.16.08-.32.16-.48.24Z"/>
  <path class="cls-6" d="M279.89,549.2c-.15.09-.3.25-.45.25-.15,0-.31-.15-.47-.23.15-.09.3-.25.45-.25.15,0,.31.15.46.23Z"/>
  <path class="cls-6" d="M216.3,559.47c.49.24.7.67.78,1.18-.47-.18-.94-.37-1.42-.55.21-.21.42-.42.63-.63Z"/>
  <path class="cls-6" d="M284.87,698.48c-.15.09-.3.25-.45.25-.15,0-.31-.15-.47-.23.15-.09.3-.25.45-.25.15,0,.31.15.46.23Z"/>
  <path class="cls-6" d="M218.25,562.54c.53.23.64.72.74,1.21-.62-.18-1.47-.21-.74-1.21Z"/>
  <path class="cls-6" d="M219.43,564.44c.47.26.7.67.75,1.2-.57-.2-1.41-.23-.75-1.2Z"/>
  <path class="cls-6" d="M896.32,580.02c-.36-.16-.72-.34-.81-.77-.01-.05.27-.25.34-.22.42.19.41.61.46.99,0,0,0,0,0,0Z"/>
  <path class="cls-6" d="M225.57,582.8c-.08.16-.17.31-.25.47-.09-.15-.25-.3-.25-.45,0-.15.15-.31.23-.46.09.15.18.3.27.45Z"/>
  <path class="cls-6" d="M887.28,587.62c-.09-.16-.24-.31-.24-.47,0-.15.15-.31.24-.46.09.15.24.31.24.46,0,.15-.15.31-.24.46Z"/>
  <path class="cls-6" d="M240.86,598.09c.15.09.31.17.46.26-.15.09-.31.24-.46.24-.15,0-.31-.16-.46-.24.15-.09.31-.17.46-.26Z"/>
  <path class="cls-6" d="M676.99,603.06c.15.09.31.17.46.26-.15.09-.31.24-.46.24-.15,0-.31-.16-.46-.24.15-.09.31-.17.46-.26Z"/>
  <path class="cls-6" d="M229.9,623.14c-.51-.11-.94-.33-1.18-.82,1.01-.62,1.01.23,1.18.82Z"/>
  <path class="cls-6" d="M224.25,628.9c-.1-.17-.06-.3.12-.39.33.06.79-.06.82.47,0,.12-.2.32-.34.36-.34.09-.47-.19-.59-.44Z"/>
  <path class="cls-6" d="M860.21,640.93c0,.34-.14.59-.48.71-.78-.36-.24-.85-.14-1.3.2.2.41.4.61.59Z"/>
  <path class="cls-6" d="M857.17,642.51c.1-.14.2-.28.31-.42.08.26.18.51.24.78.04.18.01.38.01.57-.35-.21-.56-.51-.56-.93Z"/>
  <path class="cls-6" d="M819.03,645.26c.04-.53.26-.94.74-1.2.65.95-.2.98-.74,1.2Z"/>
  <path class="cls-6" d="M270.11,655.4c-.09-.15-.25-.3-.25-.45,0-.15.15-.31.23-.47.09.15.25.3.25.45,0,.15-.15.31-.23.46Z"/>
  <path class="cls-6" d="M816.15,657.54c.24-.02.35.11.3.35-.02.09-.09.19-.17.24-.22.15-.45.1-.46-.15,0-.14.21-.3.33-.44Z"/>
  <path class="cls-6" d="M484.02,667.81c.02.24-.11.35-.35.3-.09-.02-.19-.09-.24-.17-.15-.22-.1-.45.15-.46.14,0,.3.21.44.33Z"/>
  <path class="cls-6" d="M837.26,669.88c.1-.14.2-.28.31-.42.08.26.18.51.24.78.04.18.01.38.01.57-.35-.21-.56-.51-.56-.93Z"/>
  <path class="cls-6" d="M478.63,671.82c-.12.18-.2.31-.28.43-.21-.18-.44-.35-.63-.55-.24-.26-.16-.36.16-.23.25.1.49.23.75.35Z"/>
  <path class="cls-6" d="M289.53,672.91c-.29.29-.64.4-1.03.25-.07-.03-.11-.15-.16-.24.36-.08.71-.17,1.07-.25.34-.08.38,0,.12.23Z"/>
  <path class="cls-6" d="M518.06,362.41c.34-.22.71-.29,1.11-.18.21.18.47.42.08.59-.47.2-.89,0-1.19-.41Z"/>
  <path class="cls-6" d="M799.7,672.91c-.29.29-.64.4-1.03.25-.07-.03-.11-.15-.16-.24.36-.08.71-.17,1.07-.25.34-.08.38,0,.12.23Z"/>
  <path class="cls-6" d="M496.27,370.43c.07-.18.19-.24.37-.17.56.12,1.15.19,1.49.76h0c-.67-.02-1.4.12-1.86-.59Z"/>
  <path class="cls-6" d="M550.64,391.07c-.28.2-.44.41-.57.39-.26-.04-.53-.16-.76-.31-.29-.2-.23-.29.12-.23.36.06.72.09,1.21.15Z"/>
  <path class="cls-6" d="M519.96,394.79c-.29.48-.74.61-1.26.55.26-.55.38-1.42,1.26-.55Z"/>
  <path class="cls-6" d="M514.3,395.27c.62-.8,1.24-.8,1.87,0h-1.87Z"/>
  <path class="cls-6" d="M509.07,395.75c.28-.2.44-.41.57-.39.26.04.53.16.76.31.29.2.23.29-.12.23-.36-.06-.72-.09-1.21-.15Z"/>
  <path class="cls-6" d="M480.79,418.45c.1.38.08.74-.15,1.07-.43-.3-.67-.73-.44-1.2.2-.41.43-.08.59.13Z"/>
  <path class="cls-6" d="M509.94,678.27c.05-.47-.13-.98.31-1.36.44.38.26.9.31,1.36h-.62Z"/>
  <path class="cls-6" d="M162.68,473.54s-.17.26-.35.46c-.01.02-.23-.15-.35-.23.18-.21.35-.44.55-.63.26-.24.35-.16.16.39Z"/>
  <path class="cls-6" d="M921.21,475.59c0-.36.15-.62.5-.74.26.12.52.29.34.61-.2.36-.49.57-.84.13Z"/>
  <path class="cls-6" d="M919.74,477.92c.1-.5.29-.95.8-1.18.22.21.43.42.65.63-.48.18-.96.36-1.45.54Z"/>
  <path class="cls-6" d="M138.9,484.43c.18.12.31.2.43.28-.18.21-.35.44-.55.63-.26.24-.36.16-.23-.17.1-.25.23-.49.35-.75Z"/>
  <path class="cls-6" d="M450.77,766.77c-.67-.23-1.1-.71-1.38-1.34.97-.08,1.44.36,1.38,1.34Z"/>
  <path class="cls-6" d="M828.64,683.58c-.16.08-.32.23-.48.22-.15,0-.3-.17-.45-.26.16-.08.32-.23.48-.22.15,0,.3.17.45.26Z"/>
  <path class="cls-6" d="M223.78,632.24c-.21-.42-.2-.82.03-1.23.59.43.57.83-.03,1.23Z"/>
  <path class="cls-6" d="M215.65,560.39c-.07.17-.13.48-.22.49-.24.02-.34-.19-.19-.4.1-.15.34-.39.41-.35.38.16.01-.15,0,.27Z"/>
  <path class="cls-6" d="M672.71,533.53c-.08-.03-.22-.05-.22-.08,0-.09.05-.17.08-.26.08.03.22.05.22.08,0,.09-.05.18-.08.26Z"/>
  <path class="cls-6" d="M922.05,527.29c-.03-.09-.05-.18-.08-.27.08-.02.21-.08.22-.06.17.23.11.35-.15.32Z"/>
  <path class="cls-6" d="M411.21,523.63c-.05.08-.12.23-.15.22-.18-.05-.37-.1-.5-.21-.27-.23-.2-.33.13-.22.18.06.35.14.52.21Z"/>
  <path class="cls-6" d="M807.52,667.93c-.05.08-.12.23-.15.22-.18-.05-.37-.1-.5-.21-.27-.23-.2-.33.13-.22.18.06.35.14.52.21Z"/>
  <path class="cls-6" d="M261.32,549.23c-.08.04-.17.13-.25.12-.08,0-.14-.11-.22-.17.18-.19.33-.18.46.04Z"/>
  <path class="cls-6" d="M254.4,549.29c-.09.03-.18.05-.27.08-.02-.08-.08-.21-.06-.22.23-.17.35-.11.32.15Z"/>
  <path class="cls-6" d="M251.92,549.14c-.03.08-.05.22-.08.22-.09,0-.17-.05-.26-.08.03-.08.05-.22.08-.22.09,0,.18.05.26.08Z"/>
  <path class="cls-6" d="M249.44,549.14c-.03.08-.05.22-.08.22-.09,0-.17-.05-.26-.08.03-.08.05-.22.08-.22.09,0,.18.05.26.08Z"/>
  <path class="cls-6" d="M239.13,549.28c.03-.08.05-.22.08-.22.09,0,.18.05.26.08-.03.08-.05.22-.08.22-.09,0-.18-.05-.26-.08Z"/>
  <path class="cls-6" d="M891.15,518.81c.03-.08.05-.22.08-.22.09,0,.17.05.26.08-.03.08-.05.22-.08.22-.09,0-.18-.05-.26-.08Z"/>
  <path class="cls-6" d="M935.5,510.96c.48.24.6.67.6,1.17,0,0-.03.05-.03.05-.47-.27-.56-.73-.57-1.22Z"/>
  <path class="cls-6" d="M933.24,509.43c-.08.05-.17.13-.25.12-.08,0-.14-.11-.22-.17.18-.19.33-.18.46.04Z"/>
  <path class="cls-6" d="M153.81,509.29c.25-.12.41-.05.44.2,0,.05-.14.14-.22.16-.19.04-.38.05-.57.07.12-.15.24-.29.36-.43Z"/>
  <path class="cls-6" d="M906.72,506.01c-.06.07-.12.14-.18.21-.05-.08-.13-.17-.12-.25,0-.08.11-.14.17-.22.05.08.09.17.13.25Z"/>
  <path class="cls-6" d="M180.67,506.09c-.08.02-.2.08-.22.06-.05-.07-.06-.17-.09-.26.08-.02.2-.08.22-.06.05.07.06.17.09.26Z"/>
  <path class="cls-6" d="M479.57,737.52c.02.08.08.2.06.22-.07.05-.17.06-.26.09-.02-.08-.08-.2-.06-.22.07-.05.17-.06.26-.09Z"/>
  <path class="cls-6" d="M257.35,628.52c-.27-.08-.54-.16-.8-.23.45-.57.59-.01.81.23,0,0,0,0,0,0Z"/>
  <path class="cls-6" d="M180.83,500.39c-.08.27-.15.54-.23.81-.57-.45-.01-.58.23-.81h0Z"/>
  <path class="cls-6" d="M857.96,628.22c-.08.04-.17.13-.25.12-.08,0-.14-.11-.22-.17.18-.19.33-.18.46.04Z"/>
  <path class="cls-6" d="M607.8,737.6c-.03.08-.05.22-.08.22-.09,0-.17-.05-.26-.08.03-.08.05-.22.08-.22.09,0,.18.05.26.08Z"/>
  <path class="cls-6" d="M872.64,604.1c-.07-.06-.14-.12-.21-.18.08-.04.17-.13.25-.12.08,0,.14.11.22.17-.08.04-.17.09-.25.13Z"/>
  <path class="cls-6" d="M521.78,361.74c.39-.07.77-.13,1.16-.2-.26.77-.66.8-1.16.2Z"/>
  <path class="cls-6" d="M867.86,608.85c-.03.08-.05.22-.08.22-.09,0-.18-.05-.26-.08.03-.08.05-.22.08-.22.09,0,.18.05.26.08Z"/>
  <path class="cls-6" d="M971.91,447.29c.05.08.13.17.12.25,0,.08-.11.14-.17.22-.19-.18-.18-.33.04-.46Z"/>
  <path class="cls-6" d="M255.32,631.73c-.08.02-.2.08-.22.06-.05-.07-.06-.17-.09-.26.08-.02.2-.08.22-.06.05.07.06.17.09.26Z"/>
  <path class="cls-6" d="M210.86,549.14c-.03.08-.05.22-.08.22-.09,0-.17-.05-.26-.08.03-.08.05-.22.08-.22.09,0,.18.05.26.08Z"/>
  <path class="cls-6" d="M225.23,632.06c.08.05.23.12.22.15-.05.18-.1.37-.21.5-.23.27-.33.2-.22-.13.06-.18.14-.35.21-.52Z"/>
  <path class="cls-6" d="M634.73,763.06c.25-.12.41-.05.44.2,0,.05-.14.14-.22.16-.19.04-.38.05-.57.07.12-.15.24-.29.36-.43Z"/>
  <path class="cls-6" d="M637.68,763.75c-.12-.25-.05-.41.2-.44.05,0,.14.14.16.22.04.19.05.38.07.57-.15-.12-.29-.24-.43-.36Z"/>
  <path class="cls-6" d="M452.04,767.25c.15-.26.58-.6.63-.47.31.72-.42.29-.62.48,0,0-.01,0-.01,0Z"/>
  <path class="cls-6" d="M210.68,551.39c-.26-.14-.58-.56-.44-.62.7-.3.29.4.46.61,0,0-.01.01-.01.01Z"/>
  <path class="cls-6" d="M603.87,474.11c-.07-.06-.14-.12-.21-.18.08-.05.17-.13.25-.12.08,0,.14.11.22.17-.08.04-.17.09-.25.13Z"/>
  <path class="cls-6" d="M863.43,633.52c.09.42.06.83-.19,1.2-.58-.5-.51-.9.19-1.2Z"/>
  <path class="cls-6" d="M873.46,549.14c-.03.08-.05.22-.08.22-.09,0-.18-.05-.26-.08.03-.08.05-.22.08-.22.09,0,.18.05.26.08Z"/>
  <path class="cls-6" d="M860.41,636.87c-.12-.25-.05-.41.2-.44.05,0,.14.14.16.22.04.19.05.38.07.57-.15-.12-.29-.24-.43-.36Z"/>
  <path class="cls-6" d="M801.92,672.9c-.05.08-.12.23-.15.22-.18-.05-.37-.1-.5-.21-.27-.23-.2-.33.13-.22.18.06.35.14.52.21Z"/>
  <path class="cls-6" d="M926.5,472.16c.04.08.13.17.12.25,0,.08-.11.14-.17.22-.19-.18-.18-.33.04-.46Z"/>
  <path class="cls-6" d="M957.26,470.82c-.07.17-.13.48-.22.49-.24.02-.34-.19-.19-.4.1-.15.33-.39.41-.35.38.16.01-.15,0,.27Z"/>
  <path class="cls-6" d="M805.45,549.37c-.07-.06-.14-.12-.21-.18.08-.04.17-.13.25-.12.08,0,.14.11.22.17-.08.04-.17.09-.25.13Z"/>
  <path class="cls-6" d="M509.93,673.59c-.07.17-.13.48-.22.49-.24.02-.34-.19-.19-.4.1-.15.34-.39.41-.35.38.16.01-.15,0,.27Z"/>
  <path class="cls-6" d="M577.56,673.65c.12.25.05.41-.2.44-.05,0-.14-.14-.16-.22-.04-.19-.05-.38-.07-.57.15.12.29.24.43.36Z"/>
  <path class="cls-6" d="M799.35,549.06c.02.08.08.2.06.22-.07.05-.17.06-.26.09-.02-.08-.08-.2-.06-.22.07-.05.17-.06.26-.09Z"/>
  <path class="cls-6" d="M575.34,675.77c-.23-.39-.22-.8-.11-1.22.66.35.71.75.11,1.22Z"/>
  <path class="cls-6" d="M254.62,676.58c-.08-.03-.22-.05-.22-.08,0-.09.05-.17.08-.26.08.03.22.05.22.08,0,.09-.05.18-.08.26Z"/>
  <path class="cls-6" d="M832.68,676.51c-.08.02-.2.08-.22.06-.05-.07-.06-.17-.09-.26.08-.02.2-.08.22-.06.05.07.06.17.09.26Z"/>
  <path class="cls-6" d="M216.71,567.92c.12.25.05.41-.2.44-.05,0-.14-.14-.16-.22-.04-.19-.05-.38-.07-.57.15.12.29.24.43.36Z"/>
  <path class="cls-6" d="M758.96,549.29c-.09.03-.18.05-.27.08-.02-.08-.08-.21-.06-.22.23-.17.35-.11.32.15Z"/>
  <path class="cls-6" d="M897.39,569.45c-.06.07-.12.14-.18.21-.04-.08-.13-.17-.12-.25,0-.08.11-.14.17-.22.04.08.09.17.13.25Z"/>
  <path class="cls-6" d="M752.07,549.06c.02.08.08.2.06.22-.07.05-.17.06-.26.09-.02-.08-.08-.2-.06-.22.07-.05.17-.06.26-.09Z"/>
  <path class="cls-6" d="M749.71,549.23c-.08.04-.17.13-.25.12-.08,0-.14-.11-.22-.17.18-.19.33-.18.46.04Z"/>
  <path class="cls-6" d="M265.6,648.18c-.09.03-.18.05-.27.08-.02-.08-.08-.21-.06-.22.23-.17.35-.11.32.15Z"/>
  <path class="cls-6" d="M746.96,549.37c-.07-.06-.14-.12-.21-.18.08-.05.17-.13.25-.12.08,0,.14.11.22.17-.08.04-.17.09-.25.13Z"/>
  <path class="cls-6" d="M736.86,549.28c.03-.08.05-.22.08-.22.09,0,.18.05.26.08-.03.08-.05.22-.08.22-.09,0-.18-.05-.26-.08Z"/>
  <path class="cls-6" d="M486.13,407.47c.03-.08.05-.22.08-.22.09,0,.17.05.26.08-.03.08-.05.22-.08.22-.09,0-.18-.05-.26-.08Z"/>
  <path class="cls-6" d="M457.87,404.21c-.05.08-.12.23-.15.22-.18-.05-.37-.1-.5-.21-.27-.23-.2-.33.13-.22.18.06.35.14.52.21Z"/>
  <path class="cls-6" d="M681.19,549.29c-.09.03-.18.05-.27.08-.02-.08-.08-.21-.06-.22.23-.17.35-.11.32.15Z"/>
  <path class="cls-6" d="M876,549.23c-.08.05-.17.13-.25.12-.08,0-.14-.11-.22-.17.18-.19.33-.18.46.04Z"/>
  <path class="cls-6" d="M816.9,655.42c-.03-.09-.05-.18-.08-.27.08-.02.21-.08.22-.06.17.23.11.35-.15.32Z"/>
  <path class="cls-6" d="M521.77,394.05c-.51-.03-.98-.14-1.25-.64.52.01.99.13,1.26.63,0,0-.02,0-.02,0Z"/>
  <path class="cls-6" d="M274.95,655.71c.35.11.5.35.49.7-.11.23-.41.35-.48.18-.11-.25-.02-.59-.01-.89Z"/>
  <path class="cls-6" d="M262.95,688.85h-1.24c.41-.64.83-.64,1.24,0Z"/>
  <path class="cls-6" d="M462.54,390.86c0-.35.16-.58.5-.68.12.12.36.28.34.36-.13.45-.53.3-.85.32Z"/>
  <path class="cls-6" d="M826.79,549.14c-.03.08-.05.22-.08.22-.09,0-.17-.05-.26-.08.03-.08.05-.22.08-.22.09,0,.18.05.26.08Z"/>
  <path class="cls-6" d="M592.8,688.38c.02.08.08.2.06.22-.07.05-.17.06-.26.09-.02-.08-.08-.2-.06-.22.07-.05.17-.06.26-.09Z"/>
  <path class="cls-6" d="M678.78,549.23c-.08.04-.17.13-.25.12-.08,0-.14-.11-.22-.17.18-.19.33-.18.46.04Z"/>
  <path class="cls-6" d="M892.33,580.8c-.08-.03-.22-.05-.22-.08,0-.09.05-.17.08-.26.08.03.22.05.22.08,0,.09-.05.18-.08.26Z"/>
  <path class="cls-6" d="M674.79,549.37c-.07-.06-.14-.12-.21-.18.08-.05.17-.13.25-.12.08,0,.14.11.22.17-.08.04-.17.09-.25.13Z"/>
  <path class="cls-6" d="M489.59,693.44c-.03.08-.05.22-.08.22-.09,0-.17-.05-.26-.08.03-.08.05-.22.08-.22.09,0,.18.05.26.08Z"/>
  <path class="cls-6" d="M382.56,549.29c-.09.03-.18.05-.27.08-.02-.08-.08-.21-.06-.22.23-.17.35-.11.32.15Z"/>
  <path class="cls-6" d="M380.07,549.29c-.09.03-.18.05-.27.08-.02-.08-.08-.21-.06-.22.23-.17.35-.11.32.15Z"/>
  <path class="cls-6" d="M235.56,589.62c-.07.17-.13.48-.22.49-.24.02-.34-.19-.19-.4.1-.15.34-.39.41-.35.38.16.01-.15,0,.27Z"/>
  <path class="cls-6" d="M376.01,549.28c.03-.08.05-.22.08-.22.09,0,.17.05.26.08-.03.08-.05.22-.08.22-.09,0-.18-.05-.26-.08Z"/>
  <path class="cls-6" d="M882.23,594.13c.08.03.22.05.22.08,0,.09-.05.17-.08.26-.08-.03-.22-.05-.22-.08,0-.09.05-.18.08-.26Z"/>
  <path class="cls-6" d="M508.26,368.76c-.05.08-.12.23-.15.22-.18-.05-.37-.1-.5-.21-.27-.23-.2-.33.13-.22.18.06.35.14.52.21Z"/>
  <path class="cls-6" d="M329.06,549.29c-.09.03-.18.05-.27.08-.02-.08-.08-.21-.06-.22.23-.17.35-.11.32.15Z"/>
  <path class="cls-6" d="M307.98,549.23c-.08.04-.17.13-.25.12-.08,0-.14-.11-.22-.17.18-.19.33-.18.46.04Z"/>
  <path class="cls-6" d="M605.13,364.8c-.27-.08-.54-.15-.81-.23.45-.57.58-.01.81.23h0Z"/>
  <path class="cls-6" d="M446.1,703.6c.08.03.22.05.22.08,0,.09-.05.17-.08.26-.08-.03-.22-.05-.22-.08,0-.09.05-.18.08-.26Z"/>
  <path class="cls-6" d="M876.75,553.45c.25-.12.41-.05.44.2,0,.05-.14.14-.22.16-.19.04-.38.05-.57.07.12-.15.24-.29.36-.43Z"/>
  <path class="cls-6" d="M301.35,549.28c.03-.08.05-.22.08-.22.09,0,.17.05.26.08-.03.08-.05.22-.08.22-.09,0-.18-.05-.26-.08Z"/>
  <path class="cls-6" d="M449.44,706.99c-.08.02-.2.08-.22.06-.05-.07-.06-.17-.09-.26.08-.02.2-.08.22-.06.05.07.06.17.09.26Z"/>
  <path class="cls-6" d="M638.34,707.04c-.03-.09-.05-.18-.08-.27.08-.02.21-.08.22-.06.17.23.11.35-.15.32Z"/>
  <path class="cls-6" d="M420.36,534.6c-.05.09-.12.25-.15.24-.21-.05-.16-.15.14-.26,0,0,0,.01,0,.01Z"/>
  <path class="cls-6" d="M412.99,522.66c.23-.02.39.08.48.3-.39.26-.46.03-.48-.3Z"/>
  <path class="cls-6" d="M424.69,619.23c-.05.08-.12.24-.15.23-.2-.06-.15-.16.13-.26,0,0,.01.03.01.03Z"/>
  <path class="cls-6" d="M412.34,521.99c.37.1.61.32.67.72-.38-.09-.6-.33-.67-.72Z"/>
  <path class="cls-6" d="M159.67,521.54c.21.21.41.41.62.62-.21-.21-.41-.41-.62-.62Z"/>
  <path class="cls-6" d="M676.74,520.92c.08.06.23.13.22.16-.06.2-.17.15-.28-.13,0,0,.06-.04.06-.04Z"/>
  <polygon class="cls-6" points="210.69 558.23 210.43 558.09 210.55 557.97 210.69 558.23"/>
  <polygon class="cls-6" points="906.26 503.5 906.51 503.64 906.4 503.76 906.26 503.5"/>
  <path class="cls-6" d="M180.82,500.39c.2-.2.39-.41.59-.61,0,0,.02.04.02.04-.2.19-.4.38-.6.57h0Z"/>
  <path class="cls-6" d="M829.74,629.15c-.21.35-.42.36-.63,0,0,0,.02-.03.02-.03.2,0,.4,0,.6,0,0,0,.02.02.02.02Z"/>
  <path class="cls-6" d="M827.62,631.53c.1-.17.2-.35.3-.52.19.2.37.41.56.61-.29-.03-.57-.06-.86-.09Z"/>
  <path class="cls-6" d="M919.35,478.62c.08.05.24.11.23.15-.03.21-.13.17-.25-.11,0,0,.02-.03.02-.03Z"/>
  <path class="cls-6" d="M862.77,636l-.15.59c-.22-.13-.28-.3-.12-.46.06-.07.18-.08.27-.12Z"/>
  <polygon class="cls-6" points="210.69 558.23 210.95 558.37 210.83 558.49 210.69 558.23"/>
  <path class="cls-6" d="M213.8,558.23c.09.05.25.11.25.14-.05.21-.14.16-.25-.14h0Z"/>
  <path class="cls-6" d="M859,642.84c-.09-.05-.26-.12-.25-.15.04-.21.15-.16.25.15,0,0,0,0,0,0Z"/>
  <path class="cls-6" d="M113.63,451.86c.05-.08.12-.25.14-.24.2.05.15.15-.14.25,0,0,0-.01,0-.01Z"/>
  <polygon class="cls-6" points="972.2 450.63 972.06 450.89 971.95 450.77 972.2 450.63"/>
  <path class="cls-6" d="M113.63,448.14c-.21.21-.41.41-.62.62.21-.21.41-.41.62-.62Z"/>
  <path class="cls-6" d="M215.6,558.24c.1.18.2.35.3.53-.36-.03-.74-.04-.3-.53Z"/>
  <path class="cls-6" d="M420.98,535.85c-.05.08-.12.25-.15.24-.2-.05-.15-.15.14-.26,0,0,0,.02,0,.02Z"/>
  <polygon class="cls-6" points="514.3 395.27 514.16 395.53 514.04 395.42 514.3 395.27"/>
  <path class="cls-6" d="M460.04,393.97c.05-.38.22-.65.61-.74-.02.4-.24.64-.61.74Z"/>
  <polygon class="cls-6" points="549.14 390.3 549.28 390.04 549.4 390.16 549.14 390.3"/>
  <path class="cls-6" d="M810.89,658.3c.1-.18.2-.35.3-.53.38.45.05.5-.3.53Z"/>
  <path class="cls-6" d="M468.72,384.58c.06-.4.31-.62.7-.7-.07.4-.29.64-.7.7Z"/>
  <path class="cls-6" d="M482.58,376.67c.12-.2.29-.29.52-.27-.03.38-.07.72-.52.27Z"/>
  <path class="cls-6" d="M810.44,658.97c.09.05.25.12.25.15-.04.21-.14.17-.26-.13,0,0,.02-.02.02-.02Z"/>
  <path class="cls-6" d="M487.58,374.28c.18-.07.37-.14.55-.21-.08.33-.23.51-.55.21Z"/>
  <path class="cls-6" d="M495.05,371.02c.08.05.24.13.23.16-.06.2-.17.14-.28-.14,0,0,.05-.02.05-.02Z"/>
  <path class="cls-6" d="M498.76,369.25c.14-.19.33-.25.55-.19-.08.35-.23.52-.55.19Z"/>
  <path class="cls-6" d="M277.85,660.32c-.05.07-.13.22-.16.21-.19-.06-.15-.17.13-.27,0,0,.03.06.03.06Z"/>
  <path class="cls-6" d="M278.99,662.13c.11.17.22.35.33.52-.35-.02-.7-.05-.33-.52Z"/>
  <path class="cls-6" d="M500.02,368.67c.14-.2.33-.25.56-.16-.11.33-.27.45-.56.16Z"/>
  <path class="cls-6" d="M807.28,663.9c.09.09.17.18.26.28-.09-.09-.18-.17-.28-.26,0,0,.02-.02.02-.02Z"/>
  <polygon class="cls-6" points="842.8 664.59 842.65 664.85 842.54 664.73 842.8 664.59"/>
  <path class="cls-6" d="M844.04,664.59c.2.19.4.38.6.58,0,0-.02.03-.02.03-.19-.2-.39-.4-.58-.61Z"/>
  <path class="cls-6" d="M511.19,364.18c.15-.2.33-.25.55-.15-.08.45-.24.6-.55.15Z"/>
  <polygon class="cls-6" points="518.03 364.18 518.17 363.92 518.29 364.03 518.03 364.18"/>
  <polygon class="cls-6" points="603.89 362.31 603.75 362.57 603.63 362.45 603.89 362.31"/>
  <path class="cls-6" d="M285.39,668.91c-.09.08-.18.17-.27.25.08-.09.17-.18.25-.27,0,0,.02.02.02.02Z"/>
  <path class="cls-6" d="M605.23,361.56c.39.08.55.34.57.72-.34-.12-.53-.36-.57-.72Z"/>
  <path class="cls-6" d="M216.91,561.96c.19-.2.39-.4.58-.61,0,0,.02.04.02.04-.2.19-.4.38-.6.56Z"/>
  <path class="cls-6" d="M286.02,669.44c.18.1.35.2.53.31-.38.26-.48.02-.53-.31Z"/>
  <path class="cls-6" d="M603.89,362.31c.21-.21.41-.42.62-.63,0,0,0,0,0,0-.21.21-.42.41-.63.62Z"/>
  <path class="cls-6" d="M289.1,671.44c-.05.08-.11.25-.16.24-.22-.03-.18-.13.11-.26,0,0,.04.02.04.02Z"/>
  <path class="cls-6" d="M289.7,672.68c.2-.21.39-.42.59-.63,0,0,.05.02.05.02-.21.2-.43.4-.64.6Z"/>
  <polygon class="cls-6" points="285.35 672.68 285.2 672.93 285.09 672.82 285.35 672.68"/>
  <path class="cls-6" d="M291.58,672.69c-.05.08-.11.24-.15.24-.22-.03-.18-.13.11-.26,0,0,.04.02.04.02Z"/>
  <path class="cls-6" d="M604.55,361c.37.02.62.19.69.58-.24.04-.48.07-.73.11,0,0,0,0,0,0,.01-.23.03-.46.04-.68Z"/>
  <path class="cls-6" d="M817.86,696.29c-.08-.05-.23-.12-.23-.15.06-.2.16-.15.26.13,0,0-.04.02-.04.02Z"/>
  <polygon class="cls-6" points="862.08 576.89 862.23 576.63 862.34 576.75 862.08 576.89"/>
  <path class="cls-6" d="M190.76,579.39c.05-.09.11-.26.14-.25.21.04.16.14-.14.25,0,0,0,0,0,0Z"/>
  <polygon class="cls-6" points="851.51 593.06 851.76 593.2 851.65 593.32 851.51 593.06"/>
  <path class="cls-6" d="M491.22,698.77c-.08-.05-.23-.12-.22-.15.05-.2.15-.16.26.12,0,0-.04.03-.04.03Z"/>
  <path class="cls-6" d="M243.14,593.62c-.1.09-.2.18-.3.27.09-.1.18-.2.26-.3,0,0,.03.03.03.03Z"/>
  <path class="cls-6" d="M877.01,550.76c.05-.08.12-.25.15-.24.21.04.16.15-.13.26,0,0-.02-.02-.02-.02Z"/>
  <path class="cls-6" d="M288.46,703.77c.05-.09.11-.25.14-.25.21.05.16.14-.14.25h0Z"/>
  <path class="cls-6" d="M259.21,686.98c.05-.09.11-.25.14-.25.21.05.16.14-.14.25h0Z"/>
  <path class="cls-6" d="M258.72,687.58c-.22-.05-.33-.19-.32-.42.27-.06.54-.12.81-.18,0,0,0,0,0,0-.16.2-.33.4-.49.6Z"/>
  <path class="cls-6" d="M260.36,689.02c-.4-.08-.64-.34-.78-.71.42.06.69.29.78.71Z"/>
  <polygon class="cls-6" points="292.81 674.54 292.67 674.8 292.55 674.68 292.81 674.54"/>
  <polygon class="cls-6" points="185.18 567.56 185.44 567.7 185.32 567.82 185.18 567.56"/>
  <polygon class="cls-6" points="608.24 710.62 608.39 710.36 608.5 710.47 608.24 710.62"/>
  <polygon class="cls-6" points="832.84 678.89 832.58 678.75 832.7 678.64 832.84 678.89"/>
  <polygon class="cls-6" points="414.75 603.64 414.5 603.49 414.61 603.38 414.75 603.64"/>
  <path class="cls-6" d="M292.81,673.92c-.5-.28-.29-.5.06-.71,0,0,.02.02.02.02-.03.23-.05.46-.08.69h0Z"/>
  <polygon class="cls-6" points="448.97 761 449.12 760.74 449.23 760.85 448.97 761"/>
  <path class="cls-6" d="M821.61,693.66c-.17.12-.34.24-.51.36.02-.33.01-.7.51-.36Z"/>
  <polygon class="cls-6" points="215.67 611.72 215.81 611.46 215.92 611.58 215.67 611.72"/>
  <path class="cls-6" d="M661.13,547.03c.09.05.25.11.24.15-.04.21-.14.17-.25-.13,0,0,0-.02,0-.02Z"/>
  <polygon class="cls-6" points="665.48 543.3 665.34 543.56 665.22 543.45 665.48 543.3"/>
  <path class="cls-6" d="M178.33,542.06c-.09-.05-.25-.11-.24-.14.04-.21.14-.16.25.14,0,0,0,0,0,0Z"/>
  <polygon class="cls-6" points="454.57 765.97 454.31 765.83 454.43 765.71 454.57 765.97"/>
  <path class="cls-6" d="M420.98,537.71c.21-.21.41-.42.62-.63,0,0,.01.02.01.02-.21.2-.42.41-.63.61Z"/>
  <path class="cls-2" d="M164.69,472.54c.26-.51.7-.74,1.25-.75.83-.02,1.66-.02,2.49-.02,102.83,0,205.67,0,308.5.03,1.24,0,2.73-.67,3.72.77-1.24-.05-2.48-.15-3.72-.15-102.94,0-205.88,0-308.83,0-1.14,0-2.28.08-3.41.12Z"/>
  <path class="cls-1" d="M249.28,595.51c-1.44.18-2.64-.42-3.79-1.18,1.29-.28,2.49-.71,3.91-.16,1,.39,2.25.14,3.39.14,47.68,0,95.36,0,143.04,0h3.35c-1.06.88-2.21.61-3.3.61-47.58.02-95.15.01-142.73.04-1.29,0-2.71-.5-3.87.56Z"/>
  <path class="cls-1" d="M837.61,594.84h-148.91c0-.1,0-.21,0-.31h149.04c-.04.1-.09.21-.13.31Z"/>
</svg>