<?xml version="1.0" encoding="UTF-8"?>
<svg id="Layer_1" xmlns="http://www.w3.org/2000/svg" viewBox="0 0 1080 1080">
  <defs>
    <style>
      .cls-1 {
        fill: #a60230;
      }

      .cls-2 {
        fill: #fefefe;
      }

      .cls-3 {
        fill: #c96480;
      }
    </style>
  </defs>
  <path class="cls-1" d="M538.09,68.55c252.5-4.87,490.08,203.86,491.31,489.67,1.15,266.92-217.57,499.48-505.34,492.13-259.86-6.64-474.54-220.49-476.5-487.43-2.08-282.82,232.2-498.5,490.53-494.38Z"/>
  <path class="cls-2" d="M956.38,471.3c1.61,102.58-17.21,201.34-55.66,296.39-10.66,26.35-23.04,51.86-36.33,77-14.97,28.33-36.14,50.37-62.37,68.65-50.69,35.33-106.35,56.66-167.55,64.51-42.74,5.48-85.67,6.67-128.56,5.19-49.12-1.7-97.68-8.28-144.3-25.3-42.09-15.37-79.3-38.87-112.98-68.01-14.89-12.88-24.63-29.99-33.86-47.18-39.79-74.07-66.77-152.58-81-235.44-6.89-40.1-9.71-80.57-9.89-121.23-.04-8.98,0-17.96-1.06-27.1-1.04,4.06-2.1,8.12-3.12,12.18-5.37,21.41-15.81,39.27-34.96,51.43-9.75,6.19-16.53,15.32-22.82,25.13.35-44.16,7.72-87.19,20.6-129.34,13-42.53,32.19-82.14,56.16-119.57,23.99-37.47,53.65-70.01,86.81-99.27,143.17-126.35,347.71-152.76,517.59-71.47,177.13,84.76,272.47,259.6,272.32,428.67-2.54-2.38-4.47-4.58-6.77-6.29-28.48-21.23-40.54-51.73-48.06-84.81-1.14-5.02-2.17-10.07-3.25-15.11-.45-.48-.62-1.12-1.17-1.87-.08,7.77-.53,15.31.19,22.85Z"/>
  <path class="cls-3" d="M956.38,471.3c-1.31-8.63-.63-17.29-.05-26.06.34,1.7.68,3.39,1.02,5.09-1.76,4.79-.29,9.73-.67,14.59-.17,2.12-.21,4.26-.3,6.39Z"/>
  <path class="cls-1" d="M541.06,225.65c26.45.01,52.94-.6,79.32,1.84,53.9,4.98,107.22,13.09,158.35,31.87,11.87,4.36,23.2,9.87,34.23,16.05,17.39,9.74,28.87,23.98,34.82,43.04,8.07,25.85,13.53,52.15,13.75,79.28.26,33.45.97,66.92-.99,100.34-1.34,22.92-4.77,45.64-8.11,68.34-8.05,54.78-18.76,109.05-32.73,162.64-9.51,36.49-20.71,72.45-33.86,107.82-5.55,14.94-14.68,26.38-27.92,35.23-30.64,20.49-64.45,32.61-100.37,39.47-53.96,10.31-108.46,11.71-163.08,8.7-42.95-2.37-85.31-8.67-125.75-24.45-17.42-6.8-33.69-15.69-49.09-26.27-10.68-7.34-17.82-17.16-22.49-29.11-17.87-45.73-31.15-92.84-42.66-140.49-11.87-49.14-21.02-98.81-27.9-148.89-7.09-51.58-9.28-103.41-6.91-155.39,1.03-22.6,4.84-44.86,10.37-66.9,7.03-27.99,23.68-47.12,49.5-59.4,27.19-12.93,55.72-21.49,84.98-27.89,58.16-12.72,117.08-17.26,176.53-15.85Z"/>
  <path class="cls-1" d="M526.89,204.34c-24.31-.45-63.51,1.27-102.55,6.16-45.94,5.75-91.25,14.27-134.69,30.93-10.87,4.17-21.26,9.33-31.54,14.8-23.79,12.68-38.86,31.84-45.78,58.01-7.26,27.47-11.83,55.29-12.71,83.63-1.07,34.44-1.22,68.9,1.94,103.27,3.81,41.42,9.89,82.51,17.33,123.43,11.02,60.54,26.22,120.05,43.89,178.95,4.25,14.17,3.95,28.59,2.32,43.04-.76,6.76-3.43,8.79-10.16,7.26-15.57-3.55-26.22-13.97-34.53-26.81-6.86-10.6-11.82-22.29-17.04-33.78-29.32-64.52-49.31-131.84-59.55-201.95-6.62-45.36-9.79-90.99-7.19-136.86,2.55-44.97,11.18-88.65,28.79-130.29,17.18-40.63,46.56-70.23,84.05-92.49,54.44-32.33,112.58-55.05,174.36-68.91,51.3-11.51,103.17-13.51,155.33-10.44,94.28,5.56,180.53,36.19,260.71,85.12,40,24.41,66.4,59.74,81.61,103.64,12.58,36.31,20.68,73.52,21.31,112.16.53,32.29,1.63,64.57-1.4,96.79-5.4,57.3-16.82,113.35-35.03,167.98-11.72,35.18-25.94,69.32-42.55,102.49-6.71,13.39-15.89,24.08-29.45,30.7-13.1,6.39-17.79,3.83-19.27-10.61-1.6-15.67,1.37-30.8,5.87-45.71,17.76-58.9,32.53-118.51,43.19-179.12,7-39.81,12.47-79.83,15.63-120.15,2.67-34.06,3.63-68.13,1.8-102.25-1.66-31-6.12-61.46-16.72-90.87-5.86-16.26-15.61-29.06-29.93-38.71-23.16-15.6-48.78-25.51-75.35-33.23-37.14-10.79-75.2-16.7-113.54-21.26-34.63-4.13-69.38-4.53-119.17-4.93Z"/>
  <path class="cls-1" d="M545.96,969.45c-47.91,2.44-95.38-.87-142.18-11.79-9.71-2.27-19.27-5.02-28.75-8.09-16.42-5.32-29.9-14.98-41.31-27.71-1.39-1.55-3.55-3.27-2.45-5.58,1.11-2.33,3.82-1.71,5.87-1.53,15.95,1.41,31.45,5.22,46.88,9.2,58.59,15.09,118.21,19.89,178.5,18.11,35.79-1.06,71.38-4.36,106.48-11.5,19.35-3.93,38.46-9.03,57.72-13.41,5.49-1.25,11.06-2.39,16.75-2.44,1.78-.02,3.94-.49,4.98,1.44,1.11,2.06-.32,3.84-1.42,5.47-2.24,3.33-5.08,6.14-8.03,8.84-12.47,11.43-27.73,17.47-43.59,22.14-36.4,10.72-73.61,16.26-111.55,16.83-12.64.19-25.28.03-37.92.03Z"/>
  <path class="cls-2" d="M521.39,568.67c-.76-53.42-1.46-106.84-2.38-160.26-.08-4.42.99-5.44,5.38-5.41,36.78.2,73.56.19,110.35,0,3.95-.02,5.79,1.34,7.62,4.64,16.68,30.1,26.88,62.45,33.48,96.03,11.29,57.42,13.29,115.58,13.34,173.87.02,17.64-.38,35.28-.48,52.92-.02,2.94-.42,4.46-4.03,4.4-13.64-.23-27.3-.2-40.94-.01-3.24.04-3.82-1.1-3.81-4.01.02-29.13-.74-58.24-2-87.34-.59-13.63-1.61-27.23-3.04-40.8-.41-3.85-1.76-5.2-5.86-5.13-16.64.27-33.29.27-49.93,0-4.28-.07-5.12,1.24-5.12,5.28.02,42.11-.24,84.22-.19,126.32,0,4.6-1.24,5.81-5.78,5.7-13.31-.31-26.63-.23-39.94-.03-3.51.05-4.43-.98-4.47-4.43-.46-42.27-1.11-84.54-1.63-126.81-.14-11.65-.02-23.3-.02-34.94-.18,0-.36,0-.54,0Z"/>
  <path class="cls-2" d="M352.28,665.96c0,21.47-.07,42.95.07,64.42.02,3.29-.5,4.59-4.22,4.54-14.65-.23-29.3-.21-43.95-.01-3.35.04-4.07-1.04-4.17-4.18-1.5-48.41-3.12-96.82-4.71-145.24-1.93-58.56-3.86-117.12-5.78-175.68q-.22-6.69,6.28-6.69c35.79,0,71.58.08,107.37-.11,4.19-.02,5.24,1.04,5.15,5.17-.26,10.98-.18,21.98.16,32.95.12,4-.67,5.38-5.03,5.3-15.81-.3-31.63-.01-47.44-.2-3.54-.04-4.83.6-4.81,4.55.15,33.13.09,66.25-.05,99.38-.01,3.21.78,4.22,4.09,4.16,11.98-.2,23.97.02,35.95-.15,3.11-.04,3.96.89,3.92,3.95-.17,11.82-.15,23.64,0,35.46.04,2.89-.9,3.65-3.69,3.62-11.98-.13-23.97.09-35.95-.15-3.62-.07-4.33,1.11-4.31,4.49.15,21.47.08,42.95.08,64.42.35,0,.69,0,1.04,0Z"/>
  <path class="cls-2" d="M724.05,589.9c0-46.59-.06-93.19.1-139.78.01-4.12-.91-5.33-5.13-5.21-11.14.32-22.3,0-33.44.17-3,.04-4.03-.74-3.98-3.87.17-11.48.14-22.96.01-34.45-.03-2.71.59-3.72,3.53-3.71,46.43.09,92.86.08,139.29,0,2.79,0,3.69.77,3.68,3.6,0,11.48.11,22.97.42,34.44.09,3.18-.99,3.94-3.99,3.9-11.31-.15-22.63.04-33.95-.13-3.25-.05-4.64.58-4.76,4.26-1.61,46.56-3.38,93.12-5.14,139.67-1.75,46.56-3.61,93.11-5.2,139.67-.17,4.99-1.42,6.65-6.69,6.48-13.8-.43-27.62-.3-41.43-.04-3.88.07-4.58-1.13-4.57-4.74.13-46.76.08-93.52.08-140.28.38,0,.77,0,1.15,0Z"/>
  <path class="cls-2" d="M489.29,568.91c0,53.74-.03,107.49.07,161.23,0,3.52-.57,4.86-4.54,4.79-15.14-.27-30.28-.21-45.42-.03-3.33.04-4.13-1-4.18-4.19-.94-52.9-2.01-105.8-3.04-158.7-1.06-54.4-2.02-108.8-3.28-163.19-.12-5.05,1.35-5.89,5.98-5.81,16.8.29,33.61.26,50.41,0,4.16-.06,5.18,1,5.16,5.17-.16,53.58-.1,107.15-.1,160.73-.36,0-.71,0-1.07,0Z"/>
  <path class="cls-1" d="M572.23,500.18c0-16.97.19-33.94-.12-50.91-.09-4.62,1.4-5.57,5.62-5.35,6.8.35,13.65.31,20.46,0,3.36-.15,5,1.04,6.44,3.96,10.16,20.59,15.94,42.52,20.26,64.92,2.58,13.38,4.62,26.85,6.4,40.36.35,2.68-.08,3.53-2.85,3.52-17.8-.09-35.6-.12-53.41.02-3.42.03-3.18-1.83-3.18-4.12.03-17.47.02-34.94.02-52.41h.37Z"/>
</svg>