<?xml version="1.0" encoding="UTF-8"?>
<svg id="Layer_1" xmlns="http://www.w3.org/2000/svg" viewBox="0 0 1080 1080">
  <defs>
    <style>
      .cls-1 {
        fill: #e3e4ed;
      }

      .cls-2 {
        fill: #a7aac6;
      }

      .cls-3 {
        fill: #00095a;
      }

      .cls-4 {
        fill: #00095b;
      }

      .cls-5 {
        fill: #fefefe;
      }

      .cls-6 {
        fill: #bec0d5;
      }

      .cls-7 {
        fill: #464c88;
      }
    </style>
  </defs>
  <path class="cls-4" d="M17.68,539.98c.99-2.32.91-4.84,1.42-7.26,3.03-14.33,9.86-26.77,18.94-38.08,11.51-14.34,25.55-25.89,40.71-36.12,20.21-13.64,41.9-24.48,64.34-33.9,26.67-11.2,54.1-20.17,82-27.75,24.43-6.64,49.12-12.15,74.01-16.81,17.02-3.19,34.11-5.98,51.26-8.38,17.97-2.51,35.99-4.58,54.05-6.33,52.71-5.09,105.55-7.03,158.49-6.24,23.26.35,46.49,1.24,69.7,2.74,20.96,1.35,41.88,3.18,62.76,5.52,28.9,3.23,57.67,7.4,86.25,12.78,47.01,8.85,93.25,20.55,138.05,37.52,25.03,9.49,49.32,20.56,72.13,34.66,17.89,11.06,34.54,23.65,48.21,39.79,9.91,11.7,17.51,24.65,20.81,39.81,3.92,18,.66,34.92-8,50.94-8.17,15.12-19.75,27.37-32.85,38.27-21.57,17.94-45.91,31.32-71.37,42.78-37.1,16.71-75.78,28.71-115.23,38.38-25.06,6.15-50.35,11.18-75.8,15.38-17.76,2.93-35.59,5.4-53.47,7.53-22.82,2.72-45.69,4.83-68.61,6.34-25.11,1.66-50.25,2.68-75.41,2.95-.27,0-.54.04-.81.06-1.38.29-2.78.06-4.17.13-2.71,0-5.41,0-8.12,0-4.58,0-9.16,0-13.75,0-2.69,0-5.38,0-8.07,0-1.33,0-2.67,0-4,0-8.84.13-17.67-.17-26.51-.25-9.84-.09-19.69-.59-29.52-1.09-8.74-.45-17.49-.94-26.22-1.62-13.4-1.04-26.8-2.17-40.18-3.5-28.56-2.83-56.98-6.68-85.27-11.55-20.78-3.57-41.43-7.8-61.95-12.68-22.97-5.47-45.7-11.78-68.08-19.3-20.25-6.81-40.13-14.57-59.47-23.7-20.66-9.76-40.46-20.93-58.56-34.94-13.68-10.6-26-22.52-35.26-37.29-5.43-8.65-9.49-17.87-11.59-27.91-.49-2.33-.27-4.72-.84-7.03v-2.04c.33-.82.33-1.63,0-2.45v-9.38Z"/>
  <path class="cls-2" d="M533.11,734.56h13.9c.12.08.17.16.12.23-.04.07-.09.11-.13.11h-13.88c-.13-.07-.17-.15-.13-.22.04-.08.08-.12.12-.12Z"/>
  <path class="cls-6" d="M533.11,734.56c0,.11,0,.23,0,.34h-8.16c-.13-.07-.17-.14-.13-.22.04-.08.08-.12.12-.12,2.72,0,5.44,0,8.17,0Z"/>
  <path class="cls-6" d="M547,734.9c0-.11,0-.23,0-.34,2.72,0,5.44,0,8.17,0,.12.08.16.16.12.23-.04.07-.09.11-.13.11h-8.16Z"/>
  <path class="cls-1" d="M524.94,734.56c0,.11.01.23.01.34h-4.08c0-.11,0-.23,0-.34,1.36,0,2.72,0,4.08,0Z"/>
  <path class="cls-1" d="M555.16,734.9c0-.11,0-.23.01-.34,1.36,0,2.72,0,4.08,0,0,.11,0,.23,0,.34h-4.08Z"/>
  <path class="cls-7" d="M17.68,549.36c.51.82.74,1.63,0,2.45v-2.45Z"/>
  <path class="cls-5" d="M545.9,718.17c-29.34.02-55.71-.71-82.07-2.12-22.47-1.21-44.91-2.95-67.29-5.31-23.04-2.43-46-5.45-68.88-9.18-32.31-5.27-64.32-11.91-95.93-20.45-23.25-6.29-46.18-13.58-68.58-22.46-25.48-10.1-50.11-21.86-72.63-37.66-14.44-10.13-27.62-21.62-37.69-36.28-6.61-9.63-11.26-20.07-12.81-31.77-1.85-13.96,1.09-26.98,7.62-39.3,7.11-13.42,17.29-24.29,28.79-34.01,17.24-14.56,36.59-25.77,56.85-35.48,34-16.31,69.66-27.99,106.07-37.5,27.53-7.19,55.37-12.93,83.44-17.63,16.28-2.73,32.61-5.12,48.99-7.15,17.87-2.22,35.79-4.02,53.74-5.5,44.83-3.69,89.74-5.17,134.71-4.66,20.2.23,40.39.85,60.56,1.96,24.51,1.35,48.97,3.28,73.37,5.94,23.1,2.52,46.13,5.62,69.04,9.49,49.32,8.33,97.9,19.65,145.01,36.71,22.15,8.02,43.74,17.34,64.28,28.94,16.62,9.39,32.33,20.04,45.91,33.57,10.76,10.71,19.68,22.67,24.37,37.32,5.89,18.42,3.19,35.91-6.2,52.55-6.94,12.29-16.44,22.43-27.12,31.51-17.82,15.15-37.92,26.7-58.96,36.69-32.45,15.42-66.4,26.65-101.06,35.86-26.98,7.17-54.26,12.92-81.77,17.65-18.88,3.25-37.83,6.04-56.85,8.37-16.53,2.02-33.1,3.68-49.69,5.06-21.76,1.82-43.54,3.1-65.36,3.88-17.6.63-35.21,1.01-49.89.96Z"/>
  <path class="cls-3" d="M534.96,703.17c-16.72.11-41.39-.6-66.05-1.81-18.4-.9-36.78-2.23-55.13-3.86-23.83-2.11-47.59-4.84-71.25-8.36-46.51-6.93-92.48-16.34-137.38-30.5-28.7-9.05-56.69-19.84-83-34.62-15.46-8.68-30.03-18.6-42.46-31.37-8.47-8.69-15.54-18.35-19.48-29.97-5.77-17-3.15-33.04,5.95-48.22,7.71-12.86,18.37-22.99,30.21-31.94,20.73-15.66,43.83-27.02,67.8-36.72,33.66-13.63,68.48-23.45,103.86-31.42,24.72-5.56,49.63-10.05,74.69-13.76,22.86-3.38,45.8-6.1,68.81-8.17,51.65-4.65,103.41-6.47,155.27-5.65,27.47.43,54.92,1.62,82.32,3.62,24.27,1.77,48.49,4.15,72.62,7.3,47.51,6.21,94.53,14.91,140.66,28.06,27.81,7.93,55.08,17.38,81.23,29.83,18.07,8.6,35.37,18.47,50.88,31.24,8.54,7.03,16.27,14.83,22.47,24.04,15.03,22.33,14.96,46.05-.21,68.29-8.03,11.77-18.4,21.22-29.79,29.61-16.2,11.93-33.86,21.29-52.19,29.44-33.21,14.76-67.82,25.26-103.06,33.84-27.46,6.68-55.2,11.93-83.12,16.21-19.75,3.02-39.57,5.48-59.44,7.53-48.61,5.03-97.35,7.3-154.18,7.34Z"/>
  <path class="cls-5" d="M515.99,575.05c0-8.66-.9-14.89-2.6-21.01-1.07-3.85-.52-5.4,2.71-7.66,2.68-1.87,5.55-3.4,8.51-4.78,3.05-1.42,6.17-.43,8.13,2.56,3.68,5.61,5.56,11.88,6.51,18.45.37,2.55.51,5.14.75,7.7.06.69.1,1.46.81,1.74.78.31,1.23-.41,1.68-.89,4.88-5.21,9.67-10.5,14.62-15.64,7.26-7.53,15.15-14.24,25.01-18.22,4.9-1.98,9.95-3.16,15.29-2.73,9.01.71,14.74,5.8,16.49,14.72.57,2.88.8,5.78.77,8.71,0,.66-.19,1.52.59,1.8.86.32,1.37-.44,1.79-1.04,3.36-4.84,7.37-9.05,12.07-12.61,6.82-5.16,14.31-8.58,23.04-8.62,16.46-.08,26.22,14.93,19.49,29.95-3.78,8.45-11.47,13.43-19.87,12.87-8.24-.55-14.33-8.04-13.16-16.21.05-.34.12-.67.15-1.01.07-.75.21-1.57-.7-1.91-.83-.31-1.4.2-1.94.77-4.24,4.48-7.27,9.63-8.62,15.68-.63,2.8-.79,5.64-.28,8.5,1.62,9.02,8.8,13.97,17.85,12.34,6-1.08,11.28-3.79,16.32-7.07,9.21-6,17.35-13.31,25.5-20.61,8.96-8.03,17.94-16.03,28.41-22.13,9.95-5.79,20.48-9.44,32.18-8.31,8.47.82,15.94,3.86,21.43,10.71,1.93,2.41,3.3,5.11,3.91,8.18.17.86-.09,2.15,1.13,2.39,1.33.26,1.8-.98,2.38-1.86,4.59-6.89,9.17-13.79,13.75-20.69,10.69-16.12,21.65-32.07,31.84-48.52,2.12-3.42,4.3-4.74,8.25-4.59,7.47.3,14.96.06,22.44.11,1.17,0,2.66-.58,3.41.67.78,1.3-.58,2.24-1.2,3.19-18.76,28.93-37.6,57.81-56.32,86.75-9.32,14.41-18.64,28.84-27.24,43.7-1.4,2.41-2.72,4.86-3.34,7.6-1.09,4.76,1.66,8.41,6.54,8.64,5.16.24,9.49-1.98,13.58-4.77,6.36-4.34,12.31-9.19,17.85-14.53,7.49-7.22,14.86-14.56,22.29-21.84,2.14-2.1,2.9-2.1,5.11-.1,1.72,1.55,3.4,3.13,5.12,4.67,1.13,1.01,1.19,2.06.24,3.19-14.08,16.64-28.76,32.67-47.13,44.78-7.3,4.81-15.16,8.46-23.88,9.93-3.58.6-7.17.76-10.75.05-9.22-1.84-15.28-8.74-16.41-18.58-.1-.91.13-2.07-.97-2.48-1.09-.4-1.72.59-2.39,1.22-8.12,7.61-17.08,13.91-27.95,16.91-12.52,3.45-23.9,1.45-33.21-8.13-5.78-5.95-8.16-13.47-9.04-21.55-.52-4.77-.23-9.49.49-14.21.14-.94.49-2.02-.48-2.61s-1.77.33-2.53.83c-6.84,4.61-14.29,7.81-22.37,9.36-15.69,2.99-28.33-6.38-30.19-22.23-.1-.88-.21-1.75-.34-2.63-.09-.63.22-1.54-.67-1.72-.83-.17-1.03.75-1.38,1.28-10.48,16.1-20.94,32.2-31.4,48.31-2.18,3.36-4.39,6.7-6.49,10.11-.99,1.61-2.23,2.33-4.16,2.32-8.09-.07-16.19-.02-24.28-.04-2.67,0-3.24-.92-1.92-3.23,5.06-8.84,10.8-17.25,16.28-25.83,10.34-16.18,20.66-32.37,30.01-49.16,1.69-3.03,3.31-6.08,3.68-9.61.51-4.85-2.42-7.55-7.17-6.54-4.92,1.04-8.97,3.79-12.87,6.76-10.79,8.22-19.63,18.35-28.21,28.75-7.31,8.87-13.82,18.33-20.86,27.39-8.53,10.98-18.33,20.6-30.87,27.05-8.87,4.56-18.21,6.9-28.25,6.4-16.53-.82-30.19-11.13-35.27-26.86-.13-.39-.23-.78-.38-1.16-.88-2.33-1.95-2.54-3.6-.66-4.73,5.4-10.16,10-16.03,14.11-3.01,2.1-4.08,1.98-6.32-.84-1.47-1.86-2.86-3.8-4.15-5.79-1.38-2.12-1.16-3.29.71-4.97,3.29-2.95,6.58-5.9,9.88-8.83,6.8-6.03,11.46-13.44,14.79-21.87,5.41-13.69,12.78-26.25,23.29-36.71,13.25-13.19,29.27-20.84,47.81-23.23,1.44-.18,2.85-.1,4.26.15,2.18.38,3.73,1.55,4.5,3.66.72,1.97,1.43,3.95,2.13,5.93.87,2.5.57,3.2-1.95,4.16-8.6,3.28-16.75,7.41-24.1,13-11.58,8.81-20.06,19.79-23.54,34.17-1.11,4.6-1.44,9.27-.48,13.94,2.52,12.16,12.61,18.3,24.84,15.04,10.54-2.82,18.34-9.5,24.61-18.11,8.38-11.49,11.81-24.56,12-36.3Z"/>
  <path class="cls-5" d="M413.01,414.78c16.61.07,33.13,1.47,49.6,3.56,22.78,2.89,45.37,7.03,68.04,10.62,28.43,4.5,56.97,7.74,85.82,7.63,24.69-.1,49.1-2.69,73.21-8.06,6.14-1.37,9.93,2.34,8.92,8.58-.89,5.5-4.11,9.54-8.19,12.97-7.84,6.59-16.84,11.13-26.47,14.45-13.67,4.72-27.83,5.96-42.18,5.75-19.08-.27-37.67-3.78-56.11-8.31-19.1-4.69-37.91-10.5-57.05-15.07-2.57-.62-5.15-1.21-7.72-1.83-1.09-.27-1.86-.29-1.6,1.23.35,2.06-.67,3.37-2.31,4.57-13.48,9.81-26.57,20.08-38.07,32.23-7.13,7.52-13.45,15.66-18.74,24.58-.29.49-.98,1.01-.56,1.61.38.55,1.14.25,1.73.23,11.07-.45,22.14-.99,33.21-1.71,1.99-.13,2.48-.89,2.32-2.79-.76-9.17,1.77-17.2,8.64-23.58,4.12-3.82,8.95-6.2,14.69-6.07,9.75.22,16.16,8.28,14.4,18.06-1.84,10.23-7.9,17.01-17.41,20.87-.63.25-1.28.46-1.9.71-1.72.7-1.9,1.49-.55,2.82,1.8,1.78,3.97,3.08,6.03,4.52,3.17,2.22,3.73,3.44,2.49,5.64-1.52,2.69-4.47,3.7-7.35,2.33-5.02-2.38-9.57-5.48-13.16-9.75-1.29-1.54-2.65-2.06-4.58-1.94-15.27.92-30.49,2.44-45.68,4.23-2.04.24-3.44,1.09-4.55,2.91-12.73,20.85-25.42,41.74-39.74,61.56-10.72,14.85-22.21,29.04-36.06,41.16-11.84,10.36-24.82,18.76-40.3,22.55-14.35,3.52-28.77,4.23-43.05-.37-23.04-7.42-36.82-26.37-37.23-50.6-.5-29.34,19.17-52.8,44.13-60.99,4.04-1.33,8.15-2.13,12.42-1.14,2.53.58,4.43,1.91,5.6,4.29,1.66,3.4.82,6.53-2.52,8.3-5.05,2.69-9.89,5.67-14.25,9.39-6.96,5.93-12.51,12.83-14.77,21.92-4.24,17.06,6.93,33.09,24.4,35.22,12.53,1.53,23.92-1.91,34.82-7.65,9.67-5.09,17.77-12.21,25.59-19.71,16.83-16.16,31.44-34.19,45.09-53.05,1.63-2.26,3.3-4.49,4.94-6.74.31-.43.87-.83.6-1.41-.32-.69-1.05-.44-1.62-.43-11.21.29-21.27,3.92-30.35,10.41-1.46,1.04-2.93,1.94-4.78,2.06-4.37.29-7.16-3.41-5.68-7.54.72-2.01,2.17-3.38,3.9-4.55,9.91-6.72,21.02-10.29,32.64-12.52,6-1.15,12.03-2.17,18.06-3.13,1.48-.24,2.45-.94,3.32-2.06,6.45-8.32,12.25-17.15,19.12-25.14,14.63-17,30.9-32.09,51.15-42.34.71-.36,1.95-.51,1.78-1.64-.16-1.02-1.25-1.07-2.12-1.23-17.68-3.35-35.33-6.93-53.25-8.75-18.98-1.93-37.87-1.79-56.48,3.14-12.01,3.18-23.28,7.88-32.51,16.51-6.49,6.08-11.42,13.13-12.62,22.2-1.26,9.5,2.97,19.36,16.34,19.72,5.72.15,11.01-1.41,16.04-3.96,10.38-5.28,18.9-12.7,25.51-22.29.65-.95,1.26-1.94,2.17-2.68,2.45-2.01,5.66-1.28,6.91,1.63.94,2.18.86,4.49-.01,6.57-8.94,21.31-22.1,38.82-44.4,47.58-10.94,4.3-22.27,5.24-33.37.48-12.55-5.37-19.35-15.36-20.78-28.69-1.91-17.74,5.01-32.39,17.27-44.75,11.78-11.88,26.27-19.28,41.96-24.54,18.6-6.23,37.82-7.87,57.29-7.78Z"/>
  <path class="cls-4" d="M698.05,617.76c.36-9.57,3.66-18.65,8.89-27.09,6.07-9.79,13.42-18.42,22.87-25.14,3.78-2.69,7.84-4.88,12.51-5.6,10.31-1.59,16.56,5.16,14.27,15.35-.73,3.26-1.91,6.35-3.42,9.32-.88,1.73-.5,3.14,1.2,3.9,1.56.69,1.33,1.5.75,2.7-2.98,6.2-6.93,11.8-10.87,17.4-5.76,8.18-13.21,14.54-21.72,19.7-2.73,1.65-5.66,2.88-8.83,3.52-9.07,1.83-15.21-2.93-15.64-12.18-.02-.47,0-.95,0-1.87Z"/>
  <path class="cls-4" d="M499.07,485.24c3.02.03,4.62,1.62,4.65,4.31.01,1.59-.38,3.1-1.06,4.51-2.38,4.95-6.19,8.29-11.4,10.05-1.5.51-2.31,0-2.62-1.53-1.11-5.52,2.14-13.17,6.92-16.19,1.17-.74,2.43-1.19,3.51-1.15Z"/>
</svg>