<?xml version="1.0" encoding="UTF-8"?>
<svg id="Layer_1" xmlns="http://www.w3.org/2000/svg" viewBox="0 0 1080 1080">
  <defs>
    <style>
      .cls-1 {
        fill: #bf484f;
      }

      .cls-2 {
        fill: #96232e;
      }

      .cls-3 {
        fill: #d53239;
      }

      .cls-4 {
        fill: #fd0000;
      }

      .cls-5 {
        fill: #85202d;
      }

      .cls-6 {
        fill: #841928;
      }

      .cls-7 {
        fill: #8d1327;
      }

      .cls-8 {
        fill: #fd2b38;
      }

      .cls-9 {
        fill: #f11111;
      }

      .cls-10 {
        fill: #a83d56;
      }

      .cls-11 {
        fill: #f50c0d;
      }

      .cls-12 {
        fill: #d93946;
      }

      .cls-13 {
        fill: #c53d4c;
      }

      .cls-14 {
        fill: #da2833;
      }

      .cls-15 {
        fill: #c2404c;
      }

      .cls-16 {
        fill: #c25e69;
      }
    </style>
  </defs>
  <path class="cls-4" d="M545.69,648.15c7.69-.16,15.38-.46,23.07-.46,96.12-.05,192.25.04,288.37-.27,8.07-.03,12.31,2.42,15.99,9.66,9.38,18.43,20.76,35.78,31.1,53.68,8.6,14.89,17.06,29.99,25.88,44.72,11,18.37,21.45,37.08,32.56,55.39,11.03,18.19,22.6,36.12,32.64,54.86,8.18,15.27,17.69,29.63,26.49,44.47,2.78,4.69,4.73,9.87,7.05,14.81-1.69,2.38-3.97,1.44-5.85,1.44-103.12.07-206.25.07-309.37.18-4.88,0-7.29-1.25-9.84-6.16-7.23-13.93-15.97-27.08-23.91-40.66-2.87-4.91-5.18-10.15-7.75-15.24-1.44-2.92-1.92-6.39-4.84-8.46-13.43-18.3-22.53-39.18-34.56-58.29-13.28-21.1-24.51-43.36-37.57-64.58-7.48-12.15-14.13-24.8-21.16-37.23-1.27-3.46-3.57-6.28-5.67-9.23-.43-.75-.87-1.51-1.3-2.26-1.16-2.69-1.59-5.8-4.32-7.6-4.18-7.32-8.34-14.64-12.55-21.94-1.37-2.37-2.89-4.65-4.35-6.97l-.11.13Z"/>
  <path class="cls-4" d="M169.22,740.99c10.96-22.14,24.82-42.61,36.74-64.2,4.26-7.72,8.77-15.3,12.81-23.12,2.43-4.71,5.66-6.16,11.02-6.14,73.22.21,146.44.11,219.66.15,28.91.02,57.81.18,86.72.28,1.28,1.44,6.29-.89,4.1,4.05-8.39,17.84-18.43,34.79-28.58,51.64-4.97,8.25-9.09,16.97-14.07,25.07-6.75,10.99-12.47,22.58-19.78,33.25-3.97,5.78-6.95,12.24-10.38,18.39-1.32,2.6-2.84,5.09-4.05,7.75-10.35,15.85-18.9,32.76-28.66,48.91-17.25,28.55-32.25,58.42-50.72,86.24-3.58,2.3-7.31,3.64-11.74,3.64-92.95-.09-185.9-.06-278.86-.08-1.85,0-3.74.31-5.52-.47-8.51-.05-17.06.86-26.51-.73,9.86-16.23,20.29-31.23,28.45-47.37,9.4-18.6,21.83-35.35,31.17-53.91,7.38-14.67,16.01-28.62,24.74-42.51,4.17-6.63,5.63-14.76,11.34-20.54,6.11-5.53,8.39-13.34,12.12-20.28Z"/>
  <path class="cls-4" d="M402.75,400.31c-5.45-8.84-10.88-17.7-16.36-26.52-2.41-3.87-2.37-7.02.38-11.24,8.95-13.73,17.85-27.56,25.56-42,14-26.25,30.04-51.33,44.1-77.52,1.24-2.32,2.83-4.19,4.43-6.14,1.7-1.87,2.95-4.01,3.74-6.41,1.96-3.55,3.91-7.11,5.87-10.66,1.23-2.44,2.54-4.83,4.03-7.13,5.06-8.89,10.11-17.79,15.17-26.68,1.46-.93,2.51-2.2,3.1-3.83,10.15-20.37,21.63-39.95,33.8-59.2,5-7.92,8.35-16.95,13.45-24.98,3.86-6.09,6.35-6.38,10.01.05,5.47,9.6,10.46,19.48,15.8,29.15,3.72,6.74,8.07,13.09,11.87,19.81,12.11,21.43,25.51,42.17,36.98,63.92,8.31,15.76,18.58,30.31,26.59,46.2,1.28,3.24,3.86,5.74,5.12,8.99,7.94,13.57,15.79,27.18,23.86,40.67,2.49,4.16,4.58,8.33,6.36,12.91,2.87,7.38,8.9,13.15,12.57,20.33,3.57,6.97,7.78,13.65,12.17,20.14,3.77,5.59,3.49,10.68.08,16.19-7.85,12.68-16.64,24.94-23.04,38.33-8.97,18.78-21.8,35.22-30.88,53.85-6.88,14.11-16.4,26.69-23.79,40.45-10.38,19.34-22.4,37.73-32.74,57.02-9.62,17.94-20.93,34.81-30.56,52.62-5.19,9.6-11.66,18.77-14.7,29.52,0,0,.12-.13.11-.13-12.22-18.19-20.76-38.5-32.86-56.77-3.79-5.72-7.71-11.38-10.42-17.74-1.72-2.99-1.66-6.75-4.14-9.4-32.16-50.74-60.32-103.8-91.02-155.4-1.36-2.9-1.88-6.26-4.61-8.41Z"/>
  <path class="cls-10" d="M87.91,926.33c3.02-.13,6.04-.37,9.06-.38,88.42-.04,176.84-.07,265.26-.03,7.41,0,14.76.12,21.79-2.68-.62,1.99-.95,4.08-4.02,3.63-2.04-.3-4.18.12-6.27.12-92.99.01-185.98.02-278.97,0-2.29,0-4.67.52-6.86-.66Z"/>
  <path class="cls-14" d="M169.22,740.99c-2.68,7.57-4.25,15.8-12.12,20.28,4.04-6.76,8.08-13.52,12.12-20.28Z"/>
  <path class="cls-12" d="M646.38,266.12c-2.9-2.32-5.13-5.01-5.12-8.99,2.35,2.63,5.03,5.07,5.12,8.99Z"/>
  <path class="cls-2" d="M498.38,564.11c3.67,2.13,3.67,5.87,4.14,9.4-2.74-2.54-2.83-6.24-4.14-9.4Z"/>
  <path class="cls-6" d="M568.32,686.79c3.6,2.02,5.55,5.06,5.67,9.22-2.62-2.63-4.23-5.87-5.67-9.22Z"/>
  <path class="cls-7" d="M667.27,856.11c4.18,1.35,4.95,4.65,4.84,8.46-2.33-2.41-3.85-5.28-4.84-8.46Z"/>
  <path class="cls-3" d="M474.49,212.68c-.14,3.05-1.4,5.47-4.03,7.13-.11-3.19.9-5.76,4.03-7.13Z"/>
  <path class="cls-15" d="M402.75,400.31c4.11,1.39,4.29,4.94,4.61,8.41-1.54-2.8-3.07-5.6-4.61-8.41Z"/>
  <path class="cls-5" d="M540.27,652c.72-3.46-3.01-2.43-4.1-4.05h6.79c.16,2.08-.96,3.26-2.68,4.05Z"/>
  <path class="cls-13" d="M562.7,676.93c4.14,1,4.24,4.29,4.32,7.6-2.11-2.15-3.4-4.77-4.32-7.6Z"/>
  <path class="cls-16" d="M463.42,788.09c-.12-3.35,1.5-5.79,4.05-7.75.03,3.3-1.91,5.57-4.05,7.75Z"/>
  <path class="cls-1" d="M464.6,230.46c.05,2.89-.59,5.38-3.74,6.41.86-2.36,1.6-4.79,3.74-6.41Z"/>
  <path class="cls-8" d="M492.76,182.17c1.82,3.59-1.54,2.98-3.1,3.83.32-1.86,1.78-2.79,3.1-3.83Z"/>
  <path class="cls-11" d="M528.91,600.46c-.26-.57-.82-1.32-.91-2.11-.11-.97.52-1.99,1.58-1.49.56.27.74,1.54.88,2.4.11.68-.17,1.35-1.54,1.21Z"/>
  <path class="cls-9" d="M551.42,115.98c-.26.29-.64.72-1.03,1.15-.38-.38-1.11-.82-1.06-1.14.08-.51.58-1.18,1.06-1.36.81-.3,1.01.41,1.03,1.35Z"/>
</svg>