<?xml version="1.0" encoding="UTF-8"?>
<svg id="Layer_1" xmlns="http://www.w3.org/2000/svg" viewBox="0 0 1080 1080">
  <defs>
    <style>
      .cls-1 {
        fill: #ed8682;
      }

      .cls-2 {
        fill: #fefefe;
      }

      .cls-3 {
        fill: #e23730;
      }
    </style>
  </defs>
  <g id="g138">
    <g>
      <path class="cls-3" d="M1021.78,506.26c-4.14-35.23-15.35-67.93-35.62-97.1-37.33-53.74-84.89-96.24-142.41-127.57-46.88-25.53-96.91-41.99-149.24-51.83-23.14-4.35-46.41-7.64-70.02-7.57-9.54.03-18.84,1.56-27.05,6.94-11.85,7.77-12.25,17.24-1.25,26.26,1.29,1.05,2.74,1.62,4.25,2.1,5.33,1.68,10.68,3.3,16.02,4.98,44.28,13.91,87.94,29.42,128.2,52.95,29.24,17.09,57.21,35.85,77.55,63.91,9.33,12.87,18.96,25.61,22.14,41.53,4.87,24.32-.41,35.86-21.33,47.94-10.86,6.27-23.05,8.67-35.37,9.6-26.31,1.98-52.56,4.69-78.99,5.31-63.38,1.49-126.73,3.5-190.1,5.3v-.64c-10.72,0-21.45.14-32.17-.02-52.5-.79-105-1.56-157.5-2.56-11.02-.21-22.09.15-33.06-1.51-15.15-2.28-29.72-5.88-42.48-15.06-11.29-8.12-15.67-19.05-14.27-32.49,1.38-13.29,6.29-25.52,13.59-36.52,13.44-20.26,30.02-37.8,48.67-53.39,30.88-25.79,65.97-44.3,102.94-59.6,24.96-10.34,50.54-18.96,76.11-27.6,6.34-2.14,10.63-6.66,12.02-13.21,1.36-6.39-2.31-11.03-6.73-14.99-3.14-2.81-6.95-4.45-11.01-5.61-7.05-2.01-14.21-2.08-21.43-1.62-52.59,3.38-103.38,14.7-152.29,34.39-65.73,26.47-123.31,64.75-170.2,118.24-27.21,31.05-47.87,65.88-58.64,106.07-6.65,24.82-9.42,50.12-5.65,75.56,5.03,33.92,17.62,65.26,35.79,94.34,30.96,49.58,73.67,86.86,123.37,116.55,68.86,41.14,143.45,64.34,223.51,69.72,14.04.94,27.82-.78,40.59-7.33,9.27-4.76,10.73-15.58,3.16-22.68-3.7-3.47-8.12-5.5-12.96-6.96-47.07-14.19-93.23-30.66-135.75-55.8-26.64-15.75-52.34-32.83-72.49-56.92-11.86-14.18-22.98-28.79-27.63-47.15-4.36-17.22-3.22-32.98,11.99-45.18,5.15-4.12,10.88-6.48,17.08-8.27,26.25-7.56,53.27-8.61,80.31-9.48,33.6-1.09,67.18-2.43,100.79-3.21,54.4-1.26,108.75-4.2,163.22-3.02,50.4,1.09,100.81,1.71,151.18,3.73,9.43.37,18.89.28,28.27,1.51,12.36,1.63,24.13,4.77,34.36,12.32,13.03,9.62,18.91,22.12,15.78,38.38-3.14,16.22-10.85,30.23-20.74,43.23-27.99,36.79-63.92,63.72-104.74,84.63-36.53,18.71-75.14,32.19-113.97,45.08-7.54,2.5-12.44,6.97-13.48,15.06-1.05,8.14,4.98,11.7,10.5,15.06,8.68,5.29,18.56,5.96,28.36,5.04,18.78-1.75,37.55-3.72,56.12-7.18,69.71-12.99,134.51-38.15,193.06-78.5,45.29-31.22,82.59-69.94,110.46-117.65,23.11-39.57,34.6-81.53,29.19-127.54ZM269.24,494.81c31.58,4.74,63.49,4.28,95.27,5.66,87.83,3.83,175.68-.38,263.52-.15,42.74.12,85.42-2.19,128.06-4.77,32.28-1.96,64.31-5.88,95.49-15.06,3.79-1.11,6.94-3.19,10.23-5.12,5.43-3.17,10.54-4,15.91.44,3.68,3.04,7.89,5.43,11.93,8,2.18,1.38,1.79,2.65.2,4.12-2.71,2.52-6.14,3.25-9.59,4-15.36,3.35-31.08,3.8-46.61,5.73-63.06,7.82-126.52,5.73-189.82,7.62-37.75,1.13-75.53,1.16-118.86,1.76-57.81-.05-121.17,1.86-184.56,1.1-41.93-.5-83.8-2.4-125.52-6.83-4.87-.52-9.81-1.58-14.36-3.61-5.14-2.3-5.39-4.74-1-7.92,2.46-1.78,5.03-3.4,7.63-4.98,6.01-3.63,11.52-4.72,18.62-.95,13.42,7.13,28.59,8.73,43.47,10.96ZM1000.54,541.25c-3.17-1.15-3.59-3.52-3.87-6.3-4.03-41.28-16.32-79.67-40.35-113.89-8.39-11.96-17.93-22.92-28.56-32.95-1.05-.99-2.01-2.08-3.64-2.03-1.11.04-2.29-.08-2.94,1.12-.54,1-.04,1.82.51,2.65,1.15,1.73,2.28,3.48,3.41,5.22,19.59,30.12,34.88,62.11,41.72,97.65,10.57,54.95-1.38,105.37-31.3,151.96-27.22,42.39-64.07,74.92-106.02,102.07-53.59,34.68-112.17,56.63-174.81,68.11-4.39.8-8.86,1.16-13.3,1.73-.87-.4-2.03.1-2.68-.92,39.36-12.22,78.8-24.27,116.34-41.5,52.19-23.96,99.01-55.48,136.44-99.66,21.43-25.3,37.71-53.49,46.83-85.55,2.11-7.43,3.03-15.02,2.7-22.76-.43-9.98-5.87-16.95-13.56-22.58-10.02-7.34-21.58-10.15-33.65-11.35-7.81-.78-15.65-.96-23.5-.94-71.72.1-143.44-.17-215.16.36-60.5.45-121,2.02-181.5,2.72-68.67.79-137.35.43-206,2.08-25.51.62-51.18.7-76.63,3.55-16.71,1.87-31.22,8.16-40.28,23.48-1.49,2.53-2.24,5.13-2.36,8.12-1.12,27.15,8.26,51.05,22.39,73.57,30.82,49.08,73.35,85.26,123.81,112.81,43.6,23.81,90.14,39.98,137.69,53.61,6.45,1.85,12.93,3.6,19.36,5.51,1.2.35,3.6-.09,3.17,1.92-.41,1.92-2.62,1.43-4.16,1.15-8.34-1.52-16.69-2.96-24.97-4.69-53.04-11.06-103.79-28.51-151.22-54.94-46.89-26.12-87.72-59.22-117.76-104.34-18.27-27.44-31.37-57.15-36.91-89.77-6.07-35.8-1.53-70.71,10.82-104.7,7.79-21.45,18.46-41.4,31.37-60.2,1.19-1.73,3.4-3.49.93-5.8-2.25-2.09-3.85.25-5.45,1.16-3.64,2.07-6.62,5-9.39,8.13-21.9,24.76-35.36,54.18-46.44,84.82-6.61,18.24-10.65,37.14-11.91,56.56-.02.32.02.67-.09.95-.61,1.46.57,4.25-1.77,4.23-1.78-.03-1.24-2.65-1.34-4.1-1.35-19.12.26-38.02,4.8-56.64,9.57-39.29,29.66-72.92,56.09-102.98,40.82-46.42,90.74-80.41,146.55-106.21,36.31-16.79,74.09-28.89,113.62-35.24,14.18-2.28,28.45-3.9,42.98-4.31-.45,2.02-1.95,1.81-3.08,2.13-39.05,11.13-77.82,23.1-114.68,40.35-45.05,21.06-87.18,46.58-122.06,82.65-28.17,29.14-50.3,62.03-61.63,101.41-1.32,4.58-2.91,9.13-2.85,14.03.15,11.34,5.11,19.79,14.72,25.82,14.21,8.91,30.09,11.62,46.33,12.06,82.57,2.21,165.17,2.6,247.77,1.49,63.38-.85,126.77-.94,190.16-1.82,39.05-.53,78.12.08,117.16-1.47,34.86-1.38,69.76-2.13,104.54-4.95,11.96-.96,23.93-2.11,35.75-3.99,10.59-1.69,19.97-6.51,27.99-13.84,9.77-8.92,9.15-20.02,7.03-31.55-3.36-18.28-12.14-34.19-21.6-49.83-29.72-49.09-71.94-84.81-121.19-112.87-42.95-24.46-89.3-40.27-136.89-52.76-7.87-2.07-15.82-3.91-23.7-5.96-1.43-.37-3.24-.24-4.27-2.11,1.72-1.51,3.72-1.34,5.73-1.24,96.24,4.97,181.38,39.47,257.26,97.7,36.31,27.87,66.49,61.37,86.93,102.84,15.65,31.75,23.04,65.23,20.58,101.02Z"/>
      <path class="cls-2" d="M641.38,816.59c-1.03.09-2.46,1.34-2.68-.92.65,1.02,1.82.53,2.68.92Z"/>
      <path class="cls-1" d="M641.38,816.59c-1.45,1.27-3.17.62-4.9.92.17-1.64,1.23-1.68,2.21-1.84.65,1.02,1.82.53,2.68.92Z"/>
    </g>
  </g>
</svg>