<?xml version="1.0" encoding="UTF-8"?>
<svg id="Layer_1" xmlns="http://www.w3.org/2000/svg" viewBox="0 0 1080 1080">
  <defs>
    <style>
      .cls-1 {
        fill: #1f3c66;
      }

      .cls-2 {
        fill: #1a3965;
      }

      .cls-3 {
        fill: #1c3a63;
      }

      .cls-4 {
        fill: #1b3960;
      }

      .cls-5 {
        fill: #1d3c68;
      }

      .cls-6 {
        fill: #26436d;
      }

      .cls-7 {
        fill: #1e3b66;
      }

      .cls-8 {
        fill: #4b6281;
      }

      .cls-9 {
        fill: #1a3764;
      }

      .cls-10 {
        fill: #1b3963;
      }

      .cls-11 {
        fill: #fefefe;
      }
    </style>
  </defs>
  <path class="cls-6" d="M658.48,809.07c-29.59,5.72-59.47,7.65-89.56,6.77-18.43-3.03-36.86-3.04-55.29,0-125.71-2.14-245.98-26.14-356.08-89.65-33.7-19.44-63.56-43.86-86.68-75.61-42.11-57.82-42.24-120.88-.21-178.75,26.47-36.45,61.66-62.82,100.83-84.04,81.46-44.13,169.01-67.79,261.04-75.89,1.75,1.96,4.11,1.93,6.45,1.95-1.49-.38-2.96-.78-3.7-2.33,70.62-9.62,141.23-9.67,211.84.09-.92,1.93-2.88,1.94-4.56,2.47,2.54-.48,5.4.16,7.44-2.1,9.03-.38,18.02-.46,26.5,3.39-2.17,3.17-5.66,1.62-8.51,2.37,3.79-.82,8.06,1.09,11.46-1.98,107.67,14.58,209.08,45.39,294.42,115.98,30.65,25.35,54.11,56.36,64.3,95.83,1.68,6.52,3.52,12.97,2.4,19.81-2.9,8.61-3.14,17.2.12,25.78-.41,32.15-15.04,58.7-34.06,83.06-32.76,41.95-76.32,70.18-123.81,92.34-69.19,32.29-141.98,52.39-218.13,59.82-1.31-1.28-2.96-1.84-4.71-1.64-.81.09-2.33-1.29-2.49.96-.17,2.44-.32-.7.98,1.38Z"/>
  <path class="cls-1" d="M513.63,815.85c18.43-5.91,36.86-5.9,55.29,0-18.43,1.91-36.86,2.01-55.29,0Z"/>
  <path class="cls-9" d="M1040.69,573.17c-5.89-8.57-5.75-17.16-.12-25.78,2.44,8.58,2.45,17.18.12,25.78Z"/>
  <path class="cls-7" d="M679.45,315.77c-5.02,4.88-10.88,4.05-17.51,2.59,4.5-4.79,10.08-1.24,14.55-2.98,1.09-.68,2.08-.55,2.95.39Z"/>
  <path class="cls-4" d="M435.28,311.54c3.73.56,7.47,1.12,12.72,1.91-6.79,3.46-11.38,2.66-15.47-1.54.8-.96,1.72-1.08,2.75-.38Z"/>
  <path class="cls-10" d="M649.99,312c-4.11,4.13-8.71,4.88-15.75,1.38,5.48-.74,9.18-1.24,12.87-1.74,1.06-.71,2.02-.58,2.87.36Z"/>
  <path class="cls-3" d="M658.48,809.07c-2.7-.54-5.41-1.09-9.65-1.94,6.88-3.48,11.59-2.83,15.86,1.25-2.07.23-4.14.46-6.21.7Z"/>
  <path class="cls-11" d="M1001.21,555.11c0,40.94-16.27,69.04-39.81,93.66-26.64,27.87-59.12,47.39-93.6,63.9-46.15,22.1-95.26,35.14-144.78,46.83-5.66,1.34-12.9,2.89-17.15-2.58-4.48-5.77,1.3-10.2,4.61-14.21,73.15-88.75,124.76-189.97,171.27-294.16,11.38-25.5,13.9-26.4,36.9-10.77,26.59,18.07,50.48,38.85,66.88,67.1,10.04,17.3,15.85,35.73,15.69,50.23Z"/>
  <path class="cls-11" d="M79.32,555.68c7.22-52.84,39.8-88.12,81.85-116.36,60.05-40.34,127.56-61.8,197.76-76.02,5.83-1.18,13.13-3.59,17.25,1.93,4.11,5.52-1.72,10.08-5.11,14.21-72.59,88.42-124.3,188.94-170.4,292.71-12.15,27.36-14.1,28.04-39.41,10.74-41.26-28.19-73.63-62.74-81.87-114.46-3.64-4.23-3.5-8.48-.07-12.75Z"/>
  <path class="cls-11" d="M510.55,776.19c-72.57-2.72-144.06-12.17-213.86-32.72-6.93-2.04-16.2-2.52-18.21-10.43-2.42-9.48,7.13-13.53,13.24-17.85,87.33-61.76,184.97-99.4,288.94-121.91,6.5-1.41,13.44-1.39,20.14-1.13,37.65,1.47,54.62,22.57,47.07,59.48-6.43,31.45-19.16,60.64-36.48,87.55-16.06,24.95-39.3,37.86-69.59,37.05-10.41-.28-20.84-.04-31.26-.04Z"/>
  <path class="cls-11" d="M661.06,351.94c43.1,6.52,86.02,13.94,127.77,26.76,6.17,1.89,14.4,2.35,16.05,10.31,1.67,8.08-5.74,11.64-10.88,15.59-56.15,43.14-120.55,70.16-186.34,94.31-31.1,11.42-62.52,22.01-95.27,27.74-9.61,1.68-19.51,2.54-29.26,2.45-27.94-.28-39.66-8.69-49.86-34.5-3.9-6.48-3.85-12.97-.03-19.46,7.28-28.43,17.67-55.66,31.65-81.51,17.89-33.08,44.52-50.82,83.27-48.54,31.12,1.83,62.29,2.88,93.43,4.28,6.21,2.93,13.25-.37,19.46,2.57Z"/>
  <path class="cls-5" d="M433.25,475.15c0,6.49.02,12.97.03,19.46-.96,1.3-1.93,2.6-2.89,3.89-2.38-9.07-2.33-18.15-.03-27.23.51.18,1.27.21,1.48.56.6,1.04.97,2.2,1.43,3.32Z"/>
  <path class="cls-2" d="M79.32,555.68c.02,4.25.05,8.5.07,12.75-.48,2.29-.97,4.58-1.45,6.87l-2.73.14c0-7.76-.09-15.52.09-23.27.03-1.26-.79-6.31,2.92-1.75,1.01,1.23.77,3.48,1.1,5.26Z"/>
  <path class="cls-8" d="M661.06,351.94c-6.68.63-13.27.49-19.46-2.57,6.73-.97,13.49-2.19,19.46,2.57Z"/>
</svg>