<?xml version="1.0" encoding="UTF-8"?>
<svg id="Layer_1" xmlns="http://www.w3.org/2000/svg" viewBox="0 0 1080 1080">
  <defs>
    <style>
      .cls-1 {
        fill: #fe0000;
      }
    </style>
  </defs>
  <path class="cls-1" d="M216.53,576.35l-.2-.17-.26.05c-.51-.25-1.18-.16-1.55-.71l.06.04c-.58-.54-1.64.13-2.06-.82l.08.06c-.52-.14-1.09-.14-1.53-.52h0c-.51-.66-1.53-.02-2.01-.78l.06.03c-.57-.56-1.63.12-2.05-.82l.08.06c-.65-.41-1.65.18-2.13-.73l.08.06c-.51-.17-1.11-.13-1.5-.6l.04.02c-.55-.59-1.59.05-2.04-.8l.08.05c-.64-.45-1.6.09-2.13-.7l.07.04c-.47-.26-1.06-.2-1.47-.61h.01c-.53-.64-1.54,0-2.02-.77l.06.03c-.57-.56-1.63.12-2.05-.82l.08.06c-1.23-.3-2.45-.62-3.53-1.31l.06.03c-.6-.52-1.57.04-2.1-.72l.06.04c-.45-.29-1.04-.23-1.46-.6h0c-.52-.67-1.51-.05-2.01-.75l.04.02c-.55-.59-1.59.05-2.04-.8l.08.05c-.49-.21-1.06-.2-1.5-.55h-.02c-1.31-.6-2.81-.62-4.05-1.4h.01c-.49-.66-1.6.07-1.97-.87l.08.05c-.51-.16-1.08-.13-1.52-.51l-.13-.17-.21.06c-.58-.17-1.23-.17-1.69-.67l.05.03c-.58-.55-1.58.05-2.08-.75l.07.04c-.47-.25-1.06-.21-1.48-.58h0c-.52-.66-1.5-.06-2.01-.73l.03.02c-.56-.59-1.56.01-2.05-.75l.06.03c-.61-.51-1.58.05-2.1-.72l.07.04c-.46-.28-1.06-.21-1.46-.62h.01c-.56-.61-1.48-.08-2.05-.64l-.21-.16-.26.05c-.5-.27-1.17-.16-1.52-.73l.07.04c-.46-.26-1.04-.2-1.47-.56l-.12-.18-.21.05c-.58-.18-1.24-.16-1.68-.68l.06.03c-1.47-.5-2.95-.99-4.14-2.04l.04.03c-1.42-.85-2.96-1.53-4.08-2.81l.07.07c-.36-.11-.59-.37-.79-.67l.04.04c-.3-.17-.52-.42-.73-.68l.02.02c-.65-.55-1.59-.76-1.98-1.62.09-.19.04-.33-.16-.41-.18-.26-.45-.47-.55-.78l.05.06c-.34-.16-.6-.4-.71-.78l.07.08c-.58-.23-.41-.95-.83-1.29h0c-.23-.25-.52-.47-.58-.84l.07.08c-.73-.51-1.06-1.31-1.44-2.07l.04.07c-.82-.97-.81-2.32-1.49-3.35h0c-.38-.44-.36-1.01-.55-1.52l.05.09c-.87-.57-.34-1.6-.78-2.31l.08-.2-.17-.14c-.57-.62-.14-1.51-.58-2.16l.04.08c-1.1-1.56.03-3.45-.76-5.06l.12-.17-.13-.16c-.63-2.49-.51-4.98-.09-7.48.23-.38.26-.78.1-1.19.79-1.57-.24-3.38.64-4.94l.15-.15-.09-.19c.52-.95-.09-2.14.66-3.04l-.02.04c.72-.78-.17-2.02.76-2.74l-.04.07c.47-.64,0-1.55.63-2.14v.02c.37-.39.26-1.02.68-1.38v.02c.64-.5-.09-1.61.87-1.97l-.08.1c0-.41.3-.62.54-.88h0c.42-.34.26-1.03.79-1.32l-.04.06c.4-.75.73-1.54,1.43-2.07l-.07.07c.1-.36.37-.59.66-.8l-.03.03c1.2-1.95,2.96-3.37,4.65-4.85l.05-.04c.29-.14.49-.4.74-.59l-.02.02c.23-.26.45-.53.8-.64l-.07.06c.54-.69,1.34-1,2.05-1.45l-.04.03c.63-.58,1.35-1.01,2.13-1.35l-.06.04c.25-.54.97-.37,1.27-.82l.02-.02c.38-.35,1-.21,1.34-.66h.03c.38-.36,1-.24,1.35-.67h.02c.37-.37,1-.24,1.34-.68h.02c.37-.37,1-.22,1.31-.69l.04-.02c.48-.32,1.08-.32,1.59-.56.2.11.36.07.47-.13.4-.35,1-.23,1.38-.61h-.02c.57-.61,1.5-.11,2.1-.65l-.05.02c.6-.68,1.56-.21,2.23-.68.22.1.38.05.49-.17.64-.42,1.48-.03,2.1-.53l-.06.02c.83-.83,2.03-.08,2.9-.69.18.14.33.12.47-.06.92-.67,2.1-.1,3.05-.61.36.19.7.12,1.03-.08,1.39-.77,3,.06,4.41-.61.81.21,1.61.17,2.4-.12,1.08-.5,2.23-.27,3.35-.27,41.89-.01,83.79-.01,125.68-.01q3.87,0,3.88,3.79c0,10.42,0,20.83,0,31.25q0,3.69-3.64,3.7c-38.84,0-77.67,0-116.51.02-1.34,0-2.72-.32-4.01.3-.75,0-1.28.48-1.76.92-2.84,2.57-2.25,6.12,1.36,7.53,6.42,2.51,12.9,4.88,19.35,7.3,26.77,10.05,53.54,20.1,80.32,30.13,7.72,2.89,15.46,5.7,23.19,8.54.48.68,1.6-.06,1.96.88l-.09-.08c.39.03.61.32.86.57h0c.35.41,1.04.25,1.32.79l-.07-.06c.33.13.55.39.79.63h0c.33.41,1.09.22,1.26.88l-.08-.08c.43.03.66.31.81.68l-.07-.06c.36.13.6.38.77.71l-.05-.05c.32.16.55.41.75.7l-.03-.03c.29.19.53.43.71.73l-.04-.04c.3.19.55.42.7.75l-.05-.06c.33.17.6.41.68.8l-.07-.08c.76.47.97,1.34,1.52,1.97h0c.25.23.56.45.57.85l-.07-.09c.66.2.49.93.84,1.33l-.02-.04c.48.31.33.98.76,1.32h0c.7.81.89,1.85,1.32,2.78l-.02-.03c.45.38.38.99.64,1.46l-.04-.07c.8.51.22,1.49.73,2.1l-.03-.07c.75.59.26,1.57.71,2.25-.14.18-.11.32.08.43.54.71.22,1.63.59,2.38l-.1.18.14.15c.89,1.32-.09,2.93.66,4.27-.18.85-.22,1.7.1,2.54.45,1.36.47,2.71-.01,4.07-.29.79-.29,1.58-.09,2.39-.63,1.17.16,2.59-.66,3.72v-.04c-.55.59-.03,1.51-.63,2.1l-.17.14.07.21c-.16.58-.21,1.19-.59,1.69h0c-.66.5.01,1.55-.81,1.99l.04-.07c-.26.47-.17,1.09-.68,1.45l.03-.05c-.31.43-.21,1.07-.7,1.42l.03-.05c-.33.42-.2,1.09-.75,1.39l.04-.06c-.32.78-.81,1.46-1.29,2.15h0c-.54.63-.81,1.45-1.46,2l.04-.05c-.52,1.06-1.32,1.9-2.1,2.75l.06-.07c-.12.35-.38.58-.67.78l.04-.03c-.21.29-.43.55-.79.66l.06-.06c-.12.37-.38.61-.73.75l.06-.06c-.15.36-.39.61-.77.72l.07-.07c-.78.86-1.71,1.55-2.69,2.17l.03-.02c-.22.29-.44.59-.86.59l.08-.07c-.16.66-.92.47-1.25.89h0c-.25.23-.47.52-.83.58l.08-.07c-.27.6-.95.47-1.38.78l.05-.04c-.31.52-.98.4-1.38.74l.04-.03c-.36.47-.99.38-1.43.68l.06-.03c-1.06.72-2.31.95-3.49,1.35l.08-.04c-.49.83-1.49.24-2.1.74l.07-.04c-.99,1.03-2.44-.02-3.49.76l-.3-.06-.26.15c-1.64.7-3.44-.12-5.08.56-.35.04-.69.08-1.04.12-1.08.5-2.23.27-3.35.27-52.75.01-105.51.02-158.26-.02-1.17,0-2.49.57-3.53-.52l.14.14c-1-.79-.52-1.9-.52-2.85-.04-10.75.09-21.51-.1-32.26-.05-2.86,1-3.27,3.5-3.27,43.46.07,86.93.05,130.39.03,1.34,0,2.72.3,4.02-.28.23.11.41.06.54-.16.42-.27.99-.18,1.37-.56h-.02c.23-.24.44-.51.76-.65l-.04.05c.17-.25.34-.51.5-.76.22-.16.27-.36.16-.6.18-.15.24-.35.18-.58-.05-.18-.11-.27-.16-.27l.02.05c-.48-.38-.41-.99-.65-1.47l.04.06c-.38-.12-.62-.37-.76-.73l.06.06c-.34-.11-.57-.38-.8-.63h.01c-.35-.4-1.09-.22-1.29-.85l.07.05c-.51-.16-1.08-.16-1.52-.54h0c-.49-.67-1.56.02-1.98-.84l.07.05c-.63-.46-1.61.1-2.12-.71l.07.05c-.47-.25-1.08-.18-1.46-.64l.04.02c-.57-.58-1.56.01-2.07-.74l.06.03c-.57-.56-1.63.12-2.05-.82l.08.06c-.51-.14-1.07-.14-1.52-.48l-.22-.16-.27.05c-.49-.27-1.14-.19-1.54-.67l.04.02c-.58-.57-1.55,0-2.07-.73l.05.03c-.44-.31-1.03-.24-1.44-.62h0c-.52-.67-1.51-.05-2.01-.75l.04.02c-.58-.56-1.53-.02-2.08-.69l.04.02c-.4-.35-.99-.25-1.4-.58l-.22-.17-.28.04c-.49-.27-1.11-.21-1.54-.63h.01c-1.32-.57-2.89-.48-4.03-1.52l.08.05c-1.86-.65-3.81-1.03-5.54-2.03l.06.03c-.45-.28-1.04-.23-1.46-.59h-.02c-.52-.68-1.48-.08-2.01-.72h.02c-.55-.61-1.51-.04-2.05-.69h.03c-.52-.62-1.61.09-2-.85l.08.06c-1.24-.27-2.41-.71-3.56-1.23h.01c-.51-.65-1.57.03-2-.81l.08.05c-.48-.23-1.06-.2-1.49-.56h-.02c-.52-.67-1.45-.1-2.01-.66Z"/>
  <path class="cls-1" d="M704.5,576.92l-.26-.04-.2.17c-.4.35-1,.23-1.39.61h.02c-.24.29-.52.54-.91.62l-.26-.04-.19.18c-.39.34-1,.21-1.36.61h0c-.36.4-1,.26-1.34.69h0c-.71.44-1.37.98-2.18,1.25l.07-.05c-.82.69-1.9.87-2.79,1.41l.07-.05c-1.41.66-2.54,1.87-4.19,2.04l.07-.06c-.26.68-.92.56-1.44.74l.08-.06c-.25.68-.92.55-1.43.75l.08-.06c-.26.66-.93.54-1.43.74l.08-.05c-.23.64-.94.49-1.36.81l.06-.04c-.31.52-.98.39-1.38.75l.04-.02c-.36.46-.99.36-1.42.68l.05-.03c-.32.49-.98.37-1.37.74l.03-.02c-.38.44-.99.36-1.44.65l.06-.04c-.31.52-.98.4-1.38.75l.04-.02c-.36.46-.99.36-1.41.69l.05-.03c-.33.48-.99.36-1.38.72l.03-.02c-.35.45-.99.34-1.39.7l.03-.02c-.34.45-.99.31-1.35.73h0c-.38.39-1,.29-1.39.66h.02c-.74.77-1.84.86-2.72,1.37h0c-.37.4-1,.27-1.36.68h0c-.26.24-.47.56-.89.52l.08-.08c-.13.69-.91.49-1.24.91h0c-1.38,1.81-1.16,3.4.68,4.75.14.19.3.22.49.07,1.19.55,2.46.28,3.69.28,40.66.02,81.33.01,121.99.01q4.03,0,4.03,3.99c0,10.53-.09,21.07.06,31.6.04,2.57-.69,3.21-3.23,3.2-50.97-.08-101.94-.06-152.92-.06-.89,0-1.82.18-2.67-.27-.36-.04-.73-.08-1.09-.12-1.85-.74-3.87.2-5.71-.58l-.26-.14-.29.07c-.86-.63-1.98.03-2.84-.59l-.23-.16-.27.05c-.62-.53-1.67.11-2.15-.8l.08.05c-.51-.17-1.08-.17-1.52-.54h0c-.48-.68-1.56.02-1.97-.85l.07.05c-.48-.24-1.14-.12-1.42-.74l.07.05c-.82-.26-1.51-.75-2.16-1.3l.03.02c-.69-.47-1.51-.76-2.03-1.46l.07.06c-.37-.12-.61-.37-.77-.71l.05.04c-.68-.23-1.11-.73-1.43-1.35l.03.03c-.29-.2-.53-.43-.69-.75l.05.05c-.33-.19-.63-.41-.63-.85l.07.08c-.84-.4-1.04-1.3-1.54-1.97l.02.04c-.56-.64-1.03-1.34-1.31-2.15l.05.07c-.59-.3-.48-.96-.73-1.43l.05.07c-.86-.41-.16-1.48-.84-1.97h0c-.38-.42-.34-1.01-.59-1.48l.04.07c-.78-.61-.32-1.61-.72-2.34l.07-.21-.17-.14c-.53-.71-.22-1.63-.59-2.38l.08-.2-.17-.14c-.72-1.16,0-2.56-.61-3.74.18-.36.1-.7-.09-1.03-.49-2.27-.51-4.53.01-6.79.22-.38.23-.77.07-1.18.65-1.12-.07-2.45.56-3.58.23-.32.3-.66.14-1.03.37-.75.05-1.67.59-2.38l.17-.14-.08-.2c.4-.73-.01-1.7.68-2.35l-.03.06c.54-.59-.04-1.58.74-2.08l-.04.07c.28-.46.19-1.08.68-1.44l-.02.05c.32-.43.25-1.03.62-1.44h0c.43-.35.29-1,.72-1.34v.02c.37-.38.23-1.05.74-1.36l-.03.05c.33-.41.15-1.14.84-1.33l-.08.08c0-.43.3-.65.62-.85l-.03.04c.55-1.03,1.31-1.91,2.13-2.73l-.07.07c.12-.37.37-.61.71-.77l-.06.06c.16-.33.4-.58.74-.73l-.06.06c.16-.35.4-.61.79-.7l-.07.07c.12-.4.35-.66.78-.71l-.07.07c.43-.81,1.31-1.03,1.98-1.52l-.03.02c.63-.56,1.35-.99,2.12-1.34l-.06.03c.32-.53.97-.41,1.4-.74l-.05.03c.34-.49.98-.39,1.41-.71l-.05.03c.36-.49.98-.4,1.45-.67l-.07.04c.32-.55.97-.45,1.44-.71l-.07.04c.3-.57.96-.46,1.41-.74l-.07.03c.32-.54.97-.43,1.42-.72l-.06.03c.32-.53.98-.41,1.39-.74l-.05.03c.35-.48.99-.38,1.42-.7l-.06.03c.34-.5.98-.39,1.41-.71l-.05.03c.34-.49.98-.38,1.4-.72l-.04.02c.33-.47.99-.35,1.37-.73h-.02c.35-.42.99-.29,1.36-.69h-.01c.37-.4,1-.29,1.38-.68h-.02c.76-.75,1.84-.87,2.73-1.36h-.01c.36-.4,1-.28,1.36-.69h0c.37-.39,1-.26,1.35-.68h0c.36-.39,1-.24,1.32-.7h.03c.38-.36,1-.23,1.33-.68h.03c.38-.36,1-.23,1.33-.68h.03c.38-.36,1-.22,1.33-.68h.03c.28-.21.49-.51.86-.54l-.09.07c.29-.64.94-.53,1.45-.71l-.08.06c.26-.67.93-.54,1.43-.75l-.07.06c.26-.65.94-.52,1.42-.75l-.07.05c.28-.62.95-.5,1.42-.74l-.07.05c.29-.6.95-.48,1.41-.75l-.07.04c.3-.56.97-.44,1.4-.75l-.06.03c.34-.52.98-.41,1.42-.71l-.06.03c.33-.52.98-.42,1.42-.71l-.06.04c.32-.53.98-.42,1.41-.72l-.06.03c.34-.51.98-.41,1.43-.71l-.06.03c.31-.52.98-.4,1.38-.75l-.04.02c.35-.46.99-.36,1.4-.7l-.04.02c.35-.46.99-.35,1.39-.71l-.04.02c.34-.45.99-.32,1.36-.72h-.01c.37-.4,1-.29,1.38-.67h-.02c.35-.41.99-.28,1.35-.7h0c.37-.38,1-.25,1.34-.69h.01c.36-.38,1-.22,1.29-.7l.05-.03c.4-.31,1.01-.18,1.34-.64h.03c.38-.36,1-.23,1.34-.68h.02c.29-.26.57-.53.97-.57.19.11.32.06.4-.14.27-.19.46-.51.85-.5l-.09.07c.28-.66.93-.55,1.45-.71l-.07.06c.22-.7.92-.55,1.4-.78l-.07.06c.28-.63.94-.52,1.43-.73l-.07.05c.27-.63.94-.5,1.41-.76l-.07.05c.3-.58.96-.47,1.42-.74l-.07.04c.32-.56.97-.46,1.45-.7l-.07.05c.29-.59.96-.47,1.41-.75l-.07.04c.31-.55.97-.44,1.41-.73l-.06.04c.32-.53.97-.42,1.41-.73l-.06.03c.33-.51.98-.4,1.41-.72l-.05.03c.33-.5.98-.38,1.39-.73l-.04.02c.34-.46.99-.34,1.37-.72h-.02c.35-.42.99-.29,1.36-.7h0c.34-.4,1-.23,1.29-.71l.05-.03c.42-.31,1.01-.23,1.41-.6h-.02c.35-.42.99-.28,1.34-.71h0c.39-.38,1-.27,1.38-.66h-.01c.36-.4,1-.27,1.34-.7h.01c.37-.38,1-.24,1.34-.68h.02c.37-.37,1-.24,1.34-.68h.02c.37-.37,1-.23,1.32-.69h.03c.27-.2.47-.49.81-.6l-.07.06c.35-.54.97-.47,1.48-.66l-.08.05c.27-.64.94-.52,1.43-.74l-.07.05c.28-.63.94-.52,1.43-.73l-.07.05c.28-.63.94-.51,1.43-.74l-.07.05c.28-.62.95-.5,1.42-.74l-.07.05c.29-.6.95-.48,1.42-.74l-.07.05c.3-.58.96-.47,1.42-.74l-.07.04c.26-.55.97-.4,1.32-.81h0c.4-.4,1-.33,1.46-.61l-.06.03c.33-.52.98-.41,1.41-.72l-.06.03c.34-.51.98-.4,1.41-.71l-.06.03c.33-.5.98-.38,1.39-.73l-.04.02c.35-.46.99-.35,1.38-.71h-.03c.36-.43.99-.32,1.4-.67l-.04.02c.34-.45.99-.32,1.36-.72h-.01c.32-.4.99-.22,1.25-.73l.08-.08c.46-.22,1.02-.17,1.42-.53h-.02c.34-.42.99-.27,1.32-.72h.02c.38-.37,1-.24,1.34-.68h.02c.38-.37,1-.25,1.35-.68h.01c.63-.45,1.58-.89,1.25-1.78-.4-1.09-1.56-.58-2.37-.58-12.66-.03-25.32-.02-37.98-.02-27.69,0-55.39,0-83.08-.03-1.18,0-2.49.51-3.56-.47l.11.12c-.88-.84-.47-1.93-.47-2.9-.03-10.76.06-21.53-.08-32.29-.03-2.53.63-3.23,3.2-3.23,46,.08,91.99.06,137.99.07.89,0,1.82-.18,2.67.28.84.3,1.69.3,2.55.1,2.04.79,4.25-.21,6.29.58l1.18.1c1.12.66,2.47-.11,3.58.59.33.22.67.29,1.03.11.75.37,1.65.07,2.37.57.14.2.3.23.5.09.87.62,2.06-.13,2.88.69l-.05-.02c.59.55,1.54.01,2.09.69l-.04-.02c.57.57,1.56-.02,2.07.74l-.07-.03c.46.28,1.05.22,1.46.61h0c.38.4.98.3,1.38.63l.03.02c.31.47.97.31,1.3.74h-.03c.38.37,1.06.22,1.35.76l-.07-.05c.33.1.53.4.81.57l.03.02c.28.47,1.02.29,1.24.85l-.07-.06c.36.09.58.37.81.62h-.01c1.61,1.11,3.02,2.44,4.07,4.11l-.02-.03c.28.21.55.44.65.8l-.07-.08c.57.24.41.96.83,1.3h0c.24.25.52.46.59.83l-.07-.08c.61.27.47.95.76,1.39l-.04-.06c.54.34.45.97.68,1.45l-.05-.07c.86.41.17,1.49.84,1.98h0c.6.55.05,1.49.68,2.04h0c.57.64.17,1.55.62,2.24-.13.19-.11.34.08.47.75,1.08-.1,2.44.63,3.52-.15.43-.14.84.08,1.24.47,2.26.47,4.52,0,6.79-.04.34-.08.68-.12,1.03-.51.96.06,2.13-.61,3.06-.18.14-.2.3-.06.48-.46.67-.03,1.6-.63,2.23v-.02c-.62.54,0,1.54-.75,2.04l.03-.06c-.49,1.47-1.04,2.91-2,4.16h.01c-.4.35-.24,1.05-.81,1.31l.05-.07c-.33.79-.72,1.55-1.4,2.11l.06-.08c-.1.35-.37.58-.63.81h.01c-.22.23-.45.45-.67.69h0c-1.16,1.57-2.44,3.02-4.14,4.04l.03-.03c-.2.29-.43.54-.76.69l.06-.06c-.54.66-1.38.91-1.99,1.47h0c-.69.47-1.38.92-2.12,1.3l.05-.03c-.3.49-.98.34-1.32.77h0c-.39.38-1,.29-1.41.65l.03-.02c-.37.45-.99.36-1.42.68l.05-.03c-.34.49-.98.38-1.4.72l.04-.02c-.54.69-1.5.15-2.09.7l.05-.02c-.34.48-.99.37-1.4.71l.04-.02c-.36.47-.99.37-1.42.69l.05-.03c-.34.49-.98.38-1.41.71l.05-.03c-.33.49-.98.37-1.39.72l.03-.02c-.33.46-.99.32-1.33.74h0c-.39.38-1,.28-1.4.66h.02c-.35.42-.99.29-1.36.69h0c-.25.24-.46.53-.84.58l.09-.08c-.38.9-1.48.18-1.95.87h-.01c-.78.71-1.85.83-2.71,1.36h0c-.74.41-1.34,1.07-2.23,1.18l.07-.06c-.23.71-.91.57-1.42.76l.08-.06c-.26.68-.92.56-1.44.74l.08-.06c-.25.68-.92.55-1.43.75l.07-.06c-.23.65-.94.5-1.38.8l.06-.04c-.33.55-.97.46-1.45.69l.07-.05c-.28.59-.96.46-1.39.77l.06-.04c-.33.52-.98.42-1.42.71l.06-.04c-.33.53-.97.43-1.43.71l.06-.04c-.32.55-.97.44-1.42.72l.06-.04c-.31.55-.97.42-1.39.75l.05-.03c-.35.5-.98.4-1.43.7l.06-.04c-.31.52-.98.39-1.37.75l.03-.02c-.37.45-.99.36-1.42.67l.05-.03c-.33.5-.98.37-1.38.73l.03-.02c-.34.45-.99.32-1.35.72h0c-.38.4-1,.29-1.39.67h.02c-.37.42-1,.31-1.4.67l.03-.02c-.34.45-.99.32-1.35.72h0c-.38.4-1,.29-1.39.67h.02c-.34.42-.99.28-1.34.7h0c-1.15.71-2.29,1.44-3.59,1.86l.07-.06c-1.25.95-2.78,1.34-4.09,2.18l.07-.05c-.31.57-.96.47-1.44.71l.07-.05c-.31.6-.95.5-1.45.71l.08-.05c-.25.63-.94.49-1.39.79l.06-.04c-.32.54-.97.44-1.43.71l.07-.04c-.32.56-.97.46-1.44.7l.07-.05c-.26.58-.96.43-1.34.81l.03-.02c-.38.44-.99.36-1.44.66l.06-.03c-.3.51-.98.37-1.35.76h.02c-.35.41-.99.27-1.34.7h0c-.4.38-1.01.28-1.4.65h.03c-.36.42-.99.31-1.39.68l.03-.02c-.23.31-.51.55-.89.64Z"/>
  <path class="cls-1" d="M556.53,601.47c-.22.33-.29.66-.1,1.03-.61,1.18.12,2.58-.62,3.74-.18.14-.2.3-.06.48-.62.87.17,2.09-.73,2.89l.03-.07c-.48.63,0,1.55-.65,2.13v-.04c-.58.56.02,1.56-.74,2.06l.03-.06c-.28.45-.23,1.05-.6,1.46h0c-.68.48.04,1.58-.86,1.96l.05-.08c-.22.49-.09,1.16-.76,1.41l.06-.07c-.19.86-.74,1.51-1.25,2.19l.02-.03c-.38.38-.22,1.08-.81,1.33l.07-.08c-.09.38-.36.61-.68.79l.03-.04c-.54,1.04-1.31,1.91-2.13,2.73l.07-.07c-.12.36-.37.6-.71.77l.05-.05c-.16.33-.4.57-.72.74l.05-.05c-.17.31-.41.56-.73.73l.05-.05c-.17.31-.41.55-.72.73l.04-.04c-.19.31-.42.57-.78.68l.07-.06c-.82.82-1.7,1.57-2.73,2.13l.04-.03c-.2.31-.42.61-.85.62l.09-.08c-.18.67-.92.49-1.3.86l.03-.02c-1.04.88-2.33,1.34-3.49,2.02l.06-.04c-1.23,1.52-3.25,1.24-4.76,2.12l.04-.02c-.53.68-1.5.11-2.06.72h.02c-.54.64-1.5.06-2.04.7h0c-.45.4-1.07.37-1.58.6l-.25-.06-.2.16c-.94.62-2.09.09-3.05.59l-.2-.08-.14.17c-.64.57-1.56.14-2.22.61-.39.04-.79.08-1.18.12-1.41.65-2.99-.09-4.4.56-.35.04-.7.08-1.04.12-1.86.71-3.86-.15-5.72.55-1.26.04-2.53.08-3.79.12-.85.46-1.77.28-2.66.28-25.19,0-50.39,0-75.58,0-.89,0-1.81.18-2.66-.28-.64-.03-1.28-.06-1.93-.09-2.25-.84-4.66.2-6.91-.58-.41-.03-.83-.07-1.24-.1-1.29-.82-2.92.29-4.18-.73l.06.03c-1.08-.68-2.41.13-3.49-.59l-.24-.15-.27.06c-.66-.47-1.56-.06-2.21-.58l-.23-.16-.27.05c-.63-.51-1.65.07-2.17-.76l.08.04c-.64-.45-1.59.06-2.13-.68l.06.03c-.57-.55-1.63.12-2.04-.82l.08.05c-.51-.14-1.08-.13-1.52-.49l-.19-.17-.25.05c-.87-.24-1.56-.79-2.27-1.3h.02c-.9-.46-1.95-.62-2.75-1.31l-.17-.17-.23.05c-.64-.31-1.02-.95-1.63-1.3h.02c-.66-.49-1.48-.77-2.02-1.44l.06.06c-.34-.13-.57-.39-.77-.68l.04.03c-.29-.16-.49-.43-.76-.62l-.02-.02c-1.53-1.2-2.98-2.47-4.02-4.13l.02.02c-.27-.22-.53-.45-.66-.78l.05.06c-.35-.16-.62-.4-.69-.8l.07.08c-.76-.49-1.07-1.3-1.45-2.06l.04.06c-.54-.27-.38-.97-.8-1.31h0c-.93-1.23-1.39-2.7-2.05-4.06h0c-.91-.97-.84-2.3-1.35-3.41h0c-.39-.45-.34-1.07-.6-1.57.1-.19.07-.36-.11-.49-.48-.72-.2-1.62-.55-2.37l.08-.2-.16-.14c-.72-.83.02-1.99-.65-2.83.12-.21.1-.4-.07-.57-.8-1.81.19-3.8-.59-5.61.2-.64.14-1.26-.11-1.87-.5-1.08-.27-2.23-.27-3.35-.01-37.62-.01-75.24-.01-112.86q0-3.77,3.89-3.78c14.5,0,29.01-.01,43.51.02,1.06,0,2.27-.51,3.19.53-.04.79-.13,1.58-.13,2.36,0,31.79,0,63.57,0,95.36,0,1.35.13,2.7.2,4.05.82,1.79-.21,3.78.61,5.56-.14.2-.13.38.04.55.54.71.23,1.63.59,2.38l-.07.21.17.14c.6.56.03,1.5.67,2.04h0c.39.37.27,1,.68,1.36h0c.4.35.25.99.7,1.32v.02c.21.27.5.47.6.81l-.06-.06c1.27,1.49,2.64,2.89,4.15,4.13l-.05-.04c.77.33,1.45.82,2.15,1.28h0c.36.42.96.32,1.37.62l.06.03c.46.73,1.46.08,1.95.76h-.03c.58.57,1.53.02,2.09.67l.15.15.19-.1c.75.37,1.66.06,2.37.58.14.2.31.22.51.07,1.34.74,2.93-.18,4.26.62.82.25,1.64.31,2.48.07,7.68.63,15.37.2,23.06.25,4.29.02,8.59.4,12.87-.25,1.03.22,2.06.23,3.08-.1,1.12-.67,2.46.08,3.58-.58.18.15.34.13.49-.05.84-.72,2.01,0,2.87-.64.21.13.39.09.54-.1.47-.34,1.07-.31,1.57-.55.19.12.35.09.47-.1.41-.37,1.01-.29,1.45-.58l-.06.03c.35-.52.98-.43,1.45-.68l-.07.04c.28-.56.96-.42,1.37-.78l-.04.02c.6-.59,1.38-.92,2.05-1.4l-.02.02c.21-.27.44-.53.77-.67l-.06.05c.17-.34.4-.6.78-.7l-.07.07c.11-.38.37-.62.72-.77l-.06.06c.13-.34.39-.57.67-.78l-.02.03c.37-.39.21-1.09.81-1.34l-.07.08c.07-.37.35-.58.58-.84h0c.42-.35.28-.98.64-1.35l.18-.13-.04-.22c0-.41.27-.7.5-1.01.2-.13.25-.29.14-.51.47-.67.05-1.58.61-2.22l.17-.17-.08-.22c.51-.94-.04-2.08.57-3.01.23-.38.25-.78.08-1.19.56-1.19.28-2.46.28-3.68.02-32.62.01-65.24.02-97.86q0-3.67,3.66-3.67c14.5,0,29,.06,43.49-.06,2.57-.02,3.2.69,3.2,3.23-.08,39.64-.06,79.28-.06,118.93,0,.89.19,1.82-.29,2.66Z"/>
  <path class="cls-1" d="M985.4,640.86c-.41.03-.81.07-1.22.1-.85.45-1.77.27-2.66.27-24.96,0-49.93,0-74.89,0-.89,0-1.81.18-2.66-.27-.59-.21-1.19-.34-1.8-.12-2.76-.77-5.64.21-8.39-.56l-1.03-.13c-1.19-.56-2.54.05-3.73-.54-.4-.04-.8-.08-1.2-.12-.85-.64-2.06.15-2.86-.71l.06.03c-.84-.63-1.99.1-2.8-.64h.02c-.57-.59-1.47-.08-2.06-.61l-.16-.18-.24.05c-.69-.45-1.73.12-2.26-.78l.08.05c-1.22-.31-2.43-.65-3.53-1.29l.04.03c-.42-.33-1.05-.23-1.41-.69l.03.02c-.41-.35-1.02-.26-1.41-.65h0c-.36-.41-1.01-.27-1.34-.73l.03.02c-.41-.35-1.04-.24-1.4-.68h.03c-.68-.43-1.39-.84-2.08-1.28l-.17-.17-.24.05c-.63-.35-1.09-.9-1.56-1.42l.07.07c-.37-.09-.6-.36-.8-.66l.03.03c-2.14-1.5-4-3.29-5.45-5.48l.03.04c-.33-.2-.62-.41-.62-.85l.07.08c-.83-.43-1.09-1.28-1.49-2.02l.04.06c-.55-.28-.4-.97-.79-1.34v.02c-.99-1.19-1.37-2.7-2.07-4.04v-.02c-.37-.41-.29-1.01-.62-1.43l.02.04c-.7-.52-.11-1.5-.73-2.04v.02c-.61-.57-.09-1.5-.67-2.08v.03c-.6-.68-.25-1.62-.63-2.36l.08-.2-.16-.14c-.7-.87-.02-2.02-.62-2.91.15-.18.13-.34-.05-.49-.9-1.77.21-3.77-.66-5.54-.03-.42-.05-.84-.08-1.27-.52-1.08-.27-2.23-.28-3.35-.01-37.84-.01-75.68-.01-113.52q0-3.8,3.86-3.81c14.5,0,29-.01,43.5.02,1.08,0,2.27-.45,3.24.46-.09.19-.07.37.08.53.41.68.4,1.35,0,2.03-.05.9-.15,1.8-.15,2.7,0,31.07,0,62.14,0,93.22,0,.9.11,1.8.16,2.69.73,1.82-.18,3.81.56,5.63-.14.41-.12.79.11,1.16.46.73.2,1.62.55,2.37l-.08.2.17.14c.4.41.34,1.01.57,1.49l-.04-.07c.85.42.15,1.48.84,1.97h0c.45.71.94,1.39,1.28,2.16l-.04-.05c.98,1.33,2.29,2.34,3.36,3.58l-.07-.06c.44-.04.65.28.87.57l-.03-.02c.38.37,1.11.19,1.31.85l-.08-.07c.39.01.61.32.87.54h0c1.05.66,2.32.76,3.37,1.41h-.03c.58.57,1.53.02,2.09.66l.15.16.2-.1c.74.37,1.65.07,2.36.57.32.22.66.29,1.03.1,1.18.58,2.56-.09,3.73.58.79.27,1.59.31,2.4.09,4.7.65,9.42.28,14.13.25,7.3-.04,14.6.41,21.89-.25,1.04.3,2.06.17,3.08-.11,1.12-.65,2.46.08,3.58-.57.18.15.34.14.49-.04.84-.73,2.01-.01,2.88-.64.23.11.41.06.54-.16.49-.26,1.06-.26,1.55-.5.19.13.35.11.48-.08.41-.39,1.01-.31,1.46-.6l-.06.03c.33-.53.97-.42,1.42-.71l-.06.03c.31-.52.98-.4,1.38-.75l-.04.02c.62-.58,1.37-.95,2.08-1.38l-.04.03c.19-.3.42-.56.78-.69l-.06.06c.14-.36.38-.61.74-.74l-.06.06c.13-.36.38-.61.74-.75l-.06.06c.13-.34.39-.57.67-.78l-.02.03c.46-.7.8-1.47,1.4-2.06l-.03.04c.33-.42.22-1.07.71-1.4l-.03.05c.31-.43.23-1.02.58-1.43l.18-.15-.05-.23c.4-.72-.01-1.67.66-2.31l-.02.05c.63-.84-.01-1.93.56-2.78.04-.4.08-.79.13-1.19.56-1.19.28-2.46.28-3.68.02-32.85.01-65.7.01-98.55q0-3.66,3.67-3.67c14.5,0,29,.03,43.5-.04,2.17-.01,3.19.28,3.19,2.88-.08,40.21-.06,80.42-.06,120.64,0,.67.11,1.37-.34,1.97-.18.15-.2.31-.05.49-.68,1.11.13,2.48-.62,3.59-.18.13-.21.29-.07.48-.61.88.14,2.08-.69,2.9l.02-.06c-.52.61-.03,1.53-.65,2.11v-.02c-.61.55-.02,1.53-.72,2.05l.02-.04c-.33.42-.25,1.03-.63,1.43h0c-.67.5,0,1.55-.81,1.99l.04-.07c-.29.45-.13,1.15-.81,1.37l.05-.07c-.15.88-.75,1.51-1.21,2.21h0c-.41.34-.23,1.07-.85,1.28l.05-.07c-.31.81-.62,1.62-1.46,2.06l.08-.08c0,.47-.29.7-.7.8l.07-.07c-.07.4-.34.63-.69.8l.06-.06c-.14.34-.39.57-.69.77l.03-.04c-.18.29-.42.52-.69.73l.02-.02c-.2.26-.44.49-.69.7h.02c-.22.24-.45.5-.78.64l.06-.05c-.16.34-.4.59-.75.73l.06-.06c-.16.36-.39.65-.83.66l.08-.08c-.4.84-1.3,1.05-1.98,1.54l.04-.03c-.2.3-.43.58-.82.65l.08-.07c-.23.61-.95.45-1.32.83l.03-.02c-.67.52-1.35,1.02-2.16,1.29l.07-.05c-.27.6-.95.45-1.37.79l.05-.03c-.36.5-.98.42-1.46.67l.07-.05c-.33.58-.96.5-1.47.67l.08-.05c-.39.95-1.48.24-2,.85l.04-.02c-.4.46-.99.42-1.5.59l.08-.05c-.62,1.1-1.94.07-2.67.87h.02c-.57.61-1.5.1-2.1.65l.04-.02c-.87.78-2.07.12-2.99.66l-.23-.07-.16.17c-.82.69-1.97-.07-2.78.64l-.33-.05-.3.14c-1.07.66-2.4-.16-3.45.6-.44.02-.87.04-1.31.06-2.72.79-5.58-.23-8.3.59Z"/>
  <path class="cls-1" d="M32.26,559.01c0-26.05,0-52.1,0-78.15,0-4.98-.33-4.49,4.65-4.5,14.04-.01,28.09,0,42.13,0,.91,0,1.81,0,2.72.04.95.03,1.43.56,1.46,1.5.02.79.03,1.59.03,2.38,0,52.44,0,104.88,0,157.32,0,.45.01.91,0,1.36-.09,2.53-.11,2.61-2.78,2.62-15.06.02-30.13.02-45.19,0-2.97,0-3.01-.05-3.02-3.06-.02-13.82,0-27.64,0-41.45,0-12.69,0-25.37,0-38.06Z"/>
  <path class="cls-1" d="M636.74,640.96c1.47-.04,2.94-.11,4.41-.11,50.07,0,100.14,0,150.22,0,4.07,0,4.08,0,4.08-3.97,0-10.2,0-20.39,0-30.59,0-.68-.04-1.36-.02-2.04.04-1.13-.44-1.67-1.61-1.6-.9.05-1.81,0-2.72,0-39.65,0-79.3,0-118.95-.02-2.12,0-4.29.39-6.37-.41,3.06-.02,6.11-.06,9.17-.06,38.5,0,77,0,115.5,0,.79,0,1.59-.01,2.38,0,2.96.06,3,.06,3.01,3.08.02,10.98.02,21.97,0,32.95,0,3.37-.03,3.4-3.36,3.4-15.4.01-30.8,0-46.2,0-35.22,0-70.43,0-105.65-.02-1.3,0-2.74.5-3.89-.61Z"/>
  <path class="cls-1" d="M191.97,515.77c1.41-1.06,3.05-.68,4.6-.68,23.46-.03,46.91-.03,70.37-.03,15.07,0,30.14,0,45.21,0,.79,0,1.59-.04,2.38,0,1.2.06,1.6-.57,1.56-1.66-.02-.57,0-1.13,0-1.7,0-10.54,0-21.08,0-31.62,0-3.56.27-3.22-3.36-3.22-34.79,0-69.58-.01-104.36,0-8.38,0-16.76.08-25.14.13.92-.98,2.12-.62,3.21-.62,42.15-.02,84.31-.02,126.46-.02.68,0,1.36.01,2.04.03.94.03,1.46.5,1.52,1.45.02.45.04.91.04,1.36,0,11.22.02,22.44,0,33.66,0,2.85-.06,2.86-2.81,2.94-.11,0-.23,0-.34,0-40.45-.01-80.91-.02-121.36-.03Z"/>
  <path class="cls-1" d="M1037.22,602.15c.67-40.3.13-80.6.29-120.89.02-5.14.74-4.38-4.54-4.39-13.81-.04-27.62-.01-41.44-.01-.79,0-1.59.04-2.38,0-1.12-.05-1.68.4-1.62,1.57.04.9,0,1.81,0,2.72,0,31.81,0,63.62,0,95.44,0,2.02.17,4.07-.55,6.03-.02-13.81-.05-27.63-.06-41.44-.01-19.93,0-39.86,0-59.79,0-.79-.02-1.59,0-2.38.09-2.54.11-2.63,2.77-2.63,15.17-.02,30.35-.02,45.52,0,2.62,0,2.62.08,2.71,2.69.02.45,0,.91,0,1.36,0,39.29,0,78.59-.03,117.88,0,1.29.52,2.74-.67,3.86Z"/>
  <path class="cls-1" d="M556.53,601.47c.59-40.08.12-80.15.25-120.23.02-5.05.69-4.36-4.23-4.37-14.04-.03-28.08-.01-42.12-.01-.79,0-1.59.01-2.38.01-.82,0-1.24.39-1.24,1.23,0,.91-.01,1.81-.01,2.72,0,31.81,0,63.62-.02,95.43,0,1.91.22,3.85-.54,5.69-.02-14.15-.05-28.31-.06-42.46-.01-19.36,0-38.72,0-58.09,0-.79-.02-1.59,0-2.38.09-2.56.1-2.64,2.76-2.64,15.17-.02,30.34-.02,45.52,0,2.63,0,2.64.08,2.73,2.67.02.45,0,.91,0,1.36,0,39.06,0,78.13-.03,117.19,0,1.3.5,2.74-.63,3.88Z"/>
  <path class="cls-1" d="M753,477c-5.09-.05-10.19-.14-15.28-.14-41.35-.01-82.7-.01-124.05,0-4.38,0-4.12-.72-4.09,4.22.05,11.33.09,22.65.13,33.98-1.04-.53-.84-1.5-.84-2.38,0-11.21-.02-22.42,0-33.62,0-2.61.08-2.62,2.7-2.7.57-.02,1.13,0,1.7,0,45.28,0,90.57,0,135.85.03,1.3,0,2.74-.5,3.88.62Z"/>
  <path class="cls-1" d="M267.68,602.2c-1.61.78-3.33.42-5,.42-42.56.02-85.13.02-127.69.02q-4.75,0-4.75,4.91c0,9.85,0,19.7,0,29.55,0,1.24.1,2.48.15,3.73-1.1-.47-.89-1.46-.89-2.33,0-11.21-.02-22.41,0-33.62,0-2.63.08-2.63,2.67-2.72.34-.01.68,0,1.02,0,44.04,0,88.07,0,132.11,0,.79,0,1.58.03,2.38.05Z"/>
  <path class="cls-1" d="M899.83,477.2c-1.08-.49-2.22-.34-3.35-.34-14.48,0-28.96,0-43.44,0-.68,0-1.36.02-2.04,0-.97-.02-1.47.4-1.43,1.41.03.68,0,1.36,0,2.04.02,38.69.03,77.38.04,116.07,0,.34-.07.67-.1,1.01-.99-.91-.62-2.12-.62-3.2-.02-38.04-.01-76.07-.01-114.11,0-.68.02-1.36.02-2.04,0-1.12.58-1.65,1.68-1.65.68,0,1.36-.02,2.04-.02,14.6,0,29.21-.01,43.81.02,1.16,0,2.54-.55,3.41.82Z"/>
  <path class="cls-1" d="M419.1,477.26c-1.06-.58-2.21-.4-3.33-.4-14.59-.01-29.18-.01-43.77-.01-.57,0-1.13.02-1.7.01-.98-.02-1.45.43-1.43,1.43.02.79-.02,1.58-.02,2.37.01,38.23.03,76.46.03,114.69,0,.45-.07.9-.1,1.35-.98-.92-.62-2.12-.62-3.21-.02-37.82-.01-75.64-.01-113.45,0-.68.02-1.36.02-2.04,0-1.14.62-1.62,1.7-1.63.79,0,1.58-.02,2.38-.02,14.38,0,28.76-.02,43.14.03,1.25,0,2.77-.67,3.7.88Z"/>
  <path class="cls-1" d="M130.26,640.69c1.36.05,2.71.15,4.07.15,52.67,0,105.35,0,158.02.01,1.02,0,2.03.07,3.05.11-.92.98-2.12.61-3.21.61-52.86.02-105.72.02-158.58-.01-1.14,0-2.55.58-3.35-.88Z"/>
  <path class="cls-1" d="M609.59,514.95c1.47.03,2.94.1,4.41.1,39.57,0,79.14,0,118.72,0,.79,0,1.58-.02,2.37,0,.88.03,2.14-.26,2.37.78.33,1.48-1.04,1.72-2.13,1.99.29-.48.57-.97.96-1.63-1.15-.7-2.38-.38-3.51-.38-39.71-.02-79.41,0-119.12-.05-1.36,0-2.98.72-4.07-.81Z"/>
  <path class="cls-1" d="M421.88,640.95c2.14-.04,4.28-.1,6.42-.11,23.93,0,47.86,0,71.78,0,.9,0,1.8.07,2.7.11-.91.99-2.11.62-3.2.62-24.84.02-49.67.02-74.51,0-1.08,0-2.29.37-3.2-.62Z"/>
  <path class="cls-1" d="M903.96,640.96c1.8-.04,3.6-.11,5.41-.11,24.15,0,48.3,0,72.46,0,.79,0,1.57.07,2.36.11-.91.98-2.11.62-3.2.62-24.61.02-49.22.02-73.82,0-1.09,0-2.28.37-3.2-.62Z"/>
  <path class="cls-1" d="M961.4,602.21c-.94.5-1.98.38-2.98.38-10.02.02-20.04.02-30.06,0-1,0-2.03.11-2.98-.39,12,0,24.01,0,36.01,0Z"/>
  <path class="cls-1" d="M480.68,602.22c-.71.44-1.51.38-2.29.38-10.33,0-20.67,0-31-.01-.88,0-1.81.12-2.64-.36,11.98,0,23.95,0,35.93,0Z"/>
  <path class="cls-1" d="M858.45,623.83c1.82,1.83,3.63,3.66,5.45,5.48-2.69-.96-4.54-2.76-5.45-5.48Z"/>
  <path class="cls-1" d="M146.42,489.93c-1.55,1.62-3.1,3.23-4.65,4.85.68-2.45,2.39-3.92,4.65-4.85Z"/>
  <path class="cls-1" d="M893.77,640.28c2.81-.04,5.62-.06,8.39.56-2.8-.2-5.67.77-8.39-.56Z"/>
  <path class="cls-1" d="M985.4,640.86c2.73-.68,5.52-.6,8.3-.59-2.69,1.31-5.53.37-8.3.59Z"/>
  <path class="cls-1" d="M665.29,602.14c-2.73-1.39-2.83-2.07-.68-4.75-.53,1.69-.14,3.25.68,4.75Z"/>
  <path class="cls-1" d="M378.38,624.55c1.34,1.38,2.68,2.76,4.02,4.13-2.1-.64-3.53-1.93-4.02-4.13Z"/>
  <path class="cls-1" d="M784.23,535.48c1.38-1.35,2.76-2.69,4.14-4.04-.6,2.14-1.9,3.57-4.14,4.04Z"/>
  <path class="cls-1" d="M427.26,597.5c-1.86-.9-3.19-2.33-4.15-4.13,1.79.97,3.15,2.37,4.15,4.13Z"/>
  <path class="cls-1" d="M134.21,517.17c.03,2.49.06,4.99.09,7.48-1.22-2.48-1.08-4.98-.09-7.48Z"/>
  <path class="cls-1" d="M789.7,490.01c-1.36-1.37-2.71-2.74-4.07-4.12,2.17.56,3.57,1.9,4.07,4.12Z"/>
  <path class="cls-1" d="M530.61,636.11c1.44-1.04,3.1-1.59,4.76-2.12-.38,1.22-.81,2.26-2.5,1.87-.7-.16-1.51.15-2.26.25Z"/>
  <path class="cls-1" d="M795.88,513.75c0-2.26,0-4.52,0-6.79,1,2.26,1,4.52,0,6.79Z"/>
  <path class="cls-1" d="M232.88,582.33c1.96.37,3.82,1.02,5.54,2.03-2.11.03-4.05-.38-5.54-2.03Z"/>
  <path class="cls-1" d="M413.04,640.29c2.32-.05,4.66-.21,6.91.58-2.3-.19-4.7.68-6.91-.58Z"/>
  <path class="cls-1" d="M604.77,604.87c0,2.26,0,4.53-.01,6.79-1.02-2.27-1.04-4.53.01-6.79Z"/>
  <path class="cls-1" d="M145.88,548.3c1.47.78,2.91,1.6,4.08,2.81-1.83-.25-3.36-.96-4.08-2.81Z"/>
  <path class="cls-1" d="M907.21,596.94c-1.49-.85-2.73-1.93-3.36-3.58,1.5.84,2.8,1.86,3.36,3.58Z"/>
  <path class="cls-1" d="M761.84,477.68c-2.12.07-4.23-.02-6.29-.58,2.1.17,4.29-.68,6.29.58Z"/>
  <path class="cls-1" d="M720.24,568.74c1.1-1.21,2.59-1.71,4.09-2.18-.93,1.53-2.44,1.99-4.09,2.18Z"/>
  <path class="cls-1" d="M629.94,640.26c1.92,0,3.85-.08,5.71.58-1.91-.15-3.92.72-5.71-.58Z"/>
  <path class="cls-1" d="M791.74,526.67c.4-1.51,1.23-2.82,2-4.16.12,1.77-.4,3.22-2,4.16Z"/>
  <path class="cls-1" d="M689.6,584.32c1.42-.63,2.5-1.96,4.19-2.04-1.09,1.31-2.26,2.45-4.19,2.04Z"/>
  <path class="cls-1" d="M368.89,598.57c.56,1.83.7,3.71.59,5.61-1.3-1.76-.42-3.74-.59-5.61Z"/>
  <path class="cls-1" d="M506.57,640.83c1.84-.84,3.8-.51,5.72-.55-1.81,1.25-3.81.41-5.72.55Z"/>
  <path class="cls-1" d="M849.6,598.65c.63,1.8.68,3.67.66,5.54-1.38-1.71-.43-3.7-.66-5.54Z"/>
  <path class="cls-1" d="M900.49,584c-.94-1.8-.63-3.73-.56-5.63,1.25,1.77.41,3.75.56,5.63Z"/>
  <path class="cls-1" d="M149.92,551.09c1.54.37,2.8,1.29,4.14,2.04-1.77.12-3.26-.37-4.14-2.04Z"/>
  <path class="cls-1" d="M372.91,615.77c.85,1.27,1.63,2.57,2.05,4.06-1.55-.92-2.04-2.37-2.05-4.06Z"/>
  <path class="cls-1" d="M853.63,615.78c.93,1.23,1.58,2.6,2.08,4.04-1.6-.88-2.05-2.35-2.08-4.04Z"/>
  <path class="cls-1" d="M419.79,584.6c-.91-1.78-.69-3.68-.61-5.56,1.3,1.73.4,3.71.61,5.56Z"/>
  <path class="cls-1" d="M134.95,511.04c-.05,1.67,0,3.35-.64,4.94.16-1.65-.68-3.44.64-4.94Z"/>
  <path class="cls-1" d="M296.43,640.84c1.64-.7,3.37-.55,5.08-.56-1.58,1.2-3.38.44-5.08.56Z"/>
  <path class="cls-1" d="M535.31,634.03c.97-1,2.17-1.62,3.49-2.02-.7,1.47-1.98,1.94-3.49,2.02Z"/>
  <path class="cls-1" d="M134.31,524.98c.65,1.63.62,3.35.76,5.06-1.57-1.49-.55-3.36-.76-5.06Z"/>
  <path class="cls-1" d="M724.26,566.62c1.06-.88,2.23-1.55,3.59-1.86-.81,1.36-2,1.99-3.59,1.86Z"/>
  <path class="cls-1" d="M238.35,584.3c1.44.25,2.8.71,4.03,1.52-1.54.02-3.11.1-4.03-1.52Z"/>
  <path class="cls-1" d="M177.78,562.02c1.52-.02,2.8.63,4.05,1.39-1.52.03-3-.04-4.05-1.39Z"/>
  <path class="cls-1" d="M180.82,477.11c-1.42.59-2.9.69-4.41.61,1.32-1.26,2.93-.46,4.41-.61Z"/>
  <path class="cls-1" d="M317.79,633.4c.76-.89,1.55-1.75,2.69-2.17-.42,1.31-1.24,2.13-2.69,2.17Z"/>
  <path class="cls-1" d="M540.79,630.66c.69-.99,1.61-1.68,2.73-2.13-.46,1.29-1.26,2.14-2.73,2.13Z"/>
  <path class="cls-1" d="M323.16,628.61c.42-1.13,1.16-2.02,2.1-2.75.04,1.48-.83,2.27-2.1,2.75Z"/>
  <path class="cls-1" d="M546.84,625.2c.47-1.1,1.23-1.97,2.13-2.73.02,1.48-.83,2.28-2.13,2.73Z"/>
  <path class="cls-1" d="M613.76,581.82c-.44,1.12-1.29,1.92-2.13,2.73-.02-1.47.84-2.27,2.13-2.73Z"/>
  <path class="cls-1" d="M136.97,536.2c.76,1,1.42,2.04,1.49,3.35-1.29-.76-1.48-2.01-1.49-3.35Z"/>
  <path class="cls-1" d="M190.72,566.7c1.29.13,2.47.55,3.53,1.31-1.45.29-2.65-.07-3.53-1.31Z"/>
  <path class="cls-1" d="M371.55,612.36c.72,1.02,1.11,2.18,1.35,3.4-1.56-.69-1.34-2.09-1.35-3.4Z"/>
  <path class="cls-1" d="M332.74,598.94c-.71-1.35-.65-2.82-.66-4.27,1.3,1.26.52,2.84.66,4.27Z"/>
  <path class="cls-1" d="M221.97,578.34c1.34-.03,2.46.56,3.56,1.23-1.43.29-2.62-.11-3.56-1.23Z"/>
  <path class="cls-1" d="M442.27,602.15c-1.46.11-2.89-.02-4.26-.62,1.43.13,2.99-.61,4.26.62Z"/>
  <path class="cls-1" d="M332.83,605.55c0-1.36,0-2.71.01-4.07.96,1.36.97,2.72-.01,4.07Z"/>
  <path class="cls-1" d="M513.34,640.16c1.41-.61,2.89-.68,4.4-.56-1.34,1.16-2.92.44-4.4.56Z"/>
  <path class="cls-1" d="M407.62,639.45c1.41.15,2.89-.13,4.18.73-1.4-.18-2.99.68-4.18-.73Z"/>
  <path class="cls-1" d="M307.51,638.76c1.08-.67,2.2-1.23,3.49-1.35-.85,1.27-2.08,1.55-3.49,1.35Z"/>
  <path class="cls-1" d="M874.06,635.4c1.31.06,2.41.71,3.53,1.29-1.43.26-2.64-.07-3.53-1.29Z"/>
  <path class="cls-1" d="M913.46,600.15c-1.29-.08-2.39-.59-3.37-1.41,1.33-.02,2.53.26,3.37,1.41Z"/>
  <path class="cls-1" d="M795.8,505.73c-.68-1.09-.66-2.31-.63-3.52,1.13,1.01.53,2.33.63,3.52Z"/>
  <path class="cls-1" d="M766.6,478.37c-1.24.08-2.46.04-3.58-.59,1.21.07,2.54-.52,3.58.59Z"/>
  <path class="cls-1" d="M387.88,632.78c1.13,0,1.98.56,2.75,1.32-1.17.09-2.21-.09-2.75-1.32Z"/>
  <path class="cls-1" d="M757.1,549.8c.76-.74,1.68-1.16,2.71-1.36-.52,1.22-1.55,1.41-2.71,1.36Z"/>
  <path class="cls-1" d="M668,595.35c.74-.79,1.72-1.11,2.72-1.39-.49,1.29-1.54,1.45-2.72,1.39Z"/>
  <path class="cls-1" d="M640.83,566.12c-.8.67-1.65,1.24-2.73,1.37.5-1.27,1.55-1.44,2.73-1.37Z"/>
  <path class="cls-1" d="M404.2,638.9c1.21-.09,2.41-.1,3.49.59-1.18-.06-2.48.51-3.49-.59Z"/>
  <path class="cls-1" d="M693.72,582.33c.68-.96,1.68-1.29,2.79-1.41-.59,1.13-1.61,1.44-2.79,1.41Z"/>
  <path class="cls-1" d="M604.85,612.7c.64,1.17.61,2.46.61,3.74-1.17-1.09-.52-2.47-.61-3.74Z"/>
  <path class="cls-1" d="M332.07,611.66c-.04-1.29.07-2.54.66-3.72-.11,1.26.6,2.67-.66,3.72Z"/>
  <path class="cls-1" d="M329.37,585.89c-.72-.79-1.07-1.76-1.32-2.78,1.25.54,1.44,1.59,1.32,2.78Z"/>
  <path class="cls-1" d="M1036.55,606.23c-.06-1.24-.04-2.47.62-3.59-.08,1.22.53,2.55-.62,3.59Z"/>
  <path class="cls-1" d="M555.82,606.23c-.07-1.29-.04-2.56.62-3.74-.09,1.26.57,2.65-.62,3.74Z"/>
  <path class="cls-1" d="M302.07,640.18c1.03-.86,2.31-.58,3.49-.76-.92,1.36-2.3.62-3.49.76Z"/>
  <path class="cls-1" d="M889.01,639.61c1.27-.02,2.57-.22,3.73.54-1.26-.06-2.61.54-3.73-.54Z"/>
  <path class="cls-1" d="M968.06,601.53c-1.12.63-2.34.68-3.58.57,1.05-1.07,2.37-.5,3.58-.57Z"/>
  <path class="cls-1" d="M995.01,640.21c1.05-.8,2.26-.66,3.45-.6-1,1.05-2.29.48-3.45.6Z"/>
  <path class="cls-1" d="M922.99,602.13c-1.29.11-2.56.11-3.73-.58,1.26.07,2.63-.55,3.73.58Z"/>
  <path class="cls-1" d="M487.33,601.53c-1.12.65-2.34.66-3.58.58,1.05-1.09,2.37-.51,3.58-.58Z"/>
  <path class="cls-1" d="M605.4,600.12c.02,1.22.14,2.46-.56,3.58.07-1.21-.5-2.52.56-3.58Z"/>
  <path class="cls-1" d="M984.27,591.98c-.15.9-.66,1.56-1.4,2.06-.05-1.04.4-1.74,1.4-2.06Z"/>
  <path class="cls-1" d="M136.41,504.96c-.06.97-.05,1.95-.76,2.74.07-.96-.42-2.08.76-2.74Z"/>
  <path class="cls-1" d="M325.22,625.91c.23-.86.71-1.52,1.46-2.01,0,1.02-.44,1.72-1.46,2.01Z"/>
  <path class="cls-1" d="M617.04,635.41c.87.19,1.6.6,2.16,1.3-1.09.18-1.79-.29-2.16-1.3Z"/>
  <path class="cls-1" d="M620.52,576.39c-.56.68-1.24,1.18-2.12,1.34.36-1,1.06-1.46,2.12-1.34Z"/>
  <path class="cls-1" d="M1028.84,623.77c.2-.89.72-1.55,1.46-2.06.15,1.14-.24,1.89-1.46,2.06Z"/>
  <path class="cls-1" d="M326.67,623.91c.17-.87.49-1.65,1.29-2.15.13,1.05-.33,1.75-1.29,2.15Z"/>
  <path class="cls-1" d="M986.84,583.8c.06.98.15,1.96-.56,2.78.02-.96-.36-2,.56-2.78Z"/>
  <path class="cls-1" d="M856.44,621.08c.66.56,1.19,1.21,1.49,2.02-1.19-.17-1.58-.92-1.49-2.02Z"/>
  <path class="cls-1" d="M521.49,638.79c.92-.69,1.98-.67,3.05-.59-.86,1.03-2,.57-3.05.59Z"/>
  <path class="cls-1" d="M375.72,621.08c.72.52,1.25,1.17,1.45,2.06-1.13-.23-1.55-.96-1.45-2.06Z"/>
  <path class="cls-1" d="M1031.09,620.5c.17-.86.53-1.63,1.21-2.21.25,1.1-.24,1.79-1.21,2.21Z"/>
  <path class="cls-1" d="M1017.37,633.32c.57-.69,1.29-1.11,2.16-1.29-.39.99-1.08,1.46-2.16,1.29Z"/>
  <path class="cls-1" d="M1007.28,637.49c.75-.7,1.73-.73,2.67-.87-.56,1.3-1.72.75-2.67.87Z"/>
  <path class="cls-1" d="M866.56,631.43c.98-.02,1.54.62,2.08,1.3-.99.05-1.67-.41-2.08-1.3Z"/>
  <path class="cls-1" d="M781.57,537.56c.48-.74,1.09-1.29,1.99-1.47-.28,1.01-.98,1.44-1.99,1.47Z"/>
  <path class="cls-1" d="M882.21,638.17c.97.06,2-.14,2.8.64-.98-.02-2.06.41-2.8-.64Z"/>
  <path class="cls-1" d="M550.34,620.49c.13-.9.56-1.62,1.25-2.19.23,1.1-.25,1.8-1.25,2.19Z"/>
  <path class="cls-1" d="M779.45,538.87c.49-.79,1.23-1.16,2.12-1.3-.41.92-1.1,1.39-2.12,1.3Z"/>
  <path class="cls-1" d="M325.99,579.73c-.71-.5-1.24-1.14-1.52-1.97,1.09.21,1.5.94,1.52,1.97Z"/>
  <path class="cls-1" d="M175.38,477.8c-.94.59-1.98.7-3.05.61.85-1.06,2-.58,3.05-.61Z"/>
  <path class="cls-1" d="M618.44,577.71c-.47.75-1.17,1.22-1.98,1.52.17-1.14.92-1.54,1.98-1.52Z"/>
  <path class="cls-1" d="M138.42,539.48c.66.56,1.18,1.23,1.44,2.07-1.12-.25-1.54-.98-1.44-2.07Z"/>
  <path class="cls-1" d="M773.38,479.83c-.96-.22-2.02-.04-2.88-.69,1.01.03,2.14-.44,2.88.69Z"/>
  <path class="cls-1" d="M754.86,550.98c.61-.65,1.33-1.08,2.23-1.17-.45.95-1.14,1.45-2.23,1.17Z"/>
  <path class="cls-1" d="M795.15,517.84c-.06-1.07-.02-2.13.61-3.06-.03,1.05.45,2.21-.61,3.06Z"/>
  <path class="cls-1" d="M884.95,638.78c.99.1,2.05-.09,2.86.71-1-.04-2.14.45-2.86-.71Z"/>
  <path class="cls-1" d="M429.35,598.75c-.93-.06-1.6-.57-2.14-1.28,1.04-.12,1.73.35,2.14,1.28Z"/>
  <path class="cls-1" d="M506.16,583.12c.08,1.05.09,2.09-.57,3.01,0-1.04-.43-2.16.57-3.01Z"/>
  <path class="cls-1" d="M615.05,633.97c.85.24,1.57.68,2.03,1.46-1.05.03-1.77-.39-2.03-1.46Z"/>
  <path class="cls-1" d="M1035.79,609.61c-.01-1.02,0-2.04.69-2.9-.03,1.01.46,2.15-.69,2.9Z"/>
  <path class="cls-1" d="M555.03,609.6c.02-1.02.09-2.02.73-2.89-.04,1.01.47,2.16-.73,2.89Z"/>
  <path class="cls-1" d="M980.18,596.76c-.45.82-1.21,1.19-2.08,1.38.34-.99,1.04-1.44,2.08-1.38Z"/>
  <path class="cls-1" d="M850.3,604.68c.65.88.68,1.88.62,2.91-1.03-.79-.6-1.9-.62-2.91Z"/>
  <path class="cls-1" d="M141.2,495.47c-.24.85-.71,1.55-1.43,2.07-.09-1.08.34-1.8,1.43-2.07Z"/>
  <path class="cls-1" d="M1002.26,638.79c.89-.71,1.96-.58,2.99-.66-.79,1.14-1.95.64-2.99.66Z"/>
  <path class="cls-1" d="M499.43,596.74c-.43.83-1.2,1.18-2.05,1.4.33-.99,1.03-1.43,2.05-1.4Z"/>
  <path class="cls-1" d="M171.86,478.47c-.86.66-1.87.72-2.9.69.75-1.14,1.89-.65,2.9-.69Z"/>
  <path class="cls-1" d="M999.09,639.53c.81-.73,1.79-.69,2.78-.64-.75.99-1.82.58-2.78.64Z"/>
  <path class="cls-1" d="M152.05,485.97c-.55.7-1.25,1.16-2.13,1.35.35-1.01,1.06-1.47,2.13-1.35Z"/>
  <path class="cls-1" d="M696.44,580.97c.52-.78,1.25-1.18,2.18-1.25-.43.93-1.12,1.41-2.18,1.25Z"/>
  <path class="cls-1" d="M626.54,639.59c1-.07,2.01-.15,2.84.59-.98-.03-2.05.37-2.84-.59Z"/>
  <path class="cls-1" d="M1021.52,630.67c.46-.76,1.13-1.27,1.98-1.54-.15,1.17-.9,1.56-1.98,1.54Z"/>
  <path class="cls-1" d="M610.26,628.61c.71.5,1.26,1.13,1.54,1.97-1.17-.15-1.55-.9-1.54-1.97Z"/>
  <path class="cls-1" d="M135.67,507.66c-.04,1.05.03,2.13-.66,3.04.04-1.05-.48-2.23.66-3.04Z"/>
  <path class="cls-1" d="M142.5,545.44c.89.26,1.56.79,1.98,1.62-1.09-.01-1.82-.47-1.98-1.62Z"/>
  <path class="cls-1" d="M789.59,530.02c.26-.84.67-1.58,1.4-2.11.13,1.1-.31,1.82-1.4,2.11Z"/>
  <path class="cls-1" d="M390.61,634.08c.94.1,1.71.53,2.27,1.3-1.09.14-1.85-.27-2.27-1.3Z"/>
  <path class="cls-1" d="M383.85,629.91c.88.2,1.54.7,2.02,1.46-1.03.02-1.75-.42-2.02-1.46Z"/>
  <path class="cls-1" d="M149.96,487.29c-.51.72-1.18,1.23-2.05,1.45.27-1.07.99-1.5,2.05-1.45Z"/>
  <path class="cls-1" d="M903.88,593.41c-.73-.54-1.24-1.2-1.28-2.15.92.42,1.39,1.11,1.28,2.15Z"/>
  <path class="cls-1" d="M971.43,600.85c-.87.62-1.84.78-2.88.64.78-1.04,1.88-.62,2.88-.64Z"/>
  <path class="cls-1" d="M490.69,600.84c-.87.6-1.84.75-2.87.64.77-1.03,1.87-.61,2.87-.64Z"/>
  <path class="cls-1" d="M608.97,626.5c.66.58,1.24,1.21,1.31,2.15-1.01-.37-1.48-1.07-1.31-2.15Z"/>
  <path class="cls-1" d="M369.56,604.76c.68.84.59,1.85.65,2.83-1.02-.76-.6-1.85-.65-2.83Z"/>
  <path class="cls-1" d="M899.92,479.76c-.19-.68-.19-1.35,0-2.03.83.67.83,1.35,0,2.03Z"/>
  <path class="cls-1" d="M770,479.06c-.85.06-1.66-.01-2.36-.57.84-.04,1.74-.28,2.36.57Z"/>
  <path class="cls-1" d="M169.01,479.14c-.6.57-1.35.54-2.1.53.56-.73,1.35-.56,2.1-.53Z"/>
  <path class="cls-1" d="M166.42,479.83c-.63.6-1.4.74-2.23.68.53-.93,1.41-.71,2.23-.68Z"/>
  <path class="cls-1" d="M775.43,480.5c-.79.06-1.54,0-2.09-.69.78-.03,1.61-.19,2.09.69Z"/>
  <path class="cls-1" d="M164.24,480.49c-.6.55-1.34.62-2.1.66.5-.85,1.32-.69,2.1-.66Z"/>
  <path class="cls-1" d="M777.45,481.23c-.8.06-1.48-.2-2.07-.74.78-.02,1.63-.2,2.07.74Z"/>
  <path class="cls-1" d="M605.54,616.77c.59.69.61,1.53.59,2.38-.87-.63-.63-1.53-.59-2.38Z"/>
  <path class="cls-1" d="M606.23,619.49c.64.66.69,1.49.72,2.34-1.04-.53-.75-1.48-.72-2.34Z"/>
  <path class="cls-1" d="M607.5,623.23c.61.52.78,1.22.84,1.97-.99-.36-.81-1.21-.84-1.97Z"/>
  <path class="cls-1" d="M864.6,629.88c.82.14,1.28.69,1.56,1.42-.87-.09-1.39-.57-1.56-1.42Z"/>
  <path class="cls-1" d="M385.85,631.36c.85.05,1.35.54,1.63,1.3-.84-.06-1.34-.55-1.63-1.3Z"/>
  <path class="cls-1" d="M612.97,632.02c.64.27,1.13.7,1.43,1.35-.96.06-1.43-.39-1.43-1.35Z"/>
  <path class="cls-1" d="M1011.33,636.11c.5-.68,1.29-.68,2-.85-.33,1.08-1.22.85-2,.85Z"/>
  <path class="cls-1" d="M394.77,635.94c.73.14,1.52.15,2.04.82-.8.03-1.69.27-2.04-.82Z"/>
  <path class="cls-1" d="M528.59,636.81c.52-.7,1.3-.67,2.06-.72-.46.88-1.29.71-2.06.72Z"/>
  <path class="cls-1" d="M396.75,636.73c.77.05,1.55.03,2.13.68-.81.08-1.65.28-2.13-.68Z"/>
  <path class="cls-1" d="M526.57,637.5c.55-.61,1.27-.72,2.04-.71-.47.84-1.28.69-2.04.71Z"/>
  <path class="cls-1" d="M877.51,636.64c.8.13,1.63.17,2.26.78-.85.03-1.8.33-2.26-.78Z"/>
  <path class="cls-1" d="M759.82,548.44c.48-.68,1.22-.76,1.95-.87-.33,1.01-1.19.82-1.95.87Z"/>
  <path class="cls-1" d="M398.81,637.36c.78.09,1.61.04,2.17.76-.82.02-1.72.26-2.17-.76Z"/>
  <path class="cls-1" d="M620.48,637.35c.73.11,1.45.24,1.97.85-.76-.04-1.62.14-1.97-.85Z"/>
  <path class="cls-1" d="M880.17,637.55c.75-.02,1.52-.06,2.06.62-.75,0-1.54.15-2.06-.62Z"/>
  <path class="cls-1" d="M1005.21,638.15c.55-.7,1.33-.67,2.1-.66-.5.84-1.32.68-2.1.66Z"/>
  <path class="cls-1" d="M401.48,638.23c.81-.09,1.62-.18,2.21.58-.8.04-1.63.22-2.21-.58Z"/>
  <path class="cls-1" d="M305.49,639.47c.53-.73,1.34-.66,2.1-.74-.43,1.01-1.29.8-2.1.74Z"/>
  <path class="cls-1" d="M518.92,639.48c.59-.77,1.42-.63,2.22-.61-.57.84-1.42.65-2.22.61Z"/>
  <path class="cls-1" d="M623.89,638.68c.76.15,1.61.07,2.15.8-.82.02-1.74.28-2.15-.8Z"/>
  <path class="cls-1" d="M159.42,555.26c.78-.09,1.5,0,2.05.64-.75-.01-1.54.14-2.05-.64Z"/>
  <path class="cls-1" d="M793.8,497.45c-.58-.53-.78-1.23-.84-1.98.99.36.81,1.22.84,1.98Z"/>
  <path class="cls-1" d="M162.85,556.48c.76.07,1.56.03,2.1.72-.8.04-1.65.24-2.1-.72Z"/>
  <path class="cls-1" d="M794.48,499.49c-.61-.56-.74-1.27-.68-2.05.81.49.67,1.29.68,2.05Z"/>
  <path class="cls-1" d="M164.89,557.17c.75.07,1.52.09,2.05.75-.78,0-1.62.18-2.05-.75Z"/>
  <path class="cls-1" d="M138.55,499.58c-.14.73-.22,1.48-.88,1.97.03-.77-.2-1.67.88-1.97Z"/>
  <path class="cls-1" d="M795.09,501.73c-.61-.64-.67-1.43-.62-2.24.86.57.66,1.43.62,2.24Z"/>
  <path class="cls-1" d="M166.91,557.91c.75.03,1.47.14,2.01.73-.75-.03-1.56.12-2.01-.73Z"/>
  <path class="cls-1" d="M137,502.89c0,.77.08,1.57-.63,2.14-.06-.79-.24-1.62.63-2.14Z"/>
  <path class="cls-1" d="M170.33,559.19c.77.03,1.52.12,2.08.75-.79.02-1.65.22-2.08-.75Z"/>
  <path class="cls-1" d="M175.82,561.15c.76.06,1.47.23,1.97.88-.77-.04-1.65.18-1.97-.88Z"/>
  <path class="cls-1" d="M183.27,563.92c.75.1,1.54.08,2.04.8-.78,0-1.65.21-2.04-.8Z"/>
  <path class="cls-1" d="M185.27,564.69c.75.03,1.47.14,2.01.75-.75-.03-1.57.12-2.01-.75Z"/>
  <path class="cls-1" d="M188.68,566.01c.76.07,1.56,0,2.1.72-.79.04-1.64.23-2.1-.72Z"/>
  <path class="cls-1" d="M793.72,522.57c-.04-.79.18-1.48.75-2.04,0,.77.16,1.6-.75,2.04Z"/>
  <path class="cls-1" d="M194.18,567.95c.73.14,1.52.15,2.04.82-.8.02-1.69.26-2.04-.82Z"/>
  <path class="cls-1" d="M196.16,568.74c.77.01,1.51.1,2.02.77-.76-.02-1.6.15-2.02-.77Z"/>
  <path class="cls-1" d="M199.57,570.06c.75.12,1.57,0,2.13.7-.81.08-1.67.29-2.13-.7Z"/>
  <path class="cls-1" d="M316.39,571.08c-.68-.23-1.42-.33-1.96-.88.77.04,1.65-.17,1.96.88Z"/>
  <path class="cls-1" d="M201.63,570.72c.75.1,1.54.08,2.04.8-.78,0-1.65.21-2.04-.8Z"/>
  <path class="cls-1" d="M205.05,572.04c.75.13,1.56.07,2.13.73-.83.11-1.71.37-2.13-.73Z"/>
  <path class="cls-1" d="M207.09,572.71c.74.13,1.52.16,2.05.82-.8.02-1.69.26-2.05-.82Z"/>
  <path class="cls-1" d="M209.08,573.5c.76.02,1.47.18,2.01.78-.76-.03-1.59.14-2.01-.78Z"/>
  <path class="cls-1" d="M212.54,574.74c.73.15,1.54.11,2.06.82-.8.03-1.7.28-2.06-.82Z"/>
  <path class="cls-1" d="M216.53,576.35c.77-.1,1.48.01,2.01.66-.73-.04-1.52.11-2.01-.66Z"/>
  <path class="cls-1" d="M219.98,577.53c.76.04,1.5.15,2,.82-.77-.03-1.62.16-2-.82Z"/>
  <path class="cls-1" d="M225.45,579.51c.75.1,1.49.2,2,.86-.78-.02-1.66.2-2-.86Z"/>
  <path class="cls-1" d="M794.46,520.55c-.05-.82.06-1.59.63-2.23.04.82.24,1.68-.63,2.23Z"/>
  <path class="cls-1" d="M227.42,580.36c.77-.01,1.52.02,2.05.7-.76-.01-1.58.15-2.05-.7Z"/>
  <path class="cls-1" d="M135.03,529.96c.56.62.6,1.38.58,2.16-.83-.55-.66-1.37-.58-2.16Z"/>
  <path class="cls-1" d="M229.45,581.05c.76-.01,1.49.06,2.01.71-.74-.04-1.55.11-2.01-.71Z"/>
  <path class="cls-1" d="M420.42,587.53c-.67-.68-.69-1.51-.59-2.38.87.63.63,1.53.59,2.38Z"/>
  <path class="cls-1" d="M901.15,587.53c-.62-.69-.67-1.51-.55-2.37.83.64.59,1.53.55,2.37Z"/>
  <path class="cls-1" d="M505.5,586.52c.09.82.05,1.6-.61,2.22-.04-.81-.23-1.65.61-2.22Z"/>
  <path class="cls-1" d="M986.3,586.54c.02.84,0,1.67-.66,2.31-.04-.85-.29-1.75.66-2.31Z"/>
  <path class="cls-1" d="M245.78,587.14c.76.02,1.57-.07,2.08.69-.77.01-1.6.18-2.08-.69Z"/>
  <path class="cls-1" d="M135.69,532.46c.54.68.59,1.52.78,2.31-1.11-.48-.78-1.45-.78-2.31Z"/>
  <path class="cls-1" d="M330.68,589.34c-.68-.55-.69-1.33-.73-2.1.98.44.78,1.3.73,2.1Z"/>
  <path class="cls-1" d="M247.83,587.81c.75.03,1.47.14,2.01.75-.75-.03-1.57.12-2.01-.75Z"/>
  <path class="cls-1" d="M421.19,589.92c-.65-.54-.73-1.27-.67-2.04.8.49.66,1.29.67,2.04Z"/>
  <path class="cls-1" d="M251.23,589.15c.75.07,1.56-.04,2.07.73-.78.01-1.62.19-2.07-.73Z"/>
  <path class="cls-1" d="M331.36,591.52c-.62-.63-.68-1.44-.71-2.25.99.51.75,1.41.71,2.25Z"/>
  <path class="cls-1" d="M902.6,591.26c-.65-.5-.79-1.21-.84-1.97.97.36.8,1.21.84,1.97Z"/>
  <path class="cls-1" d="M256.73,591.06c.75.11,1.52.15,2.04.82-.8.02-1.69.26-2.04-.82Z"/>
  <path class="cls-1" d="M258.72,591.85c.77.01,1.52.1,2.07.74-.78,0-1.62.19-2.07-.74Z"/>
  <path class="cls-1" d="M332.04,594.33c-.57-.7-.7-1.51-.59-2.38.88.62.63,1.53.59,2.38Z"/>
  <path class="cls-1" d="M607.62,591.99c-.04.77-.06,1.54-.74,2.08-.03-.79-.22-1.64.74-2.08Z"/>
  <path class="cls-1" d="M262.13,593.17c.75.1,1.57,0,2.12.71-.81.07-1.67.3-2.12-.71Z"/>
  <path class="cls-1" d="M264.18,593.84c.77.02,1.46.24,1.98.84-.76-.04-1.62.15-1.98-.84Z"/>
  <path class="cls-1" d="M606.9,594.02c-.06.83-.13,1.66-.68,2.35-.03-.86-.31-1.79.68-2.35Z"/>
  <path class="cls-1" d="M606.14,596.71c.03.85,0,1.68-.59,2.38-.04-.85-.28-1.75.59-2.38Z"/>
  <path class="cls-1" d="M432.74,600.16c-.78.09-1.47-.07-1.95-.76.73.06,1.52-.07,1.95.76Z"/>
  <path class="cls-1" d="M434.8,600.82c-.79.07-1.48-.18-2.09-.68.78-.02,1.59-.16,2.09.68Z"/>
  <path class="cls-1" d="M915.52,600.81c-.8.09-1.49-.15-2.09-.67.77-.02,1.59-.16,2.09.67Z"/>
  <path class="cls-1" d="M437.51,601.46c-.87.13-1.67,0-2.37-.58.84-.04,1.74-.28,2.37.58Z"/>
  <path class="cls-1" d="M918.23,601.45c-.85.06-1.65-.06-2.36-.57.84-.04,1.73-.28,2.36.57Z"/>
  <path class="cls-1" d="M370.29,607.93c.67.68.59,1.53.55,2.37-.84-.64-.6-1.53-.55-2.37Z"/>
  <path class="cls-1" d="M851,607.93c.57.69.64,1.52.64,2.36-.93-.6-.67-1.51-.64-2.36Z"/>
  <path class="cls-1" d="M771.97,542.27c.54-.72,1.33-.67,2.09-.7-.48.89-1.31.72-2.09.7Z"/>
  <path class="cls-1" d="M554.42,611.66c-.06-.79,0-1.55.65-2.13.06.79.24,1.62-.65,2.13Z"/>
  <path class="cls-1" d="M1035.16,611.66c-.03-.78-.01-1.54.65-2.11.04.78.2,1.6-.65,2.11Z"/>
  <path class="cls-1" d="M851.63,610.27c.55.59.74,1.29.67,2.08-.84-.5-.68-1.31-.67-2.08Z"/>
  <path class="cls-1" d="M331.44,613.71c-.05-.78.13-1.49.64-2.1.03.77.17,1.58-.64,2.1Z"/>
  <path class="cls-1" d="M553.68,613.68c-.05-.79.21-1.48.75-2.06.01.78.18,1.62-.75,2.06Z"/>
  <path class="cls-1" d="M1034.44,613.69c-.02-.77.06-1.51.73-2.05,0,.77.15,1.59-.73,2.05Z"/>
  <path class="cls-1" d="M852.3,612.33c.57.57.71,1.28.73,2.04-.88-.45-.72-1.28-.73-2.04Z"/>
  <path class="cls-1" d="M552.24,617.03c.15-.71.29-1.43.86-1.96-.04.76.15,1.63-.86,1.96Z"/>
  <path class="cls-1" d="M1033.02,617.06c.05-.75.21-1.46.81-1.99-.03.76.14,1.6-.81,1.99Z"/>
  <path class="cls-1" d="M329.95,617.74c.03-.76.22-1.46.81-2-.02.77.15,1.61-.81,2Z"/>
  <path class="cls-1" d="M162.16,481.14c-.36.44-.8.69-1.38.61.32-.53.83-.62,1.38-.61Z"/>
  <path class="cls-1" d="M778.84,481.81c-.58.03-1.09-.14-1.46-.61.6-.07,1.14,0,1.46.61Z"/>
  <path class="cls-1" d="M160.31,481.88c-.41.54-1.01.52-1.59.56.39-.58.98-.62,1.59-.56Z"/>
  <path class="cls-1" d="M780.22,482.44c-.55-.02-1.04-.16-1.38-.63.56,0,1.07.11,1.38.63Z"/>
  <path class="cls-1" d="M158.68,482.46c-.28.53-.76.69-1.31.68.29-.52.78-.65,1.31-.68Z"/>
  <path class="cls-1" d="M781.55,483.2c-.58.01-1.03-.21-1.3-.74.55.03,1.05.18,1.3.74Z"/>
  <path class="cls-1" d="M157.34,483.15c-.31.49-.76.71-1.34.68.29-.53.79-.65,1.34-.68Z"/>
  <path class="cls-1" d="M782.88,483.96c-.57-.05-1.05-.26-1.35-.77.6,0,1.14.1,1.35.77Z"/>
  <path class="cls-1" d="M155.99,483.83c-.33.45-.77.7-1.35.66.3-.52.8-.64,1.35-.66Z"/>
  <path class="cls-1" d="M1014.66,634.69c.31-.6.89-.62,1.46-.67-.28.67-.83.75-1.46.67Z"/>
  <path class="cls-1" d="M154.62,484.5c-.32.47-.81.61-1.34.66.3-.52.79-.64,1.34-.66Z"/>
  <path class="cls-1" d="M784.9,485.35c-.55-.08-.99-.33-1.24-.85.58.05,1.08.21,1.24.85Z"/>
  <path class="cls-1" d="M153.26,485.18c-.22.58-.7.78-1.27.82.19-.63.7-.78,1.27-.82Z"/>
  <path class="cls-1" d="M872.7,634.74c.57.02,1.1.12,1.41.69-.6.03-1.12-.08-1.41-.69Z"/>
  <path class="cls-1" d="M1013.26,635.31c.35-.53.9-.62,1.47-.67-.26.74-.82.8-1.47.67Z"/>
  <path class="cls-1" d="M313.67,636.08c.27-.59.82-.7,1.38-.78-.2.73-.75.82-1.38.78Z"/>
  <path class="cls-1" d="M393.32,635.5c.59-.08,1.14-.07,1.52.49-.61.14-1.15.11-1.52-.49Z"/>
  <path class="cls-1" d="M791.08,492c-.56-.25-.75-.74-.83-1.3.66.19.81.7.83,1.3Z"/>
  <path class="cls-1" d="M655.23,558.75c-.29.59-.85.69-1.42.74.21-.75.78-.82,1.42-.74Z"/>
  <path class="cls-1" d="M792.36,494.15c-.52-.32-.68-.84-.76-1.39.73.2.82.76.76,1.39Z"/>
  <path class="cls-1" d="M793.01,495.54c-.57-.32-.68-.86-.68-1.45.7.26.77.82.68,1.45Z"/>
  <path class="cls-1" d="M168.93,558.64c.58-.03,1.11.06,1.48.58-.6.07-1.14.01-1.48-.58Z"/>
  <path class="cls-1" d="M139.8,497.48c-.04.57-.22,1.06-.79,1.32.02-.58.16-1.1.79-1.32Z"/>
  <path class="cls-1" d="M985.51,589.24c.04.57-.02,1.1-.58,1.43-.05-.58.03-1.1.58-1.43Z"/>
  <path class="cls-1" d="M137.68,501.53c.02.59-.19,1.05-.69,1.38,0-.58.11-1.1.69-1.38Z"/>
  <path class="cls-1" d="M735.31,517.83c-.33.47-.77.72-1.35.67.3-.53.8-.65,1.35-.67Z"/>
  <path class="cls-1" d="M733.95,518.51c-.34.44-.78.68-1.34.67.3-.52.8-.64,1.34-.67Z"/>
  <path class="cls-1" d="M732.58,519.18c-.31.48-.73.75-1.32.72.26-.56.76-.69,1.32-.72Z"/>
  <path class="cls-1" d="M731.28,519.9c-.33.56-.95.34-1.42.53.37-.46.88-.55,1.42-.53Z"/>
  <path class="cls-1" d="M729.78,520.51c-.2.62-.68.75-1.25.74.25-.53.72-.68,1.25-.74Z"/>
  <path class="cls-1" d="M728.54,521.25c-.33.47-.76.74-1.36.72.27-.59.78-.71,1.36-.72Z"/>
  <path class="cls-1" d="M727.22,521.95c-.33.5-.81.72-1.4.69.29-.59.81-.7,1.4-.69Z"/>
  <path class="cls-1" d="M725.86,522.63c-.34.48-.82.67-1.38.71.27-.6.8-.72,1.38-.71Z"/>
  <path class="cls-1" d="M724.51,523.31c-.28.59-.79.74-1.39.73.25-.65.79-.75,1.39-.73Z"/>
  <path class="cls-1" d="M723.18,524.02c-.33.52-.84.69-1.41.71.26-.66.8-.75,1.41-.71Z"/>
  <path class="cls-1" d="M721.82,524.7c-.31.55-.8.76-1.41.72.25-.67.8-.76,1.41-.72Z"/>
  <path class="cls-1" d="M720.47,525.39c-.36.51-.93.51-1.46.62.32-.61.86-.68,1.46-.62Z"/>
  <path class="cls-1" d="M719.02,526c-.21.64-.74.77-1.32.81.21-.65.73-.79,1.32-.81Z"/>
  <path class="cls-1" d="M717.77,526.77c-.31.56-.84.7-1.42.74.23-.72.79-.8,1.42-.74Z"/>
  <path class="cls-1" d="M790.94,527.97c.07-.56.3-1.03.81-1.32-.01.6-.12,1.14-.81,1.32Z"/>
  <path class="cls-1" d="M716.42,527.46c-.31.56-.85.68-1.42.74.22-.73.78-.81,1.42-.74Z"/>
  <path class="cls-1" d="M715.07,528.15c-.29.59-.85.69-1.42.74.21-.75.78-.82,1.42-.74Z"/>
  <path class="cls-1" d="M713.72,528.84c-.29.6-.85.69-1.43.74.21-.76.78-.83,1.43-.74Z"/>
  <path class="cls-1" d="M712.36,529.52c-.3.6-.86.68-1.43.73.21-.76.78-.83,1.43-.73Z"/>
  <path class="cls-1" d="M711,530.2c-.31.57-.82.75-1.43.74.21-.77.78-.84,1.43-.74Z"/>
  <path class="cls-1" d="M253.27,589.85c.61,0,1.19.07,1.54.67-.63.05-1.22,0-1.54-.67Z"/>
  <path class="cls-1" d="M709.65,530.9c-.37.49-.93.55-1.48.66.27-.71.83-.77,1.48-.66Z"/>
  <path class="cls-1" d="M1009.87,636.68c.36-.55.93-.58,1.5-.59-.32.66-.87.72-1.5.59Z"/>
  <path class="cls-1" d="M310.94,637.44c.33-.53.87-.63,1.43-.68-.28.65-.82.73-1.43.68Z"/>
  <path class="cls-1" d="M707.41,532.1c-.32.46-.76.69-1.32.68.29-.52.78-.64,1.32-.68Z"/>
  <path class="cls-1" d="M706.06,532.78c-.31.49-.76.71-1.34.68.29-.53.79-.65,1.34-.68Z"/>
  <path class="cls-1" d="M704.71,533.47c-.34.45-.75.73-1.34.68.29-.53.79-.66,1.34-.68Z"/>
  <path class="cls-1" d="M703.36,534.15c-.35.43-.73.78-1.34.7.28-.56.78-.68,1.34-.7Z"/>
  <path class="cls-1" d="M136.42,534.69c.55.37.58.93.55,1.51-.61-.35-.66-.9-.55-1.51Z"/>
  <path class="cls-1" d="M702.03,534.85c-.37.41-.8.69-1.38.66.3-.54.82-.66,1.38-.66Z"/>
  <path class="cls-1" d="M700.64,535.51c-.32.47-.75.74-1.34.72.27-.57.77-.69,1.34-.72Z"/>
  <path class="cls-1" d="M421.87,591.28c-.5-.32-.72-.78-.68-1.36.55.29.67.8.68,1.36Z"/>
  <path class="cls-1" d="M699.33,536.22c-.34.51-.86.58-1.41.6.34-.51.85-.62,1.41-.6Z"/>
  <path class="cls-1" d="M697.87,536.85c-.29.5-.72.73-1.29.72.26-.54.75-.67,1.29-.72Z"/>
  <path class="cls-1" d="M696.58,537.56c-.31.5-.78.71-1.36.71.28-.57.79-.7,1.36-.71Z"/>
  <path class="cls-1" d="M695.25,538.26c-.31.52-.79.71-1.37.72.27-.6.79-.72,1.37-.72Z"/>
  <path class="cls-1" d="M693.91,538.96c-.31.53-.81.71-1.39.73.25-.65.79-.75,1.39-.73Z"/>
  <path class="cls-1" d="M778.17,539.6c.28-.53.77-.71,1.32-.77-.24.61-.75.75-1.32.77Z"/>
  <path class="cls-1" d="M692.58,539.65c-.32.54-.8.75-1.41.72.25-.67.8-.75,1.41-.72Z"/>
  <path class="cls-1" d="M776.76,540.25c.3-.58.85-.63,1.41-.64-.31.56-.84.66-1.41.64Z"/>
  <path class="cls-1" d="M691.23,540.34c-.35.48-.86.65-1.41.73.24-.68.8-.77,1.41-.73Z"/>
  <path class="cls-1" d="M775.37,540.9c.32-.54.85-.65,1.42-.68-.28.63-.82.71-1.42.68Z"/>
  <path class="cls-1" d="M689.87,541.03c-.27.62-.83.7-1.41.73.24-.7.79-.78,1.41-.73Z"/>
  <path class="cls-1" d="M774.02,541.6c.31-.53.81-.72,1.4-.72-.25.65-.8.74-1.4.72Z"/>
  <path class="cls-1" d="M677.47,590.55c.31-.53.81-.7,1.38-.75-.23.67-.78.76-1.38.75Z"/>
  <path class="cls-1" d="M688.53,541.72c-.3.57-.83.7-1.41.75.22-.72.78-.81,1.41-.75Z"/>
  <path class="cls-1" d="M140.37,542.31c.53.26.74.74.83,1.29-.67-.18-.81-.7-.83-1.29Z"/>
  <path class="cls-1" d="M687.19,542.42c-.31.59-.86.69-1.45.7.25-.71.81-.78,1.45-.7Z"/>
  <path class="cls-1" d="M770.63,542.96c.32-.53.81-.72,1.4-.71-.26.64-.8.73-1.4.71Z"/>
  <path class="cls-1" d="M685.81,543.09c-.32.53-.84.69-1.42.74.23-.72.79-.8,1.42-.74Z"/>
  <path class="cls-1" d="M769.25,543.62c.32-.53.84-.67,1.42-.69-.27.64-.82.72-1.42.69Z"/>
  <path class="cls-1" d="M619.13,636.66c.57.06,1.12.16,1.42.74-.64.08-1.21,0-1.42-.74Z"/>
  <path class="cls-1" d="M684.46,543.78c-.31.54-.85.68-1.41.76.2-.75.77-.83,1.41-.76Z"/>
  <path class="cls-1" d="M767.89,544.3c.33-.52.83-.7,1.41-.71-.26.65-.81.74-1.41.71Z"/>
  <path class="cls-1" d="M255.29,590.64c.59-.09,1.14-.08,1.52.48-.6.14-1.15.1-1.52-.48Z"/>
  <path class="cls-1" d="M683.13,544.48c-.3.6-.86.68-1.43.73.21-.76.78-.83,1.43-.73Z"/>
  <path class="cls-1" d="M766.55,545c.29-.57.8-.72,1.39-.72-.26.62-.79.74-1.39.72Z"/>
  <path class="cls-1" d="M681.77,545.16c-.3.57-.83.72-1.4.78.17-.8.74-.87,1.4-.78Z"/>
  <path class="cls-1" d="M765.25,545.72c.29-.53.77-.72,1.33-.74-.25.59-.76.72-1.33.74Z"/>
  <path class="cls-1" d="M680.44,545.89c-.33.55-.89.64-1.45.71.22-.79.79-.84,1.45-.71Z"/>
  <path class="cls-1" d="M763.85,546.38c.29-.59.83-.64,1.4-.66-.31.55-.82.66-1.4.66Z"/>
  <path class="cls-1" d="M739.99,558.57c.3-.59.86-.65,1.43-.7-.27.66-.82.74-1.43.7Z"/>
  <path class="cls-1" d="M762.52,547.07c.29-.56.8-.68,1.36-.71-.28.58-.79.7-1.36.71Z"/>
  <path class="cls-1" d="M656.58,558.05c-.31.56-.84.69-1.41.75.22-.73.78-.81,1.41-.75Z"/>
  <path class="cls-1" d="M504.11,590.6c.04.57-.11,1.05-.64,1.35,0-.55.11-1.05.64-1.35Z"/>
  <path class="cls-1" d="M525,638.11c.37-.62.96-.66,1.58-.61-.36.63-.96.67-1.58.61Z"/>
  <path class="cls-1" d="M608.26,590.62c0,.59-.15,1.1-.68,1.44-.06-.62.02-1.16.68-1.44Z"/>
  <path class="cls-1" d="M676.82,547.74c-.33.46-.76.7-1.34.67.3-.52.79-.64,1.34-.67Z"/>
  <path class="cls-1" d="M675.46,548.42c-.33.47-.8.62-1.34.64.31-.49.81-.61,1.34-.64Z"/>
  <path class="cls-1" d="M674.06,549.08c-.28.5-.71.74-1.29.7.27-.52.76-.65,1.29-.7Z"/>
  <path class="cls-1" d="M672.75,549.79c-.34.44-.77.71-1.34.69.29-.54.79-.66,1.34-.69Z"/>
  <path class="cls-1" d="M671.41,550.47c-.31.49-.76.73-1.35.71.27-.57.78-.69,1.35-.71Z"/>
  <path class="cls-1" d="M670.08,551.17c-.33.5-.81.67-1.38.68.29-.57.81-.68,1.38-.68Z"/>
  <path class="cls-1" d="M753.51,551.68c.33-.51.86-.65,1.42-.76-.17.82-.75.87-1.42.76Z"/>
  <path class="cls-1" d="M668.71,551.85c-.3.53-.77.74-1.36.72.27-.59.78-.71,1.36-.72Z"/>
  <path class="cls-1" d="M752.15,552.36c.34-.52.87-.66,1.44-.74-.2.8-.77.85-1.44.74Z"/>
  <path class="cls-1" d="M676.1,591.23c.3-.57.83-.68,1.41-.69-.27.64-.81.72-1.41.69Z"/>
  <path class="cls-1" d="M984.96,590.62c0,.59-.15,1.1-.71,1.4-.03-.61.06-1.15.71-1.4Z"/>
  <path class="cls-1" d="M702.66,577.65c.3-.58.8-.69,1.39-.61-.32.53-.83.62-1.39.61Z"/>
  <path class="cls-1" d="M688.24,585c.34-.52.87-.65,1.44-.73-.2.8-.77.85-1.44.73Z"/>
  <path class="cls-1" d="M673.4,592.6c.3-.56.82-.68,1.39-.7-.28.6-.81.71-1.39.7Z"/>
  <path class="cls-1" d="M741.37,557.9c.28-.58.81-.71,1.39-.75-.23.69-.78.78-1.39.75Z"/>
  <path class="cls-1" d="M260.74,592.58c.6-.04,1.14.05,1.46.64-.61.07-1.16,0-1.46-.64Z"/>
  <path class="cls-1" d="M622.46,638.2c.58-.03,1.15-.03,1.52.54-.61.12-1.16.07-1.52-.54Z"/>
  <path class="cls-1" d="M502.95,592.71c-.08.56-.24,1.07-.81,1.34,0-.61.1-1.16.81-1.34Z"/>
  <path class="cls-1" d="M672.09,593.31c.31-.49.77-.72,1.35-.73-.26.59-.77.71-1.35.73Z"/>
  <path class="cls-1" d="M657.91,557.34c-.33.51-.83.7-1.4.75.23-.7.78-.79,1.4-.75Z"/>
  <path class="cls-1" d="M742.7,557.19c.31-.56.86-.67,1.42-.72-.24.7-.8.78-1.42.72Z"/>
  <path class="cls-1" d="M670.7,593.97c.29-.58.82-.67,1.39-.66-.3.56-.82.67-1.39.66Z"/>
  <path class="cls-1" d="M705.37,576.29c.3-.57.81-.69,1.39-.69-.29.59-.81.7-1.39.69Z"/>
  <path class="cls-1" d="M611.12,585.27c-.11.55-.3,1.05-.84,1.33-.03-.64.07-1.2.84-1.33Z"/>
  <path class="cls-1" d="M422.57,592.6c-.48-.31-.72-.75-.7-1.33.55.28.68.77.7,1.33Z"/>
  <path class="cls-1" d="M686.89,585.69c.33-.53.86-.67,1.43-.75-.19.79-.77.85-1.43.75Z"/>
  <path class="cls-1" d="M621.86,575.69c-.32.52-.81.71-1.4.74.24-.68.78-.77,1.4-.74Z"/>
  <path class="cls-1" d="M659.28,556.67c-.35.5-.84.7-1.42.71.26-.68.81-.76,1.42-.71Z"/>
  <path class="cls-1" d="M266.16,594.67c.58-.03,1.16-.05,1.52.54-.61.12-1.17.08-1.52-.54Z"/>
  <path class="cls-1" d="M674.76,591.92c.3-.55.81-.7,1.38-.72-.26.62-.79.73-1.38.72Z"/>
  <path class="cls-1" d="M218.56,577.01c.57-.01,1.14-.01,1.49.56-.6.09-1.15.03-1.49-.56Z"/>
  <path class="cls-1" d="M744.06,556.51c.3-.6.86-.66,1.43-.71-.25.69-.81.77-1.43.71Z"/>
  <path class="cls-1" d="M267.62,595.16c.58.06,1.03.32,1.29.86-.61-.02-1.15-.14-1.29-.86Z"/>
  <path class="cls-1" d="M660.64,555.99c-.33.53-.83.72-1.42.71.25-.68.81-.76,1.42-.71Z"/>
  <path class="cls-1" d="M666.65,596.03c.3-.54.8-.67,1.36-.69-.29.56-.8.68-1.36.69Z"/>
  <path class="cls-1" d="M161.46,555.9c.58-.02,1.12.05,1.46.62-.6.06-1.14,0-1.46-.62Z"/>
  <path class="cls-1" d="M745.43,555.84c.3-.59.86-.66,1.42-.71-.25.68-.81.76-1.42.71Z"/>
  <path class="cls-1" d="M661.99,555.3c-.34.5-.83.7-1.41.72.25-.68.8-.77,1.41-.72Z"/>
  <path class="cls-1" d="M746.79,555.17c.28-.59.82-.71,1.39-.77-.2.72-.76.81-1.39.77Z"/>
  <path class="cls-1" d="M663.35,554.63c-.33.53-.83.71-1.43.71.26-.67.81-.75,1.43-.71Z"/>
  <path class="cls-1" d="M157.42,554.43c.62,0,1.2.1,1.52.73-.65.05-1.24,0-1.52-.73Z"/>
  <path class="cls-1" d="M214.53,575.52c.62,0,1.21.08,1.55.71-.65.05-1.26,0-1.55-.71Z"/>
  <path class="cls-1" d="M327.31,581.82c-.53-.28-.75-.76-.84-1.33.75.14.86.7.84,1.33Z"/>
  <path class="cls-1" d="M664.61,597.39c.17-.63.69-.78,1.24-.91-.08.75-.63.88-1.24.91Z"/>
  <path class="cls-1" d="M748.11,554.45c.31-.6.88-.64,1.45-.69-.26.71-.82.77-1.45.69Z"/>
  <path class="cls-1" d="M706.73,575.61c.31-.55.87-.58,1.4-.64-.32.55-.83.65-1.4.64Z"/>
  <path class="cls-1" d="M270.35,597.26c.63.31.75.84.65,1.47-.66-.29-.73-.85-.65-1.47Z"/>
  <path class="cls-1" d="M623.22,575.01c-.33.52-.82.7-1.41.71.26-.65.8-.75,1.41-.71Z"/>
  <path class="cls-1" d="M664.68,553.92c-.32.52-.79.74-1.38.75.24-.67.78-.76,1.38-.75Z"/>
  <path class="cls-1" d="M909.29,598.28c-.55-.11-1.03-.32-1.31-.85.62,0,1.17.1,1.31.85Z"/>
  <path class="cls-1" d="M497.41,598.11c-.28.58-.77.76-1.37.78.21-.69.75-.79,1.37-.78Z"/>
  <path class="cls-1" d="M156.02,553.91c.57-.03,1.12-.01,1.47.56-.59.07-1.12,0-1.47-.56Z"/>
  <path class="cls-1" d="M978.13,598.11c-.3.54-.79.75-1.38.75.23-.67.78-.77,1.38-.75Z"/>
  <path class="cls-1" d="M749.5,553.8c.28-.57.8-.73,1.38-.8-.17.76-.74.85-1.38.8Z"/>
  <path class="cls-1" d="M708.14,574.96c.25-.61.77-.71,1.34-.71-.27.57-.78.69-1.34.71Z"/>
  <path class="cls-1" d="M430.73,599.37c-.55,0-1.02-.17-1.37-.62.55,0,1.05.11,1.37.62Z"/>
  <path class="cls-1" d="M496.11,598.85c-.34.52-.86.68-1.45.68.27-.68.82-.76,1.45-.68Z"/>
  <path class="cls-1" d="M624.61,574.36c-.33.54-.86.66-1.45.67.28-.66.83-.74,1.45-.67Z"/>
  <path class="cls-1" d="M666.04,553.24c-.32.53-.81.7-1.4.7.28-.61.81-.72,1.4-.7Z"/>
  <path class="cls-1" d="M976.81,598.83c-.34.5-.84.7-1.42.71.25-.68.8-.77,1.42-.71Z"/>
  <path class="cls-1" d="M242.37,585.82c.61-.04,1.19.03,1.54.63-.62.05-1.2,0-1.54-.63Z"/>
  <path class="cls-1" d="M494.72,599.5c-.35.52-.85.68-1.45.58.34-.56.86-.64,1.45-.58Z"/>
  <path class="cls-1" d="M975.45,599.51c-.35.54-.85.71-1.46.6.34-.57.87-.66,1.46-.6Z"/>
  <path class="cls-1" d="M154,553.1c.65.01,1.25.14,1.68.68-.68.06-1.33.05-1.68-.68Z"/>
  <path class="cls-1" d="M329.99,587.31c-.53-.35-.66-.87-.64-1.46.64.3.71.85.64,1.46Z"/>
  <path class="cls-1" d="M492.81,600.19c-.41.52-.95.65-1.57.55.38-.59.96-.62,1.57-.55Z"/>
  <path class="cls-1" d="M211.09,574.28c.58-.03,1.15-.03,1.53.52-.62.14-1.17.09-1.53-.52Z"/>
  <path class="cls-1" d="M685.53,586.37c.34-.52.87-.66,1.43-.74-.2.78-.77.84-1.43.74Z"/>
  <path class="cls-1" d="M973.52,600.18c-.41.48-.97.53-1.55.5.39-.55.96-.56,1.55-.5Z"/>
  <path class="cls-1" d="M750.8,553.05c.33-.53.86-.67,1.43-.75-.19.79-.77.85-1.43.75Z"/>
  <path class="cls-1" d="M244.42,586.58c.58-.08,1.06.07,1.4.58-.56.02-1.07-.06-1.4-.58Z"/>
  <path class="cls-1" d="M709.46,574.26c.3-.51.77-.73,1.35-.76-.24.63-.76.76-1.35.76Z"/>
  <path class="cls-1" d="M667.39,552.55c-.33.5-.81.71-1.39.71.28-.61.8-.72,1.39-.71Z"/>
  <path class="cls-1" d="M625.98,573.69c-.32.56-.85.68-1.44.71.25-.7.81-.78,1.44-.71Z"/>
  <path class="cls-1" d="M269.59,601.49c-.3.56-.83.58-1.37.56.33-.49.83-.56,1.37-.56Z"/>
  <path class="cls-1" d="M329.31,619.12c.02-.58.12-1.12.68-1.45.07.62,0,1.17-.68,1.45Z"/>
  <path class="cls-1" d="M710.76,573.53c.31-.6.87-.63,1.44-.66-.29.63-.84.7-1.44.66Z"/>
  <path class="cls-1" d="M627.33,573c-.34.49-.84.69-1.41.74.23-.71.78-.8,1.41-.74Z"/>
  <path class="cls-1" d="M320.45,573.8c-.55-.11-1-.36-1.26-.88.61.02,1.15.15,1.26.88Z"/>
  <path class="cls-1" d="M712.17,572.89c.28-.54.76-.76,1.34-.81-.19.7-.73.8-1.34.81Z"/>
  <path class="cls-1" d="M628.68,572.31c-.32.53-.82.74-1.42.72.24-.69.8-.78,1.42-.72Z"/>
  <path class="cls-1" d="M713.44,572.13c.31-.59.88-.65,1.44-.7-.25.71-.81.78-1.44.7Z"/>
  <path class="cls-1" d="M630.01,571.6c-.32.52-.81.72-1.39.74.24-.67.78-.77,1.39-.74Z"/>
  <path class="cls-1" d="M318.47,572.35c-.55-.09-1.02-.29-1.32-.79.59.01,1.11.15,1.32.79Z"/>
  <path class="cls-1" d="M203.63,571.49c.57.02,1.14.04,1.5.6-.63.12-1.19.07-1.5-.6Z"/>
  <path class="cls-1" d="M714.82,571.47c.29-.6.86-.67,1.43-.71-.25.7-.8.77-1.43.71Z"/>
  <path class="cls-1" d="M631.38,570.93c-.35.48-.84.68-1.42.7.27-.65.81-.73,1.42-.7Z"/>
  <path class="cls-1" d="M716.18,570.8c.29-.56.81-.73,1.39-.79-.19.75-.75.83-1.39.79Z"/>
  <path class="cls-1" d="M632.74,570.25c-.33.52-.81.73-1.41.71.26-.66.8-.74,1.41-.71Z"/>
  <path class="cls-1" d="M717.49,570.06c.34-.53.89-.64,1.45-.71-.24.74-.8.81-1.45.71Z"/>
  <path class="cls-1" d="M610.31,586.55c-.02.58-.21,1.07-.75,1.36,0-.59.13-1.12.75-1.36Z"/>
  <path class="cls-1" d="M684.24,587.13c.28-.57.79-.75,1.36-.81-.17.75-.73.84-1.36.81Z"/>
  <path class="cls-1" d="M231.48,581.77c.58-.02,1.13.01,1.46.59-.59.05-1.12-.04-1.46-.59Z"/>
  <path class="cls-1" d="M328.04,583.1c-.52-.29-.74-.75-.76-1.32.6.24.74.75.76,1.32Z"/>
  <path class="cls-1" d="M634.08,569.56c-.3.56-.81.71-1.4.72.26-.65.8-.74,1.4-.72Z"/>
  <path class="cls-1" d="M682.92,587.84c.3-.55.81-.7,1.38-.75-.24.66-.78.76-1.38.75Z"/>
  <path class="cls-1" d="M698.62,579.72c.3-.51.78-.69,1.34-.7-.28.55-.79.68-1.34.7Z"/>
  <path class="cls-1" d="M198.17,569.5c.58-.01,1.15,0,1.47.61-.6.07-1.15,0-1.47-.61Z"/>
  <path class="cls-1" d="M609.57,587.89c0,.57-.24,1.02-.72,1.34.02-.57.15-1.07.72-1.34Z"/>
  <path class="cls-1" d="M718.87,569.41c.3-.59.87-.65,1.44-.71-.24.72-.8.79-1.44.71Z"/>
  <path class="cls-1" d="M553.11,615.07c-.04-.58.1-1.1.6-1.46.06.59-.03,1.12-.6,1.46Z"/>
  <path class="cls-1" d="M1033.83,615.07c-.04-.59.15-1.07.63-1.43.04.59-.07,1.11-.63,1.43Z"/>
  <path class="cls-1" d="M330.75,615.75c-.04-.65.05-1.25.59-1.69.07.66.06,1.29-.59,1.69Z"/>
  <path class="cls-1" d="M853,614.33c.57.32.65.85.62,1.43-.55-.33-.65-.85-.62-1.43Z"/>
  <path class="cls-1" d="M681.53,588.5c.29-.61.84-.67,1.42-.68-.28.63-.82.72-1.42.68Z"/>
  <path class="cls-1" d="M901.81,589.36c-.57-.35-.63-.9-.57-1.49.6.34.67.88.57,1.49Z"/>
  <path class="cls-1" d="M249.84,588.56c.58-.04,1.13.03,1.44.62-.59.04-1.11-.05-1.44-.62Z"/>
  <path class="cls-1" d="M635.41,568.86c-.31.52-.8.71-1.37.73.26-.61.78-.73,1.37-.73Z"/>
  <path class="cls-1" d="M636.75,568.16c-.32.5-.79.7-1.36.7.28-.58.79-.7,1.36-.7Z"/>
  <path class="cls-1" d="M551.54,618.37c.07-.57.18-1.11.76-1.41.09.66.02,1.23-.76,1.41Z"/>
  <path class="cls-1" d="M680.21,589.21c.29-.56.8-.7,1.37-.74-.26.62-.78.74-1.37.74Z"/>
  <path class="cls-1" d="M1032.25,618.36c.09-.56.3-1.05.81-1.37.06.65-.03,1.21-.81,1.37Z"/>
  <path class="cls-1" d="M638.12,567.49c-.38.39-.8.7-1.38.68.29-.57.81-.68,1.38-.68Z"/>
  <path class="cls-1" d="M642.18,565.44c-.34.45-.76.75-1.36.69.28-.56.79-.68,1.36-.69Z"/>
  <path class="cls-1" d="M328.64,620.48c0-.59.15-1.1.7-1.42.04.61-.04,1.15-.7,1.42Z"/>
  <path class="cls-1" d="M374.96,619.83c.52.28.75.74.8,1.31-.64-.21-.78-.72-.8-1.31Z"/>
  <path class="cls-1" d="M855.7,619.8c.57.27.74.77.79,1.34-.68-.2-.79-.74-.79-1.34Z"/>
  <path class="cls-1" d="M327.91,621.82c.07-.56.23-1.07.75-1.39.03.62-.06,1.16-.75,1.39Z"/>
  <path class="cls-1" d="M549.55,621.8c.1-.55.26-1.06.81-1.33,0,.61-.11,1.15-.81,1.33Z"/>
  <path class="cls-1" d="M1030.25,621.78c.08-.56.29-1.04.85-1.29-.02.61-.14,1.14-.85,1.29Z"/>
  <path class="cls-1" d="M187.29,565.44c.58-.04,1.13.03,1.46.6-.59.05-1.12-.04-1.46-.6Z"/>
  <path class="cls-1" d="M643.53,564.75c-.33.47-.77.72-1.35.69.29-.55.79-.67,1.35-.69Z"/>
  <path class="cls-1" d="M727.86,564.76c.31-.5.78-.7,1.34-.72-.27.57-.78.7-1.34.72Z"/>
  <path class="cls-1" d="M606.91,621.75c.53.36.61.9.59,1.48-.6-.33-.67-.88-.59-1.48Z"/>
  <path class="cls-1" d="M644.86,564.06c-.32.46-.74.73-1.32.69.28-.54.78-.66,1.32-.69Z"/>
  <path class="cls-1" d="M729.18,564.05c.29-.58.82-.67,1.39-.67-.3.56-.82.68-1.39.67Z"/>
  <path class="cls-1" d="M699.96,579.03c.3-.56.78-.68,1.36-.61-.31.52-.82.61-1.36.61Z"/>
  <path class="cls-1" d="M646.22,563.38c-.33.45-.77.69-1.33.67.3-.52.79-.64,1.33-.67Z"/>
  <path class="cls-1" d="M181.84,563.42c.57-.02,1.14-.01,1.5.55-.6.09-1.15.04-1.5-.55Z"/>
  <path class="cls-1" d="M730.56,563.39c.3-.52.78-.71,1.35-.72-.27.59-.78.71-1.35.72Z"/>
  <path class="cls-1" d="M608.29,625.14c.58.31.69.85.72,1.43-.73-.23-.81-.79-.72-1.43Z"/>
  <path class="cls-1" d="M647.58,562.7c-.32.47-.75.71-1.33.67.29-.52.79-.64,1.33-.67Z"/>
  <path class="cls-1" d="M731.88,562.68c.3-.57.83-.65,1.4-.68-.29.59-.81.7-1.4.68Z"/>
  <path class="cls-1" d="M648.93,562.01c-.32.46-.76.7-1.33.67.29-.52.79-.64,1.33-.67Z"/>
  <path class="cls-1" d="M733.25,562.02c.29-.58.82-.67,1.39-.67-.3.56-.82.68-1.39.67Z"/>
  <path class="cls-1" d="M312.34,636.79c.28-.59.82-.68,1.38-.74-.23.67-.78.77-1.38.74Z"/>
  <path class="cls-1" d="M734.64,561.35c.3-.52.78-.71,1.35-.72-.27.59-.78.71-1.35.72Z"/>
  <path class="cls-1" d="M370.95,610.79c.6.37.65.95.6,1.56-.61-.36-.66-.94-.6-1.56Z"/>
  <path class="cls-1" d="M651.19,560.83c-.35.5-.89.62-1.45.71.22-.77.79-.83,1.45-.71Z"/>
  <path class="cls-1" d="M608.85,589.23c0,.57-.09,1.1-.62,1.44-.04-.59.06-1.11.62-1.44Z"/>
  <path class="cls-1" d="M538.77,632.03c.27-.54.75-.75,1.3-.86-.12.76-.68.87-1.3.86Z"/>
  <path class="cls-1" d="M174.37,560.7c.57-.03,1.14-.03,1.52.51-.61.13-1.16.09-1.52-.51Z"/>
  <path class="cls-1" d="M1019.51,632.04c.26-.56.76-.74,1.32-.83-.16.72-.71.83-1.32.83Z"/>
  <path class="cls-1" d="M735.96,560.64c.3-.55.81-.7,1.38-.73-.26.62-.78.74-1.38.73Z"/>
  <path class="cls-1" d="M678.8,589.85c.3-.61.87-.63,1.44-.65-.29.63-.84.7-1.44.65Z"/>
  <path class="cls-1" d="M652.54,560.13c-.31.58-.83.73-1.43.75.2-.78.77-.85,1.43-.75Z"/>
  <path class="cls-1" d="M172.36,559.91c.65-.01,1.25.13,1.68.67-.67.06-1.32.06-1.68-.67Z"/>
  <path class="cls-1" d="M868.61,632.71c.57.02,1.11.09,1.4.68-.59.02-1.11-.09-1.4-.68Z"/>
  <path class="cls-1" d="M869.98,633.37c.57.03,1.05.21,1.34.73-.58,0-1.09-.14-1.34-.73Z"/>
  <path class="cls-1" d="M1016.07,634.06c.28-.58.8-.72,1.37-.78-.2.72-.75.81-1.37.78Z"/>
  <path class="cls-1" d="M315.8,634.79c.25-.53.69-.8,1.25-.89-.1.74-.64.86-1.25.89Z"/>
  <path class="cls-1" d="M737.29,559.94c.3-.59.85-.65,1.42-.67-.28.63-.83.71-1.42.67Z"/>
  <path class="cls-1" d="M653.88,559.43c-.29.59-.84.7-1.42.75.2-.77.77-.84,1.42-.75Z"/>
  <path class="cls-1" d="M738.68,559.29c.3-.54.8-.71,1.37-.75-.23.66-.77.76-1.37.75Z"/>
  <path class="cls-1" d="M871.32,634.1c.57,0,1.11.08,1.41.65-.58.02-1.1-.08-1.41-.65Z"/>
  <path class="cls-1" d="M783.62,484.47c-.4,0-.68-.18-.81-.57.27.19.54.38.81.57Z"/>
  <path class="cls-1" d="M785.64,485.9c-.4-.03-.69-.21-.81-.62.39.05.66.26.81.62Z"/>
  <path class="cls-1" d="M147.98,488.67c-.12.4-.38.61-.8.64.15-.36.41-.58.8-.64Z"/>
  <path class="cls-1" d="M147.21,489.3c-.1.38-.36.56-.74.59.25-.2.49-.4.74-.59Z"/>
  <path class="cls-1" d="M790.32,490.78c-.4-.12-.62-.38-.65-.8.37.14.59.41.65.8Z"/>
  <path class="cls-1" d="M791.67,492.84c-.4-.13-.58-.43-.59-.83.35.17.55.44.59.83Z"/>
  <path class="cls-1" d="M141.8,494.75c-.04.41-.26.68-.66.8.06-.4.29-.66.66-.8Z"/>
  <path class="cls-1" d="M139.02,498.8c-.01.4-.14.72-.54.88,0-.4.18-.69.54-.88Z"/>
  <path class="cls-1" d="M789.02,530.75c.08-.37.23-.68.63-.81-.06.39-.27.65-.63.81Z"/>
  <path class="cls-1" d="M788.37,531.44c.02-.42.27-.64.67-.7-.22.23-.45.47-.67.7Z"/>
  <path class="cls-1" d="M708.24,531.5c-.12.4-.37.62-.81.58.27-.19.54-.39.81-.58Z"/>
  <path class="cls-1" d="M783.5,536.15c.1-.4.34-.64.76-.69-.13.37-.38.6-.76.69Z"/>
  <path class="cls-1" d="M139.79,541.48c.41.13.58.42.58.84-.35-.17-.55-.45-.58-.84Z"/>
  <path class="cls-1" d="M141.14,543.53c.4.11.65.36.71.78-.4-.11-.63-.37-.71-.78Z"/>
  <path class="cls-1" d="M141.79,544.25c.4.11.6.36.55.78-.18-.26-.37-.52-.55-.78Z"/>
  <path class="cls-1" d="M679.07,546.52c-.15.4-.43.56-.85.5.19-.33.47-.5.85-.5Z"/>
  <path class="cls-1" d="M144.47,547.04c.41.05.65.29.73.68-.24-.23-.49-.46-.73-.68Z"/>
  <path class="cls-1" d="M677.82,547.17c-.2.4-.52.59-.97.56.23-.36.55-.54.97-.56Z"/>
  <path class="cls-1" d="M761.68,547.65c.13-.41.42-.59.84-.59-.17.35-.45.55-.84.59Z"/>
  <path class="cls-1" d="M145.16,547.69c.4.06.68.26.79.67-.39-.07-.66-.3-.79-.67Z"/>
  <path class="cls-1" d="M324.54,577.84c-.41-.11-.63-.38-.68-.8.4.12.63.38.68.8Z"/>
  <path class="cls-1" d="M611.66,584.51c0,.43-.21.71-.62.85.01-.42.22-.7.62-.85Z"/>
  <path class="cls-1" d="M503.47,591.95c.01.42-.18.7-.58.84.03-.39.23-.67.58-.84Z"/>
  <path class="cls-1" d="M704.5,576.92c.16-.4.45-.63.89-.64-.18.38-.48.59-.89.64Z"/>
  <path class="cls-1" d="M423.17,593.43c-.41-.11-.61-.38-.59-.81.2.27.39.54.59.81Z"/>
  <path class="cls-1" d="M615.09,580.45c-.09.4-.33.65-.74.73.1-.39.35-.64.74-.73Z"/>
  <path class="cls-1" d="M323.91,577.1c-.4-.09-.63-.35-.7-.75.38.12.61.37.7.75Z"/>
  <path class="cls-1" d="M502.16,594.02c-.02.43-.26.68-.67.78.08-.38.3-.64.67-.78Z"/>
  <path class="cls-1" d="M982.89,594.02c-.03.43-.26.68-.67.78.08-.39.3-.64.67-.78Z"/>
  <path class="cls-1" d="M323.25,576.39c-.41-.07-.63-.33-.71-.73.24.24.47.48.71.73Z"/>
  <path class="cls-1" d="M501.55,594.73c-.07.41-.3.68-.72.77.08-.41.32-.66.72-.77Z"/>
  <path class="cls-1" d="M982.27,594.73c-.08.42-.32.66-.74.75.09-.4.34-.65.74-.75Z"/>
  <path class="cls-1" d="M500.89,595.43c-.09.42-.36.65-.78.7.11-.4.37-.63.78-.7Z"/>
  <path class="cls-1" d="M981.6,595.42c-.08.42-.33.66-.74.74.09-.4.34-.65.74-.74Z"/>
  <path class="cls-1" d="M268.89,596.01c.42.02.69.22.8.63-.38-.07-.65-.28-.8-.63Z"/>
  <path class="cls-1" d="M500.17,596.09c-.1.4-.36.62-.77.67.13-.36.39-.59.77-.67Z"/>
  <path class="cls-1" d="M665.76,596.55c.16-.41.48-.54.89-.52-.19.36-.48.54-.89.52Z"/>
  <path class="cls-1" d="M980.92,596.1c-.09.42-.36.63-.77.69.13-.38.38-.61.77-.69Z"/>
  <path class="cls-1" d="M269.63,596.58c.41.08.7.29.76.73-.41-.08-.66-.33-.76-.73Z"/>
  <path class="cls-1" d="M908.01,597.45c-.42,0-.73-.16-.87-.57.42-.01.71.19.87.57Z"/>
  <path class="cls-1" d="M322.57,575.7c-.4-.07-.67-.28-.75-.7.38.09.63.33.75.7Z"/>
  <path class="cls-1" d="M910.08,598.74c-.43.05-.72-.12-.87-.54.4,0,.68.19.87.54Z"/>
  <path class="cls-1" d="M270.97,598.68c.44.29.35.57-.02.85,0-.28.01-.56.02-.85Z"/>
  <path class="cls-1" d="M321.88,575.05c-.41-.07-.67-.31-.77-.71.4.08.65.32.77.71Z"/>
  <path class="cls-1" d="M270.8,600.13c.05.4-.11.66-.5.76.17-.25.34-.51.5-.76Z"/>
  <path class="cls-1" d="M270.34,600.84c-.06.44-.32.66-.76.66.25-.22.51-.44.76-.66Z"/>
  <path class="cls-1" d="M614.4,581.12c-.07.41-.3.67-.71.77.08-.4.32-.66.71-.77Z"/>
  <path class="cls-1" d="M649.83,561.47c-.15.4-.45.56-.86.53.19-.33.48-.52.86-.53Z"/>
  <path class="cls-1" d="M321.12,630.65c.09-.4.31-.67.73-.75-.08.41-.33.66-.73.75Z"/>
  <path class="cls-1" d="M616.53,579.16c-.11.41-.37.65-.78.71.09-.43.35-.67.78-.71Z"/>
  <path class="cls-1" d="M504.75,589.24c.06.45-.11.78-.5,1,0-.42.15-.76.5-1Z"/>
  <path class="cls-1" d="M320.41,631.3c.1-.41.36-.64.77-.71-.1.4-.36.64-.77.71Z"/>
  <path class="cls-1" d="M539.98,631.25c.13-.42.44-.59.85-.62-.15.39-.43.6-.85.62Z"/>
  <path class="cls-1" d="M377.73,623.8c.41.1.62.36.66.78-.36-.14-.58-.4-.66-.78Z"/>
  <path class="cls-1" d="M1020.74,631.29c.12-.4.4-.61.82-.65-.14.38-.41.6-.82.65Z"/>
  <path class="cls-1" d="M321.18,574.4c-.41-.06-.7-.27-.81-.68.43.03.7.26.81.68Z"/>
  <path class="cls-1" d="M1028.21,624.49c.07-.41.3-.68.7-.8-.03.45-.26.72-.7.8Z"/>
  <path class="cls-1" d="M548.93,622.51c.03-.43.28-.68.68-.79-.06.4-.29.67-.68.79Z"/>
  <path class="cls-1" d="M612.3,631.3c.4.09.63.34.69.75-.37-.12-.6-.37-.69-.75Z"/>
  <path class="cls-1" d="M1027.6,625.22c.06-.41.26-.7.69-.8-.05.42-.29.68-.69.8Z"/>
  <path class="cls-1" d="M546.2,625.9c.07-.41.29-.68.71-.77-.08.4-.31.66-.71.77Z"/>
  <path class="cls-1" d="M319.2,572.93c-.43,0-.68-.23-.79-.63.26.21.53.42.79.63Z"/>
  <path class="cls-1" d="M1026.96,625.92c.07-.4.28-.67.69-.77-.08.38-.31.64-.69.77Z"/>
  <path class="cls-1" d="M615.82,579.81c-.11.41-.37.64-.79.7.11-.4.37-.64.79-.7Z"/>
  <path class="cls-1" d="M545.54,626.59c.07-.41.31-.65.72-.74-.1.38-.34.63-.72.74Z"/>
  <path class="cls-1" d="M1026.31,626.62c.05-.41.28-.65.69-.73-.23.24-.46.48-.69.73Z"/>
  <path class="cls-1" d="M316.96,633.97c.14-.41.46-.56.86-.59-.16.38-.44.58-.86.59Z"/>
  <path class="cls-1" d="M614.35,633.32c.41.07.67.31.77.71-.4-.08-.66-.32-.77-.71Z"/>
  <path class="cls-1" d="M544.85,627.27c.07-.41.33-.64.73-.73-.11.38-.35.62-.73.73Z"/>
  <path class="cls-1" d="M317.16,571.56c-.42.02-.72-.15-.86-.57.4.01.68.21.86.57Z"/>
  <path class="cls-1" d="M1025.64,627.3c.1-.37.31-.62.69-.7-.23.23-.46.47-.69.7Z"/>
  <path class="cls-1" d="M544.19,627.96c.08-.4.3-.66.72-.73-.1.38-.34.62-.72.73Z"/>
  <path class="cls-1" d="M1024.88,627.93c.09-.41.37-.61.78-.65-.14.36-.4.58-.78.65Z"/>
  <path class="cls-1" d="M543.45,628.6c.1-.41.38-.62.78-.68-.13.38-.39.61-.78.68Z"/>
  <path class="cls-1" d="M1024.18,628.61c.09-.41.33-.65.75-.73-.1.39-.35.64-.75.73Z"/>
  <path class="cls-1" d="M322.54,629.32c.09-.37.28-.67.67-.78-.07.39-.3.65-.67.78Z"/>
  <path class="cls-1" d="M314.96,635.37c.13-.4.43-.58.83-.59-.17.35-.44.55-.83.59Z"/>
  <path class="cls-1" d="M382.42,628.7c.4.02.66.22.76.62-.25-.21-.51-.41-.76-.62Z"/>
  <path class="cls-1" d="M377.1,623.06c.41.11.63.39.69.8-.4-.12-.63-.38-.69-.8Z"/>
  <path class="cls-1" d="M326.55,580.59c-.4-.15-.56-.46-.57-.86.36.17.56.46.57.86Z"/>
  <path class="cls-1" d="M857.87,623.02c.41.14.57.45.62.85-.4-.14-.61-.42-.62-.85Z"/>
  <path class="cls-1" d="M321.78,629.96c.09-.42.39-.61.79-.66-.14.37-.4.6-.79.66Z"/>
  <path class="cls-1" d="M383.14,629.29c.41.05.67.28.77.68-.39-.08-.64-.31-.77-.68Z"/>
  <path class="cls-1" d="M701.77,578.27c.17-.4.47-.62.91-.63-.19.38-.49.58-.91.63Z"/>
  <path class="cls-1" d="M1023.42,629.21c.12-.42.43-.6.83-.66-.12.41-.39.64-.83.66Z"/>
  <path class="cls-1" d="M863.87,629.29c.4.06.69.25.8.66-.4-.06-.67-.28-.8-.66Z"/>
  <path class="cls-1" d="M611.72,630.5c.41.13.57.45.63.85-.4-.14-.61-.42-.63-.85Z"/>
  <path class="cls-1" d="M82.64,558.98c0,26.06,0,52.13,0,78.19,0,4.11.27,3.67-3.62,3.67-14.28,0-28.56,0-42.83,0-.68,0-1.36-.02-2.04,0-.98.03-1.48-.41-1.47-1.4,0-.79-.02-1.59-.02-2.38,0-52.13,0-104.25,0-156.38,0-.68.04-1.36,0-2.04-.08-1.29.47-1.85,1.78-1.79,1.47.06,2.95,0,4.42,0,13.49,0,26.97,0,40.46,0,3.64,0,3.34-.23,3.34,3.25,0,26.29,0,52.58,0,78.87Z"/>
</svg>