<?xml version="1.0" encoding="UTF-8"?>
<svg id="Layer_1" xmlns="http://www.w3.org/2000/svg" viewBox="0 0 1080 1080">
  <defs>
    <style>
      .cls-1 {
        fill: #1555fd;
      }
    </style>
  </defs>
  <path d="M1049.99,531.53c.3-17.32-7.77-29.7-21.79-38.68-10.08-6.43-21.28-9.13-33.26-9.09-33.42.11-66.84.04-100.26.03-5.51,0-10.94.45-16.33,1.79-18.71,4.6-40.54,20-39.2,49.17.89,19.19.22,38.45.22,57.68,0,9.76,3.07,18.43,9.32,25.9,11.66,13.9,26.97,19.89,44.77,20.05,16.93.15,33.88.03,50.82.03v-.25c19.23,0,38.49.73,57.68-.18,29.03-1.39,47.97-22.03,47.97-50.83,0-18.53-.26-37.09.07-55.61ZM999.46,601.11c-18.54-.14-37.07-.07-55.61-.07s-36.62-.11-54.93.1c-4.16.04-5.43-1.06-5.39-5.36.22-23.11.19-46.23.01-69.33-.03-4.12,1.04-5.46,5.36-5.44,37.07.16,74.14.15,111.21.01,3.93-.01,5.07,1.14,5.04,5.02-.15,23.34-.19,46.68.05,70.02.04,4.71-1.99,5.09-5.76,5.06Z"/>
  <path d="M731.79,638.42c-19.23,0-38.47-.01-57.7.01-16.21.02-30.62-4.72-42.43-16.16-8.44-8.18-12.88-18.11-12.82-30.02.1-19,.02-38.01.03-57.01.02-29.13,19.15-49.94,48.54-51.02,26.07-.96,52.2-.35,78.3-.4,16.94-.03,33.89.14,50.83-.1,5.04-.07,7.04,1.57,6.86,6.68-.27,7.78-.34,15.58.02,23.35.26,5.81-2.08,7.44-7.67,7.42-41.67-.18-83.35,0-125.03-.24-5.7-.03-7.81.92-7.67,7.3.46,22.2.38,44.42.03,66.62-.08,5.3,1.47,6.33,6.45,6.3,41.67-.2,83.35-.12,125.03-.11,8.67,0,8.77.12,8.77,8.92,0,6.87-.32,13.76.09,20.6.36,5.92-1.6,8.06-7.74,7.97-21.29-.31-42.59-.12-63.89-.11Z"/>
  <path d="M506,638.41c-19,0-38-.08-57,.03-11.7.06-22.71-2.42-32.7-8.58-14.67-9.04-22.99-21.63-22.63-39.52.37-18.3.08-36.62.06-54.93-.03-29.47,19.25-50.24,48.97-51.24,24.92-.84,49.89-.3,74.84-.35,17.85-.03,35.71.16,53.56-.11,5.4-.08,7.36,1.66,7.1,7.09-.37,7.54-.45,15.12,0,22.65.37,6.23-2.15,7.76-7.99,7.73-41.89-.19-83.78.02-125.67-.24-5.55-.04-6.77,1.5-6.69,6.79.3,21.97.34,43.95-.02,65.92-.09,5.8,1.03,7.61,7.3,7.56,41.2-.34,82.4-.17,123.61-.17q9.34,0,9.35,9.64c0,6.41-.38,12.85.11,19.22.5,6.47-1.49,8.8-8.33,8.66-21.28-.42-42.57-.15-63.86-.15Z"/>
  <path d="M154.98,483.81c18.38-5.54,26.65,4.79,34.69,19.5,18.17,33.26,37.95,65.64,57.09,98.36,4.11,7.02,4.33,7.04,8.61.31,23.92-37.58,47.88-75.15,71.64-112.83,2.49-3.95,5.15-5.58,9.86-5.45,11.9.33,23.81.04,35.71.14,6.01.05,6.98,1.78,3.72,6.95-28.15,44.64-55.99,89.49-84.7,133.77-18.03,27.79-65.73,26.26-82.55-2.26-25.63-43.48-50.82-87.21-76.16-130.86-3.56-6.13-2.74-7.52,4.24-7.61,5.95-.08,11.9-.02,17.86-.02Z"/>
  <path d="M101.9,561.05c0,23.35-.16,46.69.1,70.04.06,5.65-1.58,7.68-7.4,7.43-10.28-.43-20.6-.28-30.9-.05-4.64.1-6.48-1.32-6.46-6.25.14-47.38.13-94.76,0-142.14-.01-4.76,1.54-6.51,6.35-6.38,10.06.27,20.16.44,30.21-.04,6.27-.3,8.35,1.55,8.25,8.03-.37,23.11-.14,46.23-.15,69.35Z"/>
  <path class="cls-1" d="M518.49,578.65c-17.15,0-34.3-.2-51.44.11-5.47.1-7.32-1.62-6.98-7.06.42-6.6.48-13.28-.01-19.87-.45-5.97,1.41-7.89,7.57-7.82,28.57.31,57.15.14,85.73.14,6.17,0,12.35.17,18.52-.05,3.93-.14,5.19,1.42,5.08,5.23-.21,7.77-.35,15.56.02,23.31.24,5.01-1.73,6.17-6.37,6.11-17.37-.22-34.75-.09-52.12-.09Z"/>
</svg>