<?xml version="1.0" encoding="UTF-8"?>
<svg id="Layer_1" xmlns="http://www.w3.org/2000/svg" viewBox="0 0 1080 1080">
  <defs>
    <style>
      .cls-1 {
        fill: #191919;
      }
    </style>
  </defs>
  <path class="cls-1" d="M543.95,846.45c-108.56-1.75-217.22-20.44-318.44-72.05-51.06-26.03-96.81-58.97-131.83-105.16-60.32-79.56-60.52-171.69-.43-251.38,39.26-52.06,90.93-89.03,150-114.15,202.2-86.02,405.8-87.06,607.33.54,44.1,19.17,86.22,48.52,121.37,81.56,100.61,94.56,99.42,218.23,1.32,315.17-57.35,56.67-127.97,90.28-204.02,113.51-72.1,22.03-146.2,31.03-225.3,31.96ZM941.65,471.51c0-5.16.65-7.62-.12-9.5-2.29-5.58-4.95-11.02-7.79-16.35-29.46-55.28-74.4-95.15-128.74-124.02-130.35-69.27-267.69-79.64-409.06-42.59-84.47,22.14-159.01,62.21-213.18,133.2-12.91,16.91-22.27,36.53-35.88,59.27,17.89,0,29.09-.02,40.3,0,96.02.17,192.06-.44,288.07,1.09,23.82.38,36.83-4.2,37.59-30.46.43-14.9,5.19-29.68,8.03-44.51,8.13-42.42,16.27-84.84,24.41-127.26,15.69,59.14,27.36,118.01,37.67,177.1,3.04,17.44,8.24,25.43,28.46,25.15,101.3-1.39,202.63-.94,303.94-1.14,8.74-.02,17.47,0,26.3,0ZM750.76,796.69c40.21-25.58,79.37-46.93,114.4-73.68,44.87-34.26,76.06-79.76,88.56-135.94,8.49-38.14,7.59-75.87-8.77-113.09-109.82,23.08-217.85,45.78-329.28,69.2,45.46,85.32,88.31,165.73,135.09,253.51ZM347.36,790.64c43.51-81.67,86.63-162.62,131.88-247.56-112.15-23.5-220.36-46.18-328.07-68.75-55.76,108.57,40.2,264.02,196.19,316.31ZM547.4,588.44c-65.94,68.7-129.94,135.38-196.83,205.07,132.83,45.82,261.16,45.84,393.73-.07-66.92-69.67-130.97-136.36-196.9-205Z"/>
</svg>