<?xml version="1.0" encoding="UTF-8"?>
<svg id="Layer_1" xmlns="http://www.w3.org/2000/svg" viewBox="0 0 1080 1080">
  <defs>
    <style>
      .cls-1 {
        fill: #cc9797;
      }

      .cls-2 {
        fill: #efc8c7;
      }

      .cls-3 {
        fill: #cd7d7d;
      }

      .cls-4 {
        fill: #dd7b79;
      }

      .cls-5 {
        fill: #f6dad8;
      }

      .cls-6 {
        fill: #f5ddde;
      }

      .cls-7 {
        fill: #a51c23;
      }

      .cls-8 {
        fill: #e19a97;
      }

      .cls-9 {
        fill: #fbfbfb;
      }

      .cls-10 {
        fill: #f4d1d3;
      }

      .cls-11 {
        fill: #f7d5d5;
      }

      .cls-12 {
        fill: #e28e90;
      }

      .cls-13 {
        fill: #f7d6d9;
      }

      .cls-14 {
        fill: #fbfcfc;
      }

      .cls-15 {
        fill: #eb9b9d;
      }

      .cls-16 {
        fill: #993038;
      }

      .cls-17 {
        fill: #d6a1a2;
      }

      .cls-18 {
        fill: #f1d2cf;
      }

      .cls-19 {
        fill: #f6dedc;
      }

      .cls-20 {
        fill: #ac191f;
      }

      .cls-21 {
        fill: #fefefe;
      }

      .cls-22 {
        fill: #9c363d;
      }

      .cls-23 {
        fill: #f5d6d8;
      }

      .cls-24 {
        fill: #c47880;
      }

      .cls-25 {
        fill: #b6656a;
      }
    </style>
  </defs>
  <path class="cls-20" d="M1056.35,522.01c6.13,20.2,7.62,41.1,4.53,61.62-2.51,16.66-3.61,33.77-9.15,49.89-13.19,38.34-32.26,73.06-58.56,104.49-22.54,26.93-48.31,49.88-76.46,69.95-31.61,22.53-65.8,41.13-102.04,55.61-33.51,13.39-67.7,24.09-102.89,32.6-66.71,16.13-134.25,21.28-202.33,18.22-43.9-1.97-87.54-7.53-130.64-18.13-31.65-7.79-62.68-16.87-92.96-28.51-34.21-13.15-66.82-29.78-97.48-49.94-11.32-7.44-22.93-14.59-32.51-24.4-4.43-4.25-9.02-8.37-13.27-12.78-3.98-4.12-12.04-7.32-4.29-15.5,2.5-2.64-7.34-14.44-14.21-17.57-11.74-8.41-18.53-20.9-26.66-32.28-5.59-7.6-8.75-16.7-14.92-23.95-14.76-32.42-25.32-65.51-23.91-102.04,1.07-27.49.51-54.69,10.13-81.25,11.38-31.43,27.41-59.83,47.86-86.17,24.39-31.42,54.22-56.79,86.8-78.87,31.73-21.5,65.8-38.83,101.71-52.77,25.38-9.85,51.14-18.5,77.41-24.93,28.85-7.06,58.39-11.17,87.92-15.29,25.73-3.59,51.56-4.43,77.23-4.98,30.62-.67,61.31,2.29,91.94,5.73,27.74,3.12,54.88,8.9,82.15,14.01,17.59,3.29,34.73,9.54,51.68,15.37,42.82,14.74,83.92,33.51,121.85,58.52,37.08,24.46,71.48,51.97,97.28,88.82,2.32,5.85,5.95,10.85,10.23,15.41,12.78,18.54,24.53,37.61,31.23,59.34,1.5,5.76,3.21,11.43,6.32,16.59.41,1.01.69,2.04.87,3.12,6.36,24.25,5.39,49.21,6.24,74.25.05-23-1.47-45.61-1.96-68.27.29-3.82-.02-7.66.4-11.47.31-2.83.53-6.31,4.09-6.65,4.12-.4,3.99,3.27,4.25,6.05.22,2.26.42,4.45,2.1,6.18Z"/>
  <path class="cls-7" d="M1056.35,522.01c-7.01-.75-1.79-8.05-6.28-10.96-3.22,5.66-.75,11.82-1.92,17.43-6.43-2.2-2.5-10.42-7.77-13.3-4.02-10.3-3.95-21.42-7.94-32.01-17.48-46.38-46.14-84.37-82.15-117.88-28.52-26.55-60.25-48.38-94.35-66.47-32.9-17.45-67.66-30.77-103.36-42.14-33.52-10.67-67.91-16.53-102.1-23.49-15.85-3.23-32.48-3.82-48.75-4.65-46.69-2.4-93.3-1.97-140.01,2.54-29.46,2.85-58.2,8.81-86.74,15.25-32.75,7.39-64.56,18.69-95.73,31.65-28.82,11.99-56.41,26.23-82.36,43.27-37.06,24.35-70.29,53.07-97.74,88.42-19.55,25.17-34,52.78-44.24,82.56-5.82,16.92-9.15,34.71-10.22,52.71-.41,6.85.27,13.76-.12,20.6-1.78,31.07,5.55,60.26,17.76,88.5,1.82,4.21,3.02,8.65,4.72,12.89,3.59,8.29,7.16,16.6,12.57,23.94.56.7,1.05,1.44,1.52,2.19,5.49,7.39,8.83,16.19,15.21,23.01,7.35,11.19,15.77,21.48,25.57,30.62,1.35,1.26,2.69,3.11,2.38-.73,4.38.79,18.57,14.68,18.77,18.54.05.89-.37,2.41-.96,2.62-12.71,4.76-.6,7.88,1.1,10.77,3.36,5.72,10.6,8.5,12.65,15.49-17.36-10.81-31.56-25.39-45.46-39.99-11.78-12.38-22.7-25.71-32.39-39.96-11.53-16.96-20.95-35.02-29.55-53.6-11.22-24.24-15.19-50.29-19.13-76.25-2.86-18.85,0-37.76,2.49-56.57,4.49-34.04,17.16-65.25,34.3-94.46,14.63-24.93,33.05-47.03,53.7-67.67,25.04-25.02,53.06-45.45,82.87-64.09,37.07-23.18,76.91-40.16,118.12-54.01,32.6-10.95,65.97-19.24,100.01-24.61,53.41-8.42,107.22-13.47,161.14-9.64,33.03,2.34,66.15,5.41,98.96,11.74,32.28,6.23,63.88,14.3,94.88,24.78,32.36,10.94,63.6,24.42,93.63,41.04,33.42,18.51,64.43,40.13,92.53,65.79,16.23,14.82,30.77,31.34,44.05,49.02,11.7,15.58,22.27,31.94,30.04,49.54,9.5,21.51,20.46,42.97,20.29,67.54Z"/>
  <path class="cls-21" d="M545.22,553.38c.21,4.93,2.26,3.72,4.73,1.46,2.99-2.73,5.61-6.2,10.39-5.66,1.74-.87,3.38-.88,4.87.53.12,1.26-.26,2.35-1.13,3.27-2.89,4.08-8.35,5.07-11.16,9.1.51,1.6,1.63,2.17,3.02,2.14,30.64-.51,61.17,2.2,91.76,3.05,39.87,1.11,79.77.16,119.62,1.15,40.15,1,80.33,1.84,120.47,2.23,26.75.26,53.53,1.31,80.31.57,13.28-.37,13.29,0,11.86,14.06.79,13.64-4.21,26.13-7.93,38.84-10.53,35.98-30.28,66.92-55.21,94.21-19.82,21.69-42.77,40.03-67.55,56.37-26.44,17.44-54.38,31.7-83.46,43.55-23.01,9.37-47,16.37-71.18,22.59-67.17,17.27-135.48,19.92-204.17,15.87-22.34-1.32-44.45-6.33-66.69-9.51-5.03-.72-5.82-2.65-3.49-7.06,11.65-22.13,19.71-45.85,30.64-68.35,10.33-21.25,18.51-43.53,27.89-65.25,6.43-14.87,13.42-29.5,19.93-44.33,9.84-22.43,19.48-44.95,29.21-67.43,2.45-4.7,6.15-8.74,7.39-14.06.47-2,1.91-4.28-1.15-5.58-.86-.14-1.67-.35-2.5-.58-4.66-2.21-2.19-4.97-.61-7.66h-.06c-1.42-5.87-6.27-3.4-9.56-3.5-55.61-1.59-111.29.36-166.86-1.5-64.63-2.16-129.26-2.59-193.89-3.78-13.72-.25-27.45-.58-41.18-.7-6.23-.05-9.2-2.57-8.68-8.83,1.02-12.33,2.07-24.65,5.73-36.57,4.35-21.47,13.01-41.17,24.57-59.66,12.18-19.49,26-37.69,42.59-53.7,17.56-16.94,36.46-32.02,56.77-45.7,17.6-11.85,36.06-21.84,54.98-31,25.47-12.33,52.09-21.68,79.31-29.73,28.78-8.51,58.03-14.43,87.59-18.13,35.94-4.5,72.03-7.91,108.5-5.22,28.99,2.14,57.82,4.91,86.48,9.85,7.18,1.24,7.81,3.09,5.08,9.24-11.7,26.39-23.37,52.8-34.38,79.47-12.97,31.42-27.18,62.32-40.63,93.52-11.67,27.06-23.29,54.25-36.26,80.78-1.96,3.89-4.07,7.71-5.95,11.64Z"/>
  <path class="cls-21" d="M694.59,286.1c16.97,6.51,34.91,9.78,52.04,15.96,18.69,6.75,36.77,14.61,54.63,23.18,31.46,15.09,60.37,33.88,86.95,56.6,19.98,17.09,37.77,36,52.84,57.37,14.87,21.07,25.45,44.33,32.75,69.12,3.69,12.51,6.21,25.12,7.23,38.14.53,6.8-1.96,7.77-7.78,6.67-36.11-6.79-72.29-13.21-108.38-20.14-50.14-9.64-100.19-19.72-150.32-29.36-6.36-1.22-13-.98-19.51-1.42-12.62-2.61-25.45-3.97-37.79-8.29-5.22-1.83-6.02-4.08-5.1-8.39,4.51-21.14,5.56-42.72,8.35-64.07.93-7.1,2.89-14.03,4.24-21.06,6.58-34.33,9.29-69.21,15.53-103.57,1.73-9.54,5.66-12.49,14.3-10.73Z"/>
  <path class="cls-21" d="M380.5,837.6c-9.21-5.52-19.98-6.45-29.91-9.9-35.18-12.25-68.97-27.37-100.59-46.91-25.08-15.5-47.91-33.97-68.8-55-23.83-24.01-43.07-51.01-55.79-82.19-7.82-19.16-14.59-38.91-15.74-60.02-.32-5.85.62-7.93,7.28-6.56,30.96,6.36,62.15,11.66,93.01,18.42,19.71,4.32,39.76,6.33,59.49,10.67,32.1,7.07,64.52,12.77,96.96,18.14,8.9,1.48,17.58,5.04,26.87,4.12,8.15,1.95,16.4,3.41,24.65,4.74,11.24,1.81,13.87,4.75,12.78,16.39-.95,10.08-3.66,19.89-5.44,29.83-5.87,32.82-7.32,66.3-14.67,98.83-4.04,17.9-3.87,36.3-8.02,54.14-2.17,9.33-4.08,11.26-13.14,7.9-2.98-1.1-6.72.64-8.95-2.59Z"/>
  <path class="cls-9" d="M65.77,669.31c-7.03-17-14.07-33.77-18.51-51.95-6.24-25.55-7.13-51.06-4.92-76.63,1.98-22.9,7.48-45.18,16.63-66.78,8.09-19.09,17.53-37.23,29.19-54.12,12-17.38,25.99-33.26,41.07-48.15,31.61-31.18,67.74-56.25,106.83-76.8,40.41-21.25,83.24-36.85,127.43-48.34,21.88-5.69,44.08-10.15,66.45-13.75,57.08-9.19,114.49-10.49,171.99-6.75,26.94,1.75,53.95,4.35,80.48,9.94,37.77,7.97,75.31,17.36,111.16,31.54,32.21,12.75,63.54,27.64,93.14,46.26,37.98,23.89,72.22,51.79,100.51,86.52,17.5,21.49,33.54,44.06,42.68,70.87,2.68,7.85,6.07,15.71,9.75,23.27,3.14,6.45-1.68,13.81,2.91,19.88,1.36,2.24,2.41,4.64.4,6.92-1.85,2.1-3.22.38-4.46-1.05-.39-.52-.47-1.09-.22-1.69-2.5-5.11-2.83-11.04-5.97-15.92-3.74-8.47-7.83-16.81-11.12-25.45-4.72-12.4-15.09-21.36-19.91-33.63-3.42-4.5-6.44-9.28-9.74-13.86-20.66-28.59-46.55-52.03-74.5-73.03-24.14-18.13-50.42-33.09-77.54-46.52-37.14-18.41-76.21-32.07-116.14-42.05-24.75-6.19-50.1-11.41-75.99-13.58-26.02-2.18-51.9-5.62-78.09-6.17-27.47-.57-54.85-.19-82.17,3.12-20.72,2.5-41.68,3.37-62.11,7.9-23.01,5.11-46.1,9.57-68.83,16.29-27.25,8.06-53.66,18.16-79.54,29.35-20.14,8.71-39.22,20.05-58.14,31.54-15.86,9.64-30.94,20.4-45.08,31.97-18.94,15.5-36.73,32.45-52.16,51.98-16.62,21.05-30.55,43.31-41.78,67.51-8.3,17.88-14.7,36.63-16.65,55.94-3.15,31.18-4.61,62.75,3.04,93.65,4.58,18.51,11.26,36.44,19.27,53.8,1.35,1.69,1.93,3.99.09,5.05-3.19,1.83-4.18-1.77-5.95-3.34l-.06-.19c-4.81-7.66-7.92-16.28-13.41-23.55Z"/>
  <path class="cls-9" d="M1001.15,510.26c-.44-.48-.51-1-.19-1.57-2.27-5.88-3.11-12.2-5.59-18.01l-.06-.16c-1.21-1.74-1.87-3.78-.06-5.24,2.17-1.74,3.31.41,4.58,1.85,3.35,3.81,3.68,8.82,5.44,13.26l-.02-.06c2.71,4.29,2.69,9.75,5.93,13.8,8.12,12.65,7.65,27.56,9.93,41.48,4.91,30.02,2.17,60.2-6.6,89.12-9.08,29.94-23.26,57.61-42.68,82.7-19.48,25.17-42.01,47.1-67.12,66.16-21.03,15.96-43.52,29.9-67.44,41.68-13.71,6.76-27.36,13.7-41.56,19.19-33.59,12.98-67.75,23.85-103.2,31.38-27.87,5.92-55.93,9.27-84.03,12.02-27.63,2.7-55.57,2.17-83.42,1.47-47.78-1.19-94.96-7.48-141.14-19.11-20.92-5.27-41.8-11.7-62.12-19.76-28.1-11.15-55.89-22.62-81.3-39.21-1.04-.68-2.5-.74-3.76-1.09-4.94-2.71-8.67-7.24-14.04-9.3-15.54-7.33-27.36-19.7-40.61-30.1-21.54-16.91-40.67-36.47-56.09-58.99-19.78-28.9-37.72-58.98-41.13-95.12-1.4-3.32-1.92-6.79-1.43-10.35.25-1.84.64-4.09,3.15-3.76,1.74.23,1.45,2.65,2.59,3.73,7.39,16.09,11.38,33.57,20.13,49.11,9.47,16.83,19.55,33.14,31.91,48.19,13.01,15.85,28.04,29.54,42.35,44.02,8.06,3.32,12.38,11.38,19.76,15.57,17.27,11.96,34.44,24.15,53.1,33.84,31.64,16.43,64.15,30.67,98.39,41.28,24.57,7.62,49.82,11.76,74.58,18.22,9.71,2.53,19.91,3.37,29.95,4.44,42.67,4.54,85.53,6.51,128.32,3.67,35.66-2.37,71.03-7.18,106.02-15.73,34.25-8.37,67.47-19.04,99.79-32.91,33.22-14.26,64.7-31.93,93.19-53.86,45.21-34.8,82.61-76.8,103.68-130.75,11.28-28.9,17.28-59.27,14.82-90.73-.33-4.22-.06-8.49-.07-12.74-2.28-9.08.68-18.9-3.93-27.65Z"/>
  <path class="cls-9" d="M478.58,634.18c-4.14,20.62-13.3,39.65-18.89,59.87-6.52,23.57-15.28,46.51-22.96,69.76-7.92,23.96-15.77,47.94-23.52,71.96-1.47,4.57-2.85,8.74-8.92,7.88-4.23-3.34-2.53-7.7-1.84-11.74,4.32-25.38,9-50.69,12.59-76.21,2.85-20.29,7.9-40.37,10.25-60.72,2.47-21.48,7.16-42.41,11.3-63.52,1.05-5.36,4.54-8.43,7.97-11.88,2.18-2.2,6.1-2.63,6.87-7.14-4.53-2.28-9.61-.16-14.15-1.46-15.94-4.57-32.76-3.51-48.78-7.94-7.76-2.15-16.34,1.01-24.18-2.35-34.77-4.48-69.28-11-104.28-13.68-13.26-1.01-26.31-3.09-39.28-5.81-9.7-2.39-19.84-1.52-29.52-4.04l.06.02c-1.03-1.42-4.11-.94-3.73-3.45.26-1.7,2.11-2.23,3.74-2.37,5.43-.48,10.7.81,16.03,1.48l-.13-.04c10.14,2.9,20.5.56,30.73,1.32,5.47.4,11.01-.86,16.42.76v.05c11.87,2.11,23.93,2.12,35.89,2.93,31.23,2.12,62.51,4.25,93.65,6.89,21.55,1.83,42.99,2.65,64.53,3.16,10.78.25,21.26,3.37,32.08,3.6,4.57.1,9.08.74,13.58-.81,2.49-.86,5.29-4.87,7.58-1.29,1.78,2.78-1.83,5.11-3.65,7.33-2.31,3-7.3,3.12-8.2,7.63-4.56,9.63-8.01,19.68-11.23,29.81Z"/>
  <path class="cls-14" d="M867.83,549.38c.59-.21,1.16-.16,1.71.15,8.41,2.63,17.22-.45,25.67,1.76l.02-.02c6.13,2.74,12.99,2.45,19.38,5.08-8.34,3.93-17.03,2.04-25.47,1.05-8.78-1.03-17.57-.45-26.29-1.19-9.03-.77-18.14-.8-27.08-2.57-37.14-2.11-74.29-3.96-111.41-6.4-32.24-2.12-64.43-4.9-96.65-7.39-13.72-1.94-27.45-1.92-41.17,0-4.56,3.25-9.12,6.51-13.68,9.76-2.7,1.16-5.39,1.97-8.04-.11l.05.06c-2.03-2.69-.48-3.51,1.88-4.98,8.98-5.62,18.6-10.31,26.27-17.88,1.42-1.4,3.03-2.5,2.92-4.76,2.56-14.46,8.27-27.95,12.81-41.81,10.35-31.58,20.32-63.29,30.91-94.79,8.55-25.42,17.68-50.65,24.56-76.61.29-1.11,1.64-1.94,2.5-2.9,2.53-4.63,5.3-5.61,7.8-.12,1.79,3.94.87,8.32,1.33,12.5-1.05,17.93-5,35.45-8.23,53.03-3.18,17.34-3.83,35.05-7.61,52.23-5.74,26.05-6.02,53.08-14.49,78.6-.53,1.59-1.14,3.03-2.57,4-5.45-.15-7.3,7.03-13,6.37-6.28,4.71-3.07,6.84,2.36,7.48,11.35,1.34,22.71,2.56,34.03,4.06,25.83,3.42,51.87,5.21,77.62,9.16,22.24,3.42,44.59,5.6,66.87,8.29,18.96,2.29,38.28,3.48,57.02,7.93Z"/>
  <path class="cls-22" d="M364.32,600.69c23.27-.65,45.75,5.62,68.71,7.79,7.4.7,14.77,1.83,22.67,2.83-.51,4.91-4.6,6.36-7.7,7.99-7.18,3.77-9.55,9.84-10.69,17.35-5.4,35.57-11.05,71.1-16.72,106.62-4.33,27.15-8.88,54.27-13.24,81.42-1.02,6.32-4.78,12.21-3.05,18.97-8.52.26-17.13.93-23.8-6.06,6.33-2.35,13.61,6.56,18.04.65,3.44-4.59,2.85-12.55,3.45-18.87,1.72-18.14,4.8-36.04,7.59-54,4.25-27.33,8.03-54.74,12.27-82.07,2.04-13.15,4.66-26.21,7-39.31.74-4.14-.38-6.81-5.1-7.63-8.01-1.41-15.94-3.3-23.92-4.9-2.48-.5-5.43.19-6.54-3.11,11.3-3.12,21.21,4.27,32.21,4.33,4.15.02,5.66,4.78,6.85,9.21,1.99-11.7,4.68-22.91,19.61-28.96-29.11-.56-54.01-9.04-79.93-8.57-2.97.05-5.71-1.23-7.69-3.67Z"/>
  <path class="cls-16" d="M642.94,506.08c5.9-19.71,5.84-40.44,10.33-60.37,5.92-26.25,7.49-53.16,12.7-79.57,3.12-15.78,7.48-31.67,7.22-48.08,2.11-7.57-.64-15.55,1.89-23.09,1.95-4.09,2.58-8.78,5.62-12.37,4.67.99,10.69-3.37,13.88,3.49-7.75-1.58-10.55,3.2-11.17,9.48-2.56,26.18-8.97,51.77-10.95,78.1-1.38,18.28-6.23,36.27-9.05,54.46-2.49,16.04-4.93,32.15-6.1,48.32-.38,5.23-7.36,11.3-.63,15.68,4.34,2.82,10.78,2.2,15.91,4.09,7.33,2.71,15.75,1.11,22.44,5.97-13,1.36-25.02-2.67-37.09-6.59-5.27-1.71-10.61-3-10.49,5.63.04,3.01-1.11,5.01-4.53,4.84Z"/>
  <path class="cls-6" d="M116.57,512.03c.87,11.51-4.76,22.16-4.13,33.81.38,6.92,1.65,9.47,9.27,9.77,56.91,2.29,113.83,1.67,170.75,1.8,11.31.03,22.95-.6,33.87.53,66.15,6.82,132.41,1.47,198.57,3.38,3.38.1,6.86.12,8.63,3.4,1.39,2.57-.95,2.25-2.52,2.18-3.02-3.81-7.27-2.24-10.99-2.27-69.67-.72-139.35-.73-209-2.13-64.42-1.29-128.84-2.75-193.27-2.97-6.77-.02-9.73-1.82-8.72-8.85,1.87-13.01.36-26.66,7.55-38.64Z"/>
  <path class="cls-18" d="M564.82,549.51c2.68.04,5.36.08,8.04.11-6.11,4.08-12.23,8.16-18.9,12.61,4.48,2.29,8.39,1.42,12.12,1.46,86.45.84,172.87,3.29,259.32,4.28,47.8.55,95.61,1.34,143.42,1.87,13.95.16,14.34.72,11.13,15.44,1.28-10.73-4.28-12.63-13.8-12.29-18.59.66-37.2-.92-55.79-1.31-40.45-.86-80.99.86-121.38-.92-49.69-2.19-99.36-.59-149.01-1.93-10.72-.29-21.74,1.05-31.92-.38-17.46-2.45-34.79-2.65-52.23-2.98-1.59-.03-3.4.02-4.18-1.83-.98-2.32.6-3.44,2.15-4.78,3.67-3.14,8.85-4.51,11.05-9.37Z"/>
  <path class="cls-6" d="M498.01,596.74c.78-2.31,1.56-4.61,2.44-7.24-10.7,5.78-22.29,4.66-32.62,2.6-17.58-3.52-35.1-2.65-52.67-3.31-29.9-1.14-59.59-5.21-89.52-6.32-21.11-.78-42.14-3.53-63.21-5.42-2.8-.25-6.01.96-8.07-2.13,20.03-2.31,39.85,1.64,59.61,3.28,18.19,1.51,36.49,2.74,54.68,4.24,28.94,2.39,57.92,5.5,87.06,5.19,5.55-.06,11.44-.47,16.6,1.12,16.17,4.97,28.3-2.27,40.44-11.27,5.63-4.17,12.18-7.1,18.31-10.59,1.15,1.94-2.59,5.73,2.36,6.23.77,3.88-2.95,2.37-4.36,3.62-9.23,8.4-20.65,13.42-31.05,20Z"/>
  <path class="cls-23" d="M867.83,549.38c-18.32-1.75-36.92-1.3-54.77-6.92-2.12-.67-4.53-.63-6.8-.61-26.21.21-51.65-5.85-77.42-9.27-19.68-2.62-39.48-4.32-59.22-6.56-12.6-1.43-25.05-4.18-37.83-4.12-4.04.02-7.19-2.25-7.5-6.32-.3-3.86,2.98-3.45,5.65-3.13-3.18,3.37-2.04,4.83,2.17,5.38,10.32,1.36,20.6,3.01,30.93,4.32,18.71,2.37,37.44,4.51,56.15,6.86,27.81,3.49,55.53,7.86,83.42,10.35,19.16,1.71,37.93,6.15,57.16,7.05,2.77.13,5.92.53,8.06,2.96Z"/>
  <path class="cls-23" d="M835.77,553.65c19.2-.93,38.19,1.75,57.26,3.2,6.44.49,12.96.08,21.57.08-7.67-2.59-14.73-.4-19.37-5.65,17.83.73,35.38,3.94,52.92,6.79,9.85,1.6,20.3.02,28.59,4.31-16.56,0-34.08.66-51.54-.16-22.48-1.06-44.91-3.39-67.37-5-7.48-.53-14.96-.82-22.06-3.56Z"/>
  <path class="cls-10" d="M207.34,572.84c-5.19.1-10.39-.03-15.56.37-5.55.43.06,2.67-.48,3.97-19.4-1.86-38.86-3.3-58.18-5.77-7.96-1.02-16.88.64-24-5.31,2.01-3.55,5-2.57,7.27-2.29,27.84,3.47,55.86,4.7,83.82,6.68,2.44.17,5.37-.25,7.13,2.35Z"/>
  <path class="cls-11" d="M1038.49,520.17c7.11,2.02,2.56-4.02,4.07-5.87,6.31,2.98,1.13,10.48,5.6,14.19,1.09,23.58,3.13,47.16-1.36,70.75-1.16-26.54-3.59-52.93-8.3-79.07Z"/>
  <path class="cls-13" d="M89.19,616.3c-1.32.6-3.03-5.17-3.91.11-.56,3.35-.29,6.84-.39,10.26-5.95-7.44-4.61-16.71-5.33-25.09-1.14-13.29-.19-26.76-.13-40.15,7.12,1.52,1.48,8.91,5.47,11.87-.46,14.52,2.14,28.74,4.29,43Z"/>
  <path class="cls-15" d="M124.29,745.98c1.08,2.9,4.23,4.91,3.7,9.81-12.91-12.27-24.94-24-33.25-38.99,2.32.69,3.2-1.26,4.49-2.45,8.46,10.46,15.29,22.2,25.06,31.63Z"/>
  <path class="cls-5" d="M99.23,714.35c-.19,3.22-2.09,3.3-4.49,2.45-6.89-6.79-11.78-14.89-15.49-23.75,2.17.17,6.02,6.07,5.86-1.71,4.71,7.67,9.42,15.34,14.13,23.01Z"/>
  <path class="cls-2" d="M677.35,294.37c-1.38,7.9-2.77,15.81-4.15,23.71-.13-3.55-.13-7.12-.41-10.66-.49-6.11-3.36-3.67-6.07-1.57-.63-7.93,5.27-13.94,6.32-21.38,3.21-3.91,5.48-2.78,5.96,1.63.3,2.7-1.08,5.51-1.66,8.28Z"/>
  <path class="cls-12" d="M991.22,480.82c-5.18-11-10.36-22-15.54-33,9.84,7.57,15.09,18.05,19.9,28.81-3.95-1.19-2.38,3.34-4.36,4.19Z"/>
  <path class="cls-4" d="M84.9,573.3c-6.28-1.9-1.2-9.04-5.47-11.87-1.35-6.44,1.88-11.97,5.47-17.93v29.79Z"/>
  <path class="cls-18" d="M595.95,521.95c3.75,2.8.8,4.36-1.24,5.76-8.75,5.99-17.51,11.96-26.43,17.68-1.76,1.13-3.23,1.99-3.4,4.18-1.51-.13-3.02-.26-4.53-.39,1.42-4.99,6.25-6.73,9.93-8.64,9.57-4.95,18.09-11.05,25.68-18.59Z"/>
  <path class="cls-19" d="M991.22,480.82c.75-2.13-.6-6.44,4.36-4.19,3.69,7.73,10.46,14.21,9.69,23.76-2.18-4.2-4.3-8.44-6.59-12.58-.48-.87-1.4-2.76-2.75-.99-.67.88-.44,2.44-.61,3.7-4.53-1.9-3.38-6.19-4.1-9.69Z"/>
  <path class="cls-10" d="M254.36,574.87c-14.03.06-28.07.12-42.1.17-2.02,0-3.92-.25-5.05-2.25,15.73.31,31.54-.91,47.15,2.08Z"/>
  <path class="cls-6" d="M535.3,572.77c3.45-2.4,4.37.18,3.8,2.55-1.8,7.5-3.48,15.25-11.16,19.45-1.84-4.42,2.05-6.57,3.78-9.57,2.52-3.76,2.98-8.11,3.58-12.42Z"/>
  <path class="cls-18" d="M586.54,539.86c13.72-3.99,27.45-3.18,41.17,0-13.72,0-27.45,0-41.17,0Z"/>
  <path class="cls-17" d="M478.58,634.18c1.6-10.74,4.5-21,11.23-29.81-2.43,10.43-5.92,20.47-11.23,29.81Z"/>
  <path class="cls-19" d="M1001.15,510.26c6.81,3.89,3.42,10.5,4.08,15.94.46,3.84-.06,7.8-.15,11.71-1.21-9.23-4.24-18.2-3.93-27.65Z"/>
  <path class="cls-10" d="M191.24,577.15c10.19-1.18,19.99.41,29.52,4.04-10-.2-20.08.2-29.52-4.04Z"/>
  <path class="cls-1" d="M203.33,773.19c-8.5-2.76-13.26-10.27-19.76-15.57,9,2.13,13.91,9.45,19.76,15.57Z"/>
  <path class="cls-19" d="M995.38,490.67c4.15,5.3,6.11,11.27,5.59,18.01-4.34-5.24-5.43-11.48-5.59-18.01Z"/>
  <path class="cls-23" d="M895.21,551.29c-8.6.12-17.33,1.94-25.67-1.76,8.64-.65,17.21-.29,25.67,1.76Z"/>
  <path class="cls-3" d="M677.35,294.37c.1-2.51.12-5.02.32-7.52.37-4.59-1.98-3.74-4.63-2.39.98-7.13,4.65-3.17,7.67-1.85.48,4.38-.45,8.35-3.37,11.76Z"/>
  <path class="cls-11" d="M1032.3,502.56c4.78,4.26,6.22,9.77,5.97,15.92-4.39-4.41-5.37-10.09-5.97-15.92Z"/>
  <path class="cls-24" d="M991.53,429.62c4.43,3.79,8.59,7.77,9.74,13.86-4.81-3.52-8.79-7.63-9.74-13.86Z"/>
  <path class="cls-19" d="M1011.19,514.13c-5.39-3.13-5.51-8.54-5.93-13.8,4.52,3.51,5.29,8.63,5.93,13.8Z"/>
  <path class="cls-8" d="M222.72,810.88c6.43.46,10.32,4.75,14.04,9.3-6.42-.48-9.88-5.42-14.04-9.3Z"/>
  <path class="cls-25" d="M535.3,572.77c3.4,5.46-.15,8.92-3.58,12.42-1.49-2.63,4.31-7.54-2.65-8.45,1.45-1.21,2.91-2.42,4.36-3.62.66.09,1.28-.02,1.87-.34Z"/>
  <path class="cls-18" d="M545.22,553.38c-1.1-5.46,2.24-8.65,5.95-11.64-.04,4.88-1.09,9.23-5.95,11.64Z"/>
  <path class="cls-5" d="M65.77,669.31c7.46,6.15,10.42,14.86,13.41,23.55-7.18-6.31-9.64-15.3-13.41-23.55Z"/>
</svg>