<?xml version="1.0" encoding="UTF-8"?>
<svg id="Layer_1" xmlns="http://www.w3.org/2000/svg" viewBox="0 0 1080 1080">
  <defs>
    <style>
      .cls-1 {
        fill: #fe0000;
      }
    </style>
  </defs>
  <path class="cls-1" d="M262.87,990.27c7.52-27.05,13.65-50.78,20.84-74.19,3.23-10.53,1.8-16.7-7.8-23.89-97.26-72.81-157.91-168.85-167.99-290.46-14.55-175.63,58.89-308.78,208.53-400.11,51.91-31.68,109.26-49.02,169.65-55.64,9.99-1.09,14.03-4.99,16.44-14.36,7.43-28.8,15.77-57.37,23.85-86,.95-3.37,2.42-6.58,4.97-13.38,9.03,31.96,17.22,60.39,25.07,88.9,5.99,21.78,5.88,21.26,28.08,24.31,171.75,23.6,297.63,111.57,358.34,275.19,58.64,158.03,22.78,301.94-91.83,425.2-19.45,20.92-43.35,37.85-66.03,55.54-7.45,5.81-9.47,10.49-6.79,19.36,6.99,23.1,13.06,46.48,17.02,71.89-3.55-2.85-7.19-5.59-10.62-8.57-15.21-13.2-30.69-26.12-45.39-39.87-7.62-7.13-13.98-8.52-24.13-4.14-98.28,42.46-199.29,48.58-302.16,19.64-22.37-6.29-44.09-15.36-65.41-24.73-8.66-3.81-13.72-3.03-20.47,2.89-17.2,15.08-35.05,29.43-52.69,44.01-2.67,2.21-5.6,4.11-11.49,8.39ZM763.56,866.46c111.63-70.08,200.52-231.55,150.87-406.44-51.17-180.24-219.82-270.48-340.06-274.31,32.02,115.56,63.9,230.63,96.35,347.76-11.52,0-20.15-.31-28.74.07-14.4.64-24.52,10.58-25.02,24.05-.51,13.76,9.98,25.05,24.76,25.87,9.59.53,19.3.85,28.82-.06,10.6-1.01,15.23,2.83,18.04,13.23,18.28,67.58,37.22,134.99,55.99,202.44,6.22,22.34,12.57,44.64,18.98,67.39ZM298.96,858.78c1.8-5.62,3.3-9.87,4.51-14.2,23.16-82.8,46.43-165.57,69.2-248.48,2.6-9.48,6.24-13.96,16.65-13.17,11.83.9,23.78.41,35.68.15,16.14-.36,26.94-10.62,26.82-25.02-.13-14.32-10.94-24.28-27.1-24.61-10.73-.22-21.46-.04-34.4-.04,32.63-117.13,64.46-231.39,97.01-348.2-62.93,7.68-118.39,28.17-169.14,61.51-73.63,48.37-125.73,113.82-153.84,197.54-56.63,168.65,20.02,334.61,134.61,414.52ZM694,903.67c-4.07-2.9-7.96-5.23-11.33-8.14-35.65-30.81-71.47-61.45-106.57-92.88-5.45-4.88-10.09-13.23-10.83-20.42-9.52-91.92-18.26-183.93-27.22-275.91-.39-4.01-.97-8-1.46-12-2.72,1.72-3.3,2.99-3.45,4.3-10.26,93.68-20.64,187.34-30.48,281.07-.99,9.45-4.23,15.89-11.52,21.87-36.43,29.88-72.48,60.23-108.64,90.44-3.35,2.8-6.57,5.75-10.08,8.84,62.39,46.74,257.19,49.08,321.59,2.84Z"/>
</svg>