<?xml version="1.0" encoding="UTF-8"?>
<svg id="Layer_1" xmlns="http://www.w3.org/2000/svg" viewBox="0 0 1080 1080">
  <defs>
    <style>
      .cls-1 {
        fill: #444e57;
      }

      .cls-2 {
        fill: #112c5c;
      }

      .cls-3 {
        fill: #ce103e;
      }

      .cls-4 {
        fill: #e2ae24;
      }

      .cls-5 {
        fill: #ce113f;
      }

      .cls-6 {
        fill: #d48ea1;
      }

      .cls-7 {
        fill: #ce1542;
      }

      .cls-8 {
        fill: #8891a5;
      }

      .cls-9 {
        fill: #8c7e52;
      }

      .cls-10 {
        fill: #5f5f4e;
      }

      .cls-11 {
        fill: #deddde;
      }

      .cls-12 {
        fill: #4d5351;
      }

      .cls-13 {
        fill: #dedcdd;
      }

      .cls-14 {
        fill: #ddd9db;
      }

      .cls-15 {
        fill: #dabcc5;
      }

      .cls-16 {
        fill: #9299ab;
      }

      .cls-17 {
        fill: #fefefe;
      }

      .cls-18 {
        fill: #d24d6d;
      }
    </style>
  </defs>
  <path class="cls-2" d="M182.39,598.04c.28-.33.24-.62-.12-.87-1.39-2.11.04-4.68-1.14-6.82-.08-.69-.16-1.38-.24-2.07-1.16-2.14.09-4.65-1.03-6.8-.07-.69-.14-1.37-.22-2.06-1.38-2.96.29-6.28-1.08-9.24-.06-.72-.12-1.44-.17-2.16-1.49-3.89.33-8.08-1.09-11.98.62-1.94.19-3.85-.21-5.75-.91-13.5-.87-27.01-.02-40.51.47-1.91.72-3.84.25-5.79.34-1.1.74-2.2.01-3.3l.06.12c-1.27-.96-1.66-2.58-2.8-3.64l-.03-.04c-.35-.49-.81-.88-1.18-1.36l.03.04c-.49-.41-.97-.82-1.26-1.4l.08.09c-.59-.34-1.07-.78-1.3-1.44l.12.12c-.69-.27-1.19-.71-1.32-1.47l.13.14c-.79-.19-1.3-.62-1.32-1.49l.14.14c-1.9-1.17-2.86-3.16-4.25-4.78h0c-.4-.46-.87-.86-1.23-1.36l.04.05c-.5-.39-.97-.82-1.28-1.39l.08.09c-.58-.34-1.05-.78-1.33-1.4l.11.11c-.65-.3-1.13-.74-1.32-1.45l.13.13c-.73-.24-1.25-.67-1.31-1.49l.13.13c-.85-.11-1.34-.56-1.38-1.43l.14.14c-1.9-1.14-2.8-3.19-4.28-4.72l-.04-.05c-.36-.46-.76-.89-1.19-1.29h0c-.41-.45-.86-.86-1.24-1.33l.03.03c-.47-.4-.93-.82-1.28-1.35l.06.06c-.53-.37-.99-.81-1.31-1.38l.08.09c-.58-.33-1.05-.78-1.33-1.39l.1.1c-.63-.3-1.1-.75-1.35-1.41l.12.12c-.68-.27-1.16-.72-1.35-1.44l.13.13c-.73-.23-1.22-.67-1.35-1.45l.13.14c-.79-.17-1.3-.61-1.34-1.46l.13.13c-.87-.07-1.34-.54-1.41-1.4l.15.14c-3.64-3.6-7.41-7.07-10.63-11.07l-.04-.05c-.35-.46-.76-.88-1.21-1.25l-.03-.03c-.38-.45-.79-.87-1.24-1.25l-.02-.02c-.38-.47-.82-.87-1.23-1.31h.01c-.44-.4-.88-.83-1.28-1.28l.02.02c-.46-.4-.89-.83-1.3-1.29l.02.02c-.46-.42-.92-.83-1.27-1.35l.06.07c-1.09-1.19-.85-2.46-.22-3.75.36-.3.43-.65.2-1.05,1.23-1.58-.12-3.74,1.19-5.3l.31-.34-.16-.43c.73-1.34.14-2.99,1.03-4.29.35-.3.4-.64.18-1.03.94-1.19.17-2.83,1.07-4.03.36-.3.43-.65.2-1.05.96-1.18.17-2.82,1.08-4.01.35-.28.42-.61.21-1.01.93-1.2.12-2.88,1.12-4.07.37-.2.44-.48.2-.83.8-1.3.06-3.02,1.17-4.23v.04c1.1-1.06.17-2.73,1.13-3.83.36-.25.43-.57.22-.95.91-1.22.02-2.98,1.25-4.1l-.03.07c1.04-1.1.1-2.82,1.22-3.9h0c1.18-1.01.13-2.76,1.25-3.8l.32-.28-.13-.4c.34-1.05.37-2.19,1.07-3.12l.32-.28-.13-.41c.34-1.05.37-2.19,1.07-3.12l.32-.28-.12-.41c.33-1.05.37-2.21,1.12-3.11v.02c1.17-1.01.06-2.83,1.36-3.79l-.04.08c1.08-1.06-.06-2.93,1.42-3.84l-.07.13c.5-.86.36-1.97,1.09-2.74l.32-.28-.13-.41c.35-1.05.33-2.24,1.21-3.08l-.04.08c.63-.77.45-1.88,1.11-2.64.37-.15.46-.4.26-.74.38-1.02.32-2.21,1.22-3.03l-.04.08c.63-.77.45-1.88,1.11-2.64.37-.15.46-.39.26-.74.39-1.02.26-2.27,1.33-3l-.07.13c.5-.86.37-1.99,1.19-2.71l-.03.05c.68-.74.47-1.86,1.14-2.6.37-.15.46-.39.26-.74.41-1.02.24-2.3,1.38-2.97l-.09.14c.45-.89.3-2.06,1.26-2.71l-.06.1c.56-.82.4-1.97,1.24-2.67l-.03.06c.67-.75.48-1.91,1.26-2.6v.03c.7-.72.51-1.86,1.21-2.59v-.02c.81-.65.57-1.82,1.27-2.52v-.02c.81-.65.57-1.82,1.27-2.52v-.02c.81-.65.57-1.82,1.27-2.52v-.02c.81-.65.57-1.82,1.27-2.52v-.02c.81-.65.56-1.83,1.3-2.51h0c.77-.67.53-1.85,1.31-2.52v.03c.72-.7.49-1.9,1.32-2.54l-.03.06c.69-.73.44-1.97,1.4-2.55l-.06.1c.59-.8.34-2.06,1.44-2.58l-.09.13c.49-.87.2-2.17,1.48-2.58l-.14.16c-.02-.75.57-1.14.98-1.64v-.02c.83-.63.55-1.85,1.38-2.47l-.03.05c.7-.71.44-1.99,1.46-2.52l-.08.12c.55-.82.24-2.16,1.54-2.52l-.14.16c-.04-.77.55-1.16,1-1.64h0c.77-.65.49-1.92,1.46-2.47l-.07.1c.61-.78.28-2.14,1.57-2.49l-.14.16c-.03-.78.55-1.18,1.04-1.63l-.02.03c.74-.68.44-2,1.54-2.45l-.12.15c.13-.67.67-1.07,1.04-1.57l.02-.04c.85-.58.54-1.87,1.47-2.41l-.06.09c.76-1.36,1.49-2.75,2.56-3.9l-.04.07c.69-.71.34-2.11,1.63-2.41l-.14.15c-.03-.81.54-1.2,1.1-1.61l-.04.06c.69-.71.34-2.11,1.63-2.41l-.14.15c-.03-.81.54-1.2,1.1-1.61l-.04.06c.85-1.31,1.48-2.75,2.64-3.84l-.08.1c.26-.58.77-.96,1.14-1.45l.02-.03c.84-.57.51-1.94,1.59-2.35l-.13.15c.15-.68.67-1.08,1.14-1.53v.02c.77-.62.4-2.06,1.67-2.32l-.14.15c-.02-.82.55-1.22,1.15-1.59l-.08.1c.26-.58.77-.96,1.15-1.45l.02-.03c.84-.55.47-2.01,1.71-2.26l-.15.15c.01-.8.57-1.21,1.17-1.58l-.08.1c.26-.58.77-.96,1.15-1.45l.02-.03c.84-.55.47-2.01,1.71-2.26l-.15.15c.02-.81.57-1.22,1.21-1.56l-.1.11c.26-.6.74-1.02,1.22-1.45l-.02.02c1.01-1.18,1.42-2.81,2.83-3.68l-.13.14c.15-.72.66-1.14,1.25-1.5l-.08.09c.28-.57.78-.97,1.2-1.42h0c1.1-1.09,1.38-2.86,2.95-3.56l-.14.14c.03-.82.57-1.24,1.25-1.54l-.11.12c.23-.65.72-1.08,1.27-1.45l-.06.07c.32-.54.8-.93,1.22-1.39h0c1.11-1.08,1.35-2.88,2.97-3.53l-.14.14c.02-.87.53-1.3,1.32-1.49l-.13.14c.14-.76.63-1.2,1.32-1.47l-.12.12c.22-.66.71-1.1,1.29-1.45l-.08.09c.3-.57.78-.97,1.24-1.4l-.02.02c.4-.45.85-.85,1.21-1.32l.02-.02c1.74-2.18,3.43-4.4,5.67-6.13,10.16-9.86,20.01-20.02,30.5-29.56,2.98-2.71,5.44-3.52,9.49-2.48,23.16,5.96,46.51,11.17,69.98,15.83,3.55.7,6.02-.05,8.79-1.89,30.5-20.24,63.22-35.91,98.15-47,30-9.53,60.68-15.48,92.11-17.7,78.32-5.53,152.14,9.81,221.3,46.95,10.45,5.61,20.66,11.65,30.41,18.37,3.11,2.14,6,2.52,9.51,1.82,22.84-4.56,45.6-9.5,68.12-15.41,5.01-1.32,8.25-.35,11.75,3.12,8.23,8.18,16.77,16.06,25.18,24.06.61.34,1.14.75,1.39,1.43l-.12-.12c.67.26,1.14.72,1.38,1.41l-.12-.13c.7.25,1.19.7,1.35,1.44l-.13-.14c.76.2,1.27.64,1.34,1.47l-.14-.14c2.11,1.78,3.83,3.9,5.49,6.08h0c.4.46.86.87,1.23,1.36l-.04-.05c.5.39.97.82,1.28,1.39l-.08-.09c.59.34,1.07.78,1.3,1.44l-.12-.12c.69.27,1.19.71,1.32,1.47l-.14-.14c1.47.78,1.74,2.53,2.92,3.54l.04.05c.33.5.79.89,1.18,1.33l-.02-.02c.46.43.95.83,1.24,1.41l-.08-.09c.59.36,1.1.78,1.25,1.5l-.13-.14c1.42.82,1.72,2.55,2.89,3.56l.04.05c.34.5.81.89,1.16,1.38l-.04-.05c.51.41,1.01.83,1.2,1.5l-.12-.13c1.35.9,1.72,2.55,2.83,3.64l.02.02c.38.48.89.87,1.16,1.44l-.08-.09c.59.36,1.11.78,1.22,1.52l-.14-.15c1.14.32.77,1.75,1.67,2.25l.05.07c.31.52.81.9,1.12,1.42l-.06-.07c.55.39,1.06.81,1.21,1.52l-.13-.15c1.11.36.75,1.76,1.63,2.28l.04.07c.32.52.84.89,1.11,1.46l-.07-.09c.59.38,1.15.78,1.16,1.58l-.15-.15c1.24.26.87,1.71,1.7,2.28v.02c.42.48.94.89,1.1,1.55l-.12-.14c1.06.4.71,1.78,1.6,2.31l.04.07c.32.52.85.89,1.1,1.47l-.08-.1c1.16,1.09,1.8,2.54,2.64,3.84l-.04-.06c.56.41,1.13.8,1.1,1.61l-.15-.15c1.29.3.95,1.7,1.63,2.41l-.04-.06c.56.41,1.13.8,1.1,1.61l-.15-.15c1.29.3.95,1.7,1.63,2.41l-.04-.07c1.06,1.17,1.85,2.53,2.53,3.94l-.08-.11c.99.51.68,1.81,1.5,2.42v.02c.42.49.95.89,1.08,1.56l-.12-.15c1.11.48.83,1.78,1.5,2.51l-.04-.06c1.03,1.21,1.92,2.5,2.46,4.01l-.09-.13c1.1.48.82,1.78,1.5,2.51l-.04-.06c.85.58.54,1.84,1.42,2.4l.03.07c.35.52.93.92.96,1.63l-.13-.16c1.2.43.92,1.75,1.51,2.54l-.07-.1c.97.57.71,1.82,1.42,2.53l-.02-.05c.81.63.54,1.85,1.36,2.47v.02c.42.5,1.01.89.99,1.64l-.14-.16c1.29.44,1.03,1.71,1.42,2.63l-.1-.13c1.2.46.93,1.75,1.47,2.58l-.08-.12c1.03.59.83,1.8,1.36,2.65l-.07-.12c1.02.57.8,1.81,1.39,2.61l-.06-.1c.94.6.72,1.83,1.38,2.58l-.04-.07c.87.66.68,1.84,1.29,2.63l-.05-.08c.9.64.7,1.84,1.32,2.62l-.05-.08c.9.65.71,1.84,1.3,2.64l-.06-.1c.94.65.77,1.83,1.29,2.68l-.07-.12c1.02.61.83,1.81,1.33,2.67l-.08-.13c1.05.62.89,1.8,1.27,2.73l-.1-.15c1.7.7.34,2.76,1.63,3.63v.02c.7.74.53,1.87,1.21,2.62l-.03-.05c.82.71.69,1.85,1.21,2.7l-.07-.12c1.04.74.92,1.98,1.31,3l-.09.44.34.3c.67.72.42,1.86,1.18,2.54v-.02c.74.76.64,1.87,1.13,2.73l-.07-.13c1.5.85.27,2.78,1.49,3.74h0c.74.75.64,1.86,1.13,2.72l-.07-.13c1.5.86.28,2.78,1.48,3.75v-.02c.75.88.76,2.04,1.12,3.06-.2.35-.12.59.26.74.66.78.52,1.87,1.06,2.7l-.06-.12c1.42.94.31,2.79,1.39,3.85l-.04-.08c1.3.96.18,2.79,1.37,3.78v-.02c1.13,1.04.1,2.79,1.27,3.82v-.02c.73.91.78,2.06,1.11,3.12l-.13.4.32.28c1.12,1.06.09,2.8,1.23,3.85v-.04c1.15,1.06.18,2.8,1.23,3.89l-.03-.07c1.23,1.12.34,2.88,1.25,4.1-.21.38-.14.7.22.95.59.95.67,2.06,1,3.1l-.14.4.32.28c1.07,1.19.25,2.89,1.15,4.13-.21.38-.14.7.22.96.94,1.13.07,2.78,1.11,3.88l-.02-.07c1.49,1.43-.04,3.64,1.32,5.1v-.05c1.09,1.27.44,3,1.15,4.37l-.17.38.3.29c1.38,1.5-.05,3.66,1.23,5.19l-.03-.08c1.45,1.62.2,3.83,1.23,5.54l-.15.43.32.33c1.27,1.57-.05,3.71,1.17,5.3-.24.28-.24.56.01.84-.69.74-.31,2.17-1.63,2.5l.16-.17c-.06.86-.54,1.32-1.39,1.42l.13-.14c-.07.83-.57,1.27-1.35,1.46l.14-.14c-.17.76-.64,1.23-1.41,1.4l.13-.13c-.16.76-.64,1.21-1.37,1.43l.13-.13c-.2.72-.68,1.17-1.36,1.43l.12-.12c-.24.68-.71,1.13-1.36,1.41l.11-.11c-.27.64-.74,1.1-1.37,1.38l.11-.11c-.28.63-.74,1.08-1.36,1.39l.1-.1c-.29.6-.76,1.04-1.31,1.4l.07-.07c-.34.55-.79.99-1.33,1.35l.07-.07c-.34.54-.79.98-1.33,1.34l.06-.06c-.34.53-.8.95-1.28,1.35l.03-.03c-.39.47-.83.9-1.29,1.3l.02-.02c-.4.45-.84.87-1.25,1.31h0c-.43.41-.84.83-1.22,1.29l-.03.03c-2.07,2.61-4.3,5.08-6.82,7.28l.14-.14c-.04.88-.53,1.33-1.37,1.44l.13-.14c-.07.83-.57,1.27-1.34,1.47l.13-.14c-.16.74-.65,1.19-1.34,1.45l.12-.12c-.23.67-.71,1.11-1.33,1.43l.1-.1c-.29.6-.76,1.04-1.31,1.4l.07-.07c-.33.55-.79.98-1.29,1.36l.04-.05c-.36.49-.82.9-1.23,1.35h0c-.43.4-.83.83-1.19,1.29l-.04.05c-1.47,1.53-2.4,3.56-4.27,4.73l.14-.14c-.04.85-.55,1.29-1.33,1.47l.13-.14c-.14.76-.63,1.2-1.32,1.47l.12-.12c-.23.67-.71,1.1-1.3,1.44l.08-.09c-.31.57-.77,1-1.28,1.39l.04-.05c-.36.49-.82.9-1.23,1.35h0c-1.37,1.64-2.39,3.58-4.22,4.83l.14-.14c-.06.82-.57,1.25-1.31,1.49l.12-.13c-.18.7-.68,1.14-1.28,1.48l.09-.09c-.27.59-.77.98-1.22,1.42h0c-1.18,2.67-.76,5.38-.12,8.09-.51,1.98-.22,3.92.21,5.87.89,10.55.89,21.1,0,31.65-.36,2.33-.78,4.66-.2,7.02-1.42,4.33.38,8.92-1.09,13.25-.45,1.05-.7,2.11-.19,3.21-1.19,2.62.18,5.56-1.04,8.18l-.19,2.3c-1.41,2.47.27,5.37-1.12,7.84-.41.61-.53,1.25-.22,1.94-.9,1.78,0,3.89-1.02,5.65l-.26,2.04c-.96,1.74.05,3.85-1.04,5.56-.34.3-.4.65-.16,1.05-1.19,1.59.05,3.69-1.11,5.29-.34.3-.4.65-.16,1.05-1.23,1.58.12,3.74-1.19,5.3l-.31.34.16.43c-.74,1.34-.13,3-1.04,4.29-.34.3-.4.64-.17,1.03-.94,1.19-.17,2.83-1.07,4.03-.36.29-.42.64-.2,1.04-.95,1.19-.16,2.84-1.08,4.03-.36.25-.43.57-.22.96-.89,1.23-.09,2.93-1.14,4.12l-.32.32.14.43c-.79,1.32.04,3.11-1.27,4.27l.05-.1c-.97,1.14-.06,2.85-1.21,3.94v-.04c-1.12,1.05-.13,2.77-1.19,3.84l-.33.31.12.43c-.36,1.01-.39,2.13-1.02,3.05-.37.19-.45.46-.24.82-.41.97-.39,2.09-1.03,2.98-.37.19-.45.46-.24.82-.42.98-.37,2.12-1.07,2.99l-.33.31.11.43c-.36,1.03-.38,2.17-1.12,3.06h0c-1.2.98-.07,2.81-1.38,3.77l.04-.08c-1.1,1.04.11,2.96-1.49,3.81l.09-.14c-.41.91-.35,2-1.08,2.78h0c-1.22.95,0,2.88-1.49,3.73l.07-.13c-.49.86-.39,1.97-1.14,2.73v-.02c-1.24.93.09,2.95-1.59,3.69l.1-.15c-.38.93-.24,2.09-1.24,2.74l.07-.12c-.52.85-.39,1.97-1.17,2.71l.02-.03c-.71.73-.53,1.85-1.19,2.6l-.02.05c-1.34.84.04,2.92-1.65,3.59l.1-.14c-.38.93-.22,2.11-1.27,2.73l.08-.12c-.5.86-.31,2.06-1.33,2.67l.07-.12c-.52.85-.34,2.04-1.31,2.67l.06-.11c-.57.82-.38,2.01-1.31,2.65l.05-.09c-.6.79-.39,2.01-1.36,2.61l.06-.1c-.58.81-.36,2.04-1.38,2.62l.07-.12c-.52.85-.32,2.06-1.35,2.65l.08-.12c-.53.84-.29,2.09-1.42,2.61l.09-.13c-.46.88-.21,2.15-1.43,2.63l.13-.17c-.03.72-.61,1.11-.98,1.63l-.02.05c-.85.59-.57,1.81-1.35,2.45v-.03c-.73.68-.46,1.94-1.42,2.5l.06-.1c-.59.8-.34,2.07-1.45,2.58l.12-.15c-.13.66-.67,1.06-1.02,1.58l-.03.07c-.88.57-.57,1.81-1.39,2.41l.03-.05c-.71.7-.42,2.01-1.51,2.49l.09-.13c-.54,1.5-1.43,2.8-2.46,4.01l.04-.06c-.68.73-.39,2.04-1.51,2.5l.13-.15c-.12.68-.66,1.09-1.09,1.56h0c-.8.62-.48,1.96-1.56,2.41l.12-.15c-.15.65-.68,1.05-1.06,1.56l-.02.04c-.85.58-.53,1.89-1.52,2.38l.1-.12c-.19.62-.75.98-1.07,1.51l-.04.07c-.89.53-.55,1.88-1.56,2.33l.11-.14c-.16.65-.72,1.02-1.09,1.52l-.02.03c-.84.57-.51,1.94-1.59,2.35l.12-.15c-.15.68-.67,1.08-1.13,1.54h0c-.78.6-.42,2.03-1.67,2.32l.15-.15c0,.8-.56,1.2-1.15,1.59l.05-.08c-.85,1.31-1.39,2.84-2.74,3.8l.12-.14c-.16.68-.67,1.1-1.18,1.52l.03-.04c-.96,1.22-1.43,2.81-2.79,3.73l.12-.14c-.16.68-.67,1.1-1.18,1.52l.03-.04c-1.01,1.18-1.34,2.89-2.91,3.63l.14-.14c-.01.8-.57,1.21-1.17,1.58l.08-.1c-.27.59-.77.99-1.22,1.42v-.02c-1.05,1.13-1.35,2.87-2.92,3.59l.14-.14c-.03.82-.57,1.24-1.25,1.54l.11-.12c-.22.65-.71,1.07-1.24,1.46l.05-.05c-.34.51-.82.9-1.19,1.37l-.02.02c-1.16,1.03-1.37,2.86-2.99,3.49l.14-.14c0,.86-.53,1.28-1.29,1.51l.13-.14c-.16.73-.66,1.16-1.3,1.48l.1-.11c-.28.61-.75,1.05-1.29,1.41l.06-.07c-.33.54-.8.95-1.26,1.37l.02-.02c-.39.45-.85.84-1.19,1.33l-.03.04c-1.75,2.09-3.36,4.31-5.53,6.01l.14-.14c-.06.86-.54,1.32-1.39,1.42l.13-.14c-.07.83-.57,1.27-1.35,1.46l.14-.14c-.17.76-.64,1.23-1.41,1.4l.13-.13c-.16.76-.64,1.21-1.37,1.43l.13-.13c-.2.72-.68,1.17-1.36,1.43l.12-.12c-.25.68-.71,1.14-1.39,1.39l.12-.12c-.25.68-.71,1.14-1.39,1.39l.12-.12c-.25.68-.71,1.14-1.39,1.39l.12-.12c-.25.68-.71,1.14-1.39,1.39l.12-.12c-.25.68-.71,1.15-1.41,1.38l.13-.12c-.25.7-.7,1.18-1.45,1.35l.13-.13c-.19.75-.65,1.22-1.42,1.39l.14-.14c-.19.77-.64,1.27-1.47,1.34l.14-.14c-.1.84-.56,1.32-1.43,1.39l.14-.14c-1.71,2.16-3.94,3.77-6.04,5.51l-.04.03c-.49.34-.89.8-1.34,1.19l.02-.02c-.42.46-.84.92-1.38,1.25l.07-.06c-.37.54-.81,1.01-1.42,1.29l.11-.1c-.31.63-.75,1.12-1.47,1.3l.13-.12c-.25.73-.67,1.25-1.52,1.28l.14-.14c-.67,1.58-2.49,1.81-3.53,2.96l-.02.02c-.48.38-.87.85-1.38,1.19l.05-.05c-.4.52-.82,1.01-1.47,1.23l.12-.11c-.3.68-.72,1.21-1.54,1.24l.14-.14c-.71,1.56-2.48,1.85-3.59,2.93h0c-.46.43-.85.94-1.47,1.17l.11-.09c-.34.63-.75,1.17-1.55,1.22l.14-.14c-.76,1.53-2.47,1.89-3.66,2.88l.04-.03c-.42.5-.84,1.01-1.52,1.18l.14-.12c-.93,1.35-2.52,1.82-3.75,2.78l.04-.03c-.42.5-.84,1.01-1.52,1.18l.14-.12c-.96,1.34-2.5,1.89-3.82,2.73l.08-.05c-.38.58-.79,1.14-1.59,1.15l.15-.15c-.27,1.24-1.72.87-2.32,1.68h0c-.47.43-.88.95-1.55,1.1l.15-.12c-.42,1.08-1.79.74-2.37,1.58l-.03.02c-.51.37-.88.93-1.53,1.09l.14-.11c-.45,1.01-1.81.67-2.34,1.56l-.07.04c-.53.32-.9.87-1.52,1.07l.13-.1c-.49.98-1.82.66-2.39,1.51l-.04.02c-.5.37-.91.9-1.56,1.05l.15-.12c-.45,1.07-1.79.75-2.42,1.55h0c-.48.43-.88.96-1.57,1.08l.15-.13c-.47,1.11-1.78.83-2.52,1.5l.06-.04c-1.2,1.04-2.53,1.86-3.99,2.49l.12-.08c-.53,1.02-1.81.75-2.53,1.46l.05-.02c-1.25.96-2.53,1.88-4.04,2.41l.13-.09c-.5,1.09-1.79.82-2.55,1.47l.08-.05c-.6.88-1.85.62-2.51,1.39h0c-.65.74-1.87.45-2.44,1.32l-.07.03c-.53.35-.92.92-1.64.96l.16-.13c-.47,1.2-1.75.95-2.62,1.44l.13-.09c-.55,1.08-1.8.85-2.63,1.4l.12-.07c-.59,1-1.82.78-2.63,1.37l.1-.06c-.59.95-1.83.71-2.57,1.39l.06-.03c-.67.83-1.86.62-2.6,1.3l.06-.03c-.67.83-1.86.62-2.6,1.3l.06-.03c-.98.73-1.91,1.52-2.52,2.62h0c-1.19,1-.14,2.77-1.3,3.79v-.02c-1.15,1.03-.1,2.8-1.3,3.82v-.04c-1.12,1.04-.06,2.83-1.31,3.83l.02-.06c-1.08,1.07-.06,2.84-1.3,3.86l.02-.06c-1.07,1.08-.08,2.83-1.26,3.87v-.04c-1.11,1.05-.09,2.81-1.26,3.85v-.04c-1.13,1.05-.1,2.79-1.22,3.85l-.32.28.13.4c-.33,1.04-.39,2.18-1.04,3.11-.36.2-.44.47-.21.81-.4.97-.4,2.08-1.01,2.98-.36.25-.43.57-.22.95-.93,1.2.03,3.01-1.31,4.08l.05-.1c-.97,1.14-.06,2.85-1.21,3.94v-.04c-1.12,1.06-.13,2.76-1.18,3.84-.37.2-.43.47-.21.81-.83,1.29.04,3.08-1.27,4.22l.05-.1c-.99,1.14-.05,2.85-1.18,3.95l-.31.29.15.39c-.32,1.04-.4,2.15-.99,3.1-.36.25-.43.57-.22.96-.91,1.23-.06,2.96-1.17,4.13l-.31.28.16.39c-.74,1.36.03,3.15-1.26,4.35l.05-.1c-.97,1.14-.08,2.83-1.15,3.95l-.32.32.14.43c-.46,1.01-.23,2.38-1.57,2.91l-.47-.08-.36.32c-.92.6-2.04.63-3.04,1l-.44-.13-.33.32c-1.08,1.07-2.8.07-3.86,1.2h.03c-1.09,1.13-2.81.22-3.95,1.19l.1-.05c-1.15,1.3-2.94.44-4.24,1.26l-.47-.12-.35.32c-1.11,1.02-2.8.1-3.9,1.15l.07-.02c-1.22,1.17-2.97.43-4.31,1.19l-.44-.14-.33.32c-1.25,1.02-2.95.3-4.26,1.1l-.47-.13-.37.32c-1.19,1.01-2.88.19-4.09,1.12l-.54-.12-.47.29c-1.3.91-2.97.3-4.3,1.04l-.44-.15-.34.32c-1.32.98-3.02.39-4.41,1.08l-.38-.18-.29.29c-1.67,1.33-3.87.15-5.6,1.16l-.44-.15-.34.31c-1.7,1.22-3.85.12-5.59,1.11l-.43-.17-.34.3c-1.68,1.26-3.86.13-5.6,1.13-.69.08-1.37.16-2.06.24-1.72,1.07-3.83.07-5.57,1.03-.69.08-1.38.16-2.07.24-2.05,1.25-4.56-.22-6.6,1.09l-.54-.17-.49.28c-2.6,1.39-5.6-.12-8.22,1.11-.69-.33-1.34-.2-1.97.18-3.04,1.41-6.44-.21-9.49,1.09-1.12-.39-2.19-.19-3.25.23-3.92,1.39-8.11-.33-12.02,1.05-1.53-.53-3.03-.21-4.52.2-17.39.91-34.79.89-52.18,0-1.53-.42-3.07-.61-4.63-.21-4.31-1.44-8.89.4-13.2-1.08-.73-.06-1.45-.11-2.18-.17-2.97-1.38-6.31.33-9.28-1.1-.69-.06-1.38-.13-2.08-.19-2.58-1.28-5.57.34-8.12-1.13l-.41-.3-.47.18c-2.11-1.19-4.64.17-6.74-1.07-.61-.42-1.26-.54-1.96-.23-1.79-.92-3.92.02-5.67-1.04l-.49-.29-.56.14c-2.02-1.37-4.6.27-6.6-1.2l-.34-.3-.43.17c-1.74-1-3.91.13-5.6-1.13l-.34-.3-.43.16c-1.34-.73-3.01-.13-4.31-1.03l-.49-.29-.56.14c-1.57-1.24-3.78.18-5.3-1.27l.07.02c-1.52-1.3-3.68.13-5.19-1.22l-.33-.3-.42.16c-1.34-.75-3.07-.05-4.31-1.16h.04c-1.46-1.36-3.7.21-5.12-1.34l.09.04c-1.13-1-2.82-.11-3.94-1.14l-.36-.32-.46.12c-1.3-.8-3.06,0-4.25-1.21l.07.03c-1.11-1.05-2.83-.09-3.92-1.19l-.28-.32-.41.13c-1.04-.32-2.17-.39-3.12-1.01l-.35-.34-.48.1c-1.29-.83-3.09.04-4.23-1.27l.1.05c-1.13-.98-2.89-.02-3.94-1.25l.07.03c-2.21-.48-3.46-1.86-3.81-4.07.22-.37.15-.69-.2-.95-1-1.09-.05-2.78-1.16-3.84v.04c-1.12-1.16-.29-2.89-1.18-4.12.21-.38.14-.7-.22-.95-.96-1.11-.03-2.77-1.14-3.83v.04c-1.12-1.16-.29-2.89-1.18-4.12.21-.38.14-.7-.22-.95-.59-.95-.67-2.07-1-3.1l.14-.4-.32-.28c-1.1-1.09-.14-2.8-1.2-3.9l.03.07c-1.23-1.12-.34-2.88-1.25-4.1.21-.38.14-.7-.22-.95-.6-.92-.64-2.03-1-3.03l.13-.44-.33-.32c-1.09-1.06-.05-2.79-1.23-3.81h0c-1.12-1.06-.17-2.78-1.23-3.87l.02.06c-1.23-1.04-.24-2.79-1.27-3.9l.04.09c-1.29-1.02-.3-2.79-1.29-3.91l.05.1c-1.35-1-.32-2.79-1.32-3.9l.05.1c-1.35-1-.32-2.79-1.32-3.9l.05.1c-1.35-1-.32-2.79-1.32-3.9l.05.1c-1.35-1-.32-2.79-1.32-3.9l.05.1c-1.36-.98-.3-2.79-1.34-3.88l.04.09c-1.32-.98-.24-2.79-1.35-3.84l.02.05c-.5-.41-.99-.83-1.22-1.47l.1.07c-.86-.5-2.07-.31-2.68-1.33l.12.07c-.85-.52-2.07-.32-2.67-1.34l.12.07c-.85-.52-2.07-.32-2.66-1.35l.12.08c-.85-.53-2.1-.29-2.63-1.41l.13.09c-.89-.46-2.16-.21-2.64-1.42l.16.12c-.72.03-1.08-.57-1.59-.91l-.25-.36-.43.05c-.8-.04-1.34-.56-1.89-1.06h-.02c-.63-.82-1.86-.55-2.49-1.36l.05.02c-.72-.7-1.97-.45-2.55-1.41l.1.06c-.8-.59-2.08-.34-2.59-1.44l.15.12c-.66-.13-1.06-.67-1.58-1.01l-.07-.03c-.57-.87-1.81-.58-2.43-1.36l.03.02c-.68-.74-1.97-.46-2.5-1.47l.14.1c-.52-.28-1.01-.6-1.48-.96l-.23-.37-.44.02c-.83-.04-1.39-.54-1.89-1.13l.03.02c-.68-.74-2.01-.44-2.47-1.53l.15.12c-.67-.13-1.07-.66-1.57-1.04l-.04-.02c-.59-.85-1.88-.54-2.42-1.47l.09.06c-1.37-.75-2.76-1.48-3.93-2.55l.07.04c-.71-.68-2.12-.34-2.42-1.62l.15.14c-.81.03-1.21-.54-1.62-1.1l.07.04c-1.32-.83-2.76-1.48-3.87-2.61l.09.07c-.56-.26-.93-.78-1.47-1.08l-.09-.05c-.5-.91-1.88-.55-2.31-1.58l.13.11c-.64-.19-1.04-.7-1.53-1.11h-.02c-.57-.84-2.03-.47-2.29-1.7l.15.14c-.81,0-1.21-.56-1.59-1.15l.09.07c-.57-.27-.95-.78-1.46-1.12l-.05-.03c-.54-.87-1.95-.51-2.3-1.63l.15.14c-.73-.12-1.14-.64-1.54-1.19l.07.06c-.53-.31-.91-.8-1.42-1.13l-.05-.04c-.51-.87-1.99-.49-2.23-1.71l.15.14c-.81-.01-1.22-.56-1.58-1.17l.1.08c-.59-.26-.97-.77-1.45-1.16h-.01c-1.09-1.11-2.78-1.46-3.64-2.86l.14.13c-.72-.15-1.15-.66-1.51-1.24l.09.08c-.58-.28-.97-.77-1.43-1.19h0c-1.09-1.1-2.88-1.36-3.57-2.94l.14.14c-.84-.03-1.27-.55-1.52-1.28l.13.12c-.71-.18-1.14-.67-1.48-1.27l.1.09c-.58-.3-1.01-.76-1.42-1.25l.04.03c-.48-.36-.87-.83-1.36-1.17l-.04-.03c-1.57-1.44-3.57-2.4-4.79-4.22l.14.14c-.83-.07-1.27-.57-1.48-1.33l.14.13c-.75-.16-1.19-.65-1.46-1.33l.12.12c-.67-.23-1.11-.71-1.45-1.29l.09.08c-.58-.32-1.02-.77-1.38-1.31l.07.07c-.54-.34-.97-.79-1.36-1.29l.05.04c-.5-.37-.92-.81-1.34-1.27l.02.02c-.45-.4-.87-.84-1.32-1.24h0c-.4-.44-.83-.84-1.29-1.22l-.03-.03c-.37-.45-.79-.86-1.25-1.21l-.05-.04c-.35-.46-.76-.87-1.23-1.21l-.04-.05c-1.97-1.38-3.63-3.08-5.07-5l-.06-.06c-.33-.47-.73-.89-1.19-1.23l-.04-.05c-.36-.46-.76-.88-1.22-1.24l-.03-.03c-.38-.45-.79-.87-1.24-1.25l-.02-.02c-.38-.47-.82-.87-1.23-1.31v.02c-.43-.42-.87-.84-1.26-1.31l.03.03c-.47-.4-.93-.82-1.28-1.35l.06.06c-.53-.37-.99-.81-1.31-1.38l.08.09c-.58-.34-1.05-.78-1.33-1.4l.11.11c-.65-.3-1.13-.74-1.32-1.45l.13.13c-.73-.24-1.25-.67-1.31-1.49l.14.14c-1.84-1.22-2.8-3.21-4.25-4.77l-.03-.04c-.35-.49-.81-.88-1.18-1.36l.03.04c-.49-.41-.97-.82-1.26-1.4l.08.09c-.59-.35-1.09-.78-1.28-1.47l.12.13c-.72-.26-1.25-.68-1.28-1.52l.14.14c-1.59-.69-1.85-2.47-2.96-3.55h0c-.42-.46-.92-.85-1.2-1.42l.08.09c-.59-.36-1.1-.78-1.25-1.5l.13.14c-1.41-.85-1.76-2.53-2.87-3.62h-.01c-.39-.49-.91-.88-1.17-1.46l.08.1c-.6-.36-1.13-.77-1.22-1.53l.14.15c-1.16-.3-.79-1.74-1.68-2.24l-.05-.07c-.31-.52-.8-.9-1.13-1.39l.04.05c-.52-.41-1.04-.82-1.17-1.53l.13.15c-1.11-.34-.73-1.76-1.65-2.23l-.06-.1c-.28-.54-.78-.91-1.09-1.43l.06.07c-.55-.4-1.1-.81-1.15-1.57l.14.15c-1.2-.31-.84-1.73-1.67-2.31v-.02c-.42-.48-.93-.88-1.12-1.52l.11.13c-1.29-1.01-1.87-2.5-2.7-3.82l.05.08c-.58-.39-1.15-.79-1.13-1.6l.15.15c-1.29-.3-.95-1.7-1.63-2.41l.04.06c-.56-.41-1.13-.8-1.1-1.61l.15.15c-1.29-.3-.95-1.7-1.63-2.41l.04.06c-.56-.41-1.13-.8-1.1-1.61l.15.15c-1.3-.31-.96-1.7-1.62-2.43l.06.08c-1.09-1.17-1.94-2.49-2.49-3.99l.09.13c-1.09-.46-.79-1.78-1.53-2.46l.02.03c-.49-.45-1.07-.85-1.04-1.63l.14.16c-1.3-.36-.98-1.71-1.55-2.51l.07.11c-1-.52-.71-1.81-1.49-2.46h0c-.87-1.29-1.86-2.53-2.36-4.04l.09.13c-1.1-.52-.85-1.78-1.44-2.58l.06.1c-.96-.56-.69-1.82-1.43-2.51v.03c-.76-.65-.5-1.85-1.32-2.49v-.02c-.42-.5-1.01-.89-.99-1.64l.14.16c-1.29-.44-1.03-1.71-1.43-2.63l.1.14c-1.2-.48-.96-1.75-1.43-2.62l.09.13c-1.1-.54-.88-1.78-1.4-2.63l.08.12c-1.03-.59-.83-1.8-1.36-2.65l.08.12c-1.03-.59-.83-1.81-1.35-2.65l.08.12c-1.03-.61-.85-1.81-1.31-2.69l.09.13c-1.1-.58-.92-1.78-1.31-2.71l.1.15c-1.24-.64-1.05-1.95-1.44-2.99l.08-.42-.34-.26c-.68-.71-.42-1.86-1.19-2.53h0c-.73-.73-.57-1.86-1.21-2.63l.03.07c-.86-.7-.72-1.85-1.22-2.7l.07.13c-1.06-.73-.93-1.98-1.33-3,.2-.34.11-.59-.26-.74-.66-.75-.47-1.87-1.13-2.62l.03.06c-.84-.73-.74-1.85-1.15-2.76l.09.14c-1.61-.81-.36-2.77-1.53-3.76l.02.05c-.81-.86-.8-2.03-1.16-3.05.2-.35.12-.59-.26-.74-.66-.77-.5-1.87-1.09-2.66l.05.1c-1.35-.94-.21-2.79-1.4-3.79v.02c-.74-.9-.78-2.06-1.12-3.11l.13-.41-.32-.28c-.73-.87-.67-2.02-1.09-2.99.21-.36.13-.63-.24-.82-.64-.89-.63-2.01-1.04-2.98.21-.36.13-.63-.24-.82-.63-.94-.69-2.07-1.02-3.11l.13-.41-.32-.28c-1.11-1.05-.06-2.79-1.24-3.82h0c-1.1-1.09-.22-2.79-1.18-3.93l.05.1c-1.3-1.17-.48-2.96-1.27-4.27l.14-.43-.32-.32c-1.06-1.17-.21-2.87-1.15-4.07.21-.39.14-.73-.21-1.01-.92-1.15-.08-2.78-1.08-3.9l.03.08c-1.51-1.49-.04-3.71-1.3-5.27.23-.4.16-.76-.2-1.05-.86-1.29-.25-2.92-1.01-4.23.24-.35.18-.62-.19-.83-1.23-1.58.06-3.71-1.15-5.29.24-.39.18-.74-.16-1.05-1.17-1.6.08-3.7-1.11-5.29.24-.39.18-.74-.16-1.05-1.12-1.67-.01-3.77-1.07-5.45Z"/>
  <path class="cls-17" d="M550.24,987.44c17.39,0,34.79,0,52.18,0-1.27,1.52-3.03,1.19-4.68,1.19-14.27.02-28.55.02-42.82,0-1.64,0-3.41.33-4.68-1.18Z"/>
  <path class="cls-17" d="M177.07,509.77c0,13.5.01,27.01.02,40.51-1.31-1.07-1.19-2.56-1.19-4.01,0-10.82,0-21.65,0-32.47,0-1.45-.13-2.95,1.17-4.03Z"/>
  <path class="cls-17" d="M974.29,545.22v-31.65c1.09.88,1.19,2.11,1.19,3.38,0,8.3,0,16.6,0,24.89,0,1.27-.1,2.49-1.19,3.38Z"/>
  <path class="cls-17" d="M130.02,449.03c3.98,3.27,7.57,6.92,10.63,11.07-4.59-2.69-8.55-5.99-10.63-11.07Z"/>
  <path class="cls-17" d="M532.41,986.15c4.44-.14,8.87-.23,13.19,1.08-4.4-.38-8.97,1.44-13.19-1.08Z"/>
  <path class="cls-17" d="M1001.8,468.95c1.85-2.82,4.11-5.25,6.82-7.28-.94,3.66-3.36,5.95-6.82,7.28Z"/>
  <path class="cls-17" d="M973,565.49c0-4.44-.37-8.92,1.09-13.25-.39,4.41,1.46,9.01-1.09,13.25Z"/>
  <path class="cls-17" d="M606.94,987.23c3.92-1.34,7.98-1.16,12.02-1.05-3.83,2.32-8.01.74-12.02,1.05Z"/>
  <path class="cls-17" d="M177.3,556.04c1.43,3.9,1.15,7.95,1.09,11.98-2.41-3.81-.76-7.99-1.09-11.98Z"/>
  <path class="cls-17" d="M236.3,218.55c-1.55,2.35-3.33,4.49-5.67,6.13.55-3.27,2.66-5.11,5.67-6.13Z"/>
  <path class="cls-17" d="M922.02,225.97c-2.24-1.66-4.11-3.66-5.49-6.09,3,.98,4.95,2.91,5.49,6.09Z"/>
  <path class="cls-17" d="M843.14,822.7c1.65-2.23,3.62-4.12,6.04-5.51-.93,3.01-2.91,4.89-6.04,5.51Z"/>
  <path class="cls-17" d="M866.85,799.61c1.4-2.41,3.3-4.37,5.53-6.01-.62,3.12-2.51,5.09-5.53,6.01Z"/>
  <path class="cls-17" d="M520.95,984.88c3.15-.11,6.3-.2,9.28,1.1-3.11-.24-6.42,1.19-9.28-1.1Z"/>
  <path class="cls-17" d="M622.22,985.96c3.05-1.37,6.28-1.12,9.49-1.09-2.94,2.32-6.31.85-9.49,1.09Z"/>
  <path class="cls-17" d="M178.56,570.18c1.28,2.97,1.21,6.1,1.08,9.24-2.26-2.86-.84-6.15-1.08-9.24Z"/>
  <path class="cls-17" d="M290.44,806.3c2.04,1.32,3.76,2.95,5.07,5-2.93-.42-4.6-2.1-5.07-5Z"/>
  <path class="cls-17" d="M987.81,484.16c1.02-1.94,2.39-3.56,4.27-4.73-.34,2.55-1.68,4.2-4.27,4.73Z"/>
  <path class="cls-17" d="M152.94,473.1c1.89,1.16,3.28,2.76,4.28,4.72-2.61-.5-3.94-2.17-4.28-4.72Z"/>
  <path class="cls-17" d="M164.43,485.7c1.87,1.19,3.25,2.83,4.25,4.78-2.63-.52-3.98-2.18-4.25-4.78Z"/>
  <path class="cls-17" d="M273.91,788.53c1.88,1.18,3.24,2.81,4.24,4.77-2.56-.57-3.93-2.21-4.24-4.77Z"/>
  <path class="cls-17" d="M633.68,984.69c2.62-1.26,5.41-1.26,8.22-1.11-2.48,2.3-5.46.86-8.22,1.11Z"/>
  <path class="cls-17" d="M971.77,576.88c-.14-2.78-.27-5.57,1.04-8.18-.22,2.74,1.14,5.68-1.04,8.18Z"/>
  <path class="cls-17" d="M977.64,495.59c1-1.96,2.34-3.62,4.22-4.82-.25,2.6-1.64,4.23-4.22,4.82Z"/>
  <path class="cls-17" d="M970.46,587.02c-.12-2.68-.2-5.36,1.12-7.84-.24,2.63,1.08,5.49-1.12,7.84Z"/>
  <path class="cls-17" d="M510.76,983.55c2.77-.09,5.54-.17,8.12,1.13-2.73-.23-5.68,1.19-8.12-1.13Z"/>
  <path class="cls-17" d="M308.55,823.54c1.98.97,3.58,2.38,4.79,4.22-2.57-.31-4.21-1.67-4.79-4.22Z"/>
  <path class="cls-17" d="M974.09,507.7c-.61-2.71-2-5.43.12-8.1-.04,2.7-.08,5.4-.12,8.1Z"/>
  <path class="cls-17" d="M487.84,979.74c2.28-.04,4.57-.12,6.6,1.2-2.24-.2-4.72.95-6.6-1.2Z"/>
  <path class="cls-17" d="M503.13,982.37c2.32-.1,4.63-.13,6.74,1.07-2.28-.13-4.76.96-6.74-1.07Z"/>
  <path class="cls-17" d="M425.57,960.42c1.01,1.59,2.09,3.12,3.8,4.07-3.15.39-4.25-1.13-3.8-4.07Z"/>
  <path class="cls-17" d="M179.86,581.48c1.26,2.13,1.15,4.47,1.03,6.8-2.01-2.02-.91-4.5-1.03-6.8Z"/>
  <path class="cls-17" d="M181.13,590.35c1.26,2.13,1.22,4.47,1.14,6.82-2.18-1.98-1-4.51-1.14-6.82Z"/>
  <path class="cls-17" d="M642.93,983.47c2.06-1.21,4.31-1.24,6.6-1.09-1.93,2-4.37.92-6.6,1.09Z"/>
  <path class="cls-17" d="M915.54,736.48c.37-1.61,1.13-2.98,2.46-4.01.29,2.01-.57,3.32-2.46,4.01Z"/>
  <path class="cls-17" d="M235.94,737.54c1.37,1,2.12,2.38,2.49,3.99-1.92-.66-2.78-1.97-2.49-3.99Z"/>
  <path class="cls-17" d="M224.71,231.32c-.59,1.51-1.52,2.74-2.97,3.53.1-1.92.8-3.34,2.97-3.53Z"/>
  <path class="cls-17" d="M929.69,234.78c-1.43-.8-2.39-1.99-2.92-3.54,2.02.32,2.78,1.68,2.92,3.54Z"/>
  <path class="cls-17" d="M218.32,238.9c-.54,1.55-1.49,2.76-2.95,3.56.09-1.92.81-3.32,2.95-3.56Z"/>
  <path class="cls-17" d="M936.06,242.38c-1.44-.81-2.41-1.99-2.89-3.56,1.99.37,2.76,1.71,2.89,3.56Z"/>
  <path class="cls-17" d="M213.13,245.15c-.54,1.53-1.36,2.85-2.83,3.68.02-1.93.79-3.29,2.83-3.68Z"/>
  <path class="cls-17" d="M941.13,248.75c-1.4-.86-2.37-2.05-2.83-3.64,1.96.43,2.75,1.76,2.83,3.64Z"/>
  <path class="cls-17" d="M246.02,752.85c1.39.93,2.24,2.24,2.7,3.82-2-.51-2.8-1.85-2.7-3.82Z"/>
  <path class="cls-17" d="M897.54,762.99c.48-1.58,1.34-2.88,2.74-3.8.09,1.98-.7,3.34-2.74,3.8Z"/>
  <path class="cls-17" d="M893.72,768.05c.5-1.56,1.36-2.86,2.79-3.73.01,1.94-.77,3.29-2.79,3.73Z"/>
  <path class="cls-17" d="M195.16,269.13c-.41,1.6-1.24,2.92-2.64,3.84-.09-1.94.74-3.26,2.64-3.84Z"/>
  <path class="cls-17" d="M958.86,272.97c-1.4-.93-2.23-2.24-2.64-3.84,1.9.59,2.73,1.9,2.64,3.84Z"/>
  <path class="cls-17" d="M187.47,280.51c-.35,1.63-1.18,2.95-2.56,3.9-.15-1.95.7-3.26,2.56-3.9Z"/>
  <path class="cls-17" d="M966.44,284.45c-1.41-.96-2.16-2.33-2.53-3.94,1.87.66,2.72,1.97,2.53,3.94Z"/>
  <path class="cls-17" d="M889.78,773.02c.53-1.56,1.47-2.79,2.91-3.63-.02,1.96-.75,3.36-2.91,3.63Z"/>
  <path class="cls-17" d="M972.75,294.65c-1.33-1.03-2.09-2.4-2.46-4.01,1.89.69,2.75,2,2.46,4.01Z"/>
  <path class="cls-17" d="M261.19,773.28c1.43.84,2.37,2.05,2.87,3.62-2.01-.38-2.78-1.73-2.87-3.62Z"/>
  <path class="cls-17" d="M884.69,779.35c.63-1.48,1.47-2.79,2.93-3.59-.06,1.94-.79,3.34-2.93,3.59Z"/>
  <path class="cls-17" d="M266.3,779.59c1.46.79,2.4,2.02,2.96,3.55-2.15-.23-2.86-1.63-2.96-3.55Z"/>
  <path class="cls-17" d="M878.3,786.92c.63-1.47,1.57-2.69,2.99-3.49-.13,1.9-.84,3.31-2.99,3.49Z"/>
  <path class="cls-17" d="M832.92,831.55c.81-1.41,2.02-2.36,3.53-2.96-.22,2.12-1.62,2.84-3.53,2.96Z"/>
  <path class="cls-17" d="M318.75,832.39c1.54.56,2.77,1.49,3.57,2.94-1.93-.09-3.34-.81-3.57-2.94Z"/>
  <path class="cls-17" d="M825.23,837.86c.82-1.43,2.03-2.39,3.59-2.93-.25,2.13-1.65,2.85-3.59,2.93Z"/>
  <path class="cls-17" d="M325.03,837.56c1.58.49,2.79,1.43,3.64,2.85-1.9-.09-3.25-.85-3.64-2.85Z"/>
  <path class="cls-17" d="M818.81,842.9c.85-1.42,2.13-2.32,3.66-2.88-.29,2.13-1.69,2.86-3.66,2.88Z"/>
  <path class="cls-17" d="M813.72,846.7c.87-1.43,2.18-2.28,3.75-2.78-.44,2.01-1.8,2.79-3.75,2.78Z"/>
  <path class="cls-17" d="M808.56,850.45c.94-1.37,2.25-2.23,3.82-2.73-.46,2.03-1.83,2.82-3.82,2.73Z"/>
  <path class="cls-17" d="M349.12,855.45c1.62.38,2.94,1.22,3.87,2.61-1.95.09-3.27-.73-3.87-2.61Z"/>
  <path class="cls-17" d="M356.75,860.55c1.64.35,2.96,1.17,3.93,2.55-1.96.15-3.28-.69-3.93-2.55Z"/>
  <path class="cls-17" d="M781.74,868.12c1-1.36,2.36-2.14,3.99-2.49-.68,1.87-1.99,2.72-3.99,2.49Z"/>
  <path class="cls-17" d="M775.34,871.88c1.04-1.31,2.39-2.11,4.04-2.41-.73,1.83-2.03,2.71-4.04,2.41Z"/>
  <path class="cls-17" d="M454.77,972.03c1.83-.03,3.63.09,5.12,1.35-1.79-.15-3.84.7-5.12-1.35Z"/>
  <path class="cls-17" d="M464.92,974.67c1.84-.05,3.67-.06,5.19,1.22-1.8-.1-3.81.67-5.19-1.22Z"/>
  <path class="cls-17" d="M470.04,975.87c1.88-.06,3.73.04,5.3,1.27-1.84-.1-3.91.74-5.3-1.27Z"/>
  <path class="cls-17" d="M671.96,978.34c1.68-1.26,3.64-1.22,5.6-1.16-1.53,1.98-3.66,1.14-5.6,1.16Z"/>
  <path class="cls-17" d="M481.47,978.48c1.96-.09,3.91-.13,5.6,1.13-1.94-.02-4.05.81-5.6-1.13Z"/>
  <path class="cls-17" d="M1023.83,417.34c-1.26-1.49-1.35-3.28-1.32-5.1,2,1.3,1.18,3.33,1.32,5.1Z"/>
  <path class="cls-17" d="M665.59,979.61c1.69-1.25,3.64-1.21,5.59-1.11-1.56,1.91-3.66,1.08-5.59,1.11Z"/>
  <path class="cls-17" d="M659.22,980.87c1.68-1.26,3.64-1.22,5.6-1.13-1.55,1.94-3.66,1.11-5.6,1.13Z"/>
  <path class="cls-17" d="M495.49,981.1c1.97-.08,3.95-.23,5.67,1.04-1.95-.03-4.06.8-5.67-1.04Z"/>
  <path class="cls-17" d="M1026.34,427.53c-1.26-1.53-1.35-3.34-1.23-5.19,1.92,1.38,1.15,3.38,1.23,5.19Z"/>
  <path class="cls-17" d="M651.59,982.14c1.7-1.19,3.63-1.14,5.57-1.03-1.58,1.81-3.65,1.01-5.57,1.03Z"/>
  <path class="cls-17" d="M1027.54,432.99c-1.26-1.66-1.2-3.61-1.23-5.54,2.11,1.47,1.18,3.62,1.23,5.54Z"/>
  <path class="cls-17" d="M123.7,431.21c.05,1.87.01,3.71-1.19,5.3.08-1.84-.7-3.87,1.19-5.3Z"/>
  <path class="cls-17" d="M1028.88,439.05c-1.22-1.58-1.23-3.43-1.17-5.3,1.87,1.44,1.09,3.46,1.17,5.3Z"/>
  <path class="cls-17" d="M174.59,497.15c1.42.84,2.64,1.84,2.8,3.64-1.89-.49-2.7-1.79-2.8-3.64Z"/>
  <path class="cls-17" d="M969.23,594.62c-.12-1.97-.24-3.93,1.02-5.65-.03,1.94.8,4.03-1.02,5.65Z"/>
  <path class="cls-17" d="M967.93,602.22c-.11-1.94-.26-3.88,1.04-5.56-.02,1.91.79,3.98-1.04,5.56Z"/>
  <path class="cls-17" d="M182.39,598.04c1.08,1.68,1.24,3.53,1.07,5.45-1.82-1.53-1.04-3.57-1.07-5.45Z"/>
  <path class="cls-17" d="M966.65,608.56c-.14-1.87-.09-3.7,1.11-5.29-.08,1.82.69,3.82-1.11,5.29Z"/>
  <path class="cls-17" d="M183.62,604.54c1.21,1.59,1.26,3.42,1.11,5.29-1.8-1.46-1.04-3.46-1.11-5.29Z"/>
  <path class="cls-17" d="M965.3,614.91c-.05-1.87-.01-3.72,1.19-5.3-.08,1.84.7,3.87-1.19,5.3Z"/>
  <path class="cls-17" d="M184.89,610.87c1.22,1.59,1.23,3.43,1.15,5.29-1.85-1.45-1.07-3.46-1.15-5.29Z"/>
  <path class="cls-17" d="M187.44,622.27c1.23,1.56,1.35,3.39,1.3,5.27-2.06-1.36-1.2-3.43-1.3-5.27Z"/>
  <path class="cls-17" d="M228.3,724.87c1.33,1.03,2.1,2.39,2.36,4.05-1.78-.77-2.67-2.06-2.36-4.05Z"/>
  <path class="cls-17" d="M997.15,341.24c-1.2-.92-1.45-2.26-1.63-3.63,1.9.6,1.55,2.22,1.63,3.63Z"/>
  <path class="cls-17" d="M1004.76,359.02c-1.17-.98-1.43-2.32-1.49-3.74,1.77.74,1.44,2.31,1.49,3.74Z"/>
  <path class="cls-17" d="M1007.3,365.37c-1.15-.99-1.43-2.33-1.48-3.75,1.78.75,1.44,2.32,1.48,3.75Z"/>
  <path class="cls-17" d="M141.75,370.48c-.12,1.41-.16,2.85-1.42,3.84-.02-1.46-.38-3.05,1.42-3.84Z"/>
  <path class="cls-17" d="M1011.06,375.59c-1.23-1.01-1.33-2.42-1.39-3.85,1.76.82,1.41,2.4,1.39,3.85Z"/>
  <path class="cls-17" d="M140.36,374.25c.02,1.44-.2,2.79-1.37,3.79.03-1.42-.27-2.95,1.37-3.79Z"/>
  <path class="cls-17" d="M1012.4,379.29c-1.09-1.03-1.36-2.36-1.37-3.78,1.63.84,1.34,2.37,1.37,3.78Z"/>
  <path class="cls-17" d="M1013.67,383.09c-1.11-1.04-1.36-2.38-1.28-3.82,1.53.91,1.25,2.41,1.28,3.82Z"/>
  <path class="cls-17" d="M1016.2,390.73c-1.06-1.08-1.37-2.39-1.23-3.85,1.51.94,1.23,2.44,1.23,3.85Z"/>
  <path class="cls-17" d="M135.15,389.41c.12,1.45-.15,2.77-1.25,3.82.02-1.4-.25-2.9,1.25-3.82Z"/>
  <path class="cls-17" d="M1017.44,394.58c-1.15-1.07-1.35-2.43-1.24-3.89,1.57.93,1.28,2.45,1.24,3.89Z"/>
  <path class="cls-17" d="M133.9,393.21c.05,1.44-.07,2.83-1.22,3.9-.03-1.44-.32-2.95,1.22-3.9Z"/>
  <path class="cls-17" d="M1018.66,398.61c-1.2-1.13-1.28-2.6-1.25-4.1,1.69.98,1.31,2.59,1.25,4.1Z"/>
  <path class="cls-17" d="M132.71,397.04c.03,1.5-.06,2.97-1.25,4.1-.06-1.51-.44-3.12,1.25-4.1Z"/>
  <path class="cls-17" d="M131.23,402.09c.17,1.44-.06,2.76-1.14,3.83,0-1.39-.28-2.86,1.14-3.83Z"/>
  <path class="cls-17" d="M1021.21,407.47c-1.19-1.15-1.24-2.62-1.15-4.13,1.56,1.05,1.21,2.63,1.15,4.13Z"/>
  <path class="cls-17" d="M130.1,405.89c.06,1.53-.03,3.03-1.17,4.23-.08-1.54-.48-3.17,1.17-4.23Z"/>
  <path class="cls-17" d="M1022.54,412.31c-1.1-1.09-1.25-2.44-1.11-3.88,1.43.99,1.13,2.47,1.11,3.88Z"/>
  <path class="cls-17" d="M128.73,410.95c.07,1.48.04,2.93-1.12,4.07-.05-1.47-.39-3.02,1.12-4.07Z"/>
  <path class="cls-17" d="M127.4,416.03c.18,1.48-.07,2.85-1.08,4.01-.04-1.44-.36-2.96,1.08-4.01Z"/>
  <path class="cls-17" d="M1024.98,421.67c-1.23-1.24-1.18-2.81-1.16-4.37,1.7,1.11,1.24,2.8,1.16,4.37Z"/>
  <path class="cls-17" d="M126.13,421.1c.17,1.48,0,2.87-1.07,4.03-.04-1.45-.37-2.97,1.07-4.03Z"/>
  <path class="cls-17" d="M124.88,426.16c.17,1.55.06,3.04-1.03,4.29-.09-1.53-.49-3.14,1.03-4.29Z"/>
  <path class="cls-17" d="M200.11,664.28c1.16,1.01,1.42,2.35,1.4,3.79-1.67-.82-1.37-2.36-1.4-3.79Z"/>
  <path class="cls-17" d="M949.91,666.81c-.02-1.43.19-2.78,1.38-3.78-.04,1.41.26,2.95-1.38,3.78Z"/>
  <path class="cls-17" d="M945.97,676.9c.06-1.42.32-2.76,1.49-3.74-.05,1.42.28,3-1.49,3.74Z"/>
  <path class="cls-17" d="M193.74,645.29c1.1,1.05,1.34,2.38,1.24,3.82-1.49-.93-1.21-2.42-1.24-3.82Z"/>
  <path class="cls-17" d="M956.43,647.84c-.12-1.44.13-2.77,1.2-3.84,0,1.4.27,2.89-1.2,3.84Z"/>
  <path class="cls-17" d="M192.56,641.36c1.23,1.07,1.24,2.5,1.18,3.94-1.55-.97-1.26-2.49-1.18-3.94Z"/>
  <path class="cls-17" d="M957.62,644.03c-.06-1.45,0-2.87,1.21-3.93.07,1.46.37,2.98-1.21,3.93Z"/>
  <path class="cls-17" d="M191.34,637.19c1.18,1.2,1.26,2.73,1.26,4.27-1.8-1.02-1.34-2.7-1.26-4.27Z"/>
  <path class="cls-17" d="M958.78,640.2c0-1.54.08-3.07,1.27-4.27.07,1.57.54,3.25-1.27,4.27Z"/>
  <path class="cls-17" d="M190,632.36c1.15,1.14,1.23,2.59,1.15,4.07-1.54-1.03-1.2-2.59-1.15-4.07Z"/>
  <path class="cls-17" d="M960.23,635.17c-.11-1.51-.05-2.97,1.14-4.12.06,1.49.42,3.07-1.14,4.12Z"/>
  <path class="cls-17" d="M188.71,627.46c1.07,1.11,1.24,2.46,1.08,3.9-1.42-1.01-1.13-2.49-1.08-3.9Z"/>
  <path class="cls-17" d="M961.59,630.09c-.16-1.48.01-2.87,1.08-4.03.05,1.45.37,2.98-1.08,4.03Z"/>
  <path class="cls-17" d="M962.87,625.02c-.17-1.48,0-2.87,1.07-4.03.05,1.45.37,2.97-1.07,4.03Z"/>
  <path class="cls-17" d="M186.23,617c1.13,1.22,1.12,2.71,1.01,4.23-1.48-1.14-1.1-2.72-1.01-4.23Z"/>
  <path class="cls-17" d="M964.11,619.96c-.14-1.55-.04-3.04,1.04-4.29.09,1.53.49,3.14-1.04,4.29Z"/>
  <path class="cls-17" d="M943.32,683.18c.1-1.41.42-2.74,1.6-3.69-.06,1.43.31,3.05-1.6,3.69Z"/>
  <path class="cls-17" d="M203.95,674.38c1.19.98,1.39,2.35,1.53,3.76-1.88-.7-1.5-2.31-1.53-3.76Z"/>
  <path class="cls-17" d="M748.85,887.27c-.08-1.74.82-2.56,2.52-2.62-.42,1.27-1.28,2.12-2.52,2.62Z"/>
  <path class="cls-17" d="M402.58,887.2c1.18,1.02,1.37,2.39,1.35,3.84-1.67-.85-1.36-2.4-1.35-3.84Z"/>
  <path class="cls-17" d="M747.55,891.07c-.06-1.43.16-2.77,1.3-3.8-.04,1.4.24,2.9-1.3,3.8Z"/>
  <path class="cls-17" d="M403.9,890.95c1.24,1.02,1.32,2.44,1.34,3.88-1.72-.86-1.38-2.42-1.34-3.88Z"/>
  <path class="cls-17" d="M746.26,894.86c-.06-1.44.15-2.79,1.31-3.82-.02,1.41.26,2.93-1.31,3.82Z"/>
  <path class="cls-17" d="M405.19,894.72c1.22,1.04,1.3,2.46,1.32,3.9-1.73-.87-1.38-2.43-1.32-3.9Z"/>
  <path class="cls-17" d="M744.95,898.65c-.09-1.46.19-2.79,1.32-3.83,0,1.43.29,2.95-1.32,3.83Z"/>
  <path class="cls-17" d="M406.46,898.52c1.23,1.04,1.34,2.45,1.32,3.9-1.73-.87-1.38-2.43-1.32-3.9Z"/>
  <path class="cls-17" d="M743.68,902.45c-.06-1.45.13-2.82,1.3-3.86.02,1.44.32,2.97-1.3,3.86Z"/>
  <path class="cls-17" d="M407.74,902.32c1.22,1.04,1.3,2.46,1.32,3.9-1.73-.87-1.38-2.43-1.32-3.9Z"/>
  <path class="cls-17" d="M742.44,906.26c-.08-1.45.09-2.83,1.26-3.87.02,1.43.32,2.96-1.26,3.87Z"/>
  <path class="cls-17" d="M409.01,906.12c1.22,1.04,1.3,2.46,1.32,3.9-1.73-.87-1.38-2.43-1.32-3.9Z"/>
  <path class="cls-17" d="M741.17,910.07c-.08-1.45.16-2.79,1.28-3.85,0,1.42.29,2.94-1.28,3.85Z"/>
  <path class="cls-17" d="M410.28,909.92c1.23,1.04,1.28,2.47,1.29,3.91-1.69-.89-1.35-2.45-1.29-3.91Z"/>
  <path class="cls-17" d="M739.95,913.88c-.13-1.45.17-2.77,1.23-3.85,0,1.41.27,2.91-1.23,3.85Z"/>
  <path class="cls-17" d="M412.78,917.59c1.17,1.06,1.28,2.45,1.23,3.89-1.54-.94-1.25-2.46-1.23-3.89Z"/>
  <path class="cls-17" d="M414,921.46c1.1,1.05,1.35,2.37,1.23,3.81-1.48-.93-1.2-2.42-1.23-3.81Z"/>
  <path class="cls-17" d="M735.97,926.5c-.03-1.51.12-2.96,1.31-4.08.05,1.52.45,3.14-1.31,4.08Z"/>
  <path class="cls-17" d="M734.81,930.33c-.06-1.45,0-2.87,1.21-3.93.07,1.46.37,2.98-1.21,3.93Z"/>
  <path class="cls-17" d="M416.66,930.02c1.2,1.13,1.28,2.6,1.25,4.1-1.69-.98-1.31-2.59-1.25-4.1Z"/>
  <path class="cls-17" d="M733.63,934.14c-.14-1.45.12-2.77,1.19-3.84,0,1.4.27,2.89-1.19,3.84Z"/>
  <path class="cls-17" d="M417.88,934.04c1.14,1.08,1.29,2.45,1.2,3.9-1.52-.96-1.23-2.47-1.2-3.9Z"/>
  <path class="cls-17" d="M732.15,939.17c0-1.53.07-3.04,1.27-4.22.07,1.55.52,3.22-1.27,4.22Z"/>
  <path class="cls-17" d="M731.01,943.02c-.1-1.46-.02-2.88,1.18-3.95.07,1.46.36,2.98-1.18,3.95Z"/>
  <path class="cls-17" d="M420.48,942.68c1.21,1.14,1.25,2.62,1.19,4.12-1.62-1.02-1.26-2.61-1.19-4.12Z"/>
  <path class="cls-17" d="M421.66,946.77c1.07,1.07,1.31,2.39,1.14,3.83-1.42-.97-1.13-2.45-1.14-3.83Z"/>
  <path class="cls-17" d="M728.47,951.89c-.09-1.51,0-2.97,1.17-4.13.06,1.5.42,3.09-1.17,4.13Z"/>
  <path class="cls-17" d="M423.02,951.55c1.21,1.14,1.25,2.62,1.19,4.12-1.62-1.02-1.26-2.61-1.19-4.12Z"/>
  <path class="cls-17" d="M727.06,956.91c.01-1.56,0-3.13,1.26-4.34.07,1.59.56,3.3-1.26,4.34Z"/>
  <path class="cls-17" d="M424.21,955.64c1.06,1.08,1.35,2.39,1.16,3.84-1.44-.96-1.16-2.44-1.16-3.84Z"/>
  <path class="cls-17" d="M725.96,960.75c-.07-1.44-.06-2.87,1.15-3.94.07,1.45.37,2.96-1.15,3.94Z"/>
  <path class="cls-17" d="M429.3,964.46c1.46-.04,2.89.03,3.94,1.25-1.47.07-3.02.39-3.94-1.25Z"/>
  <path class="cls-17" d="M433.14,965.66c1.53.03,3.06.06,4.23,1.27-1.56.07-3.23.51-4.23-1.27Z"/>
  <path class="cls-17" d="M715.7,967.06c1.08-1.05,2.41-1.33,3.86-1.2-.95,1.47-2.45,1.2-3.86,1.2Z"/>
  <path class="cls-17" d="M711.78,968.25c1.07-1.21,2.5-1.26,3.95-1.2-.96,1.57-2.49,1.27-3.95,1.2Z"/>
  <path class="cls-17" d="M442.01,968.36c1.46-.1,2.84.05,3.92,1.19-1.44.03-2.95.32-3.92-1.19Z"/>
  <path class="cls-17" d="M707.65,969.47c1.17-1.21,2.7-1.25,4.24-1.26-1,1.78-2.68,1.34-4.24,1.26Z"/>
  <path class="cls-17" d="M445.85,969.53c1.53,0,3.07,0,4.25,1.21-1.55.08-3.21.5-4.25-1.21Z"/>
  <path class="cls-17" d="M702.92,970.83c1.09-1.08,2.45-1.27,3.9-1.15-.98,1.46-2.48,1.18-3.9,1.15Z"/>
  <path class="cls-17" d="M450.92,970.93c1.46-.13,2.84.03,3.94,1.14-1.44.05-2.95.34-3.94-1.14Z"/>
  <path class="cls-17" d="M698.68,972c1.21-1.19,2.74-1.25,4.31-1.19-1.07,1.71-2.74,1.27-4.31,1.19Z"/>
  <path class="cls-17" d="M693.66,973.28c1.22-1.12,2.71-1.22,4.26-1.1-1.11,1.57-2.72,1.18-4.26,1.1Z"/>
  <path class="cls-17" d="M459.85,973.37c1.55-.04,3.1-.04,4.31,1.16-1.56.08-3.22.51-4.31-1.16Z"/>
  <path class="cls-17" d="M688.74,974.59c1.15-1.15,2.6-1.22,4.09-1.12-1.05,1.51-2.61,1.17-4.09,1.12Z"/>
  <path class="cls-17" d="M683.42,975.8c1.26-1.08,2.75-1.17,4.3-1.04-1.15,1.52-2.77,1.12-4.3,1.04Z"/>
  <path class="cls-17" d="M678.23,977.06c1.27-1.19,2.83-1.17,4.41-1.08-1.16,1.6-2.83,1.16-4.41,1.08Z"/>
  <path class="cls-17" d="M476.39,977.3c1.57-.2,3.06-.08,4.31,1.03-1.54.09-3.16.49-4.31-1.03Z"/>
  <path class="cls-17" d="M948.46,670.54c.12-1.42.24-2.83,1.49-3.81.01,1.47.4,3.08-1.49,3.81Z"/>
  <path class="cls-17" d="M938.22,694.57c.15-1.38.53-2.65,1.65-3.59-.11,1.4.24,3-1.65,3.59Z"/>
  <path class="cls-17" d="M122.31,437.57c.07,1.25.15,2.5.22,3.75-1.78-1.15-1.72-2.41-.22-3.75Z"/>
  <path class="cls-17" d="M411.53,913.75c1.23,1.04,1.28,2.46,1.27,3.9-1.63-.91-1.32-2.45-1.27-3.9Z"/>
  <path class="cls-17" d="M208.14,251.55c-.23,1.01-.71,1.83-1.71,2.26.09-1.11.38-2.07,1.71-2.26Z"/>
  <path class="cls-17" d="M944.98,253.75c-1.02-.41-1.47-1.24-1.67-2.25,1.25.24,1.56,1.17,1.67,2.25Z"/>
  <path class="cls-17" d="M204.32,256.62c-.23,1.01-.71,1.83-1.71,2.26.09-1.11.38-2.07,1.71-2.26Z"/>
  <path class="cls-17" d="M948.8,258.82c-1-.44-1.44-1.27-1.63-2.28,1.23.27,1.54,1.2,1.63,2.28Z"/>
  <path class="cls-17" d="M200.52,261.7c-.23,1.01-.65,1.89-1.69,2.32.05-1.14.28-2.16,1.69-2.32Z"/>
  <path class="cls-17" d="M952.58,263.96c-.98-.45-1.47-1.27-1.7-2.28,1.37.16,1.62,1.16,1.7,2.28Z"/>
  <path class="cls-17" d="M197.83,265.39c-.17,1.03-.57,1.89-1.59,2.35.07-1.09.36-2.04,1.59-2.35Z"/>
  <path class="cls-17" d="M955.17,267.69c-.91-.51-1.47-1.26-1.6-2.31,1.21.31,1.5,1.24,1.6,2.31Z"/>
  <path class="cls-17" d="M191.61,274.36c-.22,1.02-.58,1.95-1.63,2.41,0-1.17.19-2.21,1.63-2.41Z"/>
  <path class="cls-17" d="M961.41,276.77c-1.05-.46-1.42-1.39-1.63-2.41,1.44.2,1.64,1.24,1.63,2.41Z"/>
  <path class="cls-17" d="M189.06,278.16c-.22,1.02-.58,1.95-1.63,2.41,0-1.17.19-2.21,1.63-2.41Z"/>
  <path class="cls-17" d="M963.96,280.57c-1.05-.46-1.42-1.39-1.63-2.41,1.44.2,1.64,1.24,1.63,2.41Z"/>
  <path class="cls-17" d="M184.97,284.32c-.09,1.05-.52,1.88-1.47,2.41.07-1.06.34-1.99,1.47-2.41Z"/>
  <path class="cls-17" d="M967.87,286.76c-1.02-.49-1.38-1.37-1.5-2.42,1.18.39,1.45,1.34,1.5,2.42Z"/>
  <path class="cls-17" d="M182.56,288.19c-.14,1.05-.53,1.94-1.54,2.45.02-1.13.23-2.13,1.54-2.45Z"/>
  <path class="cls-17" d="M970.33,290.7c-1.08-.5-1.36-1.46-1.5-2.51,1.33.35,1.52,1.37,1.5,2.51Z"/>
  <path class="cls-17" d="M180.14,292.08c-.2,1.03-.53,1.98-1.57,2.49-.06-1.19.12-2.24,1.57-2.49Z"/>
  <path class="cls-17" d="M178.64,294.47c-.08,1.06-.48,1.94-1.46,2.47.03-1.09.28-2.05,1.46-2.47Z"/>
  <path class="cls-17" d="M974.15,297.03c-1.05-.51-1.36-1.46-1.5-2.51,1.32.35,1.51,1.37,1.5,2.51Z"/>
  <path class="cls-17" d="M975.54,299.37c-.91-.55-1.37-1.35-1.42-2.4,1.08.44,1.35,1.36,1.42,2.4Z"/>
  <path class="cls-17" d="M176.32,298.42c-.21,1.03-.52,1.99-1.54,2.52-.09-1.21.07-2.26,1.54-2.52Z"/>
  <path class="cls-17" d="M174.86,300.82c-.08,1.07-.47,1.97-1.46,2.52,0-1.12.19-2.13,1.46-2.52Z"/>
  <path class="cls-17" d="M977.91,303.44c-1.06-.52-1.37-1.48-1.51-2.54,1.4.31,1.58,1.36,1.51,2.54Z"/>
  <path class="cls-17" d="M173.43,303.29c-.01,1.07-.47,1.89-1.37,2.47.04-1.05.29-1.99,1.37-2.47Z"/>
  <path class="cls-17" d="M979.26,305.87c-.99-.56-1.33-1.48-1.42-2.53,1.19.45,1.43,1.42,1.42,2.53Z"/>
  <path class="cls-17" d="M980.6,308.3c-.9-.58-1.36-1.4-1.36-2.47,1.07.49,1.32,1.42,1.36,2.47Z"/>
  <path class="cls-17" d="M171.21,307.27c-.17,1.04-.41,2.05-1.48,2.58-.13-1.21.01-2.28,1.48-2.58Z"/>
  <path class="cls-17" d="M169.82,309.72c-.13,1.05-.37,2.05-1.44,2.58-.07-1.17.1-2.2,1.44-2.58Z"/>
  <path class="cls-17" d="M982.87,312.43c-1.03-.58-1.25-1.59-1.42-2.63,1.49.33,1.61,1.4,1.42,2.63Z"/>
  <path class="cls-17" d="M168.44,312.2c-.08,1.06-.42,1.98-1.4,2.55-.02-1.12.17-2.12,1.4-2.55Z"/>
  <path class="cls-17" d="M984.24,314.88c-1.03-.56-1.34-1.52-1.47-2.58,1.41.34,1.57,1.39,1.47,2.58Z"/>
  <path class="cls-17" d="M167.07,314.7c0,1.08-.36,1.97-1.33,2.54,0-1.08.23-2.04,1.33-2.54Z"/>
  <path class="cls-17" d="M985.52,317.41c-1.05-.58-1.27-1.58-1.35-2.65,1.31.45,1.46,1.48,1.35,2.65Z"/>
  <path class="cls-17" d="M165.75,317.21c0,1.07-.32,1.96-1.31,2.53.02-1.06.25-2,1.31-2.53Z"/>
  <path class="cls-17" d="M986.83,319.9c-1.01-.58-1.31-1.54-1.39-2.61,1.29.43,1.46,1.46,1.39,2.61Z"/>
  <path class="cls-17" d="M164.45,319.73c0,1.06-.39,1.91-1.29,2.51.03-1.04.26-1.98,1.29-2.51Z"/>
  <path class="cls-17" d="M988.15,322.38c-1.04-.55-1.33-1.5-1.37-2.58,1.23.45,1.41,1.46,1.37,2.58Z"/>
  <path class="cls-17" d="M163.15,322.26c.05,1.07-.37,1.92-1.27,2.52.03-1.04.25-1.97,1.27-2.52Z"/>
  <path class="cls-17" d="M989.41,324.93c-1.04-.58-1.24-1.57-1.29-2.63,1.19.51,1.35,1.51,1.29,2.63Z"/>
  <path class="cls-17" d="M161.87,324.79c.05,1.07-.37,1.92-1.27,2.52.03-1.04.25-1.97,1.27-2.52Z"/>
  <path class="cls-17" d="M990.68,327.47c-1.03-.58-1.28-1.55-1.32-2.62,1.21.49,1.38,1.5,1.32,2.62Z"/>
  <path class="cls-17" d="M160.6,327.33c.05,1.07-.37,1.92-1.27,2.52.03-1.04.25-1.97,1.27-2.52Z"/>
  <path class="cls-17" d="M991.93,330.02c-1.02-.6-1.26-1.57-1.3-2.64,1.22.5,1.38,1.51,1.3,2.64Z"/>
  <path class="cls-17" d="M159.33,329.86c.05,1.07-.37,1.92-1.27,2.52.03-1.04.25-1.97,1.27-2.52Z"/>
  <path class="cls-17" d="M993.16,332.6c-1.05-.6-1.25-1.6-1.29-2.68,1.25.5,1.4,1.53,1.29,2.68Z"/>
  <path class="cls-17" d="M158.05,332.39c.03,1.07-.27,1.98-1.22,2.59-.01-1.06.2-2.02,1.22-2.59Z"/>
  <path class="cls-17" d="M994.42,335.15c-1.04-.6-1.26-1.59-1.33-2.67,1.31.47,1.45,1.5,1.33,2.67Z"/>
  <path class="cls-17" d="M156.85,334.95c.02,1.08-.26,2.01-1.26,2.6-.03-1.08.18-2.06,1.26-2.6Z"/>
  <path class="cls-17" d="M995.61,337.76c-1.04-.63-1.2-1.65-1.27-2.73,1.35.48,1.47,1.53,1.27,2.73Z"/>
  <path class="cls-17" d="M155.61,337.5c-.02,1.07-.18,2.08-1.24,2.67-.09-1.12.06-2.13,1.24-2.67Z"/>
  <path class="cls-17" d="M154.44,340.07c-.05,1.07-.18,2.11-1.26,2.71-.15-1.17-.02-2.2,1.26-2.71Z"/>
  <path class="cls-17" d="M998.36,343.88c-.99-.61-1.23-1.56-1.2-2.62,1.03.59,1.23,1.55,1.2,2.62Z"/>
  <path class="cls-17" d="M153.27,342.64c-.09,1.16-.31,2.26-1.38,2.97-.11-1.25-.06-2.43,1.38-2.97Z"/>
  <path class="cls-17" d="M999.54,346.53c-1.04-.62-1.19-1.63-1.21-2.7,1.18.56,1.32,1.57,1.21,2.7Z"/>
  <path class="cls-17" d="M151.62,346.35c.09,1.07-.15,2-1.14,2.6-.04-1.05.14-2,1.14-2.6Z"/>
  <path class="cls-17" d="M1000.78,349.41c-1.01-.75-1.25-1.84-1.31-3,1.38.59,1.43,1.76,1.31,3Z"/>
  <path class="cls-17" d="M150.51,348.9c-.01,1.07-.17,2.08-1.19,2.71-.13-1.13,0-2.15,1.19-2.71Z"/>
  <path class="cls-17" d="M1002.21,352.69c-.85-.64-1.29-1.47-1.18-2.54.99.58,1.18,1.52,1.18,2.54Z"/>
  <path class="cls-17" d="M149.39,351.48c-.03,1.18-.25,2.28-1.33,3-.12-1.24-.06-2.41,1.33-3Z"/>
  <path class="cls-17" d="M1003.34,355.41c-1.03-.64-1.18-1.65-1.14-2.73,1.14.6,1.26,1.61,1.14,2.73Z"/>
  <path class="cls-17" d="M147.8,355.22c.09,1.07-.16,2-1.11,2.64-.06-1.06.1-2.02,1.11-2.64Z"/>
  <path class="cls-17" d="M146.73,357.78c0,1.17-.18,2.27-1.22,3.03-.12-1.22-.08-2.37,1.22-3.03Z"/>
  <path class="cls-17" d="M1005.89,361.74c-1.03-.64-1.18-1.65-1.13-2.74,1.14.6,1.26,1.62,1.13,2.74Z"/>
  <path class="cls-17" d="M145.26,361.55c.09,1.07-.16,2-1.11,2.64-.06-1.06.1-2.02,1.11-2.64Z"/>
  <path class="cls-17" d="M144.18,364.11c0,1.19-.19,2.29-1.21,3.08-.12-1.23-.09-2.41,1.21-3.08Z"/>
  <path class="cls-17" d="M1008.42,368.41c-1.06-.77-1.19-1.88-1.13-3.06,1.22.71,1.25,1.86,1.13,3.06Z"/>
  <path class="cls-17" d="M142.77,367.88c.1,1.1-.07,2.09-1.09,2.74-.13-1.11-.02-2.12,1.09-2.74Z"/>
  <path class="cls-17" d="M1009.73,371.85c-.95-.67-1.13-1.63-1.06-2.7,1.02.64,1.17,1.62,1.06,2.7Z"/>
  <path class="cls-17" d="M139,378.02c.06,1.19-.08,2.31-1.12,3.11-.13-1.21-.11-2.38,1.12-3.11Z"/>
  <path class="cls-17" d="M137.68,381.81c.1,1.2-.05,2.3-1.07,3.11-.13-1.2-.12-2.36,1.07-3.11Z"/>
  <path class="cls-17" d="M1014.78,386.2c-1.05-.8-1.19-1.92-1.11-3.12,1.22.74,1.24,1.9,1.11,3.12Z"/>
  <path class="cls-17" d="M136.41,385.61c.1,1.2-.05,2.3-1.07,3.11-.13-1.2-.12-2.36,1.07-3.11Z"/>
  <path class="cls-17" d="M1019.88,402.66c-1-.82-1.13-1.92-1-3.1,1.13.78,1.12,1.92,1,3.1Z"/>
  <path class="cls-17" d="M1027.27,442.38c.54-.83,1.09-1.66,1.63-2.5,0,1.19-.17,2.26-1.63,2.5Z"/>
  <path class="cls-17" d="M177.33,500.68c1.13,1.1.67,2.2-.01,3.3,0-1.1,0-2.2.01-3.3Z"/>
  <path class="cls-17" d="M955.2,651.63c-.11-1.17.01-2.26,1.02-3.05.13,1.17.12,2.3-1.02,3.05Z"/>
  <path class="cls-17" d="M195.17,649.79c1,.82,1.12,1.93,1.02,3.11-1.15-.77-1.14-1.92-1.02-3.11Z"/>
  <path class="cls-17" d="M953.92,655.43c-.11-1.15.05-2.21,1.03-2.98.12,1.15.09,2.26-1.03,2.98Z"/>
  <path class="cls-17" d="M196.43,653.71c.99.77,1.14,1.83,1.04,2.98-1.12-.73-1.16-1.83-1.04-2.98Z"/>
  <path class="cls-17" d="M952.61,659.24c-.11-1.16.1-2.21,1.07-2.99.12,1.17.08,2.27-1.07,2.99Z"/>
  <path class="cls-17" d="M197.7,657.51c.97.78,1.19,1.83,1.09,2.99-1.16-.71-1.21-1.82-1.09-2.99Z"/>
  <path class="cls-17" d="M951.28,663.04c-.05-1.17.07-2.28,1.12-3.06.13,1.2.09,2.34-1.12,3.06Z"/>
  <path class="cls-17" d="M198.99,661.19c1.05.8,1.19,1.92,1.12,3.11-1.23-.73-1.25-1.9-1.12-3.11Z"/>
  <path class="cls-17" d="M201.46,667.97c.94.65,1.17,1.59,1.09,2.66-1.01-.62-1.17-1.6-1.09-2.66Z"/>
  <path class="cls-17" d="M947.46,673.18c-.05-1.08.04-2.12,1.08-2.78.18,1.13.06,2.15-1.08,2.78Z"/>
  <path class="cls-17" d="M202.81,671.37c1.05.77,1.21,1.87,1.16,3.05-1.25-.69-1.29-1.84-1.16-3.05Z"/>
  <path class="cls-17" d="M944.91,679.51c-.04-1.08.1-2.09,1.14-2.73.13,1.12,0,2.13-1.14,2.73Z"/>
  <path class="cls-17" d="M205.39,677.99c1.05.64,1.15,1.68,1.15,2.76-1.21-.58-1.33-1.61-1.15-2.76Z"/>
  <path class="cls-17" d="M206.52,680.69c.97.62,1.22,1.55,1.13,2.62-1-.6-1.17-1.56-1.13-2.62Z"/>
  <path class="cls-17" d="M942.17,685.77c.05-1.08.22-2.1,1.24-2.74.2,1.19.07,2.23-1.24,2.74Z"/>
  <path class="cls-17" d="M207.91,684.04c1.08.72,1.29,1.82,1.33,3-1.39-.58-1.44-1.76-1.33-3Z"/>
  <path class="cls-17" d="M941.07,688.37c0-1.07.13-2.09,1.18-2.71.12,1.12-.02,2.13-1.18,2.71Z"/>
  <path class="cls-17" d="M209.16,686.91c1.01.63,1.22,1.62,1.22,2.7-1.2-.54-1.34-1.57-1.22-2.7Z"/>
  <path class="cls-17" d="M939.89,690.93c-.06-1.07.23-1.99,1.19-2.6.02,1.05-.19,2.01-1.19,2.6Z"/>
  <path class="cls-17" d="M210.35,689.54c.96.63,1.25,1.56,1.21,2.64-1.06-.58-1.26-1.56-1.21-2.64Z"/>
  <path class="cls-17" d="M211.55,692.18c.87.62,1.29,1.45,1.19,2.53-.99-.57-1.19-1.5-1.19-2.53Z"/>
  <path class="cls-17" d="M937.05,697.16c.07-1.07.24-2.1,1.27-2.73.2,1.19.08,2.24-1.27,2.73Z"/>
  <path class="cls-17" d="M213,695.39c1.06.72,1.32,1.82,1.44,2.99-1.51-.51-1.54-1.72-1.44-2.99Z"/>
  <path class="cls-17" d="M935.79,699.7c.07-1.07.3-2.07,1.33-2.67.12,1.17-.02,2.21-1.33,2.67Z"/>
  <path class="cls-17" d="M214.34,698.23c1.02.62,1.21,1.64,1.31,2.71-1.38-.45-1.5-1.5-1.31-2.71Z"/>
  <path class="cls-17" d="M934.56,702.25c.06-1.07.24-2.09,1.31-2.67.11,1.16-.03,2.19-1.31,2.67Z"/>
  <path class="cls-17" d="M215.56,700.81c1.05.6,1.23,1.62,1.31,2.69-1.32-.47-1.46-1.51-1.31-2.69Z"/>
  <path class="cls-17" d="M933.31,704.79c.05-1.07.25-2.07,1.31-2.65.09,1.14-.07,2.16-1.31,2.65Z"/>
  <path class="cls-17" d="M216.8,703.38c1.05.58,1.27,1.58,1.35,2.65-1.31-.45-1.46-1.49-1.35-2.65Z"/>
  <path class="cls-17" d="M932.01,707.32c.06-1.07.33-2.04,1.36-2.61.06,1.14-.1,2.15-1.36,2.61Z"/>
  <path class="cls-17" d="M218.07,705.91c1.05.58,1.27,1.58,1.35,2.65-1.31-.45-1.46-1.48-1.35-2.65Z"/>
  <path class="cls-17" d="M930.7,709.83c.08-1.07.34-2.05,1.38-2.62.08,1.15-.08,2.18-1.38,2.62Z"/>
  <path class="cls-17" d="M219.35,708.44c1.05.56,1.3,1.56,1.4,2.63-1.36-.41-1.51-1.45-1.4-2.63Z"/>
  <path class="cls-17" d="M929.42,712.36c.09-1.07.3-2.07,1.35-2.65.11,1.17-.04,2.2-1.35,2.65Z"/>
  <path class="cls-17" d="M220.66,710.93c1.03.57,1.29,1.56,1.43,2.62-1.43-.36-1.57-1.41-1.43-2.62Z"/>
  <path class="cls-17" d="M928.07,714.85c.13-1.06.36-2.06,1.42-2.61.11,1.18-.05,2.22-1.42,2.61Z"/>
  <path class="cls-17" d="M221.99,713.42c1.03.58,1.25,1.59,1.42,2.63-1.49-.33-1.61-1.4-1.42-2.63Z"/>
  <path class="cls-17" d="M926.74,717.35c.13-1.06.36-2.07,1.43-2.63.15,1.21.01,2.27-1.43,2.63Z"/>
  <path class="cls-17" d="M224.26,717.55c.9.58,1.34,1.41,1.33,2.49-1.05-.51-1.29-1.44-1.33-2.49Z"/>
  <path class="cls-17" d="M924.52,721.31c-.01-1.07.41-1.9,1.35-2.45-.06,1.03-.31,1.95-1.35,2.45Z"/>
  <path class="cls-17" d="M225.58,720.01c.96.56,1.36,1.44,1.43,2.51-1.18-.44-1.42-1.41-1.43-2.51Z"/>
  <path class="cls-17" d="M923.1,723.78c.07-1.06.48-1.94,1.43-2.5-.01,1.1-.26,2.07-1.43,2.5Z"/>
  <path class="cls-17" d="M226.95,722.42c1.07.54,1.31,1.53,1.44,2.58-1.34-.38-1.51-1.42-1.44-2.58Z"/>
  <path class="cls-17" d="M921.72,726.26c.14-1.05.38-2.04,1.45-2.58.07,1.17-.1,2.2-1.45,2.58Z"/>
  <path class="cls-17" d="M919.39,730.16c0-1.07.49-1.86,1.39-2.41-.07,1.03-.33,1.95-1.39,2.41Z"/>
  <path class="cls-17" d="M230.65,728.91c.97.54,1.4,1.39,1.49,2.46-1.2-.4-1.45-1.36-1.49-2.46Z"/>
  <path class="cls-17" d="M917.9,732.6c.13-1.05.53-1.95,1.51-2.49,0,1.13-.2,2.14-1.51,2.49Z"/>
  <path class="cls-17" d="M232.07,731.25c1.03.52,1.35,1.48,1.55,2.51-1.47-.26-1.63-1.31-1.55-2.51Z"/>
  <path class="cls-17" d="M234.5,735.2c1.01.51,1.4,1.41,1.53,2.46-1.3-.33-1.51-1.34-1.53-2.46Z"/>
  <path class="cls-17" d="M914.07,738.92c.16-1.04.43-2.01,1.51-2.5.02,1.15-.18,2.17-1.51,2.5Z"/>
  <path class="cls-17" d="M911.55,742.73c.14-1.04.58-1.9,1.56-2.4-.05,1.1-.32,2.06-1.56,2.4Z"/>
  <path class="cls-17" d="M238.38,741.45c1.07.46,1.4,1.41,1.62,2.43-1.45-.21-1.64-1.25-1.62-2.43Z"/>
  <path class="cls-17" d="M909.07,746.57c.11-1.04.58-1.86,1.52-2.38-.07,1.07-.35,2.01-1.52,2.38Z"/>
  <path class="cls-17" d="M240.91,745.28c1.05.46,1.42,1.39,1.63,2.41-1.44-.2-1.64-1.24-1.63-2.41Z"/>
  <path class="cls-17" d="M906.49,750.35c.11-1.05.65-1.82,1.56-2.33-.09,1.06-.38,1.99-1.56,2.33Z"/>
  <path class="cls-17" d="M243.45,749.08c1.05.46,1.42,1.39,1.63,2.41-1.44-.2-1.64-1.24-1.63-2.41Z"/>
  <path class="cls-17" d="M903.9,754.13c.17-1.03.57-1.89,1.59-2.35-.07,1.09-.36,2.04-1.59,2.35Z"/>
  <path class="cls-17" d="M901.23,757.83c.23-1.01.65-1.89,1.67-2.33-.05,1.14-.28,2.15-1.67,2.33Z"/>
  <path class="cls-17" d="M249.73,758.09c.99.46,1.47,1.28,1.67,2.31-1.3-.23-1.59-1.19-1.67-2.31Z"/>
  <path class="cls-17" d="M253.5,763.27c.93.46,1.48,1.21,1.65,2.23-1.22-.25-1.54-1.17-1.65-2.23Z"/>
  <path class="cls-17" d="M257.34,768.3c1.02.41,1.47,1.23,1.68,2.24-1.26-.22-1.57-1.16-1.68-2.24Z"/>
  <path class="cls-17" d="M331.47,842.53c1.01.23,1.84.7,2.23,1.71-1.11-.1-2.06-.41-2.23-1.71Z"/>
  <path class="cls-17" d="M336.49,846.41c1.01.2,1.88.61,2.3,1.63-1.09-.09-2.04-.39-2.3-1.63Z"/>
  <path class="cls-17" d="M341.65,850.13c1.01.23,1.83.71,2.29,1.69-1.13-.08-2.13-.32-2.29-1.69Z"/>
  <path class="cls-17" d="M804.88,853.07c.48-.96,1.3-1.45,2.32-1.68-.17,1.38-1.18,1.61-2.32,1.68Z"/>
  <path class="cls-17" d="M345.35,852.82c1.04.14,1.82.64,2.31,1.58-1.06-.1-1.99-.4-2.31-1.58Z"/>
  <path class="cls-17" d="M801.1,855.63c.46-1.01,1.33-1.41,2.37-1.58-.32,1.22-1.27,1.51-2.37,1.58Z"/>
  <path class="cls-17" d="M797.34,858.19c.52-.91,1.28-1.45,2.34-1.56-.34,1.17-1.27,1.47-2.34,1.56Z"/>
  <path class="cls-17" d="M354.39,858.98c1.03.22,1.96.57,2.42,1.62-1.18,0-2.22-.19-2.42-1.62Z"/>
  <path class="cls-17" d="M793.48,860.71c.52-.94,1.34-1.4,2.39-1.51-.38,1.16-1.32,1.44-2.39,1.51Z"/>
  <path class="cls-17" d="M789.61,863.21c.51-.98,1.37-1.4,2.42-1.55-.35,1.23-1.31,1.5-2.42,1.55Z"/>
  <path class="cls-17" d="M360.58,863.04c1.05.09,1.89.52,2.42,1.47-1.07-.07-2-.34-2.42-1.47Z"/>
  <path class="cls-17" d="M785.67,865.67c.49-1.08,1.47-1.35,2.52-1.5-.34,1.33-1.37,1.52-2.52,1.5Z"/>
  <path class="cls-17" d="M364.47,865.45c1.05.14,1.95.52,2.47,1.53-1.13-.02-2.14-.23-2.47-1.53Z"/>
  <path class="cls-17" d="M779.34,869.5c.55-.98,1.47-1.35,2.53-1.46-.39,1.26-1.4,1.46-2.53,1.46Z"/>
  <path class="cls-17" d="M370.79,869.31c1.06.1,1.97.47,2.5,1.47-1.11-.01-2.09-.26-2.5-1.47Z"/>
  <path class="cls-17" d="M373.27,870.77c1.06.02,1.88.45,2.43,1.36-1.03-.07-1.95-.32-2.43-1.36Z"/>
  <path class="cls-17" d="M772.92,873.26c.51-1.06,1.48-1.35,2.55-1.47-.37,1.32-1.39,1.5-2.55,1.47Z"/>
  <path class="cls-17" d="M377.2,873.05c1.06.14,2.06.38,2.59,1.44-1.17.07-2.21-.1-2.59-1.44Z"/>
  <path class="cls-17" d="M770.48,874.6c.54-.99,1.45-1.32,2.51-1.39-.47,1.12-1.43,1.36-2.51,1.39Z"/>
  <path class="cls-17" d="M379.69,874.42c1.07.08,1.99.42,2.55,1.41-1.12,0-2.1-.23-2.55-1.41Z"/>
  <path class="cls-17" d="M768.05,875.92c.56-.91,1.39-1.33,2.44-1.33-.5,1.01-1.42,1.26-2.44,1.33Z"/>
  <path class="cls-17" d="M382.19,875.81c1.08,0,1.9.46,2.49,1.35-1.05-.04-2-.29-2.49-1.35Z"/>
  <path class="cls-17" d="M763.89,878.22c.56-1.04,1.56-1.3,2.62-1.44-.35,1.42-1.41,1.57-2.62,1.44Z"/>
  <path class="cls-17" d="M761.39,879.53c.56-1.05,1.56-1.29,2.63-1.4-.41,1.33-1.46,1.49-2.63,1.4Z"/>
  <path class="cls-17" d="M388.7,879.32c1.07.13,2.08.35,2.64,1.42-1.22.15-2.28,0-2.64-1.42Z"/>
  <path class="cls-17" d="M758.87,880.83c.56-1.06,1.56-1.29,2.63-1.37-.45,1.27-1.48,1.44-2.63,1.37Z"/>
  <path class="cls-17" d="M391.21,880.64c1.06.12,2.07.36,2.63,1.41-1.19.11-2.23-.05-2.63-1.41Z"/>
  <path class="cls-17" d="M756.4,882.15c.58-.98,1.5-1.32,2.57-1.39-.44,1.22-1.45,1.41-2.57,1.39Z"/>
  <path class="cls-17" d="M393.71,881.97c1.07.09,2.08.3,2.66,1.35-1.17.11-2.21-.04-2.66-1.35Z"/>
  <path class="cls-17" d="M753.86,883.42c.59-.99,1.52-1.29,2.6-1.3-.53,1.11-1.51,1.32-2.6,1.3Z"/>
  <path class="cls-17" d="M396.26,883.25c1.08.07,2.08.29,2.66,1.34-1.17.11-2.21-.04-2.66-1.34Z"/>
  <path class="cls-17" d="M751.31,884.69c.59-.99,1.52-1.29,2.6-1.3-.53,1.11-1.51,1.32-2.6,1.3Z"/>
  <path class="cls-17" d="M398.8,884.51c1.08.08,2.1.25,2.68,1.33-1.17.12-2.22-.02-2.68-1.33Z"/>
  <path class="cls-17" d="M738.72,917.67c-.13-1.19.01-2.3,1.04-3.11.13,1.19.13,2.34-1.04,3.11Z"/>
  <path class="cls-17" d="M737.5,921.46c-.14-1.15.03-2.2,1.01-2.98.12,1.15.09,2.24-1.01,2.98Z"/>
  <path class="cls-17" d="M415.43,926.03c.97.8,1.14,1.87,1,3.03-1.12-.75-1.13-1.87-1-3.03Z"/>
  <path class="cls-17" d="M419.26,938.63c1,.82,1.13,1.92,1,3.1-1.13-.78-1.12-1.92-1-3.1Z"/>
  <path class="cls-17" d="M729.86,946.8c-.14-1.18,0-2.28.99-3.1.13,1.18.14,2.32-.99,3.1Z"/>
  <path class="cls-17" d="M724.2,964.42c.52-.97,1.05-1.94,1.57-2.91.09,1.3-.03,2.48-1.57,2.91Z"/>
  <path class="cls-17" d="M720.33,965.66c.8-.97,1.87-1.13,3.04-1-.76,1.11-1.88,1.13-3.04,1Z"/>
  <path class="cls-17" d="M438.2,967.17c1.19-.11,2.31-.03,3.12,1.01-1.19.13-2.34.13-3.12-1.01Z"/>
  <path class="cls-17" d="M912.98,216.09c-.78-.17-1.21-.67-1.39-1.43.74.21,1.21.68,1.39,1.43Z"/>
  <path class="cls-17" d="M914.24,217.38c-.77-.17-1.23-.64-1.38-1.41.75.18,1.21.65,1.38,1.41Z"/>
  <path class="cls-17" d="M915.47,218.7c-.77-.18-1.21-.68-1.35-1.44.77.18,1.22.66,1.35,1.44Z"/>
  <path class="cls-17" d="M916.67,220.03c-.77-.2-1.19-.71-1.34-1.47.81.16,1.26.65,1.34,1.47Z"/>
  <path class="cls-17" d="M230.61,224.7c-.1.72-.49,1.17-1.21,1.32.4-.44.81-.88,1.21-1.32Z"/>
  <path class="cls-17" d="M229.41,226c-.1.74-.5,1.22-1.24,1.4.41-.47.83-.93,1.24-1.4Z"/>
  <path class="cls-17" d="M923.25,227.33c-.73-.16-1.14-.61-1.23-1.35.41.45.82.9,1.23,1.35Z"/>
  <path class="cls-17" d="M228.25,227.32c-.1.77-.52,1.27-1.29,1.45.14-.73.57-1.21,1.29-1.45Z"/>
  <path class="cls-17" d="M924.49,228.68c-.75-.17-1.17-.64-1.28-1.39.43.46.85.93,1.28,1.39Z"/>
  <path class="cls-17" d="M227.08,228.64c-.13.76-.56,1.27-1.32,1.47.11-.79.55-1.27,1.32-1.47Z"/>
  <path class="cls-17" d="M925.7,230.03c-.77-.18-1.18-.68-1.3-1.44.72.23,1.15.71,1.3,1.44Z"/>
  <path class="cls-17" d="M225.88,229.97c-.14.76-.55,1.28-1.32,1.49.05-.83.5-1.33,1.32-1.49Z"/>
  <path class="cls-17" d="M926.91,231.38c-.77-.2-1.19-.7-1.32-1.47.77.2,1.21.68,1.32,1.47Z"/>
  <path class="cls-17" d="M221.74,234.85c-.08.75-.48,1.22-1.22,1.39.41-.46.81-.92,1.22-1.39Z"/>
  <path class="cls-17" d="M930.91,236.16c-.72-.16-1.12-.6-1.18-1.33.39.44.79.89,1.18,1.33Z"/>
  <path class="cls-17" d="M220.58,236.17c-.11.75-.5,1.26-1.27,1.45.14-.73.57-1.21,1.27-1.45Z"/>
  <path class="cls-17" d="M932.12,237.55c-.74-.19-1.14-.67-1.24-1.41.41.47.82.94,1.24,1.41Z"/>
  <path class="cls-17" d="M219.43,237.5c-.11.76-.48,1.31-1.25,1.54.05-.81.47-1.31,1.25-1.54Z"/>
  <path class="cls-17" d="M859.37,807.34c.16-.77.62-1.23,1.39-1.39-.17.75-.64,1.22-1.39,1.39Z"/>
  <path class="cls-17" d="M860.65,806.07c.15-.76.6-1.24,1.36-1.43-.14.77-.6,1.25-1.36,1.43Z"/>
  <path class="cls-17" d="M289.19,805.01c.71.11,1.12.51,1.19,1.23-.4-.41-.8-.82-1.19-1.23Z"/>
  <path class="cls-17" d="M861.89,804.78c.14-.78.6-1.25,1.37-1.43-.13.79-.59,1.26-1.37,1.43Z"/>
  <path class="cls-17" d="M287.92,803.72c.71.12,1.13.52,1.22,1.24-.41-.41-.81-.83-1.22-1.24Z"/>
  <path class="cls-17" d="M863.12,803.48c.17-.76.64-1.23,1.41-1.4-.14.8-.61,1.26-1.41,1.4Z"/>
  <path class="cls-17" d="M286.66,802.43c.71.13,1.12.54,1.24,1.25-.41-.42-.82-.83-1.24-1.25Z"/>
  <path class="cls-17" d="M864.4,802.22c.16-.75.58-1.27,1.35-1.46-.08.82-.53,1.31-1.35,1.46Z"/>
  <path class="cls-17" d="M285.41,801.11c.73.14,1.12.59,1.23,1.31-.41-.44-.82-.87-1.23-1.31Z"/>
  <path class="cls-17" d="M865.61,800.89c.17-.76.63-1.24,1.39-1.42-.08.84-.55,1.31-1.39,1.42Z"/>
  <path class="cls-17" d="M284.15,799.81c.73.14,1.17.57,1.27,1.31-.43-.44-.85-.87-1.27-1.31Z"/>
  <path class="cls-17" d="M282.9,798.49c.75.15,1.16.61,1.28,1.35-.43-.45-.85-.9-1.28-1.35Z"/>
  <path class="cls-17" d="M281.65,797.17c.74.17,1.18.63,1.31,1.38-.44-.46-.87-.92-1.31-1.38Z"/>
  <path class="cls-17" d="M280.41,795.86c.77.16,1.21.64,1.33,1.4-.71-.22-1.15-.68-1.33-1.4Z"/>
  <path class="cls-17" d="M279.19,794.51c.77.19,1.18.7,1.32,1.45-.75-.21-1.19-.69-1.32-1.45Z"/>
  <path class="cls-17" d="M278.01,793.15c.77.21,1.18.73,1.31,1.49-.8-.19-1.24-.68-1.31-1.49Z"/>
  <path class="cls-17" d="M872.42,793.55c.07-.73.47-1.18,1.19-1.33-.4.44-.79.89-1.19,1.33Z"/>
  <path class="cls-17" d="M873.59,792.25c.1-.75.52-1.2,1.26-1.37-.42.46-.84.91-1.26,1.37Z"/>
  <path class="cls-17" d="M874.79,790.95c.11-.76.53-1.24,1.29-1.41-.17.71-.6,1.18-1.29,1.41Z"/>
  <path class="cls-17" d="M875.98,789.64c.12-.76.53-1.27,1.3-1.48-.12.77-.55,1.26-1.3,1.48Z"/>
  <path class="cls-17" d="M877.15,788.3c.12-.77.52-1.3,1.29-1.51-.04.83-.48,1.33-1.29,1.51Z"/>
  <path class="cls-17" d="M272.69,787.13c.72.17,1.11.63,1.18,1.36-.39-.45-.79-.9-1.18-1.36Z"/>
  <path class="cls-17" d="M271.46,785.77c.75.17,1.17.64,1.26,1.4-.42-.47-.84-.93-1.26-1.4Z"/>
  <path class="cls-17" d="M270.27,784.39c.76.2,1.16.71,1.28,1.47-.72-.24-1.15-.72-1.28-1.47Z"/>
  <path class="cls-17" d="M269.11,783c.77.22,1.16.76,1.28,1.52-.79-.2-1.22-.7-1.28-1.52Z"/>
  <path class="cls-17" d="M881.3,783.41c.05-.75.47-1.2,1.19-1.37-.4.46-.8.92-1.19,1.37Z"/>
  <path class="cls-17" d="M882.45,782.09c.1-.75.47-1.27,1.24-1.46-.14.72-.55,1.21-1.24,1.46Z"/>
  <path class="cls-17" d="M401.38,885.78c.86.12,1.27.61,1.22,1.47-.67-.27-1.08-.76-1.22-1.47Z"/>
  <path class="cls-17" d="M387.27,878.53c.74-.07,1.3.18,1.59.91-.71,0-1.23-.3-1.59-.91Z"/>
  <path class="cls-17" d="M883.58,780.75c.11-.76.48-1.31,1.25-1.54-.05.81-.47,1.31-1.25,1.54Z"/>
  <path class="cls-17" d="M265.1,778.17c.74.19,1.12.68,1.2,1.42-.4-.47-.8-.95-1.2-1.42Z"/>
  <path class="cls-17" d="M384.7,877.17c.84-.03,1.49.3,1.89,1.06-.81-.03-1.45-.37-1.89-1.06Z"/>
  <path class="cls-17" d="M263.93,776.76c.76.21,1.16.73,1.25,1.5-.72-.25-1.15-.74-1.25-1.5Z"/>
  <path class="cls-17" d="M887.61,775.78c.09-.75.49-1.22,1.22-1.42-.41.47-.82.95-1.22,1.42Z"/>
  <path class="cls-17" d="M888.74,774.46c.08-.75.4-1.33,1.17-1.58-.03.79-.43,1.31-1.17,1.58Z"/>
  <path class="cls-17" d="M260.01,771.82c.73.21,1.12.69,1.17,1.44-.39-.48-.78-.96-1.17-1.44Z"/>
  <path class="cls-17" d="M258.87,770.39c.77.22,1.14.77,1.22,1.53-.73-.25-1.15-.76-1.22-1.53Z"/>
  <path class="cls-17" d="M892.66,769.43c.07-.76.42-1.29,1.18-1.52-.1.73-.49,1.24-1.18,1.52Z"/>
  <path class="cls-17" d="M256.15,766.83c.71.2,1.09.66,1.13,1.39-.38-.46-.75-.93-1.13-1.39Z"/>
  <path class="cls-17" d="M766.35,876.91c.29-.74.88-.99,1.64-.96-.37.62-.91.95-1.64.96Z"/>
  <path class="cls-17" d="M255.02,765.36c.77.23,1.11.78,1.17,1.53-.69-.28-1.09-.79-1.17-1.53Z"/>
  <path class="cls-17" d="M896.48,764.36c.07-.76.42-1.29,1.18-1.52-.1.73-.49,1.24-1.18,1.52Z"/>
  <path class="cls-17" d="M252.35,761.74c.71.21,1.08.69,1.09,1.43-.36-.48-.73-.95-1.09-1.43Z"/>
  <path class="cls-17" d="M251.26,760.24c.77.25,1.09.81,1.15,1.57-.71-.29-1.1-.8-1.15-1.57Z"/>
  <path class="cls-17" d="M900.23,759.26c.05-.76.38-1.33,1.15-1.59-.03.78-.42,1.31-1.15,1.59Z"/>
  <path class="cls-17" d="M248.61,756.55c.76.23,1.09.76,1.11,1.52-.37-.51-.74-1.01-1.11-1.52Z"/>
  <path class="cls-17" d="M902.89,755.52c.03-.76.37-1.3,1.13-1.54-.08.72-.47,1.23-1.13,1.54Z"/>
  <path class="cls-17" d="M244.94,751.33c.76.26,1.08.84,1.13,1.6-.73-.28-1.12-.81-1.13-1.6Z"/>
  <path class="cls-17" d="M905.51,751.74c.02-.75.36-1.28,1.09-1.52-.36.51-.73,1.02-1.09,1.52Z"/>
  <path class="cls-17" d="M375.77,872.15c.77-.03,1.32.27,1.58,1.01-.53-.34-1.05-.68-1.58-1.01Z"/>
  <path class="cls-17" d="M242.39,747.53c.76.27,1.06.85,1.1,1.61-.72-.3-1.1-.83-1.1-1.61Z"/>
  <path class="cls-17" d="M908.09,747.96c-.02-.77.34-1.27,1.07-1.51-.36.5-.71,1.01-1.07,1.51Z"/>
  <path class="cls-17" d="M239.85,743.73c.76.27,1.06.85,1.1,1.61-.72-.3-1.1-.83-1.1-1.61Z"/>
  <path class="cls-17" d="M910.61,744.14c-.02-.77.3-1.31,1.06-1.55-.35.52-.71,1.04-1.06,1.55Z"/>
  <path class="cls-17" d="M913.11,740.33c0-.77.33-1.31,1.09-1.56-.07.72-.44,1.24-1.09,1.56Z"/>
  <path class="cls-17" d="M233.48,733.61c.76.28,1.04.87,1.04,1.63-.69-.33-1.05-.86-1.04-1.63Z"/>
  <path class="cls-17" d="M369.45,868.45c.73-.04,1.24.26,1.48.96-.49-.32-.98-.64-1.48-.96Z"/>
  <path class="cls-17" d="M366.9,866.96c.84.03,1.49.37,1.89,1.13-.83-.05-1.47-.4-1.89-1.13Z"/>
  <path class="cls-17" d="M363.04,864.53c.77-.02,1.31.3,1.57,1.04-.52-.35-1.05-.69-1.57-1.04Z"/>
  <path class="cls-17" d="M920.82,727.68c-.03-.76.27-1.31,1.02-1.57-.34.52-.68,1.05-1.02,1.57Z"/>
  <path class="cls-17" d="M788.03,864.3c.25-.75.79-1.08,1.57-1.08-.32.65-.84,1.01-1.57,1.08Z"/>
  <path class="cls-17" d="M925.89,718.81c-.03-.75.23-1.33.98-1.62,0,.73-.35,1.26-.98,1.62Z"/>
  <path class="cls-17" d="M791.88,861.78c.25-.75.79-1.07,1.56-1.05-.52.35-1.04.7-1.56,1.05Z"/>
  <path class="cls-17" d="M223.28,715.89c.76.29,1.02.87.98,1.64-.65-.36-.99-.9-.98-1.64Z"/>
  <path class="cls-17" d="M974.19,499.61c.04-.78.47-1.24,1.22-1.42-.41.47-.81.95-1.22,1.42Z"/>
  <path class="cls-17" d="M975.32,498.28c.11-.76.51-1.28,1.28-1.48-.12.75-.55,1.24-1.28,1.48Z"/>
  <path class="cls-17" d="M795.75,859.29c.24-.72.75-1.08,1.52-1.07-.51.36-1.01.71-1.52,1.07Z"/>
  <path class="cls-17" d="M976.48,496.94c.13-.76.54-1.29,1.31-1.49-.07.81-.51,1.31-1.31,1.49Z"/>
  <path class="cls-17" d="M173.38,495.76c.72.17,1.11.63,1.18,1.36-.39-.45-.79-.91-1.18-1.36Z"/>
  <path class="cls-17" d="M172.15,494.4c.75.17,1.17.64,1.26,1.4-.42-.47-.84-.93-1.26-1.4Z"/>
  <path class="cls-17" d="M170.94,493.04c.77.18,1.18.68,1.3,1.44-.72-.23-1.15-.71-1.3-1.44Z"/>
  <path class="cls-17" d="M352.93,858.02c.76.04,1.35.34,1.62,1.1-.79,0-1.32-.38-1.62-1.1Z"/>
  <path class="cls-17" d="M169.73,491.7c.77.2,1.19.71,1.32,1.47-.77-.2-1.21-.68-1.32-1.47Z"/>
  <path class="cls-17" d="M799.54,856.74c.25-.73.77-1.07,1.53-1.09-.51.36-1.02.73-1.53,1.09Z"/>
  <path class="cls-17" d="M168.54,490.35c.77.21,1.18.72,1.32,1.49-.82-.16-1.27-.65-1.32-1.49Z"/>
  <path class="cls-17" d="M347.75,854.45c.75,0,1.25.36,1.47,1.08-.49-.36-.98-.72-1.47-1.08Z"/>
  <path class="cls-17" d="M981.87,490.76c.08-.74.49-1.19,1.23-1.35-.41.45-.82.9-1.23,1.35Z"/>
  <path class="cls-17" d="M983.05,489.45c.11-.75.53-1.22,1.28-1.39-.43.46-.85.93-1.28,1.39Z"/>
  <path class="cls-17" d="M984.25,488.15c.12-.76.53-1.26,1.3-1.44-.15.74-.58,1.22-1.3,1.44Z"/>
  <path class="cls-17" d="M985.43,486.83c.13-.76.56-1.27,1.32-1.47-.11.79-.55,1.27-1.32,1.47Z"/>
  <path class="cls-17" d="M803.33,854.17c.24-.75.78-1.09,1.55-1.1-.32.65-.83,1.02-1.55,1.1Z"/>
  <path class="cls-17" d="M343.96,851.83c.76.02,1.3.35,1.53,1.11-.51-.37-1.02-.74-1.53-1.11Z"/>
  <path class="cls-17" d="M807.04,851.54c.25-.77.82-1.09,1.59-1.15-.28.73-.8,1.12-1.59,1.15Z"/>
  <path class="cls-17" d="M340.21,849.12c.77.06,1.34.39,1.59,1.15-.79-.03-1.31-.42-1.59-1.15Z"/>
  <path class="cls-17" d="M986.62,485.5c.14-.76.56-1.28,1.33-1.47-.07.83-.52,1.32-1.33,1.47Z"/>
  <path class="cls-17" d="M338.85,848.08c.75.03,1.24.4,1.46,1.12-.49-.37-.97-.75-1.46-1.12Z"/>
  <path class="cls-17" d="M163.2,484.34c.73.16,1.14.61,1.23,1.35-.41-.45-.82-.9-1.23-1.35Z"/>
  <path class="cls-17" d="M812.24,847.84c.23-.75.76-1.11,1.52-1.18-.28.68-.79,1.08-1.52,1.18Z"/>
  <path class="cls-17" d="M335.1,845.36c.77.06,1.31.42,1.54,1.19-.76-.08-1.26-.48-1.54-1.19Z"/>
  <path class="cls-17" d="M333.75,844.28c.74.05,1.21.43,1.42,1.13-.47-.38-.95-.75-1.42-1.13Z"/>
  <path class="cls-17" d="M161.97,483c.75.17,1.17.64,1.28,1.39-.43-.46-.85-.93-1.28-1.39Z"/>
  <path class="cls-17" d="M817.33,844.04c.23-.75.76-1.11,1.52-1.18-.28.68-.79,1.08-1.52,1.18Z"/>
  <path class="cls-17" d="M160.72,481.68c.77.16,1.21.63,1.33,1.4-.71-.22-1.15-.68-1.33-1.4Z"/>
  <path class="cls-17" d="M159.51,480.34c.77.19,1.18.7,1.32,1.45-.75-.21-1.19-.69-1.32-1.45Z"/>
  <path class="cls-17" d="M158.32,478.98c.77.21,1.18.73,1.31,1.49-.8-.19-1.24-.68-1.31-1.49Z"/>
  <path class="cls-17" d="M992.12,479.38c.08-.72.49-1.14,1.19-1.29-.4.43-.8.86-1.19,1.29Z"/>
  <path class="cls-17" d="M157.08,477.68c.76.19,1.21.67,1.37,1.43-.85-.11-1.31-.59-1.37-1.43Z"/>
  <path class="cls-17" d="M330.03,841.51c.76.08,1.34.4,1.58,1.17-.79-.03-1.32-.43-1.58-1.17Z"/>
  <path class="cls-17" d="M993.32,478.09c.09-.74.5-1.19,1.23-1.35-.41.45-.82.9-1.23,1.35Z"/>
  <path class="cls-17" d="M994.51,476.79c.11-.76.54-1.21,1.29-1.36-.43.45-.86.91-1.29,1.36Z"/>
  <path class="cls-17" d="M995.73,475.5c.13-.75.55-1.23,1.31-1.4-.18.71-.62,1.17-1.31,1.4Z"/>
  <path class="cls-17" d="M996.95,474.2c.13-.76.56-1.25,1.33-1.43-.15.74-.6,1.22-1.33,1.43Z"/>
  <path class="cls-17" d="M998.16,472.9c.14-.77.57-1.27,1.34-1.45-.12.78-.57,1.26-1.34,1.45Z"/>
  <path class="cls-17" d="M328.68,840.43c.76.04,1.24.43,1.45,1.16-.48-.39-.97-.77-1.45-1.16Z"/>
  <path class="cls-17" d="M822.33,840.16c.23-.77.79-1.12,1.55-1.22-.25.75-.76,1.16-1.55,1.22Z"/>
  <path class="cls-17" d="M823.78,839.04c.2-.75.71-1.12,1.47-1.18-.49.39-.98.79-1.47,1.18Z"/>
  <path class="cls-17" d="M151.71,471.76c.71.15,1.11.57,1.19,1.29-.4-.43-.8-.86-1.19-1.29Z"/>
  <path class="cls-17" d="M323.66,836.45c.77.09,1.29.48,1.51,1.24-.76-.1-1.26-.52-1.51-1.24Z"/>
  <path class="cls-17" d="M999.37,471.58c.15-.76.57-1.27,1.34-1.47-.08.82-.53,1.31-1.34,1.47Z"/>
  <path class="cls-17" d="M322.32,835.33c.75.07,1.24.46,1.43,1.19-.48-.4-.95-.8-1.43-1.19Z"/>
  <path class="cls-17" d="M828.68,835.08c.23-.76.78-1.13,1.54-1.24-.22.77-.73,1.19-1.54,1.24Z"/>
  <path class="cls-17" d="M830.1,833.94c.2-.76.72-1.14,1.47-1.23-.26.68-.75,1.1-1.47,1.23Z"/>
  <path class="cls-17" d="M831.52,832.76c.18-.72.62-1.14,1.38-1.19-.46.4-.92.79-1.38,1.19Z"/>
  <path class="cls-17" d="M150.46,470.43c.73.14,1.15.58,1.24,1.32l-1.24-1.32Z"/>
  <path class="cls-17" d="M1000.57,470.24c.16-.76.61-1.24,1.37-1.44-.07.85-.53,1.32-1.37,1.44Z"/>
  <path class="cls-17" d="M149.21,469.11c.75.15,1.16.61,1.28,1.35-.43-.45-.85-.9-1.28-1.35Z"/>
  <path class="cls-17" d="M147.96,467.79c.74.17,1.18.63,1.31,1.38-.44-.46-.87-.92-1.31-1.38Z"/>
  <path class="cls-17" d="M317.38,831.25c.76.13,1.3.52,1.52,1.28-.82-.06-1.32-.49-1.52-1.28Z"/>
  <path class="cls-17" d="M316.03,830.1c.77.11,1.28.51,1.48,1.27-.76-.12-1.25-.55-1.48-1.27Z"/>
  <path class="cls-17" d="M146.71,466.49c.77.16,1.21.62,1.33,1.39-.71-.21-1.15-.68-1.33-1.39Z"/>
  <path class="cls-17" d="M314.71,828.94c.76.09,1.23.51,1.42,1.25-.47-.42-.94-.83-1.42-1.25Z"/>
  <path class="cls-17" d="M836.31,828.74c.22-.76.75-1.16,1.52-1.28-.19.79-.69,1.23-1.52,1.28Z"/>
  <path class="cls-17" d="M145.46,465.18c.77.16,1.2.66,1.35,1.41-.73-.2-1.19-.67-1.35-1.41Z"/>
  <path class="cls-17" d="M144.23,463.87c.76.19,1.21.67,1.35,1.43-.76-.19-1.21-.67-1.35-1.43Z"/>
  <path class="cls-17" d="M313.38,827.8c.73.07,1.19.46,1.36,1.17-.45-.39-.91-.78-1.36-1.17Z"/>
  <path class="cls-17" d="M837.69,827.58c.19-.76.7-1.18,1.47-1.3-.22.74-.7,1.17-1.47,1.3Z"/>
  <path class="cls-17" d="M143,462.55c.77.19,1.22.67,1.35,1.45-.79-.17-1.24-.65-1.35-1.45Z"/>
  <path class="cls-17" d="M839.05,826.37c.17-.76.66-1.18,1.42-1.29-.24.69-.71,1.12-1.42,1.29Z"/>
  <path class="cls-17" d="M141.79,461.22c.77.19,1.19.71,1.34,1.46-.82-.15-1.27-.63-1.34-1.46Z"/>
  <path class="cls-17" d="M1008.65,461.64c.11-.71.51-1.14,1.22-1.28-.41.43-.81.86-1.22,1.28Z"/>
  <path class="cls-17" d="M840.41,825.15c.17-.74.63-1.15,1.38-1.25-.46.42-.92.83-1.38,1.25Z"/>
  <path class="cls-17" d="M841.76,823.92c.15-.72.6-1.12,1.34-1.19-.45.4-.89.79-1.34,1.19Z"/>
  <path class="cls-17" d="M307.22,822.36c.76.14,1.28.56,1.48,1.33-.82-.08-1.31-.52-1.48-1.33Z"/>
  <path class="cls-17" d="M140.51,459.95c.76.18,1.23.64,1.41,1.4-.85-.09-1.32-.56-1.41-1.4Z"/>
  <path class="cls-17" d="M305.89,821.15c.77.14,1.27.56,1.46,1.33-.78-.12-1.27-.57-1.46-1.33Z"/>
  <path class="cls-17" d="M304.56,819.98c.77.12,1.27.53,1.45,1.29-.74-.15-1.22-.58-1.45-1.29Z"/>
  <path class="cls-17" d="M1009.87,460.35c.09-.74.51-1.18,1.25-1.31-.42.44-.83.87-1.25,1.31Z"/>
  <path class="cls-17" d="M303.27,818.75c.75.13,1.21.57,1.38,1.31-.7-.19-1.16-.63-1.38-1.31Z"/>
  <path class="cls-17" d="M1011.1,459.07c.12-.73.56-1.16,1.29-1.3-.43.43-.86.87-1.29,1.3Z"/>
  <path class="cls-17" d="M301.98,817.52c.76.11,1.21.54,1.36,1.29-.45-.43-.9-.86-1.36-1.29Z"/>
  <path class="cls-17" d="M1012.36,457.8c.12-.74.53-1.2,1.28-1.35-.43.45-.85.9-1.28,1.35Z"/>
  <path class="cls-17" d="M849.04,817.34c.18-.76.66-1.22,1.43-1.39-.11.84-.58,1.3-1.43,1.39Z"/>
  <path class="cls-17" d="M1013.58,456.5c.12-.76.57-1.2,1.33-1.34-.44.45-.88.89-1.33,1.34Z"/>
  <path class="cls-17" d="M1014.84,455.23c.14-.75.59-1.19,1.33-1.35-.44.45-.89.9-1.33,1.35Z"/>
  <path class="cls-17" d="M300.69,816.29c.73.12,1.18.55,1.34,1.27-.45-.42-.89-.85-1.34-1.27Z"/>
  <path class="cls-17" d="M850.33,816.09c.2-.76.71-1.18,1.47-1.34-.16.81-.64,1.26-1.47,1.34Z"/>
  <path class="cls-17" d="M299.4,815.07c.75.09,1.19.51,1.32,1.24l-1.32-1.24Z"/>
  <path class="cls-17" d="M1016.1,453.96c.13-.75.55-1.23,1.31-1.4-.18.71-.62,1.17-1.31,1.4Z"/>
  <path class="cls-17" d="M1017.32,452.66c.14-.77.59-1.23,1.36-1.39-.18.73-.63,1.19-1.36,1.39Z"/>
  <path class="cls-17" d="M1018.57,451.38c.15-.76.6-1.23,1.37-1.38-.18.73-.64,1.19-1.37,1.38Z"/>
  <path class="cls-17" d="M1019.83,450.11c.15-.76.59-1.25,1.36-1.41-.16.75-.62,1.22-1.36,1.41Z"/>
  <path class="cls-17" d="M851.67,814.88c.17-.77.64-1.23,1.42-1.39-.15.79-.62,1.26-1.42,1.39Z"/>
  <path class="cls-17" d="M298.11,813.85c.71.11,1.14.52,1.29,1.22-.43-.41-.86-.81-1.29-1.22Z"/>
  <path class="cls-17" d="M1021.07,448.82c.15-.76.6-1.24,1.36-1.43-.14.77-.6,1.25-1.36,1.43Z"/>
  <path class="cls-17" d="M128.77,447.73c.71.12,1.13.52,1.21,1.25-.4-.42-.81-.83-1.21-1.25Z"/>
  <path class="cls-17" d="M852.95,813.62c.19-.77.68-1.2,1.45-1.35-.18.77-.67,1.22-1.45,1.35Z"/>
  <path class="cls-17" d="M1022.31,447.53c.14-.78.6-1.25,1.37-1.43-.13.79-.59,1.26-1.37,1.43Z"/>
  <path class="cls-17" d="M296.83,812.61c.73.09,1.13.5,1.25,1.21-.42-.4-.83-.81-1.25-1.21Z"/>
  <path class="cls-17" d="M127.5,446.45c.71.13,1.12.54,1.24,1.25-.41-.42-.82-.83-1.24-1.25Z"/>
  <path class="cls-17" d="M1023.55,446.23c.17-.76.64-1.23,1.41-1.4-.14.8-.61,1.26-1.41,1.4Z"/>
  <path class="cls-17" d="M126.25,445.12c.73.14,1.12.59,1.23,1.31-.41-.44-.82-.87-1.23-1.31Z"/>
  <path class="cls-17" d="M1024.82,444.97c.16-.75.58-1.27,1.35-1.46-.08.82-.53,1.31-1.35,1.46Z"/>
  <path class="cls-17" d="M854.27,812.4c.17-.76.63-1.23,1.41-1.38-.17.76-.64,1.22-1.41,1.38Z"/>
  <path class="cls-17" d="M295.55,811.35c.71.1,1.12.51,1.23,1.21-.41-.4-.82-.81-1.23-1.21Z"/>
  <path class="cls-17" d="M124.99,443.84c.74.13,1.17.55,1.28,1.3l-1.28-1.3Z"/>
  <path class="cls-17" d="M1026.03,443.64c.16-.76.63-1.24,1.39-1.42-.08.84-.55,1.31-1.39,1.42Z"/>
  <path class="cls-17" d="M123.71,442.58c.74.13,1.17.56,1.3,1.29-.43-.43-.86-.86-1.3-1.29Z"/>
  <path class="cls-17" d="M122.47,441.24c.71.18,1.15.62,1.27,1.35-.42-.45-.84-.9-1.27-1.35Z"/>
  <path class="cls-17" d="M855.55,811.14c.16-.77.62-1.23,1.39-1.39-.17.75-.64,1.22-1.39,1.39Z"/>
  <path class="cls-17" d="M856.83,809.87c.16-.77.62-1.23,1.39-1.39-.17.75-.64,1.22-1.39,1.39Z"/>
  <path class="cls-17" d="M981.59,309.96c-.76-.29-1.02-.87-.98-1.64.65.36.99.9.98,1.64Z"/>
  <path class="cls-17" d="M172.05,305.79c.05.77-.22,1.35-.98,1.64-.01-.75.33-1.29.98-1.64Z"/>
  <path class="cls-17" d="M858.1,808.61c.16-.77.62-1.23,1.39-1.39-.17.75-.64,1.22-1.39,1.39Z"/>
  <path class="cls-17" d="M976.53,301.06c-.75-.29-.99-.88-.96-1.63.62.37.96.9.96,1.63Z"/>
  <path class="cls-17" d="M177.18,296.93c.02.76-.24,1.35-1,1.64-.02-.76.33-1.3,1-1.64Z"/>
  <path class="cls-17" d="M181.04,290.61c0,.76-.28,1.35-1.04,1.63,0-.77.35-1.3,1.04-1.63Z"/>
  <path class="cls-17" d="M968.95,288.34c-.75-.25-1.06-.81-1.07-1.56.64.33,1,.84,1.07,1.56Z"/>
  <path class="cls-17" d="M183.48,286.77c.02.76-.29,1.31-1.04,1.57.06-.71.42-1.23,1.04-1.57Z"/>
  <path class="cls-17" d="M962.47,278.32c-.76-.27-1.06-.85-1.1-1.61.72.3,1.1.83,1.1,1.61Z"/>
  <path class="cls-17" d="M190.02,276.71c-.04.76-.34,1.34-1.1,1.61,0-.78.38-1.31,1.1-1.61Z"/>
  <path class="cls-17" d="M959.92,274.52c-.76-.27-1.06-.85-1.1-1.61.72.3,1.1.83,1.1,1.61Z"/>
  <path class="cls-17" d="M192.57,272.91c-.04.76-.34,1.34-1.1,1.61,0-.78.38-1.31,1.1-1.61Z"/>
  <path class="cls-17" d="M956.31,269.23c-.73-.22-1.12-.69-1.1-1.47.37.49.73.98,1.1,1.47Z"/>
  <path class="cls-17" d="M196.22,267.77c-.02.77-.41,1.24-1.14,1.45.38-.48.76-.97,1.14-1.45Z"/>
  <path class="cls-17" d="M953.68,265.53c-.75-.24-1.07-.79-1.09-1.55.64.32,1.01.83,1.09,1.55Z"/>
  <path class="cls-17" d="M198.84,264c-.04.76-.38,1.3-1.14,1.53.09-.72.47-1.23,1.14-1.53Z"/>
  <path class="cls-17" d="M951.03,261.84c-.77-.25-1.09-.82-1.16-1.58.73.27,1.13.8,1.16,1.58Z"/>
  <path class="cls-17" d="M201.53,260.26c-.08.75-.39,1.33-1.15,1.59.01-.79.41-1.32,1.15-1.59Z"/>
  <path class="cls-17" d="M949.95,260.35c-.72-.22-1.08-.72-1.11-1.46.37.49.74.97,1.11,1.46Z"/>
  <path class="cls-17" d="M202.6,258.91c-.03.76-.42,1.24-1.15,1.45.38-.48.77-.97,1.15-1.45Z"/>
  <path class="cls-17" d="M947.3,256.69c-.77-.22-1.14-.74-1.21-1.52.7.27,1.11.77,1.21,1.52Z"/>
  <path class="cls-17" d="M205.35,255.19c-.08.75-.4,1.33-1.17,1.58.03-.79.43-1.31,1.17-1.58Z"/>
  <path class="cls-17" d="M946.15,255.24c-.71-.21-1.08-.69-1.12-1.42.37.47.75.95,1.12,1.42Z"/>
  <path class="cls-17" d="M206.42,253.84c-.03.76-.42,1.24-1.15,1.45.38-.48.77-.97,1.15-1.45Z"/>
  <path class="cls-17" d="M943.45,251.65c-.77-.22-1.13-.76-1.22-1.52.73.25,1.14.76,1.22,1.52Z"/>
  <path class="cls-17" d="M209.2,250.14c-.09.75-.44,1.32-1.21,1.56.04-.8.45-1.31,1.21-1.56Z"/>
  <path class="cls-17" d="M942.31,250.21c-.73-.2-1.13-.67-1.16-1.44.39.48.78.96,1.16,1.44Z"/>
  <path class="cls-17" d="M210.32,248.81c-.08.75-.47,1.25-1.22,1.45.41-.48.81-.96,1.22-1.45Z"/>
  <path class="cls-17" d="M938.42,245.25c-.76-.21-1.12-.74-1.2-1.5.68.27,1.09.77,1.2,1.5Z"/>
  <path class="cls-17" d="M214.25,243.79c-.09.77-.48,1.29-1.25,1.5.1-.76.53-1.25,1.25-1.5Z"/>
  <path class="cls-17" d="M937.25,243.8c-.71-.19-1.11-.64-1.16-1.38.39.46.77.92,1.16,1.38Z"/>
  <path class="cls-17" d="M215.37,242.46c-.07.75-.46,1.23-1.2,1.42.4-.47.8-.95,1.2-1.42Z"/>
  <path class="cls-17" d="M933.3,238.95c-.76-.21-1.16-.73-1.25-1.5.72.25,1.15.74,1.25,1.5Z"/>
  <path class="cls-11" d="M576.69,977.61c-46.39.35-91.57-7.1-135.9-20.43-4.52-1.36-6.47-3.65-7.62-7.88-5.98-21.98-13.1-43.6-20.39-65.17-1.3-3.86-3.31-6.28-7.09-8.13-74.81-36.55-132.38-91.18-172.36-163.92-21.97-39.98-35.95-82.68-42.37-127.83-3.97-27.9-4.96-55.88-2.58-83.96.28-3.27-1.4-5.09-3.2-7.15-15.29-17.54-30.92-34.79-47.42-51.22-3.47-3.45-4.07-6.45-2.98-11.12,21.13-90.9,66.65-167.6,135.2-231.01,2.84-2.62,5.28-3.1,9.05-2.15,22.57,5.75,45.33,10.74,68.17,15.33,3.98.8,7.13.23,10.64-2.13,44.67-30.02,93.51-49.96,146.56-59.78,30.82-5.71,61.89-7.66,93.1-5.85,71.44,4.14,136.98,26.08,196.33,65.96,3.64,2.45,6.77,3.18,11.11,2.32,22.23-4.4,44.42-9.04,66.33-14.79,5.45-1.43,8.79-.3,12.75,3.41,65.34,61.25,108.85,135.15,130.35,221.87,1.06,4.27,3.11,8.88,2.32,12.87-.8,4.06-5.51,6.68-8.56,9.88-14.31,15.01-28.35,30.25-42.04,45.83-2.62,2.98-3.37,5.89-3.14,9.71,7.02,116.53-30.91,216.45-112.83,299.74-30.21,30.72-65.32,55.02-104.24,73.73-3.74,1.8-5.87,4.11-7.21,8.03-7.61,22.36-14.78,44.86-21.17,67.59-.9,3.21-2.27,4.9-5.58,5.91-27.62,8.43-55.73,14.42-84.46,17.6-16.89,1.87-33.81,2.78-50.79,2.75Z"/>
  <path class="cls-2" d="M575.81,889.71c-48.03-.21-94.35-9.02-138.87-27.12-4.27-1.73-6.66-4.13-8.29-8.52-48.99-132.33-119.21-252.46-210.21-360.54-3.61-4.29-3.44-8.32-2.78-12.87,4.23-29.13,11.51-57.46,22.65-84.76,24.91-61.04,63.74-111.54,116.02-151.91,3.36-2.6,6.52-3.23,10.55-2.5,26.28,4.76,52.73,8.38,79.28,11.37,52.99,5.95,106.14,8.31,159.44,7.07,35.42-.82,70.75-3.1,105.99-6.99,26.55-2.93,53.01-6.46,79.28-11.26,3.51-.64,5.66.74,8.01,2.54,27.78,21.22,52.08,45.87,72.69,74.04,32.46,44.37,53.56,93.63,63.57,147.58,1.04,5.6,1.71,11.26,2.7,16.87.7,4-.32,7.12-3.04,10.34-24.63,29.06-47.67,59.34-69.35,90.64-53.76,77.63-97.84,160.36-132.33,248.16-3.09,7.85-6.12,15.73-8.93,23.68-1.07,3.03-2.72,4.92-5.73,6.15-32.34,13.24-65.82,22.06-100.63,25.74-13.3,1.41-26.61,2.43-40.01,2.31Z"/>
  <path class="cls-2" d="M760.05,220.37c-122.81,19.31-245.58,19.61-368.57.29,14.4-16.37,97.46-44.42,144.66-48.98,79.81-7.7,154.58,7.73,223.91,48.69Z"/>
  <path class="cls-2" d="M755.27,841.72c-.56-2.93,1.21-5.25,2.2-7.72,28.16-70.55,62.86-137.78,103.94-201.75,21.48-33.44,44.55-65.76,69.26-96.92,2.22-2.8,4.47-5.58,6.7-8.35,2.12,1.03,1.32,2.71,1.29,4-2.31,118.61-51.15,213.93-145.07,286.63-10.38,8.04-21.44,15.13-32.8,21.73-1.74,1.01-3.2,2.9-5.63,2.27l.11.11Z"/>
  <path class="cls-2" d="M213.23,527.82c77.8,95.19,138.95,199.87,183.89,314.16-22.4-4.64-88.03-62.35-117.22-103.2-45.08-63.08-67.46-133.35-66.67-210.96Z"/>
  <path class="cls-2" d="M442.14,891.72c89.36,30.79,177.81,30.74,266.23.12,1.03,1.97-.17,3.49-.6,4.92-3.55,11.69-7.36,23.31-10.85,35.02-.88,2.95-2.17,4.49-5.3,5.37-19.82,5.54-39.94,9.52-60.34,12.06-25.7,3.2-51.5,4.23-77.41,2.86-31.87-1.69-63.07-7.05-93.81-15.4-3.18-.86-4.87-2.32-5.84-5.65-3.68-12.75-7.76-25.38-12.08-39.28Z"/>
  <path class="cls-2" d="M192.66,463.2c-10.39-11.06-19.86-21.29-29.54-31.31-2.28-2.36-1.54-4.63-.92-7,2.89-11.01,6.1-21.92,9.85-32.67,22.1-63.28,57.49-118.15,105.52-165.03,2.18-2.12,4.18-3.11,7.27-2.37,13.35,3.2,26.73,6.23,41.08,9.54-71.16,60.84-115.77,136.58-133.25,228.84Z"/>
  <path class="cls-2" d="M958.26,461.99c-17.32-90.75-61.36-165.97-131.32-226.14.57-1.75,2.02-1.66,3.11-1.91,11.98-2.72,24.01-5.21,35.93-8.13,3.71-.91,6.21-.39,8.96,2.34,21.73,21.52,41.17,44.89,57.91,70.46,25.43,38.85,43.98,80.72,55.66,125.62.96,3.68.64,6.19-2.07,8.99-8.67,8.98-17.07,18.22-25.56,27.36-.57.61-1.08,1.29-2.61,1.4Z"/>
  <path class="cls-2" d="M755.16,841.61c.26.39-.02.91-.25.75-.83-.61-.24-.68.36-.65,0,0-.11-.11-.11-.11Z"/>
  <path class="cls-11" d="M657.17,416.44c7.37-2.58,14.54-5.67,22.3-7.16,9.7-1.86,19.34-1.78,29.08-.76,2.98.31,3.27,1.49,2.64,4.16-3.82,16.24-10.83,30.97-20.78,44.35-1.26,1.69-2.58,3.33-4.19,5.4,39.04,23.79,54.95,59.34,52.73,104.19-3.21-4.79-6.54-9.5-9.59-14.39-5.03-8.06-11.85-13.65-21.19-15.99-1.4-.48-3.06-1.43-2.66,1.42,14.9,16.11,26.09,34.29,30.75,55.93,6.15,28.56,1.25,55.29-13.99,80.19-1.73,2.82-3.58,5.57-5.69,8.85-2.2-3.95-2.49-7.54-3.4-10.93-2.42-9.07-5.76-17.65-12.51-24.53-2.82-2.88-5.85-5.46-9.72-7.11-1.15,2.29.65,3.71,1.35,5.27,5.01,11.26,8.64,22.87,9.52,35.23,1.59,22.43-5.54,41.93-20.04,58.94-11.57,13.57-25.66,23.71-42.51,31.06-.28-7.08,1.74-13.38,2.04-19.85.67-14.63-2.12-28.12-12.31-39.35-.82-.91-1.5-2.11-3.24-2.03.5,4.97,1.09,9.92,1.49,14.88,1.32,16.43-.34,32.48-7.05,47.7-9.71,22.03-27.36,34.88-49.91,41.76-10.57,3.22-21.39,4.78-32.43,3.87-.69-2.19.74-3.47,1.63-4.76,5.96-8.62,7.97-18.48,9.42-28.57,3-20.75,1.02-41.25-3.09-61.63-.48-2.38-.32-5.03-2.48-8.22-11.86,25.23-12.52,51.39-12.9,77.42-2.28.75-3.08-.83-4.12-1.67-11.73-9.46-22.82-19.54-31.69-31.84-20.45-28.32-24.2-58.65-11.31-91.06.66-1.67,2.22-3.15,1.41-5.89-8.88,6.61-15.92,14.63-22.96,23.15-14.73-32.2-13.3-61.17,14.76-86.68-5.48-.56-9.81-.92-14.04-1.84-18.85-4.09-30.73-17.38-32.48-36.47-.31-3.38.06-6.67.79-10.37,8.53,2.73,16.73,5.44,24.98,7.99,10.19,3.15,20.39,3.75,30.51-.35,6.51-2.64,12.35-6.41,18.48-10.85-12.16-6.42-24.27-10.41-37.82-8.98-11.67,1.23-22.81,4.59-34.02,7.76-11.41,3.22-22.75,6.71-34.76,7.15-25.55.92-44.35-10.48-57.83-31.39-5.15-7.99-13.62-28.48-15.03-35.25,5.67,4.14,10.83,8.09,16.17,11.77,13.67,9.41,28.8,15.01,45.35,16.75,17.68.11,35.36.45,52.76-3.73,11.27-2.71,22.69-2.84,34.01-.25,14.93,3.42,26.67,11.46,34.76,24.54.97,1.57,1.66,4.04,3.97,3.38,3.82-1.08,6.46-3.99,8.24-7.42,1.17-2.25-.31-4.11-2.14-5.37-4.08-2.81-8.88-4.01-13.57-5.21-15.36-3.93-28.77-11.01-39.48-22.86-7.97-8.82-18.24-8.08-28.31-5.61-12.91,3.17-24.19,9.96-35.01,17.5-2.13,1.49-4.07,4.01-7.31,2.55-.54-.96-.53-1.92-.03-2.89,3.02-17.08,7.14-33.83,15.34-49.31,4.29-8.1,9.62-15.4,16.82-21.22,14.05-11.37,29.97-12.75,46.88-8.58,4.52,1.11,8.98,2.58,13.14,4.67,2.37,1.19,3.78.94,5.19-1.35,1.76-2.87,3.69-5.66,6.29-7.9,4.95-2.61,10.08-1.76,15.21-.76,2.78,2.01.63,3.7-.52,5.25-1.63,2.2-3.85,3.93-5.44,6.18-.95,1.33-2.66,2.59-1.92,4.4.84,2.06,3.11,2.01,4.95,2.17,4.28.38,8.39-1,12.58-1.53,11.12-1.43,22.01-1.22,32.19,4.3,1.49.81,3.09,1.47,4.38,2.56,2.38,2,6.05,3.97,4.72,7.45-1.41,3.68-4.86,7.61-8.9,7.01-5.92-.87-7.28,2.65-9.36,6.38-10.11,18.1-32.1,22.24-47.65,8.94-5.85-5.01-9.43-11.71-10.56-19.04-1.19-7.74-5.56-11.04-12.41-13.26-25.64-8.31-43.58,3.24-55.35,26.28-1.5,2.94-3.07,5.99-3.33,10.08,4-.59,7.34-2.41,10.83-3.58,7.73-2.59,15.59-3.89,23.75-3.53,9.06.41,17.16,3.23,23.35,9.94,9.61,10.41,20.96,17.58,34.89,20.78,6,1.38,11.58,4.02,17.04,6.89,9.76,5.13,17.25,18.48,5.69,29.9-14.01,13.83-29.74,25.21-48.8,31.01-9.26,2.82-18.88,1.87-28.26-.64-2.19-.59-4.31-1.56-7.5-1.85,4.45,6.33,9.87,9.57,16.39,11.42,14.44,4.09,28.94,2.73,43.52.96,7.33-.89,14.67-2.16,22.12-1.94,1.65.26,3.34.44,4,2.35-2.05,3.69-6.08,4.24-9.44,5.82-12.78,5.97-26.5,10.04-37.65,19.24-11.83,9.76-18.54,22.17-20.21,37.32-.39,3.54-.03,7.01,1.65,10.87,14.44-11.53,29.16-21.15,47.82-22.12,1.36.31,2.47.91,2.9,2.35.23,3.59-2.25,5.75-4.34,8.1-15.78,17.76-24.89,37.98-24.01,62.19.64,17.64,7.37,32.76,18.08,46.39,2.29,2.92,4.26,6.24,8.21,8.97,1.7-10.01,2.33-19.46,4.8-28.57,3.78-13.93,7.77-27.75,18.73-38.16,2.87-2.73,5.78-6.85,10-5.78,4.2,1.06,3.81,6.17,4.7,9.7,5.57,22.17,9.71,44.56,9.36,67.53-.15,9.92-1.18,19.81-3.23,29.52-.95,4.46.17,5.06,4.37,3.98,25.07-6.44,43.21-28.49,46.63-55.19,2.29-17.84-1.09-34.84-4.73-51.98-.51-2.38-2.13-5.16.15-7.17,2.45-2.16,5.29-.45,7.79.52,23.54,9.12,36.85,26.08,39.5,51.2.19,1.79-.42,4.2,1.85,4.93,1.86.6,2.89-1.42,4.14-2.46,23.36-19.34,31.79-48.22,22.55-77.09-3.57-11.15-8.9-21.43-15.38-31.16-1.81-2.71-5.06-5.78-3.01-9.01,1.98-3.12,6.24-1.92,9.52-1.61,17.12,1.61,31.33,8.61,41.57,22.73.49.68.96,1.4,1.66,1.9.16.12.37.18,1.37.67,3-7.46,4.34-15.2,4.87-23.01,1.88-28.15-8.36-51.93-26.46-73.07-5.83-6.81-12.9-12.2-18.92-18.7-4.18-4.51-3.6-6.59,2.41-8.23,11.05-3.02,22.14-3.69,33.23.01,1.48.49,3.32,1.87,4.65.17,1-1.28-.22-2.83-.76-4.16-7.46-18.46-19.95-32.64-36.92-43.06-3.46-2.13-6.23-1.39-9.3.83-7.09,5.13-14.9,8.93-23.28,11.47-3.97,1.2-8.01,2.18-9.94-3.31-2.1-5.98-.88-9.7,4.63-11.77,22.16-8.36,35.85-25.51,47.37-44.93,1.01-1.71,2.65-3.84,1.05-5.81-1.39-1.7-3.61-.48-5.42-.22-17.38,2.45-32.25,10.03-44.92,22.02-2,1.89-3.8,4-5.97,5.7-4.23,3.3-7.77,2.35-12.56-2.74-3.56-3.79-.69-6.13,1.65-8.49,4.91-4.95,9.49-10.29,15.64-13.85,5.48-3.15,9.9-8.33,16.8-8.79Z"/>
  <path class="cls-4" d="M657.17,416.44c-4.97,3.09-9.95,6.17-14.92,9.26-4.54,1.17-9.17,1.24-13.83,1.24-34.52-.04-69.05,0-103.57-.06-3.51,0-7.28.76-10.31-1.95-5.39-.1-10.79-.2-16.18-.3-3.62-10.32-8.41-20.15-12.7-30.18-10.35-24.15-20.81-48.25-31.21-72.37-.81-1.88-2.12-3.64-1.89-5.86,15.19-2.21,28.68,10.12,28.68,26.14-.37,1.07-.02,2.25-.52,3.26-.21.27-.44.57-.61.91.17-.29.37-.57.59-.85.47-.89,1.23-1.43,2.14-1.79,7.84-6.51,18.63-5.15,26.44,3.22,5.35,5.73,7.76,12.25,6.83,20.18-1.22,10.34-9.05,17.15-19.56,16.38-1.83-.13-3.64-.6-6.04-.08,6.98,11.57,16.9,17.72,29.79,19.6,11.27,1.64,20.36-2.48,27.93-10.39,4.96-5.19,9.37-10.85,12.64-17.29-.56-.94-1.33-.42-2.05-.28-4.51,1.24-9.03,2.1-13.72.82-10.32-2.83-17.63-13.33-16.21-23.4,1.7-12.03,10.71-19.69,22.68-19.18,2.29.1,4.56.51,6.87.78-.25-2.19-1.73-3.81-2.49-5.74-3.51-8.87-.66-19.59,6.65-24.98,8.19-6.04,19.4-5.83,27.05.5,7.68,6.36,9.96,16.61,5.68,25.69-.62,1.32-1.29,2.63-1.94,3.94.42,1.01,1.15.31,1.75.32,8.64-1.48,16.58-.44,22.51,6.78,5.37,6.55,6.73,14,3.85,21.98-2.84,7.84-8.8,12.18-16.86,13.73-2.29.44-4.63.29-6.91-.47-2.35-.79-4.76-1.42-8.16-2.42,6.7,11.26,13.91,20.73,24.7,26.74,10.66,5.95,27.19,3.4,36.85-5.29,3.57-3.21,7.01-6.6,9.13-11.61-11.11.26-19.05-3.86-22.36-14.38-2.87-9.11-1.91-17.88,5.66-24.38,8.61-7.39,18.16-6.7,28.14-.49-.71-5.27-2.1-9.64-.76-14.37,2.93-10.34,14.71-19.91,25.38-19.96,2.87-.01,3.68,1.07,2.48,4.05-3.84,9.59-7.84,19.12-11.76,28.69-9.52,23.22-19.03,46.45-28.52,69.68-.55,1.35-.89,2.79-1.32,4.19Z"/>
  <path class="cls-2" d="M394.9,511.24c4.3-1.9,7.76-5.08,11.63-7.63,9.95-6.56,20.4-12,32.12-14.74,4.81-1.12,9.68-1.28,14.53-.68,4.73.58,8.89,2.42,12.16,6.15,10.34,11.79,23.15,19.53,38.51,23.17,4.93,1.17,9.8,2.74,14.34,5.06,6.54,3.33,7.04,6.4,1.91,11.4-1.96,1.91-4.1,3.67-6.22,5.4-.95.77-1.75,1.88-3.63,1.9-2.34-2.92-2.98-7.05-5.53-10.15-8.48-10.36-19.22-17.05-32.28-20.01-10.94-2.48-21.88-2.15-32.75.46-16.45,3.96-33.08,4.76-49.87,3.02-1.02-.11-1.99-.6-2.99-.91,2.49-.14,5.16.16,6.55-2.66.5.12,1.01.19,1.52.22Z"/>
  <path class="cls-8" d="M705.5,537.66c-.88-.24-1.6-.81-1.48-1.71.15-1.13,1.23-.98,1.97-.79.77.19,1.46.71,2.18,1.08-.96.35-2.26.05-2.66,1.42Z"/>
  <path class="cls-10" d="M480.25,346.34c-.13-1.44-.29-2.89.98-3.99.53.51,1.07,1.03,1.6,1.54-.48,1.23-1.32,2.07-2.63,2.39l.05.05Z"/>
  <path class="cls-16" d="M394.9,511.24c-.74,1.52-1.09.36-1.52-.22.44-.9.89-1.8,1.33-2.7.06.97.13,1.94.19,2.92Z"/>
  <path class="cls-12" d="M595.13,333.97c-.45.75-1.17,1.2-1.95.84-.77-.35-.39-.85.2-1.16.58.11,1.17.21,1.75.32Z"/>
  <path class="cls-1" d="M558.81,375.23c.47-.75,1.19-1.18,2.02-.93.78.24.64.79.03,1.21-.68-.09-1.36-.19-2.05-.28Z"/>
  <path class="cls-3" d="M514.54,424.92c18.25-.06,36.49-.15,54.74-.17,22.07-.03,44.13-.03,66.2.02,2.27,0,4.69-.63,6.78.93-7.37,5.35-14.31,11.16-20.06,18.16.97,2.44,3.05,3.28,4.61,4.58,5.04,4.19,4.34,3.99,8.48-.29,8.15-8.46,17.47-15.34,28.11-20.41,8.9-4.24,18.29-6.63,28.09-7.45,1.2-.1,2.54-.52,3.7.82.16,2.27-1.08,4.31-2.06,6.33-7.84,16.07-19.02,29.38-33.58,39.84-5.02,3.61-10.55,6.23-16.43,8.19-4.32,1.44-4.33,1.59-3.55,5.75,1.53,8.14,1.62,8.22,9.77,5.57,8.53-2.77,16.57-6.61,23.51-12.3,2.82-2.32,4.78-2.14,7.79-.42,20,11.48,33.35,28.3,41.14,49.73.21.59.36,1.22.44,1.84.05.39-.08.8-.21,1.83-7.42-2.32-14.71-4.87-22.54-4.9-7.9-.03-15.44,1.52-23.82,4.26,3.02,2.69,5.48,4.91,7.98,7.11,12.16,10.71,22.79,22.68,30.54,36.98,13.4,24.73,15.47,50.45,6.68,77.09-.26.79-.42,1.65-1.98,2.31-11.79-19.8-29.62-28.8-53-27.38-.79,2.42,1.14,3.88,2.18,5.48,5.87,9.06,11.22,18.34,15.17,28.44,14.13,36.09,1.36,67.76-26.66,89.18-.31.23-.77.27-1.66.56-1.32-2.85-.98-5.99-1.3-8.97-2.09-19.78-11.42-35.03-28.6-45.36-5.1-3.07-10.74-4.84-16.96-6.58.09,5.02,1.83,9.31,2.73,13.72,2.96,14.52,4.83,29.02,3.37,43.95-2.8,28.65-20.22,50.2-47.96,58.3-2.4.7-4.83,1.31-8.38,2.26,10.42-39.26,3.14-76.7-6.78-115.09-5.44,3.86-10.16,7.49-13.84,12.38-7.14,9.49-10.76,20.49-13.64,31.79-2.66,10.45-3.71,21.16-5.12,31.78-.55.04-1.1.24-1.28.07-13.28-13.01-23.03-28.08-26.77-46.49-4.14-20.37.05-39.36,10.02-57.32,3.82-6.88,8.67-12.99,13.91-18.83,1.54-1.72,2.88-3.63,4.31-5.45.35-2.93-1.4-2.19-3.01-1.71-18.92,2.39-34.55,11.42-48.68,24.9-3.55-13.87-1.42-25.94,5.11-37.22,6.99-12.07,17.43-20.45,30.13-26.06,10.42-4.61,20.93-9.02,31.41-13.52.48-.9,1.39-1.29,2.31-1.88-2.12.67-4.25-.55-6.2.5-11.18,1.13-22.34,2.35-33.53,3.36-10.61.96-21.22.74-31.59-1.88-8.74-2.21-15.77-6.83-19.85-15.8,3.75-.01,6.63,1.46,9.57,2.36,16.19,4.96,31.35,2.85,45.77-5.85,8.54-5.15,16.85-10.62,24.34-17.2,2.85-2.51,5.63-5.16,8.09-8.04,6.23-7.29,5.23-17.05-2.2-23.24-2.96-2.47-6.44-4.07-9.94-5.56-5.27-2.24-10.76-3.83-16.28-5.33-11.37-3.08-21-9.06-28.64-17.94-6.22-7.24-14.16-10.44-23.39-11.1-10.84-.78-21,1.99-30.9,6.03-2.15.88-4.28,1.8-6.38,2.68-1.46-1.52-.43-2.85.04-4.16,3.12-8.57,6.97-16.75,12.84-23.86,11.54-13.98,26.19-18.63,43.76-14.45,2.26.54,4.42,1.45,6.66,2.08,6.59,1.86,10.24,5.25,11.4,12.86,1.89,12.38,8.79,21.83,21.84,25.3,13.16,3.5,25.76-1.63,32.71-13.33,1.4-2.35,2.47-4.89,3.59-7.39,1.07-2.39,3.02-3.48,5.03-1.93,2.97,2.28,4.82,1.25,6.9-1.04,1.4-1.55,3.06-2.87,4.99-4.65-2.38-3.52-5.65-5.63-9.18-7.44-10.43-5.35-21.42-6.18-32.8-4.1-5.61,1.03-11.2,2.37-16.97.64-4.27-1.28-4.6-1.78-1.72-5.35,3.44-4.27,7.11-8.34,10.68-12.5Z"/>
  <path class="cls-5" d="M358.12,519.75c19.67,6.82,39.89,9.33,60.64,7.76,9.1-.69,18.02-2.44,26.92-4.36,7.24-1.56,14.51-1.31,21.81-.35-.15,1.54-1.21,1.5-1.93,1.58-14.85,1.51-28.89,6.31-43.14,10.3-9.18,2.57-18.44,4.56-28.11,4.48-15.43-.14-27.68-6.67-37.84-17.76-.2-1.29.22-1.97,1.64-1.64Z"/>
  <path class="cls-7" d="M502.51,454.55c2.75.35,4.98.94,6.49,3.97,2.16,4.32,6.39,5.97,11.2,5.55,4.82-.42,8.45-2.77,9.88-7.51,1.15-3.82,3.42-4.31,6.7-3.06-1.46,11.17-10.58,18.62-20.2,17.25-8.16-1.16-14.74-8.57-14.08-16.19Z"/>
  <path class="cls-6" d="M529.68,581.76c.74-.31,1.47-.83,2.23-.88,1.82-.13,3.66-.04,5.87-.04-1.22,1.56-2.65,2.03-4.2,2.3-.91-1.55-2.63-.82-3.89-1.37Z"/>
  <path class="cls-15" d="M515.6,635.03c.72-.35,1.42-.87,2.18-1.02.88-.17,2.22-.8,2.58.51.29,1.07-.84,1.72-1.75,2.22-.6-1.28-1.82-1.46-3.01-1.71Z"/>
  <path class="cls-18" d="M358.12,519.75c-.55.55-1.1,1.1-1.64,1.64-.88-.63-2.46-1.28-1.35-2.49.86-.95,2.18-.13,3,.85Z"/>
  <path class="cls-9" d="M480.2,346.29c-.19.22-.39.43-.58.65.03-.14,0-.35.09-.41.14-.11.36-.13.54-.18,0,0-.05-.05-.05-.05Z"/>
  <path class="cls-11" d="M571.25,602.78c13.64-11.13,13.89-26.88,14.61-42.5,12.63,8.18,26.15,26.28,17.3,55.32,11.72-8.54,17.11-19.97,18.31-33.63.94-10.64-.87-21-3.27-31.32-.65-2.81-1.86-5.58-1.62-9.43,9.74,3.18,17.98,7.79,24.8,14.86,6.78,7.02,10.22,15.81,12.97,25.31,2.66-4.6,3.55-8.17,4.05-14.37,1.43-17.65-3.9-33.42-14.15-47.47-3.19-4.37-3.85-8.02-1.7-12.61.8-1.7.83-3.73,2.19-5.2,29.82,25.86,40.71,75.35.45,117.9-1.44-1.66-.79-3.6-.78-5.33.06-10.35,0-20.69-2.56-30.81-1.33-5.24-3.05-10.37-7.14-14.72.92,21.8-4.33,41.09-21.83,55.36-10.62,8.66-23.46,11.65-38.04,14.1,9.08-13.34,18.09-25.23,18.09-41.26-10.9,21.93-30.66,26.03-52.24,26.8-.5-2.21,1.13-2.85,2.12-3.77,3.87-3.61,7.75-7.22,10.79-11.59,4.69-6.73,6.9-14.1,4.33-22.13-1.16-3.61-.15-5.17,3.06-6.8,7.72-3.92,7.76-3.97,9.8,4.29,1.56,6.29,1.27,12.52.44,19.01Z"/>
  <path class="cls-13" d="M680.09,434.22c-7,13.45-16.75,23.44-31.53,28.01-2.03.63-3.22.16-4.01-1.71-.65-1.55-1.24-3.12-2.01-4.61-.69-1.34-.5-2.42.6-3.35,10.4-8.75,21.51-16.17,35.2-18.82.36-.07.78.21,1.74.49Z"/>
  <path class="cls-14" d="M578.01,525.1c-6.98,4.94-14.24,5-20.74.41-3.48-2.46-6.22-5.68-9.16-8.7-5.93-6.1-6.73-6.63-14.42-9.87,4.11-1.78,7.18-1.72,11.52.06,4.2,1.73,7.4,4.8,10.73,7.72,6.26,5.49,12.92,10.26,22.07,10.37Z"/>
</svg>