<?xml version="1.0" encoding="UTF-8"?>
<svg id="Layer_1" xmlns="http://www.w3.org/2000/svg" viewBox="0 0 1080 1080">
  <defs>
    <style>
      .cls-1 {
        fill: #133983;
      }

      .cls-2 {
        fill: #133883;
      }

      .cls-3 {
        fill: #163979;
      }

      .cls-4 {
        fill: #17397a;
      }
    </style>
  </defs>
  <path class="cls-1" d="M60.81,421.17c9.9-19.63,22.05-35.58,35.4-50.56,54.28-60.97,122.36-100.68,198.51-127.82,101.33-36.12,205.76-47.15,312.61-38.64,103.01,8.21,200.51,34.75,289.21,88.96,47.11,28.79,87.91,64.87,118.7,111.32,2.14,3.22,4.08,6.58,6.04,9.91.63,1.08,1.03,2.29,2.45,5.5-17.51-3.25-33.65-6.1-49.74-9.25-98.44-19.29-197.7-32.29-297.84-38.41-24.46-1.49-48.92-4.27-73.45-2.24-25.68,2.12-30.85,8.57-31.29,33.99-2.06,117.95-2.26,235.89.53,353.83.75,31.84,1.11,63.7,2.42,95.52.36,8.79-2.61,11.23-10.65,10.98-12.91-.41-25.84-.37-38.76-.27-6.04.05-7.93-2.07-7.64-8.42,5.66-121.74,5.23-243.56,4.59-365.39-.17-31.81-.14-63.62-.66-95.42-.18-10.79-5.42-18.73-16.43-22.11-10.89-3.35-22.02-3.72-33.24-3.34-131.92,4.39-262.13,22.66-391.46,48.11-5.82,1.15-11.65,2.27-19.29,3.76Z"/>
  <path class="cls-2" d="M424.75,434.24c25.94,3.39,39.84,21.6,35.56,51.11-4.93,33.95-12.01,67.61-18.8,101.27-16.71,82.83-37.47,164.7-58.91,246.4-2.63,10.03-5.06,13.48-16.87,10.56-91.05-22.52-175.25-58.54-245.11-122.8-46.43-42.71-79.5-93.52-88.69-157.35-4.09-28.39-1.93-56.58,5.02-84.4,1.07-4.28,2.33-7.4,7.92-8.39,82.54-14.54,164.97-29.73,248.87-34.42,1.67-.09,3.37.42,5.06.65,12.54-2.26,25.19-.3,37.77-1.09,4.03-.25,8.45,1.69,12.06-1.69,8.57-2.96,17.37-1.7,26.12-1.44,16.63,1.99,33.41-.98,50.02,1.58Z"/>
  <path class="cls-2" d="M708.92,431.77c109.17,2.06,217.09,15.14,324.11,36.34,9.13,1.81,14.52,4.87,16.95,15.21,18.3,78.08-4.56,145.33-54.07,205.04-53.76,64.82-124.6,104.61-202.3,133.54-22.96,8.55-46.51,15.24-70.23,21.46-8.09,2.12-10.02-.29-11.97-7.28-24.25-86.87-45.99-174.34-62.7-263-5.25-27.83-11.13-55.55-15.77-83.48-5.89-35.46,11.61-56.34,47.55-57.77,9.46-.38,18.96-.06,28.43-.06Z"/>
  <path class="cls-3" d="M424.75,434.24c-16.67-.54-33.46,2.5-50.02-1.58,16.71-.67,33.49-3.5,50.02,1.58Z"/>
  <path class="cls-4" d="M348.62,434.11c-10.58,6.59-22.21,1.64-33.29,2.89-5.44.61-11.02-.04-16.53-.11,16.43-4.03,33.19-2.32,49.82-2.78Z"/>
</svg>