<?xml version="1.0" encoding="UTF-8"?>
<svg id="Layer_1" xmlns="http://www.w3.org/2000/svg" viewBox="0 0 1080 1080">
  <defs>
    <style>
      .cls-1 {
        fill: #0e2049;
      }
    </style>
  </defs>
  <path class="cls-1" d="M542.79,102.15c-245.26,0-443.23,197.98-443.23,443.23s197.98,443.23,443.23,443.23,443.23-197.98,443.23-443.23S788.04,102.15,542.79,102.15M542.79,154.23c44.32,0,87.17,8.13,126.69,21.79l-121.89,263.35c-1.48,1.48-1.48,4.8-4.8,4.8s-3.32-3.32-4.8-4.8l-121.89-263.35c39.52-13.67,82.37-21.42,126.69-21.42M354.41,203.35l141.1,303.98c2.95,6.28,6.28,8.13,10.34,8.13h73.87c4.43,0,7.39-1.85,10.71-8.13l139.25-303.98c58.36,33.24,108.59,80.89,144.05,137.77l-197.98,383.03c-1.48,3.32-3.69,4.8-4.8,4.8-2.95,0-2.95-2.95-4.8-4.8l-75.72-167.69c-3.32-6.28-6.28-7.76-10.71-7.76h-73.87c-4.06,0-7.39,1.48-10.71,7.76l-75.72,167.69c-1.85,1.85-1.48,4.8-4.8,4.8s-3.32-2.95-4.8-4.8l-199.46-383.03c34.72-56.88,85.69-104.53,144.05-137.77M175.64,417.21l227.9,443.23c2.95,6.28,6.28,11.08,14.41,11.08s10.71-4.8,14.04-11.08l106.01-236.02c1.48-2.95,3.32-5.17,4.8-5.17,3.32,0,3.32,3.69,4.8,5.17l107.48,236.02c3.32,6.28,6.28,11.08,14.41,11.08s11.08-4.8,14.04-11.08l228.63-443.23c13.67,39.52,21.79,82.37,21.79,128.17-1.85,213.86-177.29,391.15-391.15,391.15s-389.31-177.29-389.31-391.15c0-44.32,7.76-86.8,22.16-128.17Z"/>
</svg>